<?xml version="1.0" encoding="utf-8"?>
<!-- Generator: Adobe Illustrator 24.3.0, SVG Export Plug-In . SVG Version: 6.00 Build 0)  -->
<svg version="1.1" id="Layer_1" xmlns="http://www.w3.org/2000/svg" xmlns:xlink="http://www.w3.org/1999/xlink" x="0px" y="0px"
	 width="2665.697px" height="1110.337px" viewBox="167.151 944.831 2665.697 1110.337"
	 enable-background="new 167.151 944.831 2665.697 1110.337" xml:space="preserve">
<g>
	<path fill="#EAE6DE" d="M167.151,944.831h2665.697v1110.336H167.151V944.831z"/>
	<g>
		<path fill="#010202" d="M411.915,1358.705v282.59h75.653v-122.381h162.434v122.381h75.654v-282.59h-75.654v102.355H487.568
			v-102.355H411.915z M1571.204,1358.705v60.078h109.03v222.512h75.655v-222.512h109.031v-60.078H1571.204z M2194.238,1358.705
			v60.078h-200.261v42.277h169.109v57.854h-169.109v62.303h200.261v60.078h-275.915v-282.59H2194.238z"/>
		<path fill="#010202" d="M213.879,991.56h2572.243v1016.882H213.879V991.56z M167.151,2055.168h2665.697V944.831H167.151V2055.168z
			"/>
		<path fill="#010202" d="M2721.593,1943.912H278.407v-887.824h2443.186V1943.912z M262.831,1959.488h2474.338v-918.976H262.831
			V1959.488L262.831,1959.488z"/>
		<path fill="#010202" d="M2474.604,1476.636h-135.733v-62.304h135.733C2512.432,1414.333,2512.432,1476.636,2474.604,1476.636
			 M2507.981,1532.266c46.727-6.676,68.979-42.279,68.979-89.006s-40.053-82.329-86.779-82.329h-226.963v282.589h75.653v-106.805
			h77.88l84.555,106.805h95.681L2507.981,1532.266L2507.981,1532.266z M1206.284,1358.705h80.104l155.759,193.586v-193.586h77.88
			v282.59h-89.005l-149.083-184.684v184.684h-75.654V1358.705z M965.971,1581.217c48.952,0,80.104-17.801,80.104-57.854v-164.659
			h75.654v178.01c0,73.428-73.43,111.256-160.209,111.256c-84.555,0-155.759-37.828-155.759-111.256v-178.01h75.654v164.659
			C883.641,1563.416,917.018,1581.217,965.971,1581.217"/>
	</g>
</g>
</svg>
