<?xml version="1.0" encoding="utf-8"?>
<!-- Generator: Adobe Illustrator 24.3.0, SVG Export Plug-In . SVG Version: 6.00 Build 0)  -->
<svg version="1.1" id="Layer_1" xmlns="http://www.w3.org/2000/svg" xmlns:xlink="http://www.w3.org/1999/xlink" x="0px" y="0px"
	 viewBox="0 0 162.8 67.9" style="enable-background:new 0 0 162.8 67.9;" xml:space="preserve">
<style type="text/css">
	.st0{fill:#EB0029;}
	.st1{fill:#EAE6DE;}
</style>
<g>
	<polygon class="st0" points="0,67.9 162.8,67.9 162.8,0 0,0 	"/>
	<polygon class="st1" points="156,61.1 6.8,61.1 6.8,6.8 156,6.8 	"/>
	<polygon points="15,25.3 15,42.6 19.6,42.6 19.6,35 29.5,35 29.5,42.6 34.1,42.6 34.1,25.3 29.5,25.3 29.5,31.5 19.6,31.5 
		19.6,25.3 	"/>
	<path d="M48.8,38.9c2.9,0,5-1.1,5-3.6v-10h4.6v10.8c0,4.5-4.5,6.8-9.7,6.8c-5.2,0-9.5-2.3-9.5-6.8V25.3h4.6v10.1
		C43.8,37.8,45.8,38.9,48.8,38.9"/>
	<polygon points="85.8,25.3 85.8,28.9 92.4,28.9 92.4,42.6 97.1,42.6 97.1,28.9 103.7,28.9 103.7,25.3 	"/>
	<polygon points="123.9,25.3 123.9,28.9 111.6,28.9 111.6,31.6 121.9,31.6 121.9,35.1 111.6,35.1 111.6,38.9 123.9,38.9 123.9,42.6 
		106.9,42.6 106.9,25.3 	"/>
	<path d="M143,35.9c2.8-0.4,4.2-2.5,4.2-5.5c0-2.9-2.4-5.1-5.3-5.1h-14v17.3h4.7V36h4.7l5.2,6.6h5.8L143,35.9L143,35.9z M141,32.5
		h-8.3v-3.8h8.3C143.2,28.7,143.2,32.5,141,32.5"/>
	<polygon points="63.4,25.3 68.4,25.3 77.9,37.1 77.9,25.3 82.6,25.3 82.6,42.6 77.2,42.6 68.1,31.3 68.1,42.6 63.4,42.6 	"/>
</g>
</svg>
