<svg height="45" viewBox="0 0 117 45" width="117" xmlns="http://www.w3.org/2000/svg" xmlns:xlink="http://www.w3.org/1999/xlink"><mask id="a" fill="#fff"><path d="m.027.18727273h116.64855v34.20727277h-116.64855z" fill="#fff" fill-rule="evenodd"/></mask><mask id="b" fill="#fff"><path d="m.027 0h48.88395v39.9113636h-48.88395z" fill="#fff" fill-rule="evenodd"/></mask><g fill="none" fill-rule="evenodd"><path d="m.027 34.3945455h116.64855v-34.20727277h-116.64855z" fill="#da2f2a" mask="url(#a)"/><g fill="#fffffe"><path d="m20.27835 20.6968182h-3.9285v-4.6004546h8.79615v3.9686364c0 6.32-4.13775 9.9040909-9.76905 9.9040909-6.36255 0-10.6398-4.9177273-10.6398-12.6786364 0-7.47863632 4.45095-12.67681814 10.81395-12.67681814 4.97115 0 7.61265 2.35181819 9.2124 6.14545454l-4.6242 1.9318182c-.9036-1.8272727-2.01555-3.19681819-4.6584-3.19681819-3.64995 0-5.7366 3.23136359-5.7366 7.79636359 0 4.5313637 2.11995 7.8659091 5.7708 7.8659091 4.01445 0 4.60755-2.5240909 4.76325-3.7209091.02835-.3095454.0459-.475.04455-.7386363"/><path d="m52.59375 29.5836364v-24.5836364h16.89705v4.81181818h-12.03165v5.09045452h9.02385v4.7763637h-9.02385v5.0922727h12.03165v4.8127273z"/><path d="m89.82315 29.5836364h5.35455l-9.24795-24.5836364h-4.7277l-9.31815 24.5836364h5.2137s.7956-2.2790909 1.82475-5.2345455h9.0774c1.02825 2.9554546 1.8234 5.2345455 1.8234 5.2345455m-9.27855-9.905c1.4391-4.1459091 2.80485-8.1118182 2.91735-8.5336364.1116.4218182 1.47735 4.3877273 2.9142 8.5336364z"/><path d="m104.94765 9.84545455v19.73727275h-4.86675v-19.73727275h-6.98805v-4.84545455h18.84555v4.84545455z"/><g transform="translate(0 5)"><path d="m40.4271 11.0963636h-6.36255v-6.32181815h6.36255c2.15505 0 3.4758.91363637 3.4758 3.125 0 2.14409095-1.21545 3.19681815-3.4758 3.19681815zm8.48385-3.30090905c0-5.23318182-3.79035-7.79545455-8.37945-7.79545455h-11.3337v24.5836364h4.86675v-8.8531819h4.90365l4.3452 8.8531819h5.59755l-4.66065-9.5527273c3.09645-1.2286364 4.66065-3.5481818 4.66065-7.23545455z" mask="url(#b)"/><path d="m2.60325 37.3518182h-1.49895v1.4745454h1.49895c.549 0 .8073-.2931818.8073-.7413636 0-.4890909-.2583-.7331818-.8073-.7331818zm-.06345-2.0954546h-1.4355v1.085h1.4922c.46755 0 .63585-.22.63585-.5377272 0-.3590909-.20115-.5472728-.69255-.5472728zm.0243 4.655h-2.5641v-5.705h2.58795c1.0962 0 1.78965.5290909 1.78965 1.5063637 0 .49-.2259.8818182-.59625 1.11.45135.2022727.78975.6168182.78975 1.2463636 0 1.1977273-.79785 1.8422727-2.007 1.8422727z" mask="url(#b)"/></g><path d="m7.9254 40.3131818h-1.4751v1.4677273h1.4751c.5238 0 .8064-.2431818.8064-.7413636 0-.5131819-.30555-.7263637-.8064-.7263637zm.67005 4.5981818-1.008-2.0536363h-1.13715v2.0536363h-1.12815v-5.705h2.62755c1.0647 0 1.9431.5940909 1.9431 1.8081819 0 .8568181-.36315 1.3940909-1.0809 1.68l1.0809 2.2168181z"/><path d="m10.75545 44.9113636h1.12905v-5.705h-1.12905z"/><path d="m15.2388 40.3295455v4.5818181h-1.12905v-4.5818181h-1.62045v-1.1231819h4.36995v1.1231819z"/><path d="m19.18125 41.5209091c-.1125-.335-.22545-.6768182-.2817-.8890909-.0567.2122727-.16965.5540909-.28305.8890909l-.3618 1.0340909h1.29015zm1.1934 3.3904545-.44325-1.2722727h-2.06415l-.44325 1.2722727h-1.2096l2.16045-5.705h1.0971l2.14425 5.705z"/><path d="m22.3425 44.9113636h1.1295v-5.705h-1.1295z"/><path d="m28.0026 44.9113636-2.0727-3.1145454c-.13635-.2113637-.3222-.4972727-.3951-.6445455 0 .2131818.0162.9295455.0162 1.2481818v2.5109091h-1.1124v-5.705h1.08l1.99935 3.015c.13725.2113637.3231.4968182.396.6445455 0-.2131818-.01665-.9304546-.01665-1.2486364v-2.4109091h1.11285v5.705z"/><path d="m33.67125 42.5140909c-.44415.2372727-.6219.53-.6219.8718182 0 .3677273.2907.6027273.85455.6027273.34785 0 .63765-.0813637.87075-.2518182zm2.1762 2.3972727-.4275-.4663636c-.4428.3677273-.9837.555-1.64385.555-1.1529 0-1.8549-.4890909-1.8549-1.5163636 0-.7981819.43425-1.2781819 1.15245-1.6372728l-.1449-.1631818c-.2979-.3345454-.4914-.7004545-.4914-1.1568182 0-.9286363.7254-1.4104545 1.6767-1.4104545.69345 0 1.14525.2109091 1.68525.5963636l-.54.8231818c-.37125-.285909-.77445-.4086363-1.1781-.4086363-.3294 0-.531.1377273-.531.3745454 0 .245.12105.4086364.2979.62l1.5561 1.7922728c.12915-.2609091.25785-.57.3951-.9454546l.91035.2931818c-.17685.5545455-.3861 1.0359091-.63675 1.4272728l1.06515 1.2227272z"/><path d="m43.05555 44.9113636-2.07225-3.1145454c-.1368-.2113637-.32265-.4972727-.39465-.6445455 0 .2131818.0162.9295455.0162 1.2481818v2.5109091h-1.1124v-5.705h1.07955l1.9998 3.015c.1368.2113637.3231.4968182.3951.6445455 0-.2131818-.0162-.9304546-.0162-1.2486364v-2.4109091h1.11285v5.705z"/><path d="m47.2644 40.2495455c-.91125 0-1.2906.79-1.2906 1.8081818 0 1.0190909.37935 1.8095454 1.2906 1.8095454.9117 0 1.29015-.7904545 1.29015-1.8095454 0-1.0181818-.37845-1.8081818-1.29015-1.8081818zm0 4.7504545c-1.54035 0-2.4507-1.2063636-2.4507-2.9422727 0-1.7363637.91035-2.9418182 2.4507-2.9418182 1.5408 0 2.45115 1.2054545 2.45115 2.9418182 0 1.7359091-.91035 2.9422727-2.45115 2.9422727z"/><path d="m53.0703 40.3131818h-1.47555v1.4677273h1.47555c.5238 0 .8064-.2431818.8064-.7413636 0-.5131819-.30735-.7263637-.8064-.7263637zm.6696 4.5981818-1.00845-2.0536363h-1.1367v2.0536363h-1.12905v-5.705h2.6289c1.06425 0 1.94175.5940909 1.94175 1.8081819 0 .8568181-.36225 1.3940909-1.07955 1.68l1.07955 2.2168181z"/><path d="m58.0131 40.3295455v4.5818181h-1.1295v-4.5818181h-1.6209v-1.1231819h4.3713v1.1231819z"/><path d="m63.59985 44.9113636v-2.3972727h-2.3139v2.3972727h-1.1277v-5.705h1.1277v2.1840909h2.3139v-2.1840909h1.12905v5.705z"/><path d="m65.7774 44.9113636v-5.705h3.91815v1.115h-2.7891v.9872728h1.6209v1.1068181h-1.6209v1.3781819h2.9106v1.1177272z"/><path d="m73.21905 40.3131818h-1.4751v1.4677273h1.4751c.5238 0 .80685-.2431818.80685-.7413636 0-.5131819-.30555-.7263637-.80685-.7263637zm.6687 4.5981818-1.0071-2.0536363h-1.1367v2.0536363h-1.12905v-5.705h2.628c1.06515 0 1.94265.5940909 1.94265 1.8081819 0 .8568181-.36135 1.3940909-1.07955 1.68l1.07955 2.2168181z"/><path d="m79.53345 44.9113636-2.07315-3.1145454c-.1377-.2113637-.32265-.4972727-.39465-.6445455 0 .2131818.0153.9295455.0153 1.2481818v2.5109091h-1.11195v-5.705h1.08045l1.9989 3.015c.13725.2113637.32265.4968182.396.6445455 0-.2131818-.01575-.9304546-.01575-1.2486364v-2.4109091h1.11195v5.705z"/><path d="m83.9268 44.9113636h1.1295v-5.705h-1.1295z"/><path d="m88.78905 40.3131818h-1.476v1.4677273h1.476c.5247 0 .80595-.2431818.80595-.7413636 0-.5131819-.306-.7263637-.80595-.7263637zm.6696 4.5981818-1.0089-2.0536363h-1.1367v2.0536363h-1.1277v-5.705h2.6271c1.0647 0 1.94355.5940909 1.94355 1.8081819 0 .8568181-.36315 1.3940909-1.08045 1.68l1.08045 2.2168181z"/><path d="m91.70055 44.9113636v-5.705h3.91725v1.115h-2.78865v.9872728h1.6191v1.1068181h-1.6191v1.3781819h2.91105v1.1177272z"/><path d="m96.53715 44.9113636v-5.705h1.1277v4.5790909h2.83185v1.1259091z"/><path d="m103.69755 41.5209091c-.1125-.335-.2259-.6768182-.28215-.8890909-.0567.2122727-.1701.5540909-.2826.8890909l-.36225 1.0340909h1.28925zm1.19295 3.3904545-.4437-1.2722727h-2.0637l-.44235 1.2722727h-1.21005l2.16-5.705h1.0971l2.1456 5.705z"/><path d="m110.1807 44.9113636-2.0727-3.1145454c-.1368-.2113637-.32175-.4972727-.39645-.6445455 0 .2131818.01845.9295455.01845 1.2481818v2.5109091h-1.1133v-5.705h1.0791l2.0007 3.015c.1377.2113637.3231.4968182.396.6445455 0-.2131818-.01665-.9304546-.01665-1.2486364v-2.4109091h1.11195v5.705z"/><path d="m113.80005 40.3131818h-.59625v3.4881818h.55665c1.18485 0 1.7253-.7013636 1.7253-1.7436363 0-1.1654546-.4923-1.7445455-1.6857-1.7445455zm-.0396 4.5981818h-1.6857v-5.705h1.76625c1.6119 0 2.80575.765 2.80575 2.8513637 0 2.0045454-1.4355 2.8536363-2.8863 2.8536363z"/></g></g></svg>