<?xml version="1.0" encoding="utf-8"?>
<!-- Generator: Adobe Illustrator 24.3.0, SVG Export Plug-In . SVG Version: 6.00 Build 0)  -->
<svg version="1.1" id="Layer_1" xmlns="http://www.w3.org/2000/svg" xmlns:xlink="http://www.w3.org/1999/xlink" x="0px" y="0px"
	 width="116.68px" height="44.81px" viewBox="0 0 116.68 44.81" style="enable-background:new 0 0 116.68 44.81;"
	 xml:space="preserve">
<style type="text/css">
	.st0{fill-rule:evenodd;clip-rule:evenodd;fill:#FFFFFF;filter:url(#Adobe_OpacityMaskFilter);}
	.st1{mask:url(#a_1_);fill-rule:evenodd;clip-rule:evenodd;fill:#DA2F2A;}
	.st2{fill-rule:evenodd;clip-rule:evenodd;fill:#FFFFFE;}
	.st3{fill-rule:evenodd;clip-rule:evenodd;fill:#FFFFFF;filter:url(#Adobe_OpacityMaskFilter_1_);}
	.st4{mask:url(#b_1_);fill-rule:evenodd;clip-rule:evenodd;fill:#FFFFFE;}
</style>
<defs>
	<filter id="Adobe_OpacityMaskFilter" filterUnits="userSpaceOnUse" x="0.03" y="0" width="116.65" height="34.21">
		<feColorMatrix  type="matrix" values="1 0 0 0 0  0 1 0 0 0  0 0 1 0 0  0 0 0 1 0"/>
	</filter>
</defs>
<mask maskUnits="userSpaceOnUse" x="0.03" y="0" width="116.65" height="34.21" id="a_1_">
	<path class="st0" d="M0.03,0h116.65v34.21H0.03L0.03,0z"/>
</mask>
<path class="st1" d="M0.03,34.21h116.65V0H0.03L0.03,34.21z"/>
<path class="st2" d="M20.28,20.51h-3.93v-4.6h8.8v3.97c0,6.32-4.14,9.9-9.77,9.9c-6.36,0-10.64-4.92-10.64-12.68
	c0-7.48,4.45-12.68,10.81-12.68c4.97,0,7.61,2.35,9.21,6.15l-4.62,1.93c-0.9-1.83-2.02-3.2-4.66-3.2c-3.65,0-5.74,3.23-5.74,7.8
	c0,4.53,2.12,7.87,5.77,7.87c4.01,0,4.61-2.52,4.76-3.72c0.03-0.31,0.05-0.48,0.04-0.74"/>
<path class="st2" d="M52.59,29.4V4.81h16.9v4.81H57.46v5.09h9.02v4.78h-9.02v5.09h12.03v4.81L52.59,29.4z"/>
<path class="st2" d="M89.82,29.4h5.35L85.93,4.81H81.2L71.88,29.4h5.21c0,0,0.8-2.28,1.82-5.23H88
	C89.03,27.12,89.82,29.4,89.82,29.4 M80.54,19.49c1.44-4.15,2.8-8.11,2.92-8.53c0.11,0.42,1.48,4.39,2.91,8.53H80.54z"/>
<path class="st2" d="M104.95,9.66V29.4h-4.87V9.66h-6.99V4.81h18.85v4.85L104.95,9.66z"/>
<defs>
	<filter id="Adobe_OpacityMaskFilter_1_" filterUnits="userSpaceOnUse" x="29.2" y="4.81" width="19.71" height="24.58">
		<feColorMatrix  type="matrix" values="1 0 0 0 0  0 1 0 0 0  0 0 1 0 0  0 0 0 1 0"/>
	</filter>
</defs>
<mask maskUnits="userSpaceOnUse" x="29.2" y="4.81" width="19.71" height="24.58" id="b_1_">
	<path class="st3" d="M0.03-0.19h48.88v39.91H0.03L0.03-0.19z"/>
</mask>
<path class="st4" d="M40.43,15.91h-6.36V9.59h6.36c2.16,0,3.48,0.91,3.48,3.12C43.9,14.86,42.69,15.91,40.43,15.91z M48.91,12.61
	c0-5.23-3.79-7.8-8.38-7.8H29.2V29.4h4.87v-8.85h4.9l4.35,8.85h5.6l-4.66-9.55C47.35,18.61,48.91,16.3,48.91,12.61z"/>
<g>
	<path class="st2" d="M3.78,41.63c0.37-0.23,0.6-0.62,0.6-1.11c0-0.98-0.69-1.51-1.79-1.51H0v5.7h2.56c1.21,0,2.01-0.64,2.01-1.84
		C4.57,42.25,4.23,41.84,3.78,41.63z M1.1,40.07h1.44c0.49,0,0.69,0.19,0.69,0.55c0,0.32-0.17,0.54-0.64,0.54H1.1V40.07z M2.6,43.64
		H1.1v-1.47h1.5c0.55,0,0.81,0.24,0.81,0.73C3.41,43.35,3.15,43.64,2.6,43.64z"/>
	<path class="st2" d="M7.93,40.13H6.45v1.47h1.48c0.52,0,0.81-0.24,0.81-0.74C8.73,40.34,8.43,40.13,7.93,40.13z M8.6,44.72
		l-1.01-2.05H6.45v2.05H5.32v-5.7h2.63c1.06,0,1.94,0.59,1.94,1.81c0,0.86-0.36,1.39-1.08,1.68l1.08,2.22L8.6,44.72z"/>
	<path class="st2" d="M10.76,44.72h1.13v-5.71h-1.13V44.72z"/>
	<path class="st2" d="M15.24,40.14v4.58h-1.13v-4.58h-1.62v-1.12h4.37v1.12H15.24z"/>
	<path class="st2" d="M19.18,41.33c-0.11-0.33-0.23-0.68-0.28-0.89c-0.06,0.21-0.17,0.55-0.28,0.89l-0.36,1.03h1.29L19.18,41.33z
		 M20.37,44.72l-0.44-1.27h-2.06l-0.44,1.27h-1.21l2.16-5.71h1.1l2.14,5.71H20.37z"/>
	<path class="st2" d="M22.34,44.72h1.13v-5.71h-1.13V44.72z"/>
	<path class="st2" d="M28,44.72l-2.07-3.11c-0.14-0.21-0.32-0.5-0.4-0.64c0,0.21,0.02,0.93,0.02,1.25v2.51h-1.11v-5.71h1.08l2,3.01
		c0.14,0.21,0.32,0.5,0.4,0.64c0-0.21-0.02-0.93-0.02-1.25v-2.41h1.11v5.71H28z"/>
	<path class="st2" d="M36.07,43.5c0.25-0.39,0.46-0.87,0.64-1.43l-0.91-0.29c-0.14,0.38-0.27,0.68-0.4,0.95l-1.56-1.79
		c-0.18-0.21-0.3-0.38-0.3-0.62c0-0.24,0.2-0.37,0.53-0.37c0.4,0,0.81,0.12,1.18,0.41l0.54-0.82c-0.54-0.39-0.99-0.6-1.69-0.6
		c-0.95,0-1.68,0.48-1.68,1.41c0,0.46,0.19,0.82,0.49,1.16l0.14,0.16c-0.72,0.36-1.15,0.84-1.15,1.64c0,1.03,0.7,1.52,1.85,1.52
		c0.66,0,1.2-0.19,1.64-0.55l0.43,0.47h1.29L36.07,43.5z M33.9,43.8c-0.56,0-0.85-0.24-0.85-0.6c0-0.34,0.18-0.63,0.62-0.87
		l1.1,1.22C34.54,43.72,34.25,43.8,33.9,43.8z"/>
	<path class="st2" d="M43.06,44.72l-2.07-3.11c-0.14-0.21-0.32-0.5-0.39-0.64c0,0.21,0.02,0.93,0.02,1.25v2.51h-1.11v-5.71h1.08
		l2,3.01c0.14,0.21,0.32,0.5,0.4,0.64c0-0.21-0.02-0.93-0.02-1.25v-2.41h1.11v5.71H43.06z"/>
	<path class="st2" d="M47.26,38.93c-1.54,0-2.45,1.21-2.45,2.94c0,1.74,0.91,2.94,2.45,2.94c1.54,0,2.45-1.21,2.45-2.94
		C49.72,40.13,48.81,38.93,47.26,38.93z M47.26,43.68c-0.91,0-1.29-0.79-1.29-1.81c0-1.02,0.38-1.81,1.29-1.81
		c0.91,0,1.29,0.79,1.29,1.81C48.55,42.89,48.18,43.68,47.26,43.68z"/>
	<path class="st2" d="M53.07,40.13h-1.48v1.47h1.48c0.52,0,0.81-0.24,0.81-0.74C53.88,40.34,53.57,40.13,53.07,40.13z M53.74,44.72
		l-1.01-2.05h-1.14v2.05h-1.13v-5.7h2.63c1.06,0,1.94,0.59,1.94,1.81c0,0.86-0.36,1.39-1.08,1.68l1.08,2.22L53.74,44.72z"/>
	<path class="st2" d="M58.01,40.14v4.58h-1.13v-4.58h-1.62v-1.12h4.37v1.12H58.01z"/>
	<path class="st2" d="M63.6,44.72v-2.4h-2.31v2.4h-1.13v-5.71h1.13v2.18h2.31v-2.18h1.13v5.71H63.6z"/>
	<path class="st2" d="M65.78,44.72v-5.71h3.92v1.12h-2.79v0.99h1.62v1.11h-1.62v1.38h2.91v1.12H65.78z"/>
	<path class="st2" d="M73.22,40.13h-1.48v1.47h1.48c0.52,0,0.81-0.24,0.81-0.74C74.03,40.34,73.72,40.13,73.22,40.13z M73.89,44.72
		l-1.01-2.05h-1.14v2.05h-1.13v-5.7h2.63c1.07,0,1.94,0.59,1.94,1.81c0,0.86-0.36,1.39-1.08,1.68l1.08,2.22L73.89,44.72z"/>
	<path class="st2" d="M79.53,44.72l-2.07-3.11c-0.14-0.21-0.32-0.5-0.39-0.64c0,0.21,0.02,0.93,0.02,1.25v2.51h-1.11v-5.71h1.08
		l2,3.01c0.14,0.21,0.32,0.5,0.4,0.64c0-0.21-0.02-0.93-0.02-1.25v-2.41h1.11v5.71H79.53z"/>
	<path class="st2" d="M83.93,44.72h1.13v-5.71h-1.13V44.72z"/>
	<path class="st2" d="M88.79,40.13h-1.48v1.47h1.48c0.52,0,0.81-0.24,0.81-0.74C89.59,40.34,89.29,40.13,88.79,40.13z M89.46,44.72
		l-1.01-2.05h-1.14v2.05h-1.13v-5.7h2.63c1.06,0,1.94,0.59,1.94,1.81c0,0.86-0.36,1.39-1.08,1.68l1.08,2.22L89.46,44.72z"/>
	<path class="st2" d="M91.7,44.72v-5.71h3.92v1.12h-2.79v0.99h1.62v1.11h-1.62v1.38h2.91v1.12H91.7z"/>
	<path class="st2" d="M96.54,44.72v-5.71h1.13v4.58h2.83v1.13L96.54,44.72z"/>
	<path class="st2" d="M103.7,41.33c-0.11-0.33-0.23-0.68-0.28-0.89c-0.06,0.21-0.17,0.55-0.28,0.89l-0.36,1.03h1.29L103.7,41.33z
		 M104.89,44.72l-0.44-1.27h-2.06l-0.44,1.27h-1.21l2.16-5.71h1.1l2.15,5.71H104.89z"/>
	<path class="st2" d="M110.18,44.72l-2.07-3.11c-0.14-0.21-0.32-0.5-0.4-0.64c0,0.21,0.02,0.93,0.02,1.25v2.51h-1.11v-5.71h1.08
		l2,3.01c0.14,0.21,0.32,0.5,0.4,0.64c0-0.21-0.02-0.93-0.02-1.25v-2.41h1.11v5.71H110.18z"/>
	<path class="st2" d="M113.8,40.13h-0.6v3.49h0.56c1.18,0,1.73-0.7,1.73-1.74C115.49,40.7,114.99,40.13,113.8,40.13z M113.76,44.72
		h-1.69v-5.7h1.77c1.61,0,2.81,0.76,2.81,2.85C116.65,43.87,115.21,44.72,113.76,44.72z"/>
</g>
</svg>
