<?xml version="1.0" encoding="utf-8"?>
<!-- Generator: Adobe Illustrator 24.3.0, SVG Export Plug-In . SVG Version: 6.00 Build 0)  -->
<svg version="1.1" id="Layer_1" xmlns="http://www.w3.org/2000/svg" xmlns:xlink="http://www.w3.org/1999/xlink" x="0px" y="0px"
	 viewBox="0 0 44 44" style="enable-background:new 0 0 44 44;" xml:space="preserve">
<style type="text/css">
	.st0{fill-rule:evenodd;clip-rule:evenodd;fill:#FFFFFF;}
</style>
<path class="st0" d="M22,0C9.8,0,0,9.8,0,22s9.8,22,22,22s22-9.8,22-22S34.2,0,22,0z M10.4,13.4h23.2c0.3,0,0.5,0,0.7,0.1l-11.6,9.8
	c-0.5,0.4-1.1,0.4-1.6,0L9.5,13.5C9.9,13.4,10.2,13.4,10.4,13.4z M35.6,28.6c0,1.1-0.9,2-2,2H10.4c-1.1,0-2-0.9-2-2V15.4
	c0-0.1,0-0.2,0-0.3l11.5,9.8c1.2,1,3,1,4.2,0l11.5-9.8c0,0.1,0,0.2,0,0.3V28.6z"/>
</svg>
