<?xml version="1.0" encoding="utf-8"?>
<!-- Generator: Adobe Illustrator 24.3.0, SVG Export Plug-In . SVG Version: 6.00 Build 0)  -->
<svg version="1.1" id="Layer_1" xmlns="http://www.w3.org/2000/svg" xmlns:xlink="http://www.w3.org/1999/xlink" x="0px" y="0px"
	 viewBox="0 0 44 44" style="enable-background:new 0 0 44 44;" xml:space="preserve">
<style type="text/css">
	.st0{fill:#FFFFFF;}
</style>
<g>
	<path class="st0" d="M22.7,9.9c-6.3,0-11.4,5.1-11.4,11.4c0,2.2,0.6,4.3,1.7,6.1l0.3,0.4L12.1,32l4.3-1.1l0.4,0.2
		c1.7,1.1,3.8,1.6,5.8,1.6c6.3,0,11.4-5.1,11.4-11.4c0-3.1-1.2-5.9-3.3-8.1C28.6,11.1,25.7,9.9,22.7,9.9z M29.3,26.2
		C29,27,27.7,27.7,27,27.8c-0.6,0.1-1.4,0.2-2.2-0.1c-0.5-0.1-1.2-0.3-2-0.7c-3.4-1.5-5.6-5-5.8-5.2s-1.4-1.8-1.4-3.5
		s0.9-2.6,1.2-2.9c0.3-0.3,0.6-0.4,0.9-0.4s0.5,0,0.7,0c0.2,0,0.5,0,0.7,0.6c0.3,0.6,1,2.3,1.1,2.5c0.1,0.2,0.1,0.4,0,0.6
		c-0.1,0.3-0.1,0.4-0.3,0.6c-0.2,0.2-0.3,0.4-0.5,0.6c-0.2,0.2-0.4,0.4-0.2,0.7c0.2,0.4,0.9,1.5,1.9,2.4c1.4,1.2,2.5,1.5,2.8,1.7
		c0.3,0.2,0.5,0.1,0.7-0.1c0.2-0.2,0.9-1,1.1-1.3c0.3-0.4,0.5-0.3,0.8-0.2c0.3,0.1,2,0.9,2.3,1.1c0.4,0.2,0.6,0.3,0.7,0.4
		C29.6,24.7,29.6,25.4,29.3,26.2z"/>
	<path class="st0" d="M22,0C9.8,0,0,9.8,0,22s9.8,22,22,22s22-9.8,22-22S34.2,0,22,0z M22.6,35c-2.2,0-4.5-0.6-6.5-1.7l-7.3,1.9
		l1.9-7.1c-1.2-2-1.8-4.4-1.8-6.8c0-7.5,6.1-13.6,13.7-13.6c3.7,0,7.1,1.4,9.7,4c2.6,2.6,4,6,4,9.6C36.3,28.9,30.1,35,22.6,35z"/>
</g>
</svg>
