<svg id="Layer_1" data-name="Layer 1" xmlns="http://www.w3.org/2000/svg" viewBox="0 0 97.69 25.46"><defs><linearGradient id="linear-gradient" x1="1827.73" y1="1949.01" x2="1827.73" y2="2046.7" gradientTransform="translate(-1778.89 -1976.45)" gradientUnits="userSpaceOnUse"><stop offset="0" stop-color="#ff5c00"/><stop offset="1" stop-color="#e70000"/></linearGradient><style>.cls-2{fill:#fff}</style></defs><path transform="rotate(-90 48.84 21.41)" fill="url(#linear-gradient)" d="M45.77-27.43h6.15v97.69h-6.15z"/><path class="cls-2" d="M17.3 5.32l-.07-.06q-.06.2-.18.18c-.07 0-.11 0-.11.18-.05-.09-.08-.11-.12-.07s-.06.07-.08.07a.3.3 0 010-.2.67.67 0 01.07-.18l.08-.16a.28.28 0 000-.18c0-.06-.08-.1-.11-.1h-.18s-.05 0-.07-.07-.1 0-.1.13a4.06 4.06 0 00-.61 0 3.85 3.85 0 00-.62.09 2.26 2.26 0 01-.62 0 1.19 1.19 0 00-.59.1.87.87 0 00-.77 0 1.51 1.51 0 01-.89.13A19.35 19.35 0 007.72 6.5a10.57 10.57 0 01-.49 2.56q-.39 1.15-.75 2.46h.11c.05 0 .06 0 0 .05a5.13 5.13 0 01.89-.24l.93-.18a.05.05 0 00.05 0h.08a4.12 4.12 0 01.77-.15l.82-.05h.86a3.86 3.86 0 01.91.07 2.32 2.32 0 01.8.29 1.21 1.21 0 01.52.63.21.21 0 010 .12.26.26 0 000 .18c-.11-.09-.2-.11-.28-.07a.34.34 0 00-.14.23h-.26c-.07 0-.11.07-.13.18a.57.57 0 00-.26 0 .2.2 0 00-.17.13 24.24 24.24 0 00-2.77.47q-1.34.31-2.7.57a.48.48 0 00-.33-.07 1 1 0 01-.32 0c-.2.69-.39 1.43-.57 2.2A8.58 8.58 0 005 18.33a1.37 1.37 0 00.57 0 2 2 0 01.51-.07c.82-.22 1.57-.45 2.23-.7a20.66 20.66 0 012.17-.67.13.13 0 01.1 0l.09.06v-.08a.15.15 0 00.08-.08 7.46 7.46 0 001-.07c.37 0 .71-.08 1-.13a.61.61 0 00.38.08 1.38 1.38 0 01.44.05v.07a1 1 0 01.75.26 1.5 1.5 0 01.49.65h-.1a.19.19 0 00-.1 0v.14c0 .01-.06.05 0 .12a.2.2 0 00-.11 0h-.09a.28.28 0 00-.11.11.22.22 0 01-.05.08c-.41.09-.82.2-1.24.33a7 7 0 01-1.14.26.55.55 0 01-.29.14.56.56 0 00-.26.12 5.21 5.21 0 00-1.47.41 5.57 5.57 0 01-1.46.4 3.46 3.46 0 01-1.37.31A3.88 3.88 0 015.76 20a3 3 0 01-1.07-.64 2.34 2.34 0 01-.66-1 2.66 2.66 0 01-.62-1.27 5.55 5.55 0 010-1.53c.05-.24.09-.47.15-.7s.1-.47.15-.73c.15-.53.28-1.05.4-1.58a9.59 9.59 0 01.44-1.45c.15-.61.33-1.24.52-1.88S5.42 8 5.6 7.31a9.2 9.2 0 01-.93.39 6.6 6.6 0 00-.9.39.63.63 0 01-.34-.09.75.75 0 00-.28-.18v-.08-.08L3 7.59h-.12a2.5 2.5 0 00-.22-.73 1.62 1.62 0 01-.17-.77h.07a.09.09 0 000 .07A1.11 1.11 0 013 5.89a1.7 1.7 0 00.51-.24s.05.08 0 .1a.13.13 0 000 .1c.06 0 .09 0 .08-.09a.46.46 0 010-.14c.17-.11.34-.2.49-.28a3.14 3.14 0 01.49-.21.19.19 0 01-.18.18.27.27 0 00-.21.11.24.24 0 00.22 0l.23-.11v-.07s-.05 0 0-.09A1.14 1.14 0 015 5a.49.49 0 00.28-.18V5A.67.67 0 015 5l-.19.07a.12.12 0 00-.1.13l.66-.2.63-.33v-.19-.23a.91.91 0 00.47 0 2.8 2.8 0 01.47-.07c0 .09-.06.12-.13.09s-.12 0-.16.08a11.93 11.93 0 001.74-.52 4.91 4.91 0 011.78-.36 5.76 5.76 0 011.51-.35c.56-.05 1.18-.12 1.88-.21a6.31 6.31 0 00-.87 0l-.8.07a.29.29 0 01.27-.12 1.46 1.46 0 00.29 0 12.7 12.7 0 012.31 0 3.27 3.27 0 011.93.73 4.9 4.9 0 00.55.79.9.9 0 01.06.94zM3.19 6s.06 0 .06-.07-.11 0-.06.07zm.16-.07zm.1-.06h.07l-.07-.02zm.4-.28c-.12 0-.15.11-.11.18a.53.53 0 01.2-.12.47.47 0 00.22-.18 2.69 2.69 0 00-.31.1zM4 13.15zm0 .09s0 .03 0 0zm.3-1.07s-.06 0 0 0 0 0 0-.07-.02-.02.03.07zm0-.16c0 .08.06.09 0 0s.05-.01.03-.01zm.13-.49h.06s.01-.07-.03 0zm.16-.52zm.32-.78h-.09zm.2-.73c0-.05 0-.06-.07 0s.07.04.07-.01zm.72-5q.09 0 .09.06a1.53 1.53 0 01-.27.17l-.31.13c0-.15.1-.22.23-.21a.24.24 0 00.26-.13zM5.55 5v.06h.1S5.58 5 5.55 5zm1.55-.88a.24.24 0 01-.12.1c-.05 0-.07 0-.05-.1s0 0 .05 0 .02-.02.12 0zm1.79-.56l-.89.3c-.31.09-.59.17-.85.26 0-.07 0-.1.13-.12h.23a3.46 3.46 0 01.67-.28 2.37 2.37 0 01.71-.16zm-1.76 8c0 .07.06.07.06 0s-.02-.02-.06.02zm.33 0h-.11s.06-.03.11-.01zm.29-.13s-.07 0-.07.06a.1.1 0 00.07-.07zm0-7.3c0 .06 0 .06 0 0s.04-.08 0-.01zm0 7.3h.1s0-.08-.07-.01zm.26 0h.07s0-.05.06-.05h.07c.07 0 0-.12-.08-.1a.18.18 0 00-.13.11zm.1-7.34c.06 0 .1 0 .1-.06s-.07-.03-.07.02zm.2 7.3s0-.07.08-.08a.08.08 0 00.05-.08.26.26 0 01-.09.05s-.01.01-.01.07zm.19-.06v-.1zm.13-.07a.28.28 0 01.16 0c.07 0 .11 0 .13-.05s-.07 0-.16 0-.1-.03-.1.01zm.62-7.75s-.07.06-.15.06a.76.76 0 00-.21 0 .64.64 0 01.39-.1zm-.23 7.69zm.26-.07h-.16c-.08 0 0 .07.08.07s.13-.06.11-.11zm.13-7.72a.13.13 0 010 .06.25.25 0 000 .07c-.06 0-.09 0-.06-.07a.1.1 0 01.09-.1zm0 7.76V11zm.07-7.48c0-.06 0 0 0 0v-.04zm0 7.44h.13a.09.09 0 00.1-.1h-.2zm1-7.95a.66.66 0 01-.48.2.81.81 0 00-.47.13c0-.11.17-.18.39-.2a1.77 1.77 0 00.57-.17zm-.69 8h.15a.7.7 0 01.24 0S10.07 11 10 11s-.2.05-.2.09zm.43-.1H10.51a.66.66 0 00-.28-.08zm.16 6.1c0 .06.06.06 0 0s.03-.18.01-.09zm.19-13.88h.07c.07 0-.01-.09-.06-.09zm0 7.78h.07v-.06h-.07zm.13 0c0 .07.07.07.07 0s-.01-.18-.06-.08zm.59-8a.25.25 0 01-.26.16.47.47 0 00-.23 0A.18.18 0 0111 3zM11 11c0 .07.06.08.05 0s.01 0-.05 0zm.34-7.36s.05.01.04-.01zm.26-.6h-.24c-.02 0 0-.06.15 0a.24.24 0 00.21 0c.1-.04.06-.04-.08-.04zm-.21 8h.07-.07zm.13 0h.08s-.02-.04-.04-.04zm.26-7.55s.04.05.04-.01zm0-.27s.05-.01.07-.01zm.13 0l.09-.01zm1.24-.13v-.07.07l.07-.01zm.4-.09a2.15 2.15 0 01.62 0 .5.5 0 00-.33-.12c-.15-.06-.25-.02-.29.12zm1.34 0a.38.38 0 00-.33-.07.89.89 0 01-.33 0 .3.3 0 00.28.07.81.81 0 01.38 0zM15 3h.13H15zm.23 0c-.07 0-.08 0 0 0h-.05zm.39 2h.1zM16.32 18.07h-.1c.12-.07.14-.07.1 0zM27.2 8.19c-.11 0-.14 0-.11.08a.11.11 0 010 .15 1 1 0 00-.27 0 1.11 1.11 0 01-.28 0v-.1a1.2 1.2 0 01-.43-.26l-.32-.33h.06a7.58 7.58 0 01-.4-.43 1.1 1.1 0 01-.25-.52h.07a.22.22 0 00.1 0 1.19 1.19 0 01.11-.54l.24-.49c.09-.16.17-.33.25-.49a3.2 3.2 0 00.18-.57 7.73 7.73 0 00-1.62.85L23 6.63a17.82 17.82 0 00-1.48 1.27c-.49.46-1 .89-1.45 1.3a3.41 3.41 0 00-.28.33c-.1.13-.18.19-.24.19a2.74 2.74 0 01-.3.43 1.51 1.51 0 00-.26.49 2.45 2.45 0 001 .19A4.63 4.63 0 0121 11a2.55 2.55 0 01.75.12 2.72 2.72 0 00.68.11 18.43 18.43 0 012.66 1.06 7.71 7.71 0 012.17 1.58c.11.24.23.49.37.77a2.23 2.23 0 01.25.89 2.75 2.75 0 01-.49 1.86v.13a12.84 12.84 0 01-1.11 1.21 6.18 6.18 0 01-1.34.94c-.54.33-1.08.64-1.61.95a7.21 7.21 0 01-1.87.71.74.74 0 01-.34.05 1.36 1.36 0 00-.41.05.23.23 0 00-.18-.05h-.21a1.87 1.87 0 00-.44-.08h-.54a3.75 3.75 0 00-.72-.44 2.36 2.36 0 01-.68-.47l-.34-.56a1.46 1.46 0 00-.44-.45.61.61 0 00-.39-.43.44.44 0 00-.22-.39.46.46 0 01-.24-.36h.05a.13.13 0 00.08 0 .29.29 0 010-.26c0-.07-.07-.07-.07 0s0 .07-.06 0a1.47 1.47 0 01.13-.51 1.71 1.71 0 00.13-.47s.08-.06.1 0 0 0 .06-.05 0 0 0-.06 0 0 .09 0a.79.79 0 01.17-.62 3.45 3.45 0 00.38-.56c0 .13 0 .28-.18.44a.78.78 0 00-.24.54 1.08 1.08 0 00.24-.42.53.53 0 01.34-.36 4.75 4.75 0 00-.6 1 3.64 3.64 0 00-.31 1c.06 0 .09 0 .08-.08s0-.1.08 0a4 4 0 01.25-.94 1.36 1.36 0 01.57-.78c-.09.17-.18.34-.28.5a1 1 0 00-.15.51 1.13 1.13 0 00.2-.35.68.68 0 01.23-.31l-.13.3a1.57 1.57 0 00-.13.29.64.64 0 00.11-.16.4.4 0 01.15-.17q.06.07 0 .27a2.14 2.14 0 01-.13.29s.07.05.09 0a.07.07 0 000-.06c.06 0 .06.1 0 .18a.22.22 0 00-.05.27h.05c.05 0 0-.05 0-.1a.7.7 0 010 .31c0 .17 0 .27.15.31s.08-.16.13-.16a.24.24 0 000 .28.23.23 0 010 .27q.09.11.09 0v-.06c.05 0 .07 0 .07.13s0 .13-.07.13a.15.15 0 000 .11.19.19 0 010 .15.55.55 0 00.24.1h.24c.04 0 0 .09 0 .07s-.08 0-.08.06a1.5 1.5 0 00.89 0 5.35 5.35 0 011-.16 2.64 2.64 0 01-.88.2c-.32 0-.61.05-.88.09a4.75 4.75 0 001.54-.14 3.56 3.56 0 001.45-.63c.11.06.19.05.24 0a.27.27 0 01.28-.09s-.06-.05 0-.07a3 3 0 001.34-.72c.09 0 .15 0 .18-.05a.73.73 0 01.15-.11v-.07h.07c.28-.26.56-.5.85-.72a3.24 3.24 0 00.74-.78 2 2 0 00-.39.38 1.28 1.28 0 01-.42.34.32.32 0 01.21-.21c.1 0 .16-.13.18-.28h.07a2 2 0 00.19-.21.81.81 0 01.2-.18 9 9 0 00.42-.82 1.63 1.63 0 00.1-1 .72.72 0 00-.47-.43 1.67 1.67 0 01-.57-.26 2 2 0 01-.66-.21.89.89 0 00-.61-.08 15.08 15.08 0 00-1.76-.33l-1.8-.22c0-.05 0-.06-.13-.05a.23.23 0 01-.19 0 1.77 1.77 0 01-1-.38 3.31 3.31 0 01-.66-.73 9 9 0 00-.59-.83 2 2 0 01-.42-1 .71.71 0 010-.16.47.47 0 000-.2.15.15 0 010-.12v-.08-.08h.16a.19.19 0 000-.13v-.09h.13c.11-.11.14-.21.1-.29s.13 0 .21 0a.27.27 0 00.09-.33 1.07 1.07 0 00.65-.65s.05 0 0 .06a.15.15 0 000 .13c.05-.06.09-.14.15-.23a.3.3 0 000-.29h.23a.31.31 0 01.2-.13H19c-.03 0 0-.07 0-.11s.06 0 .06 0a.09.09 0 000 .06c.05 0 .05 0 0-.06a.08.08 0 010-.1c.09 0 .16-.06.2-.19h.16c.06 0 0-.11 0-.13s0-.11.08-.07.11.06.15 0 0-.08.05-.11a.16.16 0 00.11-.15c.09 0 .13 0 .13-.06v.06A.31.31 0 0020 5.9c0-.06.06 0 .1 0a.21.21 0 01.1-.2.47.47 0 00.16-.23.73.73 0 00.64-.37h.16c.07 0 0 0 0-.09s0-.07.1 0 0 .06 0 .06.06 0 .06-.09.09 0 .08 0h.08v-.1a.11.11 0 00.1 0h.1a.56.56 0 01.32-.29c0-.15 0-.23.13-.23s0 0-.06.1 0 0 .07.06a.9.9 0 01.18-.19c.09-.09.16-.11.21-.07a.23.23 0 000-.26 1.18 1.18 0 00.15-.11.37.37 0 01.14-.08V4h-.06c-.07 0-.1.06-.1.17s0 0 .05 0a.21.21 0 00.05-.13h.06a.9.9 0 00.29-.16l.3-.2a1.69 1.69 0 01.36-.35c.2-.16.36-.19.49-.1 0-.09 0-.14.05-.16l.08-.07c.07 0 .08.05 0 .08s-.05.08 0 .15a1.05 1.05 0 01.26-.2h.08a.22.22 0 01.12 0c0-.06 0-.09-.09-.08a.15.15 0 00-.11.08h-.1a1.28 1.28 0 01.85-.24 1.18 1.18 0 01.81.28 3 3 0 011 .26 5.84 5.84 0 00.87.35c.18.2.35.4.53.59a1.12 1.12 0 01.26.75 5.82 5.82 0 01-.65 1.83c-.31.52-.61 1-.92 1.53zm-10.75 9.55a.54.54 0 00.11-.23v-.16a.43.43 0 00-.1.19 1.06 1.06 0 00-.01.2zm.13.52v-.16c0-.07 0-.11.06-.13s-.15 0-.14.1a.33.33 0 00.08.19zm.26.1c0-.07 0-.1-.06-.1s.02.12.06.1zm.16-1c.05 0 .07 0 .07-.07s0-.08-.07-.06zm0-.16h.06s.02-.08-.06-.01zm.16-8.57v-.07s.04.01.04.06zm0 .16s.05 0 0 0 .04-.03.04-.01zm.13 8.47h-.13s.17.01.17-.01zm.06-8.89s0 .05-.06.09 0 0 .06 0 0 .07 0 .08a.13.13 0 00-.06 0 .16.16 0 000-.15c-.04.03 0-.01.1-.03zm0-.07s.09-.03.04-.01zm.17 7.17a.1.1 0 00-.07.1s0 .06-.1.06.1-.17.21-.17zm0-7.3v-.06zm0 0V8.1s.06.02.04.06zm.36-.17c.05.06.07.06.07 0s-.02 0-.07 0zm.23 11.14h.07c-.05 0-.07.01-.07.03zm.07-11.66q0-.1 0 0t0 .03zm.19-.3c.05-.08.07-.09.07 0s-.02.08-.07.03zm.13 11.9c0-.07 0-.07.05 0s0 .07-.05.03zm.07-.07c.08 0 .13 0 .13.1h-.13zm.19.07s0-.06.08 0 .1 0 .12 0 0 .07-.08.09a.14.14 0 01-.12-.06zM19 6.66h0zm.19-.13c.05 0 .05 0 0 0s-.08.07-.04 0zm.12-.08h.08c.02 0-.16.03-.12 0zM19.32 19h.05c.05 0-.01.08-.05 0zm.16-12.74a.22.22 0 00-.05.08.08.08 0 01-.08.05c.02-.08.06-.12.13-.12zm-.13.26zm.16-.29v.01zm.16-.17zm.23-.13c-.06 0-.06 0 0-.05s.1.02 0 .06zm.1-.12c0-.06.06-.07 0 0s.05.05 0 0zm.23-.19s0 .06-.1.06.07-.06.13-.06zM21 18.75a2.68 2.68 0 01-.69.26.55.55 0 01.31-.16 3.06 3.06 0 00.38-.1zm-.51-13.33h-.07a.1.1 0 01-.09 0s.05-.07.08-.07a.09.09 0 00.08-.06zm.13.13v-.06c.02 0 0 .02 0 .06zm.07-.32s0 .06-.07.06.07-.04.07-.06zM21 5.1c-.05 0-.05 0 0 0s0-.1 0 0zm.06.16v-.1c-.06.07-.06.1-.06.1zm0 13.49c0-.06-.05-.09 0-.06h.09zM21 5h0zm.13-.13s.05.03.01.03zm.16 13.62c.05.05.05.06 0 .05s-.05 0-.05.05-.05 0 0-.07a.09.09 0 01.06 0zM21.24 5zm.16-.2v-.03zm.26-.26a.27.27 0 01-.19.16.14.14 0 01.06-.13zm-.16.34v-.03zm0 13.61s.08-.03.03-.03zm.13-13.95c.05-.11.11-.15.2-.13a.24.24 0 01-.17.1zM22 18.2q0-.11 0 0zm.1.16h-.07s.06.02.06 0zm0-14.18h-.01zm0 0c0-.06.12-.09.29-.09a1.4 1.4 0 01-.3.09zm0 14a.33.33 0 01.13-.06s-.02.01-.11.01zm.13-.06c0-.07 0-.08.06 0s0-.05-.04-.05zm.23 0c0 .06 0 .09-.1.09s.05-.14.12-.14zM22.41 4h.07v.1h-.07zm.17 14h.06-.06zm.06-.13s0 .04 0 0zm.23-.19c-.05.06-.08.09-.1.09s.03-.12.1-.09zm.29-14.21q.11-.08 0 0v.09a.43.43 0 01-.39.17.2.2 0 01.19-.1c.16 0 .2-.05.2-.16zM23 17.41c0 .07-.07.08-.07 0s-.01-.04.07 0zm0 .27s.06 0 .06.09 0 .08-.06 0v-.13zm.19-.14s-.07.03-.03 0zm0 0v-.06.06zm.1.1s-.06 0-.05-.05 0 0 .08 0-.06.03-.06.05zm0-14.24v.07s-.04-.02 0-.07zm0 14c0 .07 0 .08 0 0s-.04-.01 0 .01zm0-14s.05 0 0 0zm.17 14a.09.09 0 010 .13.14.14 0 01-.17 0 .35.35 0 01.12-.08s.05-.02.05-.07zm-.17 0s.05.01 0 .01zm.26-.16c0 .07 0 .1-.09.1s.03-.09.09-.09zm0 0s0-.05.05 0 .02.01-.05.01zM23.65 3zm.13 14.11a.12.12 0 01-.13.13c0-.14.04-.18.13-.18zm0-13.69c.06 0 .1 0 .1-.07s-.18-.02-.13.02zm.1 14v-.07s.05 0 .08-.06a.11.11 0 00-.13 0c-.03-.02-.03.02.02.06zm.09-.36c0 .09 0 .11-.08.07s-.05-.13.05-.13zm0 0a.76.76 0 01.2-.24.39.39 0 01.26-.12 1.8 1.8 0 01-.24.2 1.12 1.12 0 00-.25.1zm.1.29a.23.23 0 010-.13h-.08a.23.23 0 00.01.06zm.1-14.11h-.1s.07-.04.07-.07zm.64 12.88c0 .06 0 .06-.05 0s.03-.12.02-.07zm.37-9c0-.07 0 0 0 0s-.03.01-.03-.12zm0-.36h.07s0 .06-.07 0zM29.52 14.9s0 .05 0 0zm0 1.8q.06-.07.06 0c0 .1-.02.08-.06 0zm0 .16s0-.02 0 0zm0 .29c0-.08 0-.09.05 0s-.01.05-.05 0zm0-1.33c0-.05.05 0 0 .06s.01.12.03-.06zm0-1.53q0-.1 0 0t.03 0zm0 1.33c0-.07 0-.08.05 0s.04 0-.02 0zm0 0c0 .05.05.08 0 .1s.03-.03.03-.1zm0 1c0-.07 0-.07 0 0s.05.02.03-.02zm0 1.38c0 .08 0 .09 0 0s.06-.09.06 0zm0 .61c.06-.07.1-.07.1 0zm6.81-14.7c.11 0 .13 0 .06-.08s-.08 0-.06.08a1.37 1.37 0 01-.15-.37.58.58 0 00-.18-.37 4.41 4.41 0 00-1.2 1.6 21.28 21.28 0 01-1 1.89c-.13.46-.28.91-.44 1.37s-.32.9-.47 1.34a5.21 5.21 0 01-.13.76c-.07.23-.12.46-.17.7 0 .05 0 .07.07.07a.24.24 0 010 .18 1.8 1.8 0 00-.08.21 24.16 24.16 0 00-.58 7.13v.06a.51.51 0 000 .25v.14c0 .2.06.43.1.69a4 4 0 00.63 1.44.91.91 0 00.44.39A8.27 8.27 0 0035 20a2.94 2.94 0 00.33-.41 1.18 1.18 0 01.42-.38V19c.11 0 .19-.14.23-.36a2.34 2.34 0 00.59-.7 3.85 3.85 0 01.52-.73c.61-1.07 1.22-2.11 1.82-3.15a23.6 23.6 0 001.6-3.27v-.05-.05c0-.05.07 0 .07-.06h-.07a.71.71 0 01.29-.46c0 .09 0 .13.07.13a.36.36 0 010 .11 1.16 1.16 0 000 .22.59.59 0 00.06-.2.3.3 0 010 .26.65.65 0 00-.06.26l.13-.15a.2.2 0 010 .2.45.45 0 00-.08.19.17.17 0 00.13.07.72.72 0 000 .29.25.25 0 010 .2s.06.07.06.23a3.24 3.24 0 01-.19 1.49.06.06 0 00-.07.07h.07c.07 0 0 0 0-.1s.13-.07.13-.22v.16l-.1.13a1.08 1.08 0 01-.13.49.37.37 0 000 .36 4.42 4.42 0 01-.35.62.83.83 0 00-.14.58h-.13a.83.83 0 01-.25.64 1.14 1.14 0 00-.31.57 3.15 3.15 0 00-.26.52.79.79 0 01-.36.43.38.38 0 010 .14v.08c0 .08 0 0 0 0h-.06c-.06 0 0 0 0 .07a5.62 5.62 0 01-.69 1 6.75 6.75 0 00-.71 1h-.26a8.81 8.81 0 01-.89 1 4.69 4.69 0 01-1.13.79 5.26 5.26 0 01-1.32.44 3.75 3.75 0 01-1.45 0 2.4 2.4 0 00-.45-.23l-.56-.16a4.38 4.38 0 01-.86-.5 1.53 1.53 0 01-.54-.9 3.16 3.16 0 01-.31-1c0-.33-.06-.64-.08-.95v.1c0 .1.08 0 0-.08s-.06-.08 0-.15 0 0-.06 0a2.13 2.13 0 01-.05-.58 1.88 1.88 0 00-.05-.56h.13a.28.28 0 01-.1-.13.09.09 0 01.07-.13.89.89 0 010 .11c0 .06 0 .08.05.08v-.09-.1-.07-.06a.41.41 0 000-.1s-.05-.05-.12 0a2.05 2.05 0 00.05-.56 2 2 0 01.05-.55s.06 0 .05-.06a.11.11 0 010-.1h-.07v.07a.51.51 0 010-.39.29.29 0 000-.33h.07s0 .06.06.1 0-.13 0-.14a.16.16 0 01-.1-.12c.05.07.09.09.13.07s0-.1-.1-.1v-.29c0-.11.05-.17.13-.17a.23.23 0 01-.09-.21.21.21 0 01.13-.21.5.5 0 010-.21.23.23 0 01.15-.18 1.16 1.16 0 010-.69 1.86 1.86 0 00.09-.78s.05 0 0 .07 0 .06.05.06a.46.46 0 00.05-.26c0-.06 0-.17-.05-.32s.07 0 .07 0h.06c.06 0-.06-.1-.05-.13a.51.51 0 00.05-.19.12.12 0 01.08.1l.09-.1v-.07h-.05c.01 0 0 .07.05.07s-.12 0-.1-.07a.09.09 0 00-.07-.13 1.25 1.25 0 00.15-.24.29.29 0 000-.31.48.48 0 010-.2v.1c0 .1.08-.08.06-.11a.93.93 0 01-.06-.18c.15 0 .22-.09.21-.26a.64.64 0 01.11-.43 1.12 1.12 0 000-.55c.05 0 .06 0 .05.05s0 .05 0 .05a2.7 2.7 0 00.16-.62 1.87 1.87 0 01.17-.56h.06s0-.1.05-.18.06-.14-.05-.21a1.59 1.59 0 00.13-.23 1.44 1.44 0 00.07-.22c-.05 0 0-.05.09-.13-.1 0-.12-.05 0-.09s.12-.07.1-.11c.13-.2.16-.35.1-.46h.06a1.33 1.33 0 00.05-.19.27.27 0 01.18-.12c.05 0 .06 0 0 0a.22.22 0 000 .13.48.48 0 00.1-.31.61.61 0 01.1-.34v.08c0 .08.09-.07.06-.15a.16.16 0 010-.18h-.07V4.9a.14.14 0 00.06-.11.58.58 0 01.07.19c.06 0 .08-.08 0-.11s0-.06.11-.08 0-.06-.1 0-.09 0-.09-.05a.1.1 0 01.05-.1.47.47 0 00.11-.1.09.09 0 00.06 0h-.06c0-.13 0-.21.1-.24a.58.58 0 00.13-.21h.16a.94.94 0 01.28-.86 9 9 0 00.63-.77h-.13c-.05 0-.08.1-.13.1a.44.44 0 01.39-.24 1.41 1.41 0 01.49 0 2.67 2.67 0 01.72-.16c.24 0 .48-.06.72-.1a.77.77 0 00.37-.06 1 1 0 01.36 0 1.71 1.71 0 01.83.23 4.42 4.42 0 01.77.49v-.1a.41.41 0 01.21.24.45.45 0 00.21.25 2.12 2.12 0 00.17.57 5.06 5.06 0 01.19.53 7.36 7.36 0 01.15 1.05c0 .39.05.72.05 1s0 .29.08.42a.46.46 0 010 .33.54.54 0 01-.37.49.68.68 0 01-.61 0 .12.12 0 01-.11-.08c0-.05-.07-.05-.11 0a5.17 5.17 0 00-.56-.49 3.6 3.6 0 00-.62-.39.23.23 0 000-.1s.05-.07.12-.07a4.85 4.85 0 01-.2-1.18A2.72 2.72 0 0036.42 4v.13c0 .05.05.09 0 .16a.14.14 0 010-.15.56.56 0 00-.06-.25zm-6.75 11.32c0-.06.06-.05 0 0s0 .11 0 0zm.07-.19v.06s-.05-.1 0-.1zm0 .06v.07c0-.04-.05-.07 0-.07zm0 1.66s-.05.05-.08 0 .03.02.08 0zm0-1.72q-.07-.13 0-.09s.04.05 0 .05zm.06 3.51h-.05c.01 0 0-.05 0-.05s.05-.05.08 0 .02.03-.03.05zm0-1.2c0 .11 0 .12 0 0s-.03-.07-.03 0zm0-2.93s.05 0 0 .05 0 0 0 .08-.06 0-.05 0a.69.69 0 00.02-.13zm0 1.59a.11.11 0 000-.08h-.06a.19.19 0 00.06.07zm0 .36c.05-.11 0-.16 0-.16s-.02.16 0 .16zm0 .29a.28.28 0 000-.22c-.03.15-.02.22 0 .22zm0 .88c0 .05 0 0 0 0s-.01-.06-.03 0zm0 .75s0 .03-.01 0zm0-4.13s0 .04 0 0zm0 .09c.05 0 .06 0 0 .07s0 .06 0-.07zm0 1.08v.06h.08c.01 0 0-.08-.05-.08l-.03.02zm0 .45s.03.03.03 0zm0 .33v-.06zm.13-2.67v.13h-.1c-.1 0 .06 0 .05-.05s.01-.06.05-.08zm-.1.23c0-.07 0-.06 0 0s.03.08 0 0zm0 .06s.03.11 0 0zm.1 3.95h-.1a.09.09 0 01.07 0s.03.04.03 0zm-.06-3s.07 0 .08-.06 0-.13 0-.13-.08.05-.08.15zm.09-1.4v.12s-.06-.11 0-.16zm0 2.38v-.04zm0-1.5a.26.26 0 01.07-.14c0-.06 0-.08-.07-.08a.71.71 0 010 .14c-.02.02-.02.04 0 .04zm0-.88v-.05c0 .03.05.01 0 .01zm.1-.39s-.06.09-.06.2-.06 0 0-.1.02-.14.09-.14zm0 1.4c-.06 0-.1 0-.1.07a.12.12 0 00.1 0c.05 0 .05 0 0-.09s.08 0 .05 0-.02-.06-.02-.02zm-.1.69c0 .06 0 .07 0 0s.03-.09 0-.04zm0 .29v-.16c0-.02.02.12.04.12zm0 .75c0 .11 0 .12 0 0s.03-.1 0-.02zm.1.23v-.1c0-.1 0-.08-.09 0s.06 0 .05.13 0 .02.07-.07zm-.06.19a2 2 0 000 .36v.39c.05-.17.07-.31.09-.4a.92.92 0 00-.05-.35h.06s0-.05-.06-.05 0 .06 0 .06-.04-.07-.04-.05zm0 .82s-.01-.04-.02-.04zm0 .52c0 .11 0 .12 0 0s-.01-.1-.04-.04zm0 .29a1.93 1.93 0 000 .44c0 .19.07.3.18.35a1 1 0 01-.06-.35 1.49 1.49 0 00-.1-.44h.05c-.05 0-.09-.07-.07-.07zm0-2.41c.06.05.09.05.08 0s.01-.08-.08-.04zm.09-3.2s0 .06-.05 0 .05 0 .05 0zm0 2.84h0zm0 3.7s0-.13-.1-.13zm0-6.54v-.29a.11.11 0 010 .13.22.22 0 000 .16zm0 1.08s.07.02.07 0zm0 1.53s.06 0 .06-.07v-.1a.29.29 0 01-.06.17zm.06-1.32v-.08a.89.89 0 010 .11v.08a.36.36 0 01.04-.11zm0 .67v-.08a.11.11 0 000-.09s-.06.06.04.17zm0-1.57v-.06a.08.08 0 01-.07 0zm0 2c0-.05 0 0 0 0s.04.03.04-.03zm0 5.2v.13a.35.35 0 00.01-.18zm0-5.86c0-.09 0-.13-.07-.13zm0-1c0-.07 0-.09 0 0s.05.08.08 0zm0-1.48v-.05c0 .03.12.05.08.05zm0 2.15c0-.08.07-.17.1-.24a.16.16 0 000-.18.49.49 0 01-.06.19.19.19 0 00.07.23zm0-1.14c.1 0 .15-.06.14-.18a.51.51 0 010-.24.46.46 0 00-.07.21.4.4 0 01.01.21zm.09 1.34c.07-.07.05-.12-.06-.16a.2.2 0 010 .09s.08.01.14.07zm0-1v-.2c0-.09.05-.13 0-.13a.22.22 0 00-.06.18q.08.17.14.17zm0 7.46s.04.02.08.02zm0-8.93h.06v-.06h-.06zm0 1.67c0 .08 0 .09 0 0s.14-.05.12.02zm0-1.6h.05c.05 0 .14-.05.1.02zm.06.52s-.06 0-.06.07.21-.01.21-.05zm0-.1a.24.24 0 010-.13s0-.07-.07-.1a.34.34 0 010 .14.08.08 0 00.22.11zm0 .49c.07 0 .1 0 .11-.13s0-.14-.08-.16.06.15 0 .18a.41.41 0 00.09.13zm0 8.21v.07s.15-.05.14-.05zm0-9.25a.1.1 0 010 .13.06.06 0 000 .1v-.23zm.1-1v-.13c.21.12.19.16.15.14zm0 .81v.13zm0 .75a.4.4 0 010-.13.2.2 0 000-.19.57.57 0 010 .18.12.12 0 00.18.15zm0 9l.18-.03zm.07-10.15c0-.05 0-.05 0 0s.18.06.18-.03zm0 .61a.11.11 0 010-.09h-.06c-.06 0 0 0 0 .08s.22-.02.24-.02zm0 .09v-.06s.16.03.18.03zm.13-1.3a.74.74 0 01-.05.23.26.26 0 000 .23.73.73 0 00.05-.2 1.61 1.61 0 000-.26.3.3 0 00.13-.36.55.55 0 01-.1.16.4.4 0 00.15.17zm.16-1c-.08 0-.13 0-.13-.06h.13zm0-.19c0 .06 0 .08-.05.06s.15-.05.23-.07zm0 .71c0 .07 0 .08 0 0s.17-.05.15-.01zm0-.78v-.06.13s.18-.08.17-.08zm.18.17c-.05 0-.07 0-.07.09a.26.26 0 00-.07.15.4.4 0 010 .15.17.17 0 00.08-.13 1.28 1.28 0 000-.17s.07 0 .07-.09.14-.06.14-.01zm-.14.94c0 .07 0 .07 0 0s.2-.08.17-.01zM31 10h-.1.1zm0-2q0-.09 0 0t.05 0zm.06.92c0-.07 0-.1-.06-.1s.07.06.11.06zM31 9.6c0 .09 0 .09 0 0s.07-.1.05-.04zm0-1.34c.07 0 .07 0 0 0s0 .03.08-.04zm0 1.11c0 .05 0 0 0 0s.1-.1.08-.04zm.07-.75s.07 0 .08-.08 0-.07-.08-.05zm.16-.62v.06s.01-.06 0-.06zm.08.26a.13.13 0 00-.1 0c.07.03.1.02.1 0zm-.1.1q0 .09 0 0zm.07-.66c-.05 0-.05 0 0 0s.02-.04 0 0zm0 .49a.07.07 0 010-.06v-.07a.15.15 0 010 .08s-.05.05 0 .05zm0-.81V7.3c0 .06.04.08 0 .08zm.06-.38h.1-.1zm.07 1.27h.07zm.13-1.21c0 .09.07.1.08 0s-.02-.06-.08.02zm.11-.6c0-.07 0-.06.05 0s-.06.1-.05.02zm.05.38c0 .08 0 .09 0 0s.02-.05 0 .02zm.13-.13v.06h.06s-.04-.04-.06-.04zm.07.94c0 .07 0 .08 0 0s.1 0 0 .02zm0-1.73c-.05.07 0 .07 0 0s.1-.02.03.02zm.16.1v.07c0 .07.03 0 .03-.09zm0-.1h.07c-.02 0 0-.08 0-.08h-.07a.11.11 0 01.03.1zm.1-.19h0c-.05 0 0 .07 0 .08s-.02-.06.03-.06zm0-.23zm.1-.16s.06 0 .06.02zm.13-.82h-.1a.12.12 0 01.16.02zm0 .69s-.06 0 0 0l.06.02zm0-.07c.11 0 .13 0 .06-.1s-.06 0 0 0a.08.08 0 010 .12zm.16-.81c0 .06 0 .07 0 0s.08-.03.06.02zm.07 6.55v-.13.06c0 .06.08.09.06.09zm.16-6.52c0 .06 0 .07 0 0s.08-.02.06.02zm.22-.57c0 .09 0 .1 0 0s0-.04 0 0zm.1-.23s0-.06-.07-.06v.06zm-.1.17v-.07zm.3-.39s.05 0 0 0 0-.02 0 0zm.09-.08c0-.06 0 0 0 0s0 .05 0 0zm3.2.63l-.07-.05c-.07-.05-.1 0-.1.05h.17zm0 1a1.1 1.1 0 01-.13-.62 1.24 1.24 0 01.16.66zm0 13.15v0c0-.01 0 0 0 0a.11.11 0 000 .04zm0-13s.07 0 .08.1 0 .1 0 .1-.07 0-.07-.07zm0 .46zm.1 0s.05.11.03.02zm0 .23h.06c.06 0 .01.02-.03.02zm.21 11.93v-.1c0-.02 0 .16.03.12zm.18-.3a.1.1 0 00-.07.1l-.06.1c-.06.1.06 0 .06-.1s.1 0 .1-.1.07 0 .08-.08a.37.37 0 01.08-.15.36.36 0 00-.16.25zm.29-.47c.05 0 .07 0 .07-.05s-.08.04-.04.07zm.17-.25v-.05a.12.12 0 00.03.07zm.29-.48h-.07v.16c-.06.07-.1.11-.1.13s.1 0 .1-.13v-.16h.07a.36.36 0 01.08-.12v-.08a.08.08 0 01-.06.08s-.04.07.01.14zm.17-.26s0-.01 0 0zm.16-.21h-.09.06c.06 0 .05.02.05 0zm.1-.23v.06s-.05 0 0 0v-.06s.06-.08 0-.12.02.01.02.12zm.1-.13c.06-.07.06-.11 0-.13a.09.09 0 010 .06s-.02.05.02.07zm.1-.2l.05-.06c.05-.06 0 0 0-.07v.08c0 .01-.08.03-.03.05zm.1-.23c0 .07.06.08.06 0s0-.04-.04 0zm.29-.52zm1-2.47c.09 0 .12 0 .08.1s-.07.09-.11.09a.12.12 0 010-.09.09.09 0 00.09-.1zm.39-.72h.06zm.1 3.71s0-.06-.1-.06.1.09.16.06zm0-.48v.06s.14-.02.09-.06zm0-3.46q0-.09 0 0t.06.04zm.26-.39h.07v-.13h-.07zM41.7 13.67c.09 0 .11.05 0 .09s-.02.02 0-.09zm11.51-1.8c-.09.05-.12.11-.08.18s0 .1-.12 0 0 .12.05.1.09 0 .11 0a.77.77 0 01-.32.13c0 .07-.05.12-.13.16a.56.56 0 00-.2.17 19.82 19.82 0 00-.23 2.07c0 .75-.08 1.46-.13 2.13a1.17 1.17 0 010-.7 2.06 2.06 0 000-.86 7 7 0 00-.16 1.56 13.27 13.27 0 01-.06 1.39c-.07 0-.1 0-.1.06s.1 0 .1-.06a.55.55 0 01-.1.62L52 19v.88a6.4 6.4 0 01-.07.88.21.21 0 00-.1.19s.06 0 0 0 0-.07 0-.05a1 1 0 01-.08.23.52.52 0 000 .29c.09 0 .12 0 .08-.09s0-.12 0-.1a1.12 1.12 0 000 .24.42.42 0 010 .18h.06s0-.05.1 0 0 .16-.13.1c0 .23.07.49.1.76a1.09 1.09 0 00.32.7c0 .09-.07.13-.14.12s-.11 0-.09.14-.06 0-.06-.09-.12.08-.16.06a.26.26 0 00-.2 0l-.96-.44a1.11 1.11 0 01-.75-.67c-.05-.44-.12-.94-.22-1.52a5.45 5.45 0 010-1.71c.06.63.11 1.22.13 1.76a4.41 4.41 0 00.39 1.63 10.58 10.58 0 01-.29-1.79c-.05-.59-.07-1.19-.07-1.79v-1.86-2s.06 0 0 .07a.09.09 0 000 .1.31.31 0 000-.17.23.23 0 010-.19.5.5 0 010 .34.66.66 0 000 .44 6.47 6.47 0 00.11-.94 5.68 5.68 0 000-.92 1.91 1.91 0 000 .57 2.61 2.61 0 010 .51h-.09c.01 0 0 .06 0 .09a.59.59 0 000-.33.44.44 0 01.1-.36.42.42 0 01-.07-.44.5.5 0 000-.41.09.09 0 01-.08 0 .11.11 0 00-.08 0 .41.41 0 000 .29v.17a.54.54 0 000-.22 2.1 2.1 0 010-.27 7.51 7.51 0 01-1.15.42c-.39.11-.78.21-1.17.29a.09.09 0 01-.08 0v.06a3.41 3.41 0 00-1.06.33 4.41 4.41 0 01-1.15.36q-.36 1.23-.57 2.34A21.16 21.16 0 0144 19.5v.07a.63.63 0 00-.4-.07.27.27 0 01-.31-.16c-.05 0-.07 0-.07.06-.19-.11-.4-.21-.63-.32a1.5 1.5 0 01-.57-.49h.06a7.32 7.32 0 01.09-1.76c.09-.56.19-1.14.27-1.73a2.87 2.87 0 01-.39-.57q-.16-.3-.36-.6s.07 0 .07-.05v-.05a.26.26 0 00.36 0 .31.31 0 01.39 0 .39.39 0 00.15-.23c0-.11.06-.22.08-.33s0-.21.06-.29a.62.62 0 01.1-.2 1.11 1.11 0 01-.06.41 1.3 1.3 0 00-.1.44q.19 0 .15-.15c0-.12 0-.19.08-.21.11-.76.25-1.49.42-2.2s.35-1.39.52-2.07S44 9 44 9a2.48 2.48 0 01.14-1 5.15 5.15 0 00.25-.95.75.75 0 00-.23.53 1.15 1.15 0 01-.2.58 1.4 1.4 0 01-.11.72 1.73 1.73 0 00-.15.65 1 1 0 010-.65 1.83 1.83 0 01.3-.52 16.86 16.86 0 01.44-2c.19-.63.37-1.24.54-1.85a.71.71 0 00.2-.39.13.13 0 00-.1.14.14.14 0 01-.1.15.26.26 0 01.02-.29c.08-.07.1-.17.05-.33a.75.75 0 01.28.07c.12 0 .2 0 .24-.1a1.49 1.49 0 00.28.13l.33.13a.55.55 0 01.24.18.28.28 0 010 .31h.1a2.86 2.86 0 00-.24 1 3.56 3.56 0 01-.21 1.07c.06 0 .09 0 .09-.1s0-.09.1-.09a.85.85 0 01-.19.32.5.5 0 00-.07.46.28.28 0 000-.18.21.21 0 01.05-.18v.1c0 .1.08 0 .12 0s0-.09 0-.12.07-.07.08 0a.89.89 0 010 .11.75.75 0 01.09-.34c.07-.12.13-.25.2-.38a.41.41 0 00.1-.13.77.77 0 01.09-.13c0-.08 0-.13-.09-.13a.52.52 0 00.08-.19.69.69 0 01.05-.17s.06 0 0 .12 0 .1.08.08 0 0 0 .07-.06 0 0 0a.25.25 0 000-.07s-.07 0-.07.1 0 .1.07.1 0 0 0-.1.1-.06.1-.1a.42.42 0 01.16-.34.28.28 0 00.13-.25v.07c0 .07.07-.07.07-.15a.76.76 0 010-.21.05.05 0 01.05 0 .61.61 0 01.16-.46A.86.86 0 0048 4h.13a.8.8 0 01.11-.31 1.06 1.06 0 00.15-.28c0 .05.06.07 0 .08a2.28 2.28 0 01.61-.87 3 3 0 00.63-.88.49.49 0 00.3-.21 1.68 1.68 0 00.19-.34s-.15 0-.17.1 0 .07.07 0 0-.08.1-.05a.62.62 0 01-.1.16.7.7 0 00-.13.16v-.13-.06c0-.06-.07-.05-.09.05a.17.17 0 01-.17.14 1.86 1.86 0 01.45-.56v.08a.35.35 0 00.13-.08c0 .05 0 .07-.05.08s0 0 0 .09.13-.05.08-.13-.06-.16 0-.2.08 0 0 .05a.09.09 0 000 .11.85.85 0 01.22-.09.36.36 0 00.18-.2c-.05-.07-.08-.07-.1 0a.19.19 0 01-.13.13.24.24 0 01.19-.26.44.44 0 00.26-.21c-.11 0-.17 0-.19.08a.23.23 0 01-.17.12.42.42 0 01.5-.25 1.62 1.62 0 00.6 0s.07 0 .07.07.09 0 .09 0h.07a.21.21 0 00.21.13 1.76 1.76 0 01.31 0 5.32 5.32 0 00.47.36 2 2 0 01.47.42 1.63 1.63 0 01.15.75 5.14 5.14 0 000 .85 5.69 5.69 0 00-.11.68 1.88 1.88 0 000 .68 5.12 5.12 0 01-.11.7 1.79 1.79 0 000 .64.58.58 0 00-.05.29.5.5 0 010 .3s.07-.06.07-.17c-.05 1-.13 1.89-.25 2.74s-.23 1.76-.34 2.74a.37.37 0 00.34.13c.09.03.17.09.22.24zM41.9 18.46c0 .06 0 .05 0 0s0-.07 0 0zm.26-4.4h.07-.09s-.02-.06.02 0zm.42 1.76c.05 0 .05-.05 0-.08s0 0 0 .08a.36.36 0 010-.36c0-.17 0-.28-.08-.33 0 .2-.06.44-.1.74s-.09.59-.13.89-.08.6-.1.88a2.44 2.44 0 000 .69 8.46 8.46 0 01.13-.92 1.82 1.82 0 000-.75.15.15 0 00.11-.13 1.38 1.38 0 000-.22 2 2 0 010-.25.16.16 0 01.12-.14.13.13 0 01.05-.1zm-.35 2.57h-.07s.07-.02.07 0zm.06-.32h.07V18h-.07zm.1-.59v-.07a.11.11 0 000 .07zm0 .13c0 .07 0 .06 0 0s-.01-.09-.03 0zm.06-.33v-.11c0 .03-.09.07-.03.11zm0-.45v-.07s-.04.07 0 .07zm0-.26s.04.02.04 0zm0-.46h.09q-.05-.03-.05 0zm0 .2c0 .06.06.07.06 0s.02-.05-.02 0zm.13-.69h.06v-.08zm.13-1.76h.06-.06zm0 1.76v-.1zm0-1.79s.12-.09.1 0zm.29-1.11s0 .07-.13.13a.13.13 0 010-.08.13.13 0 000-.08h.06zm-.06-.1s-.01.03-.03 0zm.81-3.06c-.06.22-.12.43-.16.64s-.11.44-.19.7-.07.33-.13.53a.85.85 0 000 .51h-.06v.36a.55.55 0 01-.18.32c.11-.5.22-1 .34-1.58s.24-1 .35-1.45zM43 12.72c0-.11 0-.14.05-.11s.01.07-.05.11zm.4-1.82q.06-.08 0 0s-.03.04-.03 0zm.09-1.14h.07v.06h-.07zm.26-1.08s0 .07-.03 0zm.53-2h.06s-.05-.07-.09-.05zm.09-.33s.06 0 0 0-.01.04-.03-.05zm0 .69s.08 0 .12-.15 0-.18 0-.18a2.3 2.3 0 01-.15.29zm.1-1v.08c0-.04-.07-.06-.03-.12zm.07-.1V6c-.1 0-.08-.08-.03-.06zm0 .59s.07 0 .08-.08 0-.15-.05-.15 0 .14 0 .15-.06.04-.06.08zm.09-1.21v.07a.07.07 0 010 .06s-.06 0 0 0a.25.25 0 01-.03-.13zm0 .95h.07s0-.08-.07 0zm0-.16c.07 0 .1 0 .1-.1a.09.09 0 00-.13.1zm0-.23h.09s0-.06-.09 0zm.06 10.43c0 .06 0 .07 0 0s.08-.05.01 0zm.1-11.44v.1a.23.23 0 000 .09c-.09 0-.11 0-.07-.09zm0-.23h.08a.35.35 0 00-.05.18v-.09c0-.09 0-.07-.02-.09zm0 .81q0 .13 0 0t.01 0zm0 10.47c0 .06 0 .07 0 0s.03-.05.01 0zm.1-11.44c0-.09 0-.1 0 0s.03.04.01 0zm0 0H45v.06h-.1zm0 .78c0 .07.06.07.05 0s-.02-.03-.04.03zm0 10.36H45h-.1zm0-10.49c0 .07.06.07 0 0s.11-.01.04.03zM45 5zm0 .09v-.03zm.61 8.22h.07s0-.07-.07-.09-.07 0 0 .05 0-.02 0 .01zm.17-.92v-.08a.08.08 0 00.05-.08q-.1-.06-.12 0v.13a.64.64 0 010 .31 2.49 2.49 0 00-.08.38c.11-.07.15-.07.11 0a.33.33 0 000 .15h.17s0-.05.06 0c0-.09 0-.13.1-.13s0 .06 0 .06a.12.12 0 01.1 0 2.41 2.41 0 01.49-.2 3.48 3.48 0 01.62-.1.28.28 0 000-.13s0-.05.06 0 0 0 .1 0h.05a.13.13 0 010-.13v.13c0-.02.1 0 .1-.06a.1.1 0 01.06-.1v.13c0-.02.05-.16.14-.16a.09.09 0 010 .08v.08c0 .08.07 0 .07-.08s0 0 .16.05 0-.1 0-.1-.05 0 0-.07.07 0 .08 0h.08c.08 0 0 .07 0 .08s.06 0 .05 0a.35.35 0 010-.13.21.21 0 00.23 0c.07-.05.12-.06.16 0s0 .07-.06.07a.11.11 0 00-.1.06h.23v-.13.05c0 .05 0 0 .07.08s.07-.06.1-.06a.16.16 0 00.09 0v-.09a.21.21 0 010 .06h.12c.07 0 0-.06-.05-.06s-.07 0 0-.1a1.48 1.48 0 00.38-.06l.4-.13a.87.87 0 000-.25.16.16 0 01.13-.18 1 1 0 000 .28v.21a1.11 1.11 0 00.18-.46 2.39 2.39 0 00.05-.55v-.57a1.54 1.54 0 01.24-.59 4.22 4.22 0 01.09-1c.07-.44.14-.86.21-1.27-.05 0-.07-.06-.07 0a2.65 2.65 0 00.15-1 1.71 1.71 0 01.22-.98.24.24 0 01-.05-.26.54.54 0 01.05-.23v-.1C51.05 5 51 5 51 5a5.05 5.05 0 00.16-.69 4.85 4.85 0 00.07-.72c0-.17.09-.39.16-.66a1.42 1.42 0 000-.67 9.22 9.22 0 01-.23 1.22A4.59 4.59 0 0051 4.51h-.13a.64.64 0 00.1.36c-.11 0-.15.09-.13.16a.15.15 0 010 .16.4.4 0 010 .26l-.06.3a2.09 2.09 0 010-1.11A5 5 0 0051 3.4a.32.32 0 00.09-.28.48.48 0 01.08-.34.27.27 0 010-.32c.08-.11.06-.19-.05-.23 0 .17 0 .27-.09.29s0-.14 0-.16a1.84 1.84 0 01-.58.62.5.5 0 01-.23.36c0 .06 0 .09-.05.09s0 0 0 .07a3.78 3.78 0 00-.75 1 3.7 3.7 0 01-.75 1 2.94 2.94 0 01-.54 1.09 1.88 1.88 0 00-.41 1.09c-.11 0-.16 0-.16.07a2.71 2.71 0 01-.15.5c-.05.15-.1.27-.14.38s-.11 0-.05-.05 0 0-.08 0a.75.75 0 010 .44.82.82 0 01-.25.41 2.58 2.58 0 01-.35.85l-.33 1.07a7.07 7.07 0 01-.43 1.01zm.16.62s0-.05 0 0 .06-.01 0-.01zM46 7.48h.09H46zm.13 3.84v-.1.17a.08.08 0 01.01-.07zm0 1.73c0-.11.07-.13.07-.05s-.05.09-.1.05zm0-5.64h.06v-.1h-.06zm.13-.33h-.06v.17c0 .1.09 0 .13-.12s0-.12 0-.14-.09.09-.06.09zm0-.65h.01zm.13 4s-.04-.05.01-.05zm0-4.14h.06c-.02 0 0 .08 0 .08s-.05.08-.09 0-.01-.09.04-.13zm0 6.68zm.09-7h.1a.35.35 0 000 .13.16.16 0 01-.07.13v-.11a.13.13 0 00-.02-.18zm0 .75h-.07s.12 0 .12-.03zm-.07 3.52c0 .09 0 .09 0 0s.07-.11.05-.03zm.1-4v.1c0 .1 0 .08-.06 0a.23.23 0 01.11-.14zm0 6.68c0-.06 0-.05 0 0s.04.08.02-.04zm.06-7.07h.1v.07h-.1zm.2 0v.2c0 .02-.09.09-.07.19s-.1-.1 0-.19a.45.45 0 00.1-.2zm-.1.62q0 .08 0 0c.05-.14.04-.12.02-.04zm0 .17s.04-.11.02-.04zm.07-.95s.05 0 0 0a.11.11 0 000 .07s-.07 0 0 0-.01-.11.02-.11zm0 .62V6.2zm.12 6.52s0 .05 0 0 0 0-.08 0 .04-.04.1-.04zm0-7.47a.14.14 0 010 .07.14.14 0 000 .06s-.06 0 0-.08.01-.11.06-.09zm0 1a.19.19 0 000-.11.11.11 0 010-.08s-.07 0-.08.08.08.05.1.05zm.07.36v.06l.07-.12zm0 2.53v.1l.07-.16zm0-3.83c.05-.05.07 0 .07 0v-.06zm.17-.07zm.09.36s-.05-.06 0-.11 0-.09-.1-.09a.78.78 0 010 .14.08.08 0 00.15 0zm0-.68v.09zm.2-.3v.1a.13.13 0 010 .07.07.07 0 01-.07-.07.12.12 0 01.12-.16zm.13-.23v.12a.19.19 0 01-.13.08.46.46 0 01.18-.26zm-.07-.16h.07s0 .06-.07 0zm.13-.13c0-.09 0-.09 0 0s.08.01.05-.06zm0 .1zm.26-.59s-.06.06 0 .12 0 .08-.12.08a.31.31 0 00.09-.13s.07-.13.12-.13zm-.17.49s.14-.06.09-.06zm.1 3.29zm0-3.55v.07c0-.04.08-.13.13-.13zm0 0c0-.15.11-.23.22-.23a.34.34 0 01-.09.12.69.69 0 000 .05zm.09 8.8h-.06.08c.08 0 .12-.06.12-.06zm.1-9.32v.11a.16.16 0 01-.15.08.09.09 0 01.19-.15.11.11 0 00.09-.1zm.04.85h.13v-.1H48zm.2-.75H48.16zm.09-.32c0 .06 0 .08 0 0s-.1 0-.04 0zm0 .75q0-.13 0 0t-.04.04zm0-.59c0-.09 0-.09 0 0s-.06.09-.04 0zm0-.2v-.06c0 .04.01.06-.04.06zm.07 9.32s-.02-.06-.04 0zm.23-9.61c.08 0 .09.11 0 .21a.93.93 0 00-.14.25.2.2 0 010-.25.34.34 0 00.1-.21zm0-.19c.08 0 .11 0 .08.09s-.07.08-.12 0a.13.13 0 000-.09zm.26-.18c0 .05-.06.07-.1 0 .06-.06.08-.06.06 0zm-.1 11.32s-.02-.09-.04 0zm.19-11.63l.08.13v.09a.3.3 0 00-.13.17c0 .06-.09.1-.2.1a.7.7 0 01.12-.15.36.36 0 00.08-.12h-.07a.08.08 0 01.07-.08s.11-.06.05-.14zm0 11.63h.12c0-.09 0-.13-.08-.13s-.12.04-.07.13zm.16-11.7c.06 0 .07.08 0 .23 0-.07-.06-.11-.05-.13a.22.22 0 00.02-.1zm.16 10.17h.07s-.1-.02-.1 0zm.16-10.36a.12.12 0 010 .09l-.06.1v-.11a.12.12 0 01.03-.08zm-.13-.1c.05-.05.06 0 .05 0s-.05.06-.08 0zm.13.52h-.03zm0-.65zm.06.13a.24.24 0 01-.1.1 1.62 1.62 0 01.33-.4c0 .11 0 .18-.1.2a.19.19 0 00-.12.1zm0 10.43h-.07s.05.02.05 0zm0-10.66s.03.07.01 0zm.2 14v3.46a9 9 0 01-.1-1.7c.03-.5.06-1.09.11-1.72zm0-1.14a.44.44 0 010 .39.8.8 0 000 .36.3.3 0 010-.32.63.63 0 00.04-.39zm.07.79a.1.1 0 000 .14c0 .06 0 .08-.08.08a.78.78 0 000-.14c-.01-.02.03-.04.12-.04zm-.03-13.72c0-.1.07-.12.07 0s-.03.05-.07 0zm0 10.43h.07s-.03.03-.07.03zm0 2.09c.09 0 .11.14.07.29 0 0-.06-.06 0-.13a.15.15 0 00-.07-.16zm0 .42h.1zm0 4.63c0-.07.07-.07.07 0s-.03.04-.07 0zm.2 1.11c0 .08.06.09.06 0s.02-.07-.06 0zm.16-9.06a1.75 1.75 0 00-.1.32.17.17 0 010-.19c.02-.09.02-.13.1-.13zM50 17.38a1.61 1.61 0 00.08-.47 1.05 1.05 0 00-.05-.47 3.91 3.91 0 000 .45zm0 .62s.07-.12.07-.29 0-.27-.07-.29a.9.9 0 010 .27 2.41 2.41 0 000 .31zm0 .1c0 .05.06.05.05 0s-.05-.01-.05.03zm0 .29h.07v-.08a.09.09 0 010 .05.05.05 0 00-.07.06zm.07.36a.28.28 0 010-.18c0-.05 0-.08-.05-.08v.15a.11.11 0 00.03.14zm0 .43c0 .08 0 .09 0 0s-.07-.02-.07.03zm.07 1.3a1.36 1.36 0 010-.18c0-.07 0-.09 0 0s-.06.07 0 .13-.14.08-.06.08zm0-10.07a.27.27 0 01.06.29 1 1 0 00-.06.36.4.4 0 010-.29 2 2 0 00-.09-.33zm0 1.11s-.14.01-.14.03zm0 4.53c.05 0 .07-.07.07-.15s0-.11-.07-.11zm0 .1v-.07.07zm0 .09c0-.06 0-.08-.07-.06v.1c-.01.07.01.06.01-.01zm0 3.49v-.16s-.14.19-.09.19zm0-7.56l.06-.06c.06-.06 0-.07 0-.07s-.2.12-.15.16zm0-1.95v.06a.13.13 0 010 .07s-.06 0 0 0a.12.12 0 00-.06-.1zm0 10.46s-.07.03-.08.03zm0 .19c0 .05.06 0 .06 0s-.11-.03-.15.03zm0 .29c.06 0 .09 0 .08-.06s0-.13-.05-.13a.09.09 0 010 .1.12.12 0 00-.12.12zm.16-12v.07a.28.28 0 000 .13v.45a1.35 1.35 0 01-.08.36 2.56 2.56 0 01-.01-.97zm-.1 4.63c.07 0 .1-.05.1-.16a.38.38 0 000-.2.21.21 0 010 .13c-.21.09-.21.16-.19.27zm.1-13v.1c0 .09 0 .1-.1 0s-.06-.06.01-.06zm-.1 14.63c.07 0 .1 0 .1-.07s-.19.07-.19.11zm0 .55h.07s-.12.03-.16.03zm.1 5.58c-.07 0-.1 0-.1.06s.01.02.01-.02zm0 .19v-.06zm.06-13.29c.07 0 .09.07.08.09s0 0 .08 0a.37.37 0 00-.09.26.47.47 0 01-.07.26c-.06 0-.07-.12 0-.23a.47.47 0 00-.12-.34zm0 5.6s.07.05.08 0 0-.06 0-.08a.09.09 0 01-.23.12zm.06 1.73h-.06s-.09.06-.09.04zm0 1.53l-.18.04zm0-5.38a.12.12 0 010-.14c0-.06 0-.09-.07-.09a.15.15 0 010 .13c-.13.09-.12.17-.08.17zM50.31.8h-.07V.73c.14 0 .15.02.07.07zm0 12.77v.08c0-.01.03-.04-.04-.08zm.17-3.19a1.66 1.66 0 00-.13.63 2.69 2.69 0 000 .7c0-.37.08-.73.11-1.09a5.68 5.68 0 01.18-1 .39.39 0 010-.26V9.2a2.47 2.47 0 01-.08.6 1.6 1.6 0 00-.12.58zm0-2h-.09c-.02 0-.07-.02.01.04zm0-.52c.11 0 .13.1.07.18s-.08.13 0 .18-.11-.07-.08-.13a.43.43 0 00-.1-.19zm0-.1h.07v.07h-.07zM50.63 6a1.18 1.18 0 010 .83 1.62 1.62 0 00-.1.86c-.11-.06-.14-.19-.1-.39a1.21 1.21 0 01.17-.42.66.66 0 010-.44 1.42 1.42 0 00.03-.44zm-.13-.16h.07v.06h-.07zm.07-.4c.06 0 .08 0 0 .09s0 .03 0-.08zm0 9.26l.03.01zm0 .81s.03.04.03.01zm.07-9.71c-.05-.08-.07-.12-.07-.09h.07zm.19 1.11c0 .44-.1.84-.16 1.22a3.62 3.62 0 00-.07.93A9.19 9.19 0 0050.78 8c0-.37.07-.74.11-1.11zm-.23 3.88c0 .06 0 .07 0 0s.08-.03.03.01zM50.7.6q-.08.13 0 0zm.06 5.31c-.06 0-.09 0-.09-.1a.05.05 0 01.06.06zm-.06 3.65h.1v-.1h-.1zm.06-.16c0 .06 0 .06 0 0s.02-.09 0 0zm0-8.8h.09A.57.57 0 0151 .47h-.11zm.09 5.83a.19.19 0 00.15-.21c0-.1 0-.17.05-.21H51a.32.32 0 01-.05.21.32.32 0 00-.06.21zm.07.36a.14.14 0 010-.19c0-.07 0-.11-.07-.13a.17.17 0 010 .17.11.11 0 00.15.15zM51 5.16h-.09s0-.09.06-.09a.06.06 0 000 .05.07.07 0 01.03.04zm0 4.66v-.06a.16.16 0 01-.05.11s0 .06.08.08a.15.15 0 01-.03-.13zm0-5.18c0-.07 0-.07 0 0s0 .07 0 0zm.1 1.24a.41.41 0 010-.1v-.06a.12.12 0 000 .09c-.1.05-.1.07-.04.07zm0-3.26a.21.21 0 010 .18c0 .08 0 .1-.09.08a.51.51 0 01.05-.26zm0 1c.07 0 .1 0 .1-.1s0-.09-.06-.09 0 .07 0 .09a.13.13 0 00-.14.14zm0 1.83c.09 0 .13 0 .13-.1s0-.14-.06-.16a.28.28 0 000 .13.24.24 0 01-.17.17zM51.19 3q-.07.13 0 0zm0 1.86h.07c.02 0 0-.08 0-.08v.06s-.11-.05-.11 0zm.2-.56h-.13.05l.04-.02zm0-.62c-.08.07-.08.09 0 .07s.1-.07-.01-.09zM51.94 17q-.07.14 0 0zm0 2.61c0-.05 0 0 0 0s-.02.05.06-.01zm0 2.18s.06.06.06-.01zm.1-6.65h.13-.13zm.09-.49c.05 0 .07 0 .09-.09s0-.1 0-.1a.08.08 0 01-.05.08s-.05.04-.01.1zM53 12c0 .07 0 .07 0 0s0-.07 0 0zm.2-.1h.06c-.05 0-.05.02-.05-.03zM69.43 9.37a15.25 15.25 0 01-1.43 2.2 25.92 25.92 0 01-1.76 2h-.07a12.06 12.06 0 01-2.44 2l-2.74 1.7a.13.13 0 01-.13-.1c-.07 0-.08 0 0 .13a.6.6 0 00-.39.06l-.33.2c-.3 0-.61.09-.91.15a5 5 0 00-.85.21.63.63 0 00-.16-.2V18.02a.16.16 0 00-.19-.07c-.09 0-.11 0-.07-.1h-.23a.33.33 0 01-.19-.05s-.07.07-.08.15a.2.2 0 000 .18 1.5 1.5 0 00-.17.47 2.84 2.84 0 01-.16.57c-.11.69-.23 1.51-.38 2.44a12 12 0 00-.11 2.64.67.67 0 00.07.42c.06.13.12.25.16.36l-.24.27a.44.44 0 01-.38.09c-.09 0-.13 0-.13.09a.85.85 0 00-.47-.24 1.81 1.81 0 01-.54-.18.8.8 0 01-.36-.34 3.28 3.28 0 00-.26-.47c0-.24-.08-.47-.13-.69a1.62 1.62 0 010-.62.13.13 0 010-.1.12.12 0 000-.09h.13a.21.21 0 01-.07-.15.11.11 0 00-.06-.11.11.11 0 010-.09v-.08c0-.08-.06 0-.06-.06v-.3h.13a.94.94 0 010-.45 1.14 1.14 0 000-.52.29.29 0 01.1.06.29.29 0 00.1.07c-.07-.11-.07-.17 0-.17a.52.52 0 01-.07-.32.37.37 0 01.17-.33.19.19 0 00-.17-.06s0-.07.08-.08.07-.05.05-.12 0 0 0 .05v.05a.32.32 0 010-.26 2 2 0 000-.36h.08a.86.86 0 010-.39c0-.17.07-.28.18-.33a.72.72 0 000-.14.45.45 0 010-.12H55a.24.24 0 00-.07-.16l.08-.07v-.09c0-.04 0 0 0 0s.09-.12.13-.1a.35.35 0 010-.31 2.6 2.6 0 00.13-.24s0-.05 0 0 0 0-.07 0 0-.09 0-.15v-.14a.65.65 0 00-.33-.2.21.21 0 010-.13.51.51 0 01-.29-.23.56.56 0 00-.29-.23c.06-.1.06-.17 0-.19s-.1-.09-.08-.2a2.79 2.79 0 00.59.26 1.69 1.69 0 00.58.1 1 1 0 01.13-.32c.07-.11.09-.19.07-.23s-.1-.2 0-.28a.38.38 0 000-.34.25.25 0 00.11-.28.63.63 0 01.08-.41s.07 0 .07.05 0 0 .1 0a2.53 2.53 0 00-.1.42c0 .13 0 .25-.07.36a.56.56 0 00.17-.38 1.6 1.6 0 000-.44.1.1 0 00.06-.09v-.13a.59.59 0 000-.39 1.22 1.22 0 01.06-.35.25.25 0 00-.14.28 1.53 1.53 0 010 .38c-.06 0-.08.05 0 .09a.09.09 0 010 .13h-.05c.01 0 0-.05-.08 0a1.84 1.84 0 01.01-.53 1.5 1.5 0 00.05-.4s.08 0 .13-.11.06-.06.06.05a.29.29 0 00.07-.21 1.27 1.27 0 010-.28.12.12 0 000 .13.18.18 0 01-.05.16c-.06 0-.08-.07 0-.09s.05-.09 0-.2a.34.34 0 010-.31.62.62 0 00.1-.37s-.05 0 0 0 0 .08 0 .08-.08-.07 0-.15a1.78 1.78 0 01.08-.18v.07a.18.18 0 000 .09.3.3 0 00.13-.18c0-.07 0-.11-.13-.11a1 1 0 00.15-.13s0-.07-.12-.07c.09 0 .12-.08.08-.13s0-.08 0-.13a.13.13 0 010 .07.38.38 0 01.13-.32c0-.05 0-.05 0 0s-.06 0-.09 0a.49.49 0 00.09-.4.23.23 0 01.11-.29v-.08c0 .01 0 0 0 0h.06s-.06-.14 0-.23a.34.34 0 00.08-.29s-.06 0 0 .08 0 .1-.08.08a.33.33 0 000-.21c0-.08 0-.12.11-.12a.22.22 0 000-.09h.08c.08 0 0-.12 0-.1s-.08 0-.08-.07 0-.06.05-.05a.07.07 0 100-.11s-.06 0 0-.1.09 0 .08.05a.81.81 0 01-.1.45c.08 0 .12-.08.11-.19a.29.29 0 01.05-.23h-.06a.45.45 0 01-.1-.38 2 2 0 000-.36.14.14 0 00.13.07c0-.05 0-.07-.05-.09h-.08a.22.22 0 01.08-.13v-.1c0-.04.17 0 .18-.1a.3.3 0 000-.2c.11 0 .13-.05.08-.09S57 8 57 8.09v-.1c0 .04.08 0 .08-.06s0-.06-.06-.05-.09 0-.07 0h.17c0-.06-.06-.1-.17-.1l.12-.09a.39.39 0 00.08-.1.42.42 0 010-.26.26.26 0 01.1-.33.27.27 0 010-.26.63.63 0 000-.26h.06c.06 0 0 0 0 0s0-.11 0 0 0 .07-.08 0a1.22 1.22 0 00.06-.41.46.46 0 01.17-.38c-.07-.08-.09-.15 0-.21a.48.48 0 000-.24 3.65 3.65 0 01-.36.31.65.65 0 00-.26.34h-.07-.06a4.19 4.19 0 01-.53.75 3.2 3.2 0 00-.48.75.17.17 0 01.06.11.31.31 0 00.07.15.27.27 0 00-.07.13s0 .05.07.1-.13 0-.13 0a1.32 1.32 0 01-.7-.24 2.28 2.28 0 01-.3-.49 1.44 1.44 0 00-.32-.49V6.3a1.35 1.35 0 00.39-.47 1.17 1.17 0 01.42-.47v-.1h.13c.05 0 .07-.09.07-.2a3.48 3.48 0 00.71-.62 4.28 4.28 0 01.66-.58A1 1 0 0057 3.6a.65.65 0 00.12-.39c0-.17.08-.36.11-.55a.92.92 0 01.25-.49h-.08l.15-.41a3.13 3.13 0 00.11-.44 1 1 0 00.47-.1.77.77 0 01.48 0l.16-.1a2.89 2.89 0 00.54.05.47.47 0 01.47.38.3.3 0 00.29-.1.32.32 0 01.3-.1 4.5 4.5 0 011.33-.6c.51-.17 1-.33 1.51-.51l.49-.06a2.61 2.61 0 00.42-.1s.07 0 .07.05 0 0 .06 0 0 0 0-.1a.67.67 0 00.44 0 .47.47 0 01.4 0H65.26a1.67 1.67 0 00.47.07h.5a8 8 0 012.47 1.41 5.71 5.71 0 011.52 2.25 4.32 4.32 0 01.26 2.31c-.13.76-.3 1.49-.49 2.19a1.44 1.44 0 00-.29.49c-.07.17-.16.38-.27.62zm-15.28 6.55v.06zm.36 5.37v-.05c0-.05.02-.06 0 .05zm.1.62h-.07c0 .07 0 .1.07.12s0 0 0 .08-.06 0 0 0 .06 0 .06-.1 0-.1-.06-.1a1 1 0 00.1-.28.34.34 0 000-.27.65.65 0 01-.06.26.3.3 0 00-.04.29zm0 .46v-.08c0-.01 0 0-.08-.05s.06.05 0 .08.03.05.08.05zm.06.29a.19.19 0 00-.13-.19v.11c0 .05.05.08.13.08zm-.13.23c.05.06.07.06.07 0s-.02-.09-.07 0zm0 .19c.05.07.07.06.07 0s-.02-.08-.07 0zm.2-2v-.05a.13.13 0 010 .1v.1a.31.31 0 010-.12zm0-.11a.46.46 0 010-.29v-.2a.43.43 0 010 .28.15.15 0 000 .24zm0-1.21c0 .07.06.07.06 0s-.05-.01-.09.03zm0 .69c.06 0 .09 0 .08-.12s0-.15 0-.18-.12.06-.1.1a.26.26 0 01.02.23zm.06-1.34a.11.11 0 00.1-.08v-.08s-.05.17-.1.19zm.07.88a.36.36 0 010-.11v-.12a.12.12 0 00-.07.12.11.11 0 00.07.12zm0-.39v-.06zm0-.39a.08.08 0 010 .11v.08a.36.36 0 00.03-.16zM55 19v.13a.13.13 0 000 .1s.07 0 .08-.1S55 19 55 19s.08-.08.06-.18 0-.16 0-.18-.09 0-.09.13zm.18-.82a.45.45 0 000-.32 3 3 0 01-.08.39.5.5 0 000 .32c-.01-.12.01-.25.05-.41zm0-.78v-.1a.11.11 0 010 .09s-.06-.01-.02-.01zm0 .39c.07 0 .07-.07 0-.08s-.06 0-.02.06zm0 2v-.1zm0-2.09s0-.06.05-.06 0 0 0-.1a.12.12 0 00-.1.06c.04-.01.04.02.06.04zm.1-.23a.13.13 0 000-.06h-.05.06zm0 1.44s-.01-.06.01-.06zm.07-.43s-.06.06 0 .06.05-.12.01-.12zm0-2.24c0 .1.06.12.06 0s-.01-.13-.05-.06zm.13 2.18h-.13s.14-.04.14-.06zm0-2.54h-.07c-.07 0-.01-.06.08-.06zm0 2.44c0 .07 0 .07 0 0s0-.1-.02-.06zm.06-2.08a.61.61 0 00.11-.35 2.87 2.87 0 010-.31.52.52 0 00-.11.31 2.24 2.24 0 01-.02.29zm0-.56c0 .05 0 0 0 0s0-.12-.02-.06zm.11-.23v.07h.09s-.07-.13-.11-.13zm0-.35h.05c.05 0-.01-.1-.05-.1zm0-.33c0 .09 0 .09 0 0s.05-.15.03-.06zm.17-.55c0 .06 0 .07 0 0s.05-.11.03-.06zm0 2.05c0 .09 0 .09 0 0s.05-.13.03-.06zm.09-2.84a.2.2 0 010 .09.08.08 0 010-.09c-.04-.07-.01-.08.03-.06zm0 2.71a.11.11 0 010-.12v-.11a.23.23 0 000 .11.1.1 0 000 .06zm0-2.8c0-.07 0-.07 0 0s.02-.02 0-.06zm.09 2.05s0-.04 0 0zm0-.13a.24.24 0 010-.11v-.11a.23.23 0 00-.07.11s.07.09.14.11zm.36-3.35h-.06v.16a.48.48 0 010 .18.14.14 0 000 .15.55.55 0 01-.1.22.19.19 0 000 .17v.19a.14.14 0 010-.1v-.09a.16.16 0 00.13-.17.73.73 0 010-.22 1 1 0 00.07-.15.21.21 0 000-.18h.06a.15.15 0 010-.1v-.06c0-.06.06-.12 0-.15a.3.3 0 010-.15c-.07.05-.1.1-.08.15a.81.81 0 01.05.15zm-.13 2.38a.19.19 0 010-.09v.08c0 .01-.02-.02.07.01zm.08-.33l-.05-.06a.2.2 0 010 .08v.08a.11.11 0 01.12-.06zm0-.46q0 .11 0 0t.12 0zm.07-2.73v.06s.18-.02.12-.06zm.06.36a.34.34 0 00-.08.21.42.42 0 000 .21.54.54 0 01.06-.25v-.17a.49.49 0 00.08-.23 2 2 0 010-.26.29.29 0 00-.11.22c.18.14.17.2.17.27zm.38-1.13a.73.73 0 00-.13.59.89.89 0 00.07-.29 1.11 1.11 0 01.06-.3s-.06-.06 0 0zm-.13 2h.07-.07zm0 .13c0 .07 0 .07.05 0s0-.13-.05-.06zM56.86 9h.06v-.12h-.06zm.14-.81c.07.07 0 .1-.06.1v-.07s-.03-.03.06-.03zm0 1v.07s.06 0 .06-.1.08 0 0-.05-.13-.04-.06.03zm0-.2c0 .05.07 0 .07 0S57 8.86 57 8.94zm0-.21a.24.24 0 010-.13v-.07.2zm.15-.41s0-.08-.05-.08a.12.12 0 010 .1v.1a.48.48 0 00.07-.12zm0-1.12c0 .06.06.06.06 0s-.02-.09-.06 0zm.06.45c0 .07.06.07 0 0s.03-.04 0 0zm.07-.06a.54.54 0 010-.21v-.18a1 1 0 01-.08.21s.01.11.08.18zm0-4.82v-.07s-.06.16 0 .16a.51.51 0 01.05-.09zm0 4.36s0-.08.07-.13 0-.06-.07-.06 0 .07 0 .09-.01.06.03.1zm0-.58zm0 .13v-.07zm0-.59q0 .14 0 0t.03 0zm0 .59v.09s.08 0 .1-.05 0-.08 0-.08.01.04-.04.04zm.1-.2c0 .07 0 .07 0 0s.08-.04.06 0zm0-.29s.05 0 0 0 .12-.07.1 0zm.16-4.47c0 .07 0 .07 0 0s.14-.04.1 0zm1.79 13.36a.22.22 0 00.28-.06q.07-.13.24 0c0-.11 0-.18.07-.2s.06-.06.06-.13.06 0 0 0 0 0 0 .08a.71.71 0 00.21-.08.44.44 0 00.15-.12.1.1 0 00.07-.1s0-.07.06-.07 0 .13 0 .13a.24.24 0 01.08-.26 1.46 1.46 0 01.21-.16v.07a.14.14 0 01.15-.09.36.36 0 00.14 0v-.11h-.09a.22.22 0 01.16 0 .07.07 0 00.1 0c-.09 0-.13 0-.13-.1a1.56 1.56 0 00.34-.18 2.11 2.11 0 01.31-.21v.13c-.11 0-.19 0-.23.08l-.13.15c-.09 0-.13 0-.13.06h.1v-.08h.05q0-.16.09-.15c.07 0 .12 0 .17-.11a.3.3 0 00.26-.15q.09-.15 0-.18s0-.06.07-.06a.23.23 0 01.13 0 .08.08 0 000-.05.13.13 0 010-.08.43.43 0 00.23-.18.3.3 0 01.23-.15.19.19 0 01.08.07h.08c.08 0 0-.09 0-.08v-.05c0-.05.08 0 .13 0s.07 0 .1-.08h0-.13a.32.32 0 01.29-.13h-.07a.13.13 0 01.07 0h.1c.1 0 .08 0 .06-.07h.07v-.06h.08-.08a.12.12 0 010-.09l.36-.33a1.1 1.1 0 01.35-.26s0 .05 0 0l.23-.28a1 1 0 01.36-.24 1.29 1.29 0 01-.16.18.12.12 0 000 .18.69.69 0 01.15-.2.37.37 0 00.12-.19s0-.13.1-.13 0 .06.1.06S65 11 65 11l.4-.32a.44.44 0 00.18-.42 4.63 4.63 0 00.78-.88s.06 0 0 .06 0 .08 0 0v-.08-.11c0-.06.08 0 0 0a.14.14 0 010-.1.9.9 0 00.28-.3.87.87 0 01.28-.29v.07a.13.13 0 000-.07V8.5A7.79 7.79 0 0068 7.07c.23-.49.45-1 .67-1.65.09-.45.15-.87.2-1.24a6.3 6.3 0 000-1.23 2.67 2.67 0 00-1.45-1.13 5.87 5.87 0 00-2-.21.09.09 0 01-.06 0 .14.14 0 00-.13 0 2.21 2.21 0 00-.64.11 1.16 1.16 0 01-.63.05v.1s-.06 0-.06-.05 0 0-.07 0a9.7 9.7 0 00-1.95.56 8.07 8.07 0 00-1.73 1 19.21 19.21 0 01-.47 3.57 32.07 32.07 0 00-.61 3.7l-.09.13-.39 2.07c-.13.69-.29 1.39-.46 2.1a.55.55 0 01-.07.46.31.31 0 000 .39l.55-.24.52-.22a1.07 1.07 0 01-.6.35 1.94 1.94 0 00-.64.24 4.66 4.66 0 00.87-.28 3.15 3.15 0 00.67-.52zM58 17.58s.05-.07 0 0zm.29-1.6s.06 0 0 0 .03-.04.03.02zm.13 1.76h-.06s.09.02.09 0zm.72-2.54zm.26-.07h-.2a.62.62 0 01.22-.15.49.49 0 01.18-.05c0 .05 0 .07-.09.07a.11.11 0 00-.08.13zm.33-.19s0 .05 0 0-.04-.02.03 0zm0 0a.33.33 0 01.11-.13.09.09 0 01.15 0l-.13.06zm.19.58c0 .07 0 .07 0 0s.08-.04.08 0zm.1-.62c0 .07 0 .08 0 0s.09-.04.03 0zm.2-.26zm0 .4zm.23-.4h-.1a.08.08 0 01-.06-.08h.16c.08 0 0 0 0 .05s-.03-.01-.01.03zm-.07-13.06c-.07.06-.08.07 0 0s.04-.05 0 0zm.26 12.77c0 .07 0 .1-.07.1s.02-.1.07-.1zm0 0h.06c.06 0 .02.05-.06 0zm.29-.13s0-.05 0 0 .07 0 0 0zm.06-.13c.09 0 .11 0 .07.07H61zm.23-13s.02-.03 0 .03zM62 13.5zm.19-.16c0 .07-.09.12-.19.16s0-.1.06-.11zM62.31.66V.6c0-.06-.01.06 0 .06zm.12 12.58h.06s-.02-.06-.06 0zm.13-.06s.06 0 .06-.1-.06.03-.06.1zm.13-.13h.05c.05 0-.01-.05-.05 0zm.49.29c0 .07 0 .07 0 0s.02-.04 0 0zm.29-.88h-.16c-.06 0 0-.06 0-.06v-.07c0-.07.16.07.16.13zm.26-.29v.1c.05 0 .07 0 .08-.07s0-.1-.05-.1-.01.07-.03.07zm.13.55s0-.02 0 0zm.07-.65s0-.07 0 0zm.16-.16s.08 0 .11-.05 0-.09 0-.12a.34.34 0 00-.11.17zm1.14-1.18c0 .09 0 .13-.1.13s-.13.05-.13.14-.09-.08 0-.13a.57.57 0 00.23-.14zm-.06-9.15c.08 0 .09.06 0 .06s-.07-.02 0-.06zm.19 9c0 .09 0 .13-.13.13s.07 0 .07-.06.02-.02.06-.05zm0 0s0-.06.13-.06a.19.19 0 01-.13.08zm.16-.22v.06zm.33-.17c-.11 0-.16 0-.16.1a.24.24 0 00.16-.1s.05 0 0-.06-.02 0 0 .08zm.39-.42h-.06c.05.05.08.04.06.02zm0-.07s.07 0 .07-.09-.04.05-.04.11zm.2-.45s.03.06.03.02zm.16-.07c0 .07 0 .07 0 0s.05-.04.03.02zm.3-.39c0 .09.06.09.06 0s.04-.04-.03.02zm.13-.26v-.06s.05.08.03.08zm2.37.88v.08c0-.03-.05-.04.03-.06zm0-.06v.06zm0 0v-.09c0 .03.13.08.07.11zm.23-.35c0-.07 0-.08.05 0s.02 0-.05 0zm.16-.26v0zm0 0v-.07s.02.03 0 .08z"/><path class="cls-2" d="M84.69 5.32l-.07-.06q-.06.2-.18.18c-.08 0-.11 0-.11.18 0-.09-.08-.11-.12-.07s-.06.07-.08.07a.3.3 0 010-.2.67.67 0 01.07-.18 1.19 1.19 0 00.08-.16.28.28 0 000-.18c0-.06-.08-.1-.11-.1h-.18l-.07-.07c-.07-.07-.1 0-.1.13a4.14 4.14 0 00-.62 0 3.89 3.89 0 00-.61.09 2.26 2.26 0 01-.62 0 1.19 1.19 0 00-.59.1.87.87 0 00-.77 0 1.52 1.52 0 01-.89.13 19.35 19.35 0 00-4.61 1.32 10.57 10.57 0 01-.49 2.56q-.39 1.15-.75 2.46h.11c.05 0 .06 0 0 .05a5.13 5.13 0 01.89-.24l.93-.18a.05.05 0 00.05 0h.08a4.12 4.12 0 01.77-.15l.82-.05h.86a3.91 3.91 0 01.91.07 2.32 2.32 0 01.8.29 1.21 1.21 0 01.52.63.21.21 0 010 .12.26.26 0 000 .18c-.11-.09-.2-.11-.28-.07a.34.34 0 00-.14.23h-.26c-.07 0-.11.07-.13.18a.61.61 0 00-.27 0 .2.2 0 00-.16.13 24.24 24.24 0 00-2.77.47q-1.33.31-2.7.57a.48.48 0 00-.33-.07 1 1 0 01-.33 0c-.19.69-.38 1.43-.57 2.2a9 9 0 00-.21 2.46 1.37 1.37 0 00.57 0 2 2 0 01.51-.07c.82-.22 1.57-.45 2.23-.7a20.66 20.66 0 012.17-.67.13.13 0 01.1 0l.09.06v-.08a.15.15 0 00.08-.08 7.46 7.46 0 001-.07c.37 0 .71-.08 1-.13a.6.6 0 00.38.08 1.38 1.38 0 01.44.05v.07a1 1 0 01.75.26 1.47 1.47 0 01.48.65h-.09a.16.16 0 00-.1 0v.14c0 .01-.06.05 0 .12a.27.27 0 00-.12 0h-.08a.28.28 0 00-.11.11.22.22 0 010 .08c-.41.09-.83.2-1.24.33a7 7 0 01-1.14.26.59.59 0 01-.29.14.56.56 0 00-.26.12 5.21 5.21 0 00-1.47.41 5.54 5.54 0 01-1.47.4 3.38 3.38 0 01-1.36.31 3.88 3.88 0 01-1.38-.13 3.1 3.1 0 01-1.08-.64 2.41 2.41 0 01-.65-1 2.66 2.66 0 01-.62-1.27 5.55 5.55 0 010-1.53c0-.24.09-.47.15-.7s.1-.47.14-.73c.16-.53.29-1.05.41-1.58a9.59 9.59 0 01.44-1.45c.15-.61.33-1.24.52-1.88S72.81 8 73 7.31a9.2 9.2 0 01-.93.39 6.1 6.1 0 00-.9.39.63.63 0 01-.35-.09.75.75 0 00-.28-.18s0-.07-.05-.08 0 0 .05-.08h-.26a2.24 2.24 0 00-.23-.73 1.76 1.76 0 01-.16-.77h.07a.09.09 0 000 .07 1 1 0 01.44-.25 1.54 1.54 0 00.5-.24s.06.08 0 .1a.11.11 0 000 .1c.07 0 .1 0 .09-.09a.28.28 0 010-.14c.17-.11.34-.2.49-.28a3.14 3.14 0 01.52-.3c0 .11-.08.17-.18.18a.27.27 0 00-.21.11.24.24 0 00.22 0l.17-.16v-.07s-.05 0 0-.09a1.14 1.14 0 01.35-.1.49.49 0 00.28-.18V5a.67.67 0 01-.17.08l-.19.07a.12.12 0 00-.1.13l.59-.28c.19-.1.4-.19.62-.28a.14.14 0 010-.19c.06-.05 0-.12 0-.23a.91.91 0 00.47 0 2.8 2.8 0 01.47-.07c0 .09-.06.12-.13.09s-.12 0-.16.08a11.93 11.93 0 001.74-.52 4.91 4.91 0 011.78-.36 5.76 5.76 0 011.45-.4c.56-.05 1.18-.12 1.88-.21a6.31 6.31 0 00-.87 0l-.8.07a.28.28 0 01.26-.12 1.62 1.62 0 00.3 0 12.7 12.7 0 012.31 0 3.23 3.23 0 011.92.7 5.72 5.72 0 00.56.79.92.92 0 01.13.97zM70.58 6s.06 0 .06-.07-.11 0-.06.07zm.16-.07zm.1-.06h.07l-.07-.02zm.4-.28c-.12 0-.15.11-.11.18a.53.53 0 01.2-.12.47.47 0 00.22-.18 2.69 2.69 0 00-.31.1zm.15 7.58zm0 .09s.03.01.03-.02zm.3-1.07s-.06 0 0 0 0 0 0-.07-.02-.04.03.05zm0-.16c0 .08.06.09 0 0s.05-.03.03-.03zm.13-.49h.06s.01-.09-.03-.02zM72 11zm.32-.78h-.1zm.2-.73c0-.05 0-.06-.07 0s.05.04.05-.01zm.71-5c.07 0 .1 0 .1.06a1.53 1.53 0 01-.27.17l-.31.13c0-.15.09-.22.22-.21a.23.23 0 00.24-.13zm-.29.51v.06H73S73 5 72.94 5zm1.55-.85a.24.24 0 01-.12.1c-.05 0-.07 0-.05-.1s0 0 .05 0 .05-.05.12-.03zm1.79-.56l-.91.3c-.31.09-.59.17-.85.26 0-.07 0-.1.13-.12h.23a3.46 3.46 0 01.67-.28 2.33 2.33 0 01.73-.19zm-1.76 8c0 .07.06.07.06 0s-.02-.05-.06-.01zm.32 0h-.11s.07-.06.11-.04zm.3-.13s-.07 0-.07.06a.1.1 0 00.07-.1zm0-7.3c0 .06 0 .06 0 0s.04-.11 0-.04zm0 7.3h.1s0-.11-.07-.04zm.26 0h.07s0-.05.06-.05h.07c.07 0 0-.12-.08-.1a.18.18 0 00-.09.08zm.1-7.34c.06 0 .1 0 .1-.06s-.07-.06-.07-.01zm.19 7.3s0-.07.09-.08 0 0 0-.08a.16.16 0 01-.08.05s.02-.02.02.04zm.2-.06v-.1zm.13-.07a.28.28 0 01.16 0c.07 0 .11 0 .13-.05s-.07 0-.16 0-.1-.06-.1-.02zm.62-7.75s-.07.06-.15.06a.76.76 0 00-.21 0 .64.64 0 01.39-.13zm-.23 7.69zm.26-.07h-.16c-.08 0 0 .07.08.07s.13-.09.11-.14zm.13-7.72a.13.13 0 010 .06.11.11 0 000 .07c-.07 0-.09 0-.07-.07a.12.12 0 01.1-.13zm0 7.76V11zm.06-7.48c0-.06 0 0 0 0v-.07zm0 7.44H77a.09.09 0 00.1-.1h-.2zm1-7.95a.67.67 0 01-.48.2.81.81 0 00-.47.13c0-.11.17-.18.39-.2a1.77 1.77 0 00.58-.2zm-.69 8h.15a.7.7 0 01.24 0s-.12-.06-.23 0-.14-.16-.14-.12zm.42-.1H77.89a.76.76 0 00-.28-.11zm.17 6.1c0 .06.06.06 0 0s.04-.21.02-.12zm.24-14h0zM78 11v-.06zm.13 0c.05.07.07.07.07 0s-.05-.1-.1 0zm.59-8a.25.25 0 01-.26.16.47.47 0 00-.23 0 .18.18 0 01.15-.16zm-.26 8c0 .07.06.08 0 0s-.01 0-.03 0zm.34-7.36s-.02.01-.03-.01zM79 3h-.24c-.02 0 0-.06.14 0a.25.25 0 00.22 0H79zm-.21 8h.07-.07zm.21 0zm.26-7.55s-.05.09-.05.03zm0-.27s-.04.03-.02.03zm.13 0s-.04.03-.02.03zm1.24-.13v-.07.07l-.02.03zm.31-.05a2.15 2.15 0 01.62 0 .5.5 0 00-.33-.12c-.15-.06-.23-.02-.29.12zm1.33 0a.35.35 0 00-.27-.12.89.89 0 01-.33 0 .3.3 0 00.23.12.77.77 0 01.37 0zm.07 0h.13-.13zm.23 0c-.07 0-.08 0 0 0zM83 5h.1a.22.22 0 01-.1 0zM83.71 18.07h-.1c.12-.07.14-.07.1 0zm10.88-9.88c-.11 0-.14 0-.11.08a.11.11 0 010 .15 1.14 1.14 0 00-.28 0 1 1 0 01-.27 0v-.1a1.2 1.2 0 01-.43-.26l-.32-.33h.06a7.58 7.58 0 01-.4-.43 1 1 0 01-.25-.52h.16a1.19 1.19 0 01.12-.54c.07-.16.16-.33.24-.49s.17-.33.25-.49a3.2 3.2 0 00.18-.57 7.73 7.73 0 00-1.62.85l-1.48 1a16.37 16.37 0 00-1.53 1.36c-.49.46-1 .89-1.45 1.3a3.41 3.41 0 00-.28.33c-.1.13-.18.19-.25.19a2.16 2.16 0 01-.29.43 1.34 1.34 0 00-.26.49 2.45 2.45 0 001 .19 4.7 4.7 0 011 .13 2.55 2.55 0 01.75.12 2.72 2.72 0 00.68.11 18.43 18.43 0 012.66 1.06 7.85 7.85 0 012.17 1.58c.11.24.23.49.37.77a2.41 2.41 0 01.25.89 2.75 2.75 0 01-.49 1.86v.13a12.84 12.84 0 01-1.11 1.21 6.18 6.18 0 01-1.34.94c-.54.33-1.08.64-1.61.95a7.21 7.21 0 01-1.87.71.76.76 0 01-.35.05 1.34 1.34 0 00-.4.05.23.23 0 00-.18-.05h-.21a1.87 1.87 0 00-.44-.08h-.54a3.75 3.75 0 00-.72-.44 2.36 2.36 0 01-.68-.47c-.11-.18-.23-.36-.34-.56a1.46 1.46 0 00-.44-.45.6.6 0 00-.4-.43.44.44 0 00-.21-.39.46.46 0 01-.24-.36h.13a.24.24 0 010-.26c0-.07-.07-.07-.07 0s0 .07-.06 0a1.47 1.47 0 01.13-.51A1.71 1.71 0 0084 17s.07-.06.1 0 0 0 .06-.05 0 0 0-.06 0 0 .08 0a.83.83 0 01.18-.62 4.24 4.24 0 00.38-.56c0 .13 0 .28-.18.44a.79.79 0 00-.25.54 1.09 1.09 0 00.25-.42.53.53 0 01.34-.36 4.75 4.75 0 00-.6 1 3.64 3.64 0 00-.31 1c.06 0 .09 0 .08-.08s0-.1.08 0a3.57 3.57 0 01.25-.94 1.36 1.36 0 01.57-.78c-.09.17-.18.34-.28.5a1 1 0 00-.15.51 1.37 1.37 0 00.2-.35.68.68 0 01.2-.37l-.13.3a1.57 1.57 0 00-.13.29.64.64 0 00.11-.16.4.4 0 01.15-.17q.06.07 0 .27a2.14 2.14 0 01-.13.29s.07.05.09 0a.07.07 0 000-.06c.06 0 .06.1 0 .18a.22.22 0 00-.05.27h.05c.05 0 0-.05 0-.1a.7.7 0 010 .31c0 .17 0 .27.15.31s.08-.16.13-.16a.24.24 0 000 .28.23.23 0 010 .27c.07.07.1.06.1 0v-.06s.07 0 .07.13 0 .13-.07.13a.2.2 0 000 .11v.15a.67.67 0 00.25.1h.24c.04 0 0 .09 0 .07s-.08 0-.08.06a1.5 1.5 0 00.89 0 5.35 5.35 0 011-.16 2.64 2.64 0 01-.88.2c-.32 0-.62.05-.88.09a4.75 4.75 0 001.62-.08 3.56 3.56 0 001.45-.63c.1.06.19.05.24 0a.26.26 0 01.28-.09s-.06-.05 0-.07a3 3 0 001.34-.72c.09 0 .15 0 .18-.05l.14-.11v-.07H91h0q.42-.39.84-.72a3.1 3.1 0 00.75-.78 2 2 0 00-.39.38 1.28 1.28 0 01-.42.34.32.32 0 01.21-.21c.1 0 .16-.13.18-.28h.07a2 2 0 00.19-.21.81.81 0 01.2-.18 9 9 0 00.42-.82 1.63 1.63 0 00.1-1 .72.72 0 00-.47-.43 1.67 1.67 0 01-.57-.26 1.9 1.9 0 01-.66-.21.91.91 0 00-.62-.08 14.68 14.68 0 00-1.76-.33l-1.79-.22c0-.05 0-.06-.13-.05a.22.22 0 01-.19 0 1.77 1.77 0 01-1-.38 3.61 3.61 0 01-.67-.73 7.32 7.32 0 00-.58-.83 2.11 2.11 0 01-.43-1 .63.63 0 010-.16.37.37 0 000-.2.15.15 0 01.13 0v-.08c0-.01-.06-.05-.06-.12h.16a.19.19 0 000-.13v-.09h.13c.11-.11.14-.21.1-.29s.13 0 .21 0a.27.27 0 000-.28 1.07 1.07 0 00.65-.65v.06a.15.15 0 000 .13l.15-.23a.3.3 0 000-.29h.23a.29.29 0 01.2-.13h.08c-.03 0 0-.07 0-.11s.07 0 .07 0a.09.09 0 000 .06v-.06a.08.08 0 010-.1c.09 0 .15-.06.2-.19h.16c.06 0 0-.11 0-.13s0-.11.08-.07.11.06.15 0 0-.08.05-.11a.16.16 0 00.11-.15c.09 0 .13 0 .13-.06v.06a.31.31 0 00.06-.13c0-.06 0 0 .1 0a.21.21 0 01.1-.2.47.47 0 00.16-.23.73.73 0 00.46-.32h.16c.07 0 0 0 0-.09s0-.07.1 0 0 .06 0 .06.06 0 .06-.09.09 0 .08 0h.08v-.1a.12.12 0 00.1 0h.1a.56.56 0 01.32-.29c0-.15 0-.23.13-.23s0 0-.06.1 0 0 .07.06a1.08 1.08 0 01.17-.19c.1-.09.17-.11.22-.07a.23.23 0 000-.26l.15-.11a.37.37 0 01.14-.08v.19h-.07c.16-.3.16-.22.16-.13a.2.2 0 000-.13h.07a.9.9 0 00.29-.16l.3-.2a1.3 1.3 0 01.34-.39c.2-.16.36-.19.49-.1v-.16l.08-.07c.06 0 .07.05 0 .08s0 .08 0 .15a.9.9 0 01.26-.2h.08a.22.22 0 01.12 0c0-.06 0-.09-.09-.08a.15.15 0 00-.11.08h-.1a1.28 1.28 0 01.85-.24 1.18 1.18 0 01.81.28 2.85 2.85 0 011 .26 6.45 6.45 0 00.88.35c.18.2.35.4.53.59a1.12 1.12 0 01.26.75 5.59 5.59 0 01-.66 1.83c-.3.52-.6 1-.91 1.53zm-10.75 9.55a.54.54 0 00.11-.23v-.16a.35.35 0 00-.1.19 1.06 1.06 0 00-.01.2zm.13.52v-.16L84 18c-.11 0-.15 0-.14.1a.28.28 0 00.14.16zm.26.1c0-.07 0-.1-.07-.1s.03.12.07.1zm.16-1s.07 0 .07-.07 0-.08-.07-.06zm0-.16h.07s.01-.08-.04-.01zm.17-8.57v-.07s.03.01.03.06zm0 .16s.03-.03.03-.01zm.13 8.47h-.13s.16.01.16-.01zm.06-8.89s0 .05-.06.09 0 0 .06 0 0 .07 0 .08a.13.13 0 00-.06 0 .16.16 0 000-.15c-.05.03-.02-.01.09-.03zm0-.07s.08-.03.03-.01zm.25 7.16a.1.1 0 00-.07.1s0 .06-.1.06.01-.16.17-.16zm0-7.3V8.1zm0 0v-.07.07zm.27-.16c0 .06.07.06.07 0s-.02 0-.07 0zm.23 11.14h.07s-.07.01-.07.03zm.07-11.66q0-.1 0 0t0 .03zm.19-.3c0-.08.07-.09.07 0s-.03.08-.07.03zm.13 11.9c0-.07 0-.07 0 0s.04.07 0 .03zM86 19c.08 0 .13 0 .13.1H86zm.19.07s0-.06.08 0 .1 0 .12 0 0 .07-.08.09a.14.14 0 01-.16-.05zm.2-12.45h.09c.09 0-.07.04-.13.04zm.19-.13s-.08.11-.04.04zm.12-.08h.08c.02 0-.16.07-.12.04zm0 12.56s.05.11.01.03zm.16-12.74a.22.22 0 00-.05.08.08.08 0 01-.08.05c.03-.05.07-.09.14-.09zm-.13.26zm.16-.29l.01.04zm.16-.17zm.23-.13c-.06 0-.06 0 0-.05s.08.05.01.09zm.13-.13c0-.06.06-.07 0 0s.03.09.01.04zm.23-.19s0 .06-.1.06.05-.02.11-.02zm.69 13.13a2.68 2.68 0 01-.69.26.55.55 0 01.31-.16 3.61 3.61 0 00.39-.06zm-.45-13.29h-.07a.1.1 0 01-.09 0s0-.07.08-.07a.09.09 0 00.08-.06zm.13.13v-.06a.05.05 0 00-.01.06zm.06-.32s0 .06-.07.06.07-.04.07-.06zm.27-.13s.04-.1 0 0zm.06.16v-.1c-.06.07-.06.1 0 .1zm0 13.49c0-.06-.05-.09 0-.06h.09zM88.4 5s0-.06.07-.06-.03.06-.07.06zm.13-.13s.04.03 0 .03zm.16 13.62v.03zM88.63 5zm.16-.2s-.05 0 0 0 0-.05 0-.03zm.26-.26a.27.27 0 01-.19.16.14.14 0 01.06-.13.31.31 0 01.13-.06zm-.16.34v-.03zm0 13.61s.11-.03.03-.03zm.13-13.95c0-.11.11-.15.2-.13a.24.24 0 01-.17.1zm.33 13.69q0-.11 0 0t.03-.03zm.1.16h-.07s.1-.01.1-.03zm0-14.18s0-.03.03-.03zm0 0c0-.06.11-.09.29-.09a1.4 1.4 0 01-.26.06zm0 14a.33.33 0 01.13-.06s.01-.02-.07-.02zm.13-.06c0-.07 0-.08.06 0s.04-.08 0-.08zm.23 0c0 .06 0 .09-.1.09s.09-.17.16-.17zM89.8 4h.07v.1h-.07zm.2 14zm.07-.13s-.07.04-.07 0zm.23-.19c-.05.06-.08.09-.1.09s-.01-.12.06-.09zm.29-14.21q.11-.08 0 0v.09a.43.43 0 01-.39.17.2.2 0 01.19-.1c.12 0 .16-.05.16-.16zm-.19 13.94c0 .07-.07.08-.07 0s-.02-.04.03 0zm0 .27s.06 0 .06.09 0 .08-.06 0v-.13zm.19-.14s-.08.03-.04 0zm0 0v-.06.06zm.1.1s-.06 0-.05-.05 0 0 .08 0-.07.03-.07.05zm0-14.24v.07s-.05-.02-.01-.07zm0 14c0 .07 0 .08 0 0s-.05-.01-.01.01zm0-14h-.01zm.16 14v.13a.12.12 0 01-.16 0 .28.28 0 01.12-.08s.03-.02.03-.07zm-.16 0s.03.01-.01.01zm.26-.16c0 .07 0 .1-.1.1a.09.09 0 01.09-.09zm0 0s0-.05 0 0 .05.01-.01.01zM91 3zm.13 14.11a.12.12 0 01-.13.13c0-.14.08-.18.17-.18zm0-13.69c.06 0 .1 0 .1-.07s-.14-.02-.09.02zm.1 14v-.07s.06 0 .09-.06a.11.11 0 00-.13 0s0 .02.05.06zm.09-.36c0 .09 0 .11-.08.07s-.02-.13.09-.13zm0 0a.76.76 0 01.2-.24.39.39 0 01.26-.12 1.8 1.8 0 01-.24.2 1.12 1.12 0 00-.21.1zm.1.29a.23.23 0 010-.13h-.08a.23.23 0 00.09.06zm.1-14.11h-.1s.11-.04.11-.07zm.63 12.88c0 .06 0 .06 0 0s.02-.12.01-.07zm.38-9c0-.07 0 0 0 0s.01.01.01-.12zm0-.36h.07s0 .06-.07 0z"/></svg>