<?xml version="1.0" encoding="utf-8"?>
<!-- Generator: Adobe Illustrator 24.3.0, SVG Export Plug-In . SVG Version: 6.00 Build 0)  -->
<svg version="1.1" id="Layer_1" xmlns="http://www.w3.org/2000/svg" xmlns:xlink="http://www.w3.org/1999/xlink" x="0px" y="0px"
	 width="97.69px" height="19.26px" viewBox="0 0 97.69 19.26" style="enable-background:new 0 0 97.69 19.26;" xml:space="preserve"
	>
<style type="text/css">
	.st0{fill:url(#SVGID_1_);}
	.st1{fill:#FFFFFF;}
</style>
<linearGradient id="SVGID_1_" gradientUnits="userSpaceOnUse" x1="1017.2791" y1="1426.8201" x2="1017.2791" y2="1524.5063" gradientTransform="matrix(0 -1 1 0 -1426.8201 1033.4669)">
	<stop  offset="0" style="stop-color:#FF5C00"/>
	<stop  offset="1" style="stop-color:#E70000"/>
</linearGradient>
<polygon class="st0" points="97.69,13.11 97.69,19.26 0,19.26 0,13.11 "/>
<g>
	<path class="st1" d="M2.9,16.28V0.43h10.69V3.5H6.71v3.36h4.81v2.47H6.71v3.76h6.88v3.19H2.9z"/>
	<path class="st1" d="M21.2,16.73c-3.98,0-6.17-1.93-6.17-4.9v-0.79h3.47v0.47c0,1.57,1.1,2.26,2.64,2.26s2.19-0.74,2.19-1.81
		c0-2.81-8.04-2.02-8.04-7.12C15.3,2.19,17.44,0,21.11,0c3.69,0,5.9,2.02,5.9,4.78v0.79h-3.48V5.09c0-1.24-0.83-2.14-2.43-2.14
		c-1.36,0-2.14,0.69-2.14,1.74c0,2.69,8.09,1.93,8.09,7C27.06,14.47,25.03,16.73,21.2,16.73z"/>
	<path class="st1" d="M37.65,6.14V5.21c0-1.43-0.86-2.17-2.31-2.17c-1.69,0-2.59,0.98-2.59,2.55v5.62c0,1.47,0.98,2.45,2.62,2.45
		c1.45,0,2.24-0.79,2.24-2.09v-1.02h3.52v1.26c0,2.88-2.31,4.93-5.86,4.93c-4.05,0-6.38-2.52-6.38-5.81V5.81
		c0-3.29,2.43-5.81,6.38-5.81c3.74,0,5.9,2.09,5.9,4.97v1.17H37.65z"/>
	<path class="st1" d="M51.79,16.28l-0.9-3.19h-4.43l-0.93,3.19h-3.55l4.76-15.85h4.17l4.78,15.85H51.79z M48.72,4.74l-1.55,5.74
		h3.05L48.72,4.74z"/>
	<path class="st1" d="M64.16,10.5h-3.14v5.79h-3.81V0.43h6.95c3.14,0,4.79,1.74,4.79,4.24v1.62C68.95,8.78,67.3,10.5,64.16,10.5z
		 M65.21,4.81c0-0.93-0.45-1.48-1.62-1.48h-2.57V7.9h2.59c1.14,0,1.59-0.57,1.59-1.5V4.81z"/>
	<path class="st1" d="M71.02,16.28V0.43H81.7V3.5h-6.88v3.36h4.81v2.47h-4.81v3.76h6.88v3.19H71.02z"/>
	<path class="st1" d="M89.32,16.73c-3.98,0-6.17-1.93-6.17-4.9v-0.79h3.47v0.47c0,1.57,1.1,2.26,2.64,2.26s2.19-0.74,2.19-1.81
		c0-2.81-8.04-2.02-8.04-7.12c0-2.67,2.14-4.86,5.81-4.86c3.69,0,5.9,2.02,5.9,4.78v0.79h-3.48V5.09c0-1.24-0.83-2.14-2.43-2.14
		c-1.36,0-2.14,0.69-2.14,1.74c0,2.69,8.09,1.93,8.09,7C95.17,14.47,93.15,16.73,89.32,16.73z"/>
</g>
</svg>
