<svg id="Layer_1" data-name="Layer 1" xmlns="http://www.w3.org/2000/svg" viewBox="0 0 93.65 25.46"><defs><style>.cls-1{fill:#fff}</style></defs><path class="cls-1" d="M14.79 5.32l-.06-.06q-.06.2-.18.18c-.08 0-.11 0-.11.18 0-.09-.09-.11-.12-.07s-.06.07-.08.07a.3.3 0 01-.05-.2.45.45 0 01.07-.18 1.19 1.19 0 00.08-.16.28.28 0 000-.18c-.05-.06-.08-.1-.12-.1h-.18l-.06-.07c-.06-.07-.1 0-.1.13a4.14 4.14 0 00-.62 0 4.21 4.21 0 00-.62.09A2.25 2.25 0 0112 5a1.17 1.17 0 00-.58.1.87.87 0 00-.77 0 1.52 1.52 0 01-.89.13 20.51 20.51 0 00-2.28.47 19.88 19.88 0 00-2.29.77 10.12 10.12 0 01-.48 2.56q-.39 1.19-.71 2.49h.11c.05 0 .06 0 0 .05a5.13 5.13 0 01.89-.23l.93-.18a.05.05 0 00.05 0h.08a4.12 4.12 0 01.75-.16l.82-.05h.86a3.91 3.91 0 01.91.05 2.39 2.39 0 01.8.29 1.21 1.21 0 01.52.63.21.21 0 010 .12.26.26 0 000 .18c-.11-.09-.2-.11-.28-.07a.34.34 0 00-.14.23h-.27c-.06 0-.1.07-.13.18a.57.57 0 00-.26 0 .2.2 0 00-.16.13 23.87 23.87 0 00-2.77.47q-1.33.31-2.7.57a.48.48 0 00-.33-.07 1.06 1.06 0 01-.33 0c-.19.69-.38 1.43-.57 2.2a9 9 0 00-.21 2.46 1.37 1.37 0 00.57 0 2 2 0 01.51-.07c.82-.22 1.57-.45 2.23-.7A20 20 0 018 16.89a.1.1 0 01.09 0l.1.06v-.08a.15.15 0 00.08-.08 7.57 7.57 0 001-.07c.37 0 .71-.08 1-.13a.6.6 0 00.38.08 1.38 1.38 0 01.44.05v.07a1 1 0 01.74.26 1.43 1.43 0 01.49.65h-.09a.16.16 0 00-.1 0v.14c0 .01-.06.05 0 .12a.24.24 0 00-.12 0h-.08a.28.28 0 00-.11.11.22.22 0 01-.05.08c-.41.09-.83.2-1.24.33a7 7 0 01-1.14.26.59.59 0 01-.29.14.56.56 0 00-.26.12 5.21 5.21 0 00-1.47.41 5.54 5.54 0 01-1.47.4 3.39 3.39 0 01-1.37.31A3.86 3.86 0 013.26 20a3.1 3.1 0 01-1.08-.64 2.41 2.41 0 01-.65-1 2.66 2.66 0 01-.62-1.27 5.19 5.19 0 010-1.53c0-.24.09-.47.15-.7s.1-.47.14-.73c.15-.53.29-1.05.41-1.58A9.59 9.59 0 012 11.13c.15-.61.33-1.24.52-1.88s.4-1.25.58-1.94a9.2 9.2 0 01-.93.39 6.1 6.1 0 00-.9.39A.59.59 0 01.93 8a.75.75 0 00-.28-.18s0-.07-.05-.08 0 0 .05-.08H.39a2.24 2.24 0 00-.23-.73A1.63 1.63 0 010 6.07h.07a.09.09 0 000 .07 1 1 0 01.44-.25A1.54 1.54 0 001 5.65c.05 0 .06.08 0 .1a.11.11 0 000 .1c.07 0 .09 0 .08-.09a.53.53 0 010-.14 5 5 0 01.49-.28 3.14 3.14 0 01.49-.21.21.21 0 01-.18.18.31.31 0 00-.22.11.26.26 0 00.23 0l.23-.11v-.07-.09A1.14 1.14 0 012.46 5a.49.49 0 00.28-.18V5a.48.48 0 01-.2 0l-.19.07a.12.12 0 00-.1.13l.62-.2c.19-.1.4-.19.62-.28a.14.14 0 010-.19c.06-.05 0-.12 0-.23a1 1 0 00.48 0 2.8 2.8 0 01.47-.07c0 .09-.07.12-.13.09s-.12 0-.16.08a11.93 11.93 0 001.74-.52 4.91 4.91 0 011.78-.36 5.76 5.76 0 011.51-.35c.51-.1 1.14-.17 1.82-.26a6.17 6.17 0 00-.86 0L9.35 3a.27.27 0 01.26-.12 1.62 1.62 0 00.3 0 12.7 12.7 0 012.31 0 3.23 3.23 0 011.92.73 5 5 0 00.56.79.9.9 0 01.09.92zM.68 6s.07 0 .07-.07-.11 0-.07.07zm.17-.07zm.09-.06H1s0-.02-.06-.02zm.41-.28c-.12 0-.16.11-.11.18a.57.57 0 01.19-.12.44.44 0 00.23-.18 2.13 2.13 0 00-.31.1zm.15 7.58zm0 .09s.03.01.03-.02zm.29-1.07s-.05 0 0 0 .05 0 0-.07-.01-.04.03.05zm0-.16c.05.08.06.09.05 0s.01-.03-.02-.03zm.21-.51h.06s-.06-.07-.06 0zm.09-.52zm.32-.78h-.1zm.2-.73c0-.05 0-.06-.07 0s.07.04.07-.01zm.71-5c.07 0 .1 0 .1.06a1.61 1.61 0 01-.28.17l-.31.13c0-.15.1-.22.23-.21a.23.23 0 00.26-.13zM3.05 5H3h.1-.05zm1.54-.85a.22.22 0 01-.11.1c-.05 0-.07 0-.05-.1s0 0 .05 0 .05-.05.11-.03zm1.8-.56c-.31.11-.61.21-.92.3l-.84.26c0-.07 0-.1.13-.12L5 4a3.36 3.36 0 01.66-.28 2.43 2.43 0 01.73-.16zm-1.76 8c0 .07.06.07.06 0s-.02-.05-.06-.01zm.32 0h-.11s.07-.06.16-.04zm.3-.13s-.07 0-.07.06.04-.06.07-.1zm0-7.3c0 .06 0 .06 0 0s.04-.11 0-.04zm0 7.3h.1s-.01-.11-.07-.04zm.26 0h.06s0-.05.07-.05h.07c.07 0 0-.12-.09-.1a.18.18 0 00-.08.08zm.1-7.34c.06 0 .1 0 .1-.06s-.07-.06-.07-.01zm.19 7.3a.15.15 0 01.08-.08v-.08l-.08.05s.03-.02.03.04zm.2-.06v-.1zm.13-.07a.28.28 0 01.16 0c.07 0 .11 0 .13-.05s-.07 0-.16 0-.1-.06-.1-.02zm.62-7.75s-.07.06-.15.06a.71.71 0 00-.21 0 .64.64 0 01.39-.13zm-.23 7.69zm.26-.07h-.16c-.08 0 0 .07.08.07s.13-.09.11-.14zm.13-7.72a.07.07 0 010 .06.2.2 0 000 .07c-.07 0-.09 0-.07-.07a.11.11 0 01.1-.13zm0 7.76V11zM7 3.65c0-.06 0 0 0 0zm0 7.44h.13c.06 0 .09 0 .09-.1H7zm1-7.95a.63.63 0 01-.47.2.81.81 0 00-.53.13c0-.11.17-.18.39-.2A1.65 1.65 0 008 3.14zm-.68 8h.15a.7.7 0 01.24 0s-.12-.06-.23 0-.18-.09-.18-.05zm.42-.1h.17A.11.11 0 008 11a.73.73 0 00-.28 0zm.17 6.1c0 .06.06.06.05 0s-.05-.14-.07-.05zm.17-13.93h0zm0 7.78h.07v-.06h-.07zm.13 0c0 .07.07.07.07 0s-.02-.09-.07.01zM8.8 3a.25.25 0 01-.26.16.47.47 0 00-.23 0A.18.18 0 018.49 3zm-.26 8c0 .07.06.08.05 0s-.03 0-.05 0zm.34-7.36s.01.01 0-.01zM9.14 3H9 9.14zm-.21 8H9h-.07zm.13 0h.08-.08zm.26-7.55v.03zm0-.27s.01.03.03.03zm.13 0s.01.03.03.03zm1.24-.13v-.07.07l.03.03zm.36-.05a2.15 2.15 0 01.62 0 .5.5 0 00-.33-.12c-.15-.06-.25-.02-.29.12zm1.33 0a.35.35 0 00-.32-.07.89.89 0 01-.33 0A.3.3 0 0012 3a.77.77 0 01.38 0zm.07 0h.13-.13zm.23 0c-.06 0-.07 0 0 0zm.39 2h.1zM13.82 18.07h-.1c.12-.07.14-.07.1 0zM24.7 8.19c-.11 0-.15 0-.11.08a.12.12 0 010 .15 1.14 1.14 0 00-.28 0 1 1 0 01-.27 0v-.1a1.2 1.2 0 01-.43-.26l-.32-.33h.06c-.15-.15-.29-.29-.41-.43a1.09 1.09 0 01-.24-.52h.16a1.19 1.19 0 01.14-.46c.07-.16.15-.33.24-.49s.17-.33.25-.49a3.2 3.2 0 00.18-.57 7.73 7.73 0 00-1.67.85l-1.48 1A17.94 17.94 0 0019 7.9c-.48.46-1 .89-1.45 1.3a3.43 3.43 0 00-.27.33c-.1.13-.18.19-.25.19a2.16 2.16 0 01-.29.43 1.34 1.34 0 00-.26.49 2.45 2.45 0 001 .19 4.7 4.7 0 011 .13 2.55 2.55 0 01.75.12 2.72 2.72 0 00.68.11 18.9 18.9 0 012.66 1.06 7.85 7.85 0 012.17 1.58c.1.24.23.49.37.77a2.41 2.41 0 01.25.89 2.75 2.75 0 01-.49 1.86v.13a12.84 12.84 0 01-1.11 1.21 6.18 6.18 0 01-1.34.94c-.54.33-1.08.64-1.61.95a7.21 7.21 0 01-1.87.71.78.78 0 01-.35.05 1.34 1.34 0 00-.4.05.23.23 0 00-.18-.05h-.22a1.7 1.7 0 00-.44-.08h-.53a3.75 3.75 0 00-.72-.44 2.36 2.36 0 01-.68-.47l-.35-.56a1.35 1.35 0 00-.44-.45c0-.18-.15-.32-.39-.43a.44.44 0 00-.21-.39.46.46 0 01-.24-.36h.08a.24.24 0 010-.26c0-.07-.07-.07-.07 0s0 .07-.06 0a1.47 1.47 0 01.13-.51 1.71 1.71 0 00.13-.47s.07-.06.1 0 0 0 .06-.05 0 0-.05-.06 0 0 .08 0a.83.83 0 01.18-.62 4.24 4.24 0 00.38-.56c0 .13 0 .28-.18.44a.75.75 0 00-.25.54 1.09 1.09 0 00.25-.42.53.53 0 01.34-.36 4.75 4.75 0 00-.6 1 3.34 3.34 0 00-.31 1c.06 0 .09 0 .08-.08s0-.1.08 0a3.91 3.91 0 01.24-.94 1.45 1.45 0 01.57-.78 4.82 4.82 0 01-.27.5 1 1 0 00-.15.51 1.37 1.37 0 00.2-.35.74.74 0 01.22-.31 2.08 2.08 0 01-.13.3l-.13.29a.48.48 0 00.12-.16.46.46 0 01.14-.17q.07.07 0 .27a1 1 0 01-.13.29c.05 0 .08.05.1 0a.09.09 0 000-.06c.07 0 .06.1 0 .18a.22.22 0 000 .27v-.1a.54.54 0 010 .31c0 .17 0 .27.15.31s.08-.16.13-.16a.23.23 0 000 .28.23.23 0 010 .27c.07.07.1.06.1 0v-.06s.07 0 .07.13 0 .13-.07.13a.2.2 0 000 .11.19.19 0 010 .15.67.67 0 00.25.1h.24c.04 0 0 .09 0 .07s-.09 0-.09.06a1.53 1.53 0 00.9 0 5.35 5.35 0 011-.16 2.64 2.64 0 01-.88.2c-.32 0-.62.05-.88.09a4.75 4.75 0 001.62-.08 3.62 3.62 0 001.52-.65c.1.06.19.05.24 0a.26.26 0 01.28-.09s-.06-.05 0-.07a3 3 0 001.34-.72.24.24 0 00.18-.05l.14-.11v-.07h.07q.42-.39.84-.72a3.1 3.1 0 00.75-.78 2 2 0 00-.39.38 1.28 1.28 0 01-.42.34.32.32 0 01.21-.21c.1 0 .16-.13.18-.28h.06a2 2 0 00.2-.21.81.81 0 01.2-.18 9 9 0 00.42-.82 1.63 1.63 0 00.1-1 .71.71 0 00-.48-.43 1.87 1.87 0 01-.57-.26 1.91 1.91 0 01-.65-.21.91.91 0 00-.7-.1 14.68 14.68 0 00-1.76-.33l-1.84-.27c0-.05 0-.06-.13-.05a.22.22 0 01-.19 0 1.77 1.77 0 01-1-.38 3.61 3.61 0 01-.67-.73 8.88 8.88 0 00-.58-.83 2.11 2.11 0 01-.43-1 .63.63 0 010-.16.51.51 0 000-.2.15.15 0 01.13 0c.05 0 .05-.07 0-.08s-.06-.05-.06-.12h.16a.19.19 0 000-.13v-.09h.13s.14-.21.09-.29.14 0 .22 0a.27.27 0 000-.28 1.09 1.09 0 00.65-.65s.05 0 0 .06a.15.15 0 000 .13l.28-.26a.3.3 0 000-.29h.23a.29.29 0 01.2-.13h.08c-.03 0 0-.07 0-.11s.07 0 .07 0a.09.09 0 000 .06s.05 0 0-.06a.08.08 0 010-.1c.09 0 .15-.06.2-.19h.16c.07 0 0-.11 0-.13s0-.11.08-.07.1.06.15 0 0-.08.05-.11a.16.16 0 00.11-.15c.09 0 .13 0 .13-.06v.06a.22.22 0 00.07-.13c0-.06.05 0 .1 0a.23.23 0 01.09-.2.48.48 0 00.28-.31.71.71 0 00.45-.32h.17c.07 0 0 0 0-.09s0-.07.1 0 0 .06 0 .06.07 0 .07-.09.09 0 .08 0h.08v-.1a.12.12 0 00.1 0h.1a.56.56 0 01.32-.29c0-.15 0-.23.13-.23s0 0-.06.1 0 0 .06.06l.18-.19c.1-.09.17-.11.22-.07A.23.23 0 0020 4l.14-.11a.53.53 0 01.15-.08V4h-.07c-.06 0-.09.06-.09.17a.17.17 0 00.05-.13h.07a.9.9 0 00.29-.16l.3-.2a1.3 1.3 0 01.36-.35c.19-.16.36-.19.49-.1 0-.09 0-.14.05-.16l.08-.07c.06 0 .07.05 0 .08s-.05.08 0 .15a.9.9 0 01.26-.2h.08a.2.2 0 01.11 0c0-.06 0-.09-.08-.08a.15.15 0 00-.11.08h-.1a1.28 1.28 0 01.85-.24 1.18 1.18 0 01.81.28 2.85 2.85 0 011 .26 6 6 0 00.88.35l.52.59a1.08 1.08 0 01.27.75 5.83 5.83 0 01-.66 1.83c-.3.52-.61 1-.91 1.53zM14 17.74a.54.54 0 00.11-.23v-.16a.35.35 0 00-.1.19 1.06 1.06 0 00-.01.2zm.13.52v-.16c0-.07 0-.11.06-.13-.11 0-.16 0-.14.1a.28.28 0 00.03.19zm.26.1c0-.07 0-.1-.07-.1s-.03.12.02.1zm.16-1s.07 0 .07-.07 0-.08-.07-.06zm0-.16h.07s-.04-.08-.09-.01zm.17-8.57v-.07s-.02.01-.02.06zm0 .16s.05 0 0 0-.02-.03-.02-.01zm.13 8.47h-.13s.11.01.11-.01zm.06-8.89s0 .05-.06.09 0 0 .06 0 0 .07 0 .08h-.07a.14.14 0 000-.15c-.09.03-.06-.01.05-.03zm0-.07s.03-.03-.02-.01zm.16 7.17a.1.1 0 00-.06.1s0 .06-.1.06a.14.14 0 01.14-.17zm0-7.3v-.06zm0 0V8.1s.01.02-.02.06zm.31-.17c0 .06.07.06.07 0s-.03 0-.07 0zm.23 11.14h.06s-.06.01-.06.03zm.06-11.66c0-.07 0-.07 0 0s.03.09 0 .03zm.2-.3q.06-.12.06 0t-.06.03zM16 19.11c0-.07 0-.07.05 0s-.05.04-.05 0zm.06-.07c.09 0 .14 0 .14.1h-.14zm.2.07s0-.06.08 0 .09 0 .12 0 0 .07-.09.09a.12.12 0 01-.11-.09zm.2-12.45h0zm.19-.13s-.04.07 0 0zm.12-.08h.08c.02 0-.12.03-.08 0zm0 12.56h.05c.05 0 .04.07-.01-.01zM17 6.27a.22.22 0 00-.05.08.08.08 0 01-.08.05c0-.09.04-.13.13-.13zm-.13.26zm.13-.29zm.16-.17zm.23-.13c-.06 0-.06 0 0-.05s.08.01.01.05zm.13-.13c0-.06.06-.07 0 0s.03.05.01 0zm.23-.19s0 .06-.1.06.04-.06.11-.06zm.68 13.13a2.47 2.47 0 01-.68.26.55.55 0 01.31-.16 2.93 2.93 0 00.38-.1zM18 5.42a.11.11 0 00-.07 0 .11.11 0 01-.1 0s.05-.07.09-.07a.09.09 0 00.08.01zm.13.13v-.06a.05.05 0 00-.01.06zm.06-.32s0 .06-.07.06.06-.04.06-.06zm.26-.13s.04-.1-.01 0zm.07.16v-.1c-.08.07-.08.1-.01.1zm0 13.49c0-.06-.05-.09 0-.06h.08a.09.09 0 01-.09.06zM18.51 5a.05.05 0 01.06 0 .05.05 0 01-.06 0zm.13-.13s.04.03 0 .03zm.16 13.62c.05.05.05.06 0 .05s-.05 0-.05.05-.05 0 0-.07a.09.09 0 01.05 0zM18.74 5zm.16-.2v-.03zm.26-.26a.27.27 0 01-.19.16.14.14 0 01.03-.16.31.31 0 01.16-.03zm-.16.31s0 .06 0 0zm0 13.61s.07 0 0 0zm.13-13.95c0-.11.11-.15.2-.13a.26.26 0 01-.17.13zm.33 13.69q0-.11 0 0t.03 0zm.09.16h-.06s.09.02.09 0zm0-14.18h.03zm0 0c0-.06.12-.09.3-.09a1.32 1.32 0 01-.27.09zm0 14a.33.33 0 01.13-.06s.02.01-.06.01zm.13-.06c0-.07 0-.08.06 0s.05-.05.01-.05zm.23 0c0 .06 0 .09-.1.09s.1-.14.19-.14zm0-14.12H20v.1h-.07zm.16 14h.07-.07zm.07-.13s0 .04 0 0zm.23-.19c-.05.06-.08.09-.1.09s.03-.12.1-.09zm.29-14.21q.11-.08 0 0v.09a.44.44 0 01-.4.17.22.22 0 01.2-.1c.16 0 .2-.05.2-.16zm-.2 13.94c0 .07-.06.08-.06 0s.02-.04.06 0zm0 .27c.05 0 .07 0 .07.09s0 .08-.07 0v-.13zm.2-.14s-.04.03 0 0zm0 0v-.06.06zm.1.1c-.05 0-.06 0-.05-.05s0 0 .08 0-.03.03-.03.05zm0-14.24v.07s-.01-.02.03-.07zm0 14c0 .07 0 .08 0 0s-.01-.01.03.01zm0-14h.03zm.16 14c.05.05.05.09 0 .13a.12.12 0 01-.16 0 .33.33 0 01.11-.08s.13-.02.13-.07zm-.16 0s.07.01.03.01zm.26-.16c0 .07 0 .1-.1.1a.09.09 0 01.13-.09zm0 0s0-.05.05 0 .05.01-.02.01zM21.15 3zm.13 14.11a.12.12 0 01-.13.13c0-.14.04-.18.13-.18zm0-13.69c.06 0 .09 0 .09-.07s-.17-.02-.12.02zm.09 14s0-.07.05-.07.06 0 .08-.06a.11.11 0 00-.13 0s-.07.02-.03.06zm.1-.36c0 .09 0 .11-.08.07s-.06-.13.05-.13zm0 0a.76.76 0 01.2-.24.37.37 0 01.26-.12 1.36 1.36 0 01-.25.2 1.46 1.46 0 00-.24.1zm.1.29a.23.23 0 010-.13h-.08a.23.23 0 00.05.06zm.1-14.11h-.1s.07-.04.07-.07zm.63 12.88c0 .06 0 .06-.05 0s.03-.12.02-.07zm.38-9c0-.07 0 0 0 0s-.03.01-.03-.12zm0-.36h.07s0 .06-.07 0zM27 14.9s0 .05 0 0zm0 1.8c0-.05.07 0 .07 0s-.01.08-.07 0zm0 .16s0-.02 0 0zm0 .29c0-.08 0-.09 0 0s.06.05 0 0zm0-1.33c0-.05.05 0 0 .06s0 .12.05-.06zm0-1.53q0-.1 0 0t.05 0zm0 1.33c0-.07 0-.08.05 0s.06 0 0 0zm0 0c0 .05.05.08 0 .1s.05-.03.05-.1zm0 1c0-.07 0-.07 0 0s.07.02.05-.02zM27 18c0 .08 0 .09 0 0s.08-.09.08 0zm0 .61q.09-.11.09 0zm6.81-14.7c.11 0 .13 0 .06-.08s-.08 0-.06.08a1.11 1.11 0 01-.15-.37.58.58 0 00-.21-.35 4.56 4.56 0 00-1.21 1.6 18.8 18.8 0 01-1 1.89c-.13.46-.28.91-.44 1.37s-.32.9-.48 1.34a3.44 3.44 0 01-.13.76c-.06.23-.12.46-.16.7 0 .05 0 .07.07.07a.24.24 0 010 .18 1.8 1.8 0 00-.08.21 24.17 24.17 0 00-.56 7.13v.06a.51.51 0 000 .25v.14c0 .2.06.43.1.69a4.11 4.11 0 00.19.73 4.21 4.21 0 00.31.64 1 1 0 00.44.39A8.11 8.11 0 0032.52 20a2.94 2.94 0 00.33-.41 1.18 1.18 0 01.42-.38V19c.11 0 .19-.14.23-.36a2.5 2.5 0 00.59-.7 3.85 3.85 0 01.52-.73c.6-1.07 1.21-2.11 1.82-3.15A23.6 23.6 0 0038 10.8v-.05c0-.05-.05 0 0-.05a.05.05 0 00.06-.06H38a.67.67 0 01.29-.46c0 .09 0 .13.07.13a.36.36 0 010 .11 1 1 0 000 .22.4.4 0 00.07-.2.3.3 0 010 .26.68.68 0 00-.07.26l.17-.16a.2.2 0 010 .23.45.45 0 00-.08.19.17.17 0 00.13.07 1 1 0 000 .29.22.22 0 01-.05.2c.05 0 .07.07.07.23a3.24 3.24 0 01-.2 1.49s-.06 0-.06.07 0 0 .06 0 0 0 0-.1.13-.07.13-.22c.05 0 .05.09 0 .16l-.09.13a1.08 1.08 0 01-.13.49.39.39 0 000 .36 3.59 3.59 0 01-.34.62.78.78 0 00-.14.58.06.06 0 00-.05 0h-.18a.86.86 0 01-.24.64 1.07 1.07 0 00-.31.57 3.15 3.15 0 00-.26.52.79.79 0 01-.36.43.38.38 0 010 .14v.08c0 .08 0 0 0 0h-.07c-.07 0 0 0 0 .07a5.62 5.62 0 01-.69 1 6.75 6.75 0 00-.71 1h-.16a8.81 8.81 0 01-.89 1 4.89 4.89 0 01-1.13.79 5.26 5.26 0 01-1.32.44 3.75 3.75 0 01-1.45 0 2.4 2.4 0 00-.45-.23l-.56-.13a4.38 4.38 0 01-.86-.5 1.53 1.53 0 01-.54-.9 2.93 2.93 0 01-.31-1c0-.33-.06-.64-.08-.95v.1c0 .1.08 0 0-.08s-.05-.08 0-.15 0 0-.06 0a1.8 1.8 0 01-.05-.58 1.88 1.88 0 00-.05-.56h.13a.23.23 0 01-.1-.13.09.09 0 01.07-.13.89.89 0 010 .11c0 .06 0 .08.05.08v-.09-.1-.07-.06a.58.58 0 000-.1s-.05-.05-.11 0a2.05 2.05 0 00.05-.56 1.66 1.66 0 01.05-.55s.06 0 .05-.06a.11.11 0 010-.1h-.06v.07a.44.44 0 010-.39.32.32 0 000-.33h.06s0 .06.07.1 0-.13 0-.14-.08 0-.1-.12.09.09.13.07 0-.1-.1-.1v-.29c0-.11.05-.17.13-.17a.24.24 0 01-.1-.21.22.22 0 01.14-.21.38.38 0 010-.21.23.23 0 01.15-.18 1.16 1.16 0 010-.69 1.88 1.88 0 00.08-.78c.05 0 .06 0 .05.07s0 .06.05.06a.56.56 0 00.05-.26c0-.06 0-.17-.05-.32s.07 0 .07 0h.06c.06 0-.06-.1-.05-.13a.86.86 0 00.05-.19.14.14 0 01.08.1l.08-.1v-.07s-.06 0 0 0 0 .07 0 .07-.12 0-.09-.07a.09.09 0 00-.07-.13l.15-.24a.29.29 0 000-.31.69.69 0 010-.2v.1c0 .1.09-.08.07-.11s0-.1-.07-.18c.16 0 .23-.09.22-.26a.59.59 0 01.11-.43 1.44 1.44 0 000-.55c.05 0 .06 0 .05.05s0 .05 0 .05a3.34 3.34 0 00.16-.62 2.17 2.17 0 01.16-.56h.07s0-.1.05-.18.06-.14-.05-.21c.06-.11.11-.18.13-.23a.9.9 0 00.08-.24s0-.05.1-.13c-.11 0-.12-.05 0-.09s.12-.07.1-.11c.13-.2.16-.35.1-.46h.06a1.33 1.33 0 00.05-.19.27.27 0 01.08-.16s.05 0 0 0a.31.31 0 000 .13.48.48 0 00.1-.31.61.61 0 01.1-.34s-.05 0 0 .08.08-.07.06-.15a.18.18 0 010-.18h-.06v.07s-.05-.09 0-.12a.14.14 0 00.06-.11s0 .11.07.19.08.02.05.02 0-.06.11-.08 0-.06-.1 0-.1 0-.1-.05a.12.12 0 010-.1.48.48 0 00.12-.1h0a.39.39 0 01.1-.37.47.47 0 00.14-.21h.16a.92.92 0 01.28-.86c.24-.28.46-.53.63-.77h-.13a.17.17 0 01-.13.1q.06-.19.39-.24a1.41 1.41 0 01.49 0 2.67 2.67 0 01.72-.16c.24 0 .47-.06.71-.1a.78.78 0 00.37-.06A1 1 0 0134 2a1.71 1.71 0 01.83.23 4 4 0 01.76.49v-.1a.41.41 0 01.21.24.45.45 0 00.21.25 2.49 2.49 0 00.16.57 3.65 3.65 0 01.2.53q.09.47.15 1.05v1c0 .28 0 .29.09.42a.51.51 0 010 .33.55.55 0 01-.37.49.68.68 0 01-.61 0 .12.12 0 01-.11-.08c0-.05-.07-.05-.12 0a4.28 4.28 0 00-.55-.49 4 4 0 00-.62-.39.23.23 0 000-.1.1.1 0 01.11-.07 4.85 4.85 0 01-.19-1.18A2.72 2.72 0 0033.92 4v.13c0 .05.05.09 0 .16a.17.17 0 01-.05-.15.52.52 0 00-.01-.25zm-6.73 11.32q.06-.09 0 0zm.06-.19v.06s-.04-.1 0-.1zm0 .06v.07c0-.04-.04-.07 0-.07zm0 1.66s-.05.05-.08 0 .04.02.08 0zm0-1.72q-.06-.13 0-.09c.05.05.05.05 0 .05zm.07 3.51h-.05c.01 0 0-.05 0-.05s.05-.05.09 0a.05.05 0 01-.04.05zm0-1.2c0 .11 0 .12 0 0s-.03-.07-.03 0zm0-2.93s.05 0 0 .05 0 0 0 .08-.06 0-.05 0a.69.69 0 00.02-.13zm0 1.59a.11.11 0 000-.08h-.06a.19.19 0 00.06.07zm0 .36v-.16s-.02.16 0 .16zm0 .29a.28.28 0 000-.22c-.03.15-.02.22 0 .22zm0 .88c0 .05 0 0 0 0s-.01-.06-.03 0zm0 .75s-.01.03-.02 0zm0-4.13s0 .04 0 0zm0 .09s.05 0 0 .07 0 .06 0-.07zm0 1.08v.06h.08c.01 0 0-.08-.05-.08l-.03.02zm0 .45s.03.03.03 0zm0 .33v-.06zm.13-2.67v.13h-.1c-.1 0 .06 0 .05-.05s.01-.06.05-.08zm-.1.23c0-.07 0-.06 0 0s.02.08 0 0zm0 .06s.02.11 0 0zm.1 3.95h-.1a.11.11 0 01.07 0s.03.04.03 0zm-.07-3q.07.07.09-.06v-.13s-.09.05-.09.15zm.1-1.4v.12s-.06-.11 0-.16zm0 2.38v-.04zm0-1.5a.21.21 0 01.07-.14c0-.06 0-.08-.07-.08a.71.71 0 010 .14c-.02.02-.02.04 0 .04zm0-.88v-.05c0 .03.05.01 0 .01zm.1-.39s-.06.09-.06.2-.06 0 0-.1.02-.14.06-.14zm0 1.4c-.06 0-.1 0-.1.07a.11.11 0 00.1 0v-.09c0-.09.08 0 .05 0s-.05-.06-.05-.02zm-.1.69c0 .06 0 .07 0 0s.02-.09 0-.04zm0 .29a.24.24 0 000-.16c0 .07.01.12.04.12zm0 .75c0 .11 0 .12 0 0s.02-.1 0-.02zm.1.23v-.1c0-.1 0-.08-.08 0s.06 0 .05.13-.01.02.03-.07zm-.06.19a1.37 1.37 0 000 .36v.39a2.3 2.3 0 00.08-.4.9.9 0 000-.35h.06s0-.05-.06-.05 0 .06 0 .06-.08-.07-.08-.05zm0 .82s-.01-.04-.02-.04zm0 .52c0 .11 0 .12 0 0s-.02-.1-.04-.04zm0 .29a1.49 1.49 0 000 .44c0 .19.07.3.18.35a.84.84 0 01-.07-.35 1.43 1.43 0 00-.09-.44c.08 0 .1 0 0 0s-.05-.07-.02-.07zm0-2.41c.06.05.09.05.08 0s-.04-.08-.08-.04zm.13-3.16s0 .06-.05 0-.04-.04.05-.04zm0 2.84h-.1c-.1 0 .05-.04.1-.04zM27.47 19h.07s0-.13-.1-.13zm.07-6.49v-.29a.11.11 0 010 .13.22.22 0 000 .16zm0 1.08s.03-.03.03-.05zm0 1.53s.06 0 .06-.07v-.1a.29.29 0 01-.06.12zm.06-1.32v-.08a.89.89 0 010 .11v.08a.36.36 0 010-.16zm0 .67v-.08a.11.11 0 000-.09c-.04-.05-.06.01 0 .12zm0-1.57v-.06a.07.07 0 01-.06 0zm0 2c0-.05 0 0 0 0v-.08zm0 5.2v.13a.35.35 0 00-.03-.23zm0-5.86s0-.13-.07-.13zm0-1c0-.07 0-.09 0 0s.01.03.03-.05zm0-1.48v-.05c0 .03.08 0 .03 0zm0 2.15a1.44 1.44 0 00.09-.24.16.16 0 000-.18.49.49 0 01-.06.19.19.19 0 00.04.18zm0-1.14q.16 0 .15-.18a.4.4 0 010-.24.46.46 0 00-.07.21.36.36 0 01-.05.16zm.1 1.34c.07-.07 0-.12-.06-.16a.2.2 0 010 .09s.03-.04.09.02zm0-1v-.2-.13a.22.22 0 00-.06.18q.03.12.09.12zm0 7.46s-.01-.03.03-.03zm0-8.93h.07v-.06h-.07zm0 1.67c0 .08 0 .09 0 0s.09-.1.06-.03zm0-1.6h.05c.05 0 .09-.1.05-.03zm.06.52s-.06 0-.06.07.16-.06.16-.1zm0-.1a.35.35 0 010-.13s0-.07-.06-.1a.68.68 0 010 .14.08.08 0 00.16.06zm0 .49c.06 0 .1 0 .11-.13s0-.14-.08-.16.06.15 0 .18zm0 8.21v.07s.1-.1.09-.1zm0-9.25s.06.09 0 .13a.07.07 0 000 .1v-.23zm.1-1v-.13c.14.07.14.11.14.09zm0 .81a.06.06 0 010 .05v.08zm0 .75A.66.66 0 0128 12a.17.17 0 000-.19.57.57 0 010 .19.12.12 0 000 .1zm0 9l.14-.08zm.07-10.15c0-.05 0-.05 0 0s.13.01.13-.08zm0 .61a.11.11 0 010-.09h-.07c-.07 0 0 0 0 .08s.14-.07.2-.07zm0 .09v-.06s.07-.02.13-.02zm.13-1.3a.7.7 0 010 .23.23.23 0 000 .23 1.46 1.46 0 00.05-.2 1.61 1.61 0 000-.26.3.3 0 00.13-.36.93.93 0 01-.1.16.4.4 0 00.05.12zm.16-1c-.09 0-.13 0-.13-.06h.13zm0-.19c0 .06 0 .08-.05.06s.09-.1.18-.12zm0 .71c0 .07 0 .08 0 0s.12-.1.1-.06zm0-.78v-.06.13s.12-.13.11-.13zm.18.17s-.06 0-.06.09a.21.21 0 00-.07.15.4.4 0 010 .15.2.2 0 00.08-.13 1.28 1.28 0 000-.17s.06 0 .06-.09.06-.11.1-.06zm-.13.94c0 .07 0 .07 0 0s.13-.13.11-.06zm.13-.23h-.09.06l.14-.01zm0-2q0-.09 0 0t.15-.01zm.06.92c0-.07 0-.1-.06-.1s.17.05.21.05zm-.06.68c0 .09 0 .09 0 0s.17-.11.15-.05zm0-1.34c.06 0 .07 0 0 0s.13.02.18-.05zm0 1.11c0 .05 0 0 0 0s.2-.11.18-.05zm.06-.75c.05 0 .07 0 .09-.08s0-.07-.09-.05zm.27-.63v.06s.01-.06 0-.06zm.08.26a.13.13 0 00-.1 0c.06.03.1.02.1 0zm-.1.1q0 .09 0 0zm.06-.17l.05-.06c.05-.06 0-.05 0-.07a.15.15 0 010 .08s-.09.05-.05.05zm0-.49s.03-.04 0 0zm0-.32V7.3c0 .06.05.08 0 .08zm.07-.38h.1-.1zm.06 1.27h-.06.06zm.1-1.19c0 .09.07.1.09 0s.01-.08-.09 0zm.12-.6c0-.07 0-.06.05 0s-.03.08-.02 0zm.05.38c0 .08 0 .09 0 0s.05-.07.03 0zm.13-.13v.06h.06s-.01-.06-.03-.06zm.06.94c0 .07 0 .08 0 0s.1-.02.03 0zm0-1.73c-.05.07 0 .07 0 0s.13-.04.07 0zm.16.1v.07c0 .07.07-.02.07-.11zm0-.1h.06c-.03 0 0-.08 0-.08h-.07a.11.11 0 01.08.08zm.1-.19v.08c0 .01.02-.08.07-.08zm0-.23zm.1-.16s.05 0 0 0 .1-.02.1 0zm.28-.82h-.1a.11.11 0 01.1 0zm0 .69c-.05 0-.06 0 0 0s0 .02 0 0zm0-.07c.11 0 .13 0 .06-.1s-.06 0-.05 0a.08.08 0 01-.01.1zm.16-.81c0 .06 0 .07 0 0s-.03-.05-.05 0zm.07 6.55v-.13.06c0 .06-.03.07-.05.07zm.16-6.52c0 .06 0 .07 0 0s-.03-.04-.05 0zm.13-.59c0 .09 0 .1 0 0s-.01-.04-.05 0zm.1-.23s0-.06-.07-.06v.06zm-.07.17v-.07zm.29-.39c.05 0 .06 0 0 0s-.05-.02-.05 0zm.1-.08c0-.06 0 0 0 0s-.05.05-.05 0zm3.2.63l-.07-.05c-.07-.05-.1 0-.1.05h.17zm0 1a1.1 1.1 0 01-.14-.58 1.36 1.36 0 01.12.62zm0 13.15v0a.11.11 0 00-.05.04zm0-13s.07 0 .08.1 0 .1 0 .1-.06 0-.06-.07zm0 .46zm.1 0s0 .11-.02.02zm0 .23h.06c.06 0-.04.02-.08.02zm.21 11.93v-.1c0-.02-.05.16-.02.12zm.18-.3a.11.11 0 00-.06.1l-.07.1c-.07.1.07 0 .07-.1a.09.09 0 00.1-.1s.07 0 .08-.08a.37.37 0 01.08-.15c-.13.05-.18.12-.22.25zm.29-.47s.07 0 .07-.05-.13.04-.09.07zm.16-.25v-.05a.1.1 0 00-.02.07zm.3-.48h-.07v.16c-.07.07-.1.11-.1.13s.1 0 .1-.13v-.16h.07a.36.36 0 01.08-.12v-.08a.08.08 0 01-.06.08s-.09.07-.04.14zm.16-.28s-.04.01-.02.02zm.16-.21h-.1.07c.02 0 .01.04.01.02zm.1-.23v.06s-.05 0 0 0v-.06a.1.1 0 000-.12s-.02.03-.02.14zm.1-.13c.06-.07.06-.11 0-.13a.09.09 0 010 .06s-.07.07-.02.09zm.1-.2a.07.07 0 010-.06v-.07.08c0 .01-.07.05 0 .07zm.09-.23c0 .07.07.08.07 0s-.04-.02-.09.02zm.3-.52zm1-2.47c.09 0 .11 0 .08.1s-.07.09-.11.09a.12.12 0 010-.09.09.09 0 00.05-.08zm.39-.72s.06.02.02.02zm.1 3.71s0-.06-.1-.06.05.11.12.08zm0-.48v.06s.12 0 .05-.04zm0-3.46q0-.09 0 0t.02.06zm.26-.39h.06v-.13h-.06zM39.2 13.67c.09 0 .11.05 0 .09s-.02.02 0-.09zm11.51-1.8q-.14.08-.09.18c0 .08 0 .1-.11 0s0 .12.05.1.09 0 .11 0a.77.77 0 01-.32.13c0 .07-.05.12-.13.16a.49.49 0 00-.2.17 19.82 19.82 0 00-.23 2.07c0 .75-.08 1.46-.13 2.13a1.09 1.09 0 010-.7 2.24 2.24 0 000-.86 6.42 6.42 0 00-.16 1.51 10.75 10.75 0 01-.07 1.39q-.09 0-.09.06c.06 0 .09 0 .09-.06a.53.53 0 01-.09.62l.13.13a8.26 8.26 0 000 .88 6.4 6.4 0 01-.06.88.2.2 0 00-.1.19s.06 0 0 0 0-.07 0-.05a1 1 0 01-.08.23.44.44 0 000 .29c.09 0 .12 0 .08-.09s0-.12 0-.1a1.12 1.12 0 000 .24.3.3 0 010 .18h.07s0-.05.1 0 0 .16-.13.1c0 .23.07.49.09.76a1.1 1.1 0 00.33.7q0 .14-.15.12c-.07 0-.1 0-.08.14s-.06 0-.06-.09-.12.08-.17.06a.23.23 0 00-.19 0l-1-.27a1.16 1.16 0 01-.75-.67c0-.44-.11-.94-.21-1.52a5.17 5.17 0 010-1.71c.06.63.1 1.22.13 1.76a4.41 4.41 0 00.39 1.63 10.62 10.62 0 01-.3-1.79c0-.59-.06-1.19-.06-1.79v-1.86-2s.06 0 0 .07a.09.09 0 000 .1.31.31 0 000-.17.22.22 0 010-.19.4.4 0 010 .34.82.82 0 000 .44 5.38 5.38 0 00.12-.94 5.68 5.68 0 000-.92 1.91 1.91 0 000 .57 1.89 1.89 0 010 .51h-.08c.01 0 0 .06-.05.09a.51.51 0 000-.33.43.43 0 01.09-.36.41.41 0 01-.06-.44.6.6 0 000-.41.09.09 0 01-.08 0 .11.11 0 00-.08 0 .36.36 0 000 .29v.17a.53.53 0 000-.22 1.87 1.87 0 010-.27 7.79 7.79 0 01-1.14.42c-.39.11-.78.21-1.17.29a.09.09 0 01-.08 0v.06a3.41 3.41 0 00-1.06.33 4.36 4.36 0 01-1.16.36q-.36 1.23-.57 2.34a18.76 18.76 0 01-.53 2.12v.07a.63.63 0 00-.4-.07.27.27 0 01-.31-.16c-.05 0-.07 0-.07.06-.19-.11-.41-.21-.63-.32a1.5 1.5 0 01-.57-.49h.06a7.88 7.88 0 01.08-1.76c.1-.56.19-1.14.28-1.73a2.87 2.87 0 01-.39-.57q-.16-.3-.36-.6s.07 0 .07-.05v-.05a.26.26 0 00.36 0 .31.31 0 01.39 0 .51.51 0 00.15-.23c0-.11.06-.22.08-.33s0-.21.06-.29a.47.47 0 01.1-.2 1.11 1.11 0 01-.06.41 1.3 1.3 0 00-.1.44c.13 0 .18 0 .14-.15s0-.19.09-.21a19 19 0 01.42-2.2c.17-.7.35-1.39.52-2.07V9h.07a2.32 2.32 0 01.14-1 5.15 5.15 0 00.25-.95.75.75 0 00-.23.53 1.15 1.15 0 01-.2.58 1.51 1.51 0 01-.11.72 1.73 1.73 0 00-.15.65 1 1 0 010-.65 1.6 1.6 0 01.24-.55 16.86 16.86 0 01.44-2c.19-.63.37-1.24.54-1.85a.71.71 0 00.2-.39.13.13 0 00-.1.14.14.14 0 01-.1.15.26.26 0 01.08-.26c.08-.07.09-.17.05-.33a.75.75 0 01.28.07c.12 0 .2 0 .24-.1a1.49 1.49 0 00.28.13l.32.13a.64.64 0 01.38.18.3.3 0 010 .31h.1a2.86 2.86 0 00-.24 1 3.93 3.93 0 01-.22 1.07c.07 0 .1 0 .1-.1s0-.09.1-.09a.76.76 0 01-.2.32.51.51 0 00-.06.46.28.28 0 000-.18.21.21 0 01.05-.18v.1c0 .1.08 0 .11 0s0-.09 0-.12.07-.07.08 0a.54.54 0 010 .11.77.77 0 01.1-.34c.07-.12.13-.25.2-.38a.64.64 0 00.1-.13.77.77 0 01.09-.13c0-.08 0-.13-.09-.13a.52.52 0 00.08-.19.42.42 0 01.05-.17s.06 0 0 .12 0 .1.09.08 0 0 0 .07-.06 0 0 0a.25.25 0 000-.07c-.05 0-.07 0-.07.1s0 .1.07.1 0 0 0-.1.1-.06.1-.1a.42.42 0 01.16-.34.28.28 0 00.13-.25v.07c0 .07.07-.07.07-.15a.76.76 0 010-.21.05.05 0 01.05 0 .61.61 0 01.16-.46 1 1 0 00.35-.29h.13a.8.8 0 01.11-.31 1.06 1.06 0 00.15-.28v.08c0 .01 0 0 0 0a2.28 2.28 0 01.57-.91 3.07 3.07 0 00.64-.88.45.45 0 00.29-.21 1.37 1.37 0 00.2-.34.15.15 0 00-.16.1c0 .06 0 .07.07 0s0-.08.09-.05a.42.42 0 01-.09.16.7.7 0 00-.13.16v-.13-.06c0-.06-.08-.05-.1.05a.15.15 0 01-.16.14 1.72 1.72 0 01.51-.52v.08a.43.43 0 00.13-.08c0 .05 0 .07-.05.08s0 0 0 .09.14-.05.09-.13-.06-.16 0-.2.08 0 0 .05a.09.09 0 000 .11A1 1 0 0148 .93a.3.3 0 00.18-.2q-.06-.1-.09 0a.21.21 0 01-.13.13.23.23 0 01.14-.28.47.47 0 00.26-.21c-.11 0-.18 0-.2.08a.19.19 0 01-.16.12.42.42 0 01.51-.25 1.59 1.59 0 00.6 0s.06 0 .06.07.1 0 .1 0h.07a.21.21 0 00.21.13 1.76 1.76 0 01.31 0 5.32 5.32 0 00.47.36 2.26 2.26 0 01.47.42 1.63 1.63 0 01.2.8 4.24 4.24 0 000 .9 5.42 5.42 0 00-.12.68 2.09 2.09 0 000 .68 5.12 5.12 0 01-.11.7 1.79 1.79 0 000 .64.49.49 0 00-.05.29.6.6 0 010 .3s.07-.06.07-.17c-.05 1-.13 1.89-.25 2.74s-.23 1.76-.34 2.74a.37.37 0 00.34.13c.04-.07.12-.01.17.14zM39.4 18.46c0 .06 0 .05 0 0s0-.07 0 0zm.26-4.4h.06-.08s-.03-.06.02 0zm.42 1.76s.05-.05 0-.08 0 0 0 .08a.36.36 0 010-.36q.07-.26-.09-.33c0 .2 0 .44-.09.74s-.09.59-.13.89-.08.6-.1.88a2.44 2.44 0 000 .69 8.46 8.46 0 01.13-.92 1.63 1.63 0 000-.75.15.15 0 00.12-.13 1.48 1.48 0 000-.22 2 2 0 010-.25.16.16 0 01.11-.14.17.17 0 01.05-.1zm-.36 2.57h-.06s.06-.02.06 0zm.07-.32h.06V18h-.06zm.1-.59v-.07a.09.09 0 000 .07s-.03 0 0 0zm0 .13c0 .07 0 .06 0 0s-.01-.09-.04 0zm.07-.33v-.11c0 .03-.11.07-.04.11zm0-.45v-.07s-.05.07.04.07zm0-.26H40zm0-.46h.1c-.06-.03-.06-.02-.06 0zm0 .2c.05.06.07.07.07 0s-.03-.05-.03 0zm.13-.69h.07v-.08zm.13-1.76h.07-.07zm0 1.76v-.1zm0-1.79s.11-.09.09 0zm.16-1.11s0 .07-.13.13a.13.13 0 010-.08.13.13 0 000-.08h.06zm-.06-.1s.11.03.09 0zm.81-3.06c-.06.22-.12.43-.16.64a5.57 5.57 0 01-.2.7 2.7 2.7 0 01-.13.53.92.92 0 000 .51h-.06v.36a.55.55 0 01-.18.32c.11-.5.22-1 .34-1.58s.24-1 .34-1.45zm-.75 3.16c0-.11 0-.14.05-.11s.13.07.04.11zm.39-1.82c0-.05.06-.05 0 0s.09.04.09 0zM41 9.76v.06zm.26-1.08s-.02.07-.04 0zm.52-2s.01-.07-.04-.05zm.1-.33s.06 0 0 0-.02.04-.04-.05zm0 .69s.08 0 .12-.15 0-.18 0-.18-.12.15-.16.29zm.1-1v.08c0-.04-.08-.06-.04-.12zm.06-.1V6c-.1 0-.04-.08-.04-.06zm0 .59s.07 0 .09-.08 0-.15-.05-.15 0 .14 0 .15-.08.04-.08.08zm.1-1.21v.07a.09.09 0 010 .06h-.05a.26.26 0 01.01-.13zm0 .95h.06s0-.08-.06 0zm0-.16c.07 0 .1 0 .1-.1s-.14-.01-.14.1zm0-.23h.1s0-.06-.1 0zm.07 10.43c0 .06 0 .07 0 0s.05-.05-.01 0zm.1-11.44v.1a.31.31 0 000 .09Q42.14 5 42.2 5zm0-.23h.08a.35.35 0 00-.05.18v-.09c0-.09-.02-.07-.04-.09zm0 .81q0 .13 0 0t-.01 0zm0 10.47c0 .06 0 .07 0 0s.01-.05-.01 0zm.1-11.44c0-.09 0-.1 0 0s.01.04-.01 0zm0 0h.06v.06h-.07zm0 .78c0 .07.05.07 0 0s.01-.03-.01.03zm0 10.36h.06-.07zm0-10.49c0 .07.06.07 0 0s.04-.01.02.03zm0-.19h.07-.07zm0 .09s.08.06.08.03zm.62 8.22h.07s0-.07-.07-.09-.07 0 0 .05.08.04.08.07zm.16-.92a.08.08 0 010-.08v-.08c0-.08-.1 0-.11 0s0 .11 0 .13a.54.54 0 010 .31 2.49 2.49 0 00-.08.38c.11-.07.14-.07.11 0a.33.33 0 000 .15h.17s0-.05.06 0c0-.09 0-.13.1-.13s0 .06 0 .06a.13.13 0 01.1 0 2.34 2.34 0 01.48-.2 3.64 3.64 0 01.62-.1.2.2 0 000-.13s0-.05.06 0 0 0 .1 0h.05c-.01 0 0-.08 0-.13v.13c0-.02.1 0 .1-.06a.1.1 0 01.06-.1v.13c0-.02.05-.16.13-.16s0 .07 0 .08v.08c0 .08.07 0 .07-.08s0 0 .16.05 0-.1 0-.1-.05 0 0-.07.07 0 .08 0h.08c.08 0 0 .07 0 .08s.06 0 .05 0a.35.35 0 010-.13.21.21 0 00.23 0c.06-.05.12-.06.16 0s0 .07-.06.07a.1.1 0 00-.1.06h.23v-.13.05c0 .05 0 0 .07.08s.07-.06.09-.06a.19.19 0 00.1 0v-.09a.13.13 0 010 .06h.12c.07 0 0-.06-.05-.06s-.07 0 0-.1a1.35 1.35 0 00.37-.06l.41-.13a.9.9 0 000-.25.17.17 0 01.13-.18 1.58 1.58 0 000 .28v.21a1.11 1.11 0 00.18-.46 3.12 3.12 0 00.05-.55 5.24 5.24 0 010-.57 1.54 1.54 0 01.39-.53 4.67 4.67 0 01.08-1c.08-.44.15-.86.22-1.27-.05 0-.07-.06-.07 0a2.65 2.65 0 00.15-1 1.71 1.71 0 01.18-.88.24.24 0 01-.05-.26.54.54 0 01.11-.23v-.1c0-.13 0-.19-.06-.19a5.05 5.05 0 00.16-.69 4.76 4.76 0 00.06-.72c0-.17.1-.39.17-.66a1.57 1.57 0 000-.67 11.2 11.2 0 01-.23 1.22 4.11 4.11 0 00-.13 1.06h-.13a.57.57 0 00.1.36c-.11 0-.15.09-.13.16a.15.15 0 010 .16.4.4 0 010 .26c0 .09 0 .19-.07.3a2.2 2.2 0 010-1.11 5.57 5.57 0 00.19-1.21.32.32 0 00.08-.28.61.61 0 01.08-.34.27.27 0 010-.32c.08-.11.06-.19-.05-.23 0 .17 0 .27-.1.29a.28.28 0 000-.16 1.84 1.84 0 01-.58.62.5.5 0 01-.23.36c0 .06 0 .09-.05.09s0 0 0 .07a4.25 4.25 0 00-.75 1 3.47 3.47 0 01-.74 1 2.94 2.94 0 01-.54 1.09 1.88 1.88 0 00-.41 1.09c-.11 0-.16 0-.16.07s-.1.36-.15.5a3.77 3.77 0 01-.15.38c-.08 0-.1 0 0-.05s0 0-.09 0a.67.67 0 010 .44.82.82 0 01-.25.41 2.79 2.79 0 01-.36.85c-.1.36-.21.72-.32 1.07a6.17 6.17 0 01-.41.88zm.17.62s0-.05 0 0 .1.05.08.05zm.06-5.5h.1-.1zm.13 3.84v-.1.17a.09.09 0 01.08-.04zm0 1.73c0-.11.07-.13.07-.05s.02.12-.02.08zm0-5.64h.07v-.1h-.07zm.13-.33h.02v.17c0 .1.09 0 .13-.12s0-.12 0-.14-.09.12-.07.12zm0-.65s.11.03.08.03zm.13 4s.04-.02.08-.02zm0-4.14h.07c-.02 0 0 .08 0 .08s-.05.08-.1 0a.09.09 0 01.11-.1zm0 6.68zm.1-7h.1a.35.35 0 000 .13.16.16 0 01-.01.13s-.05-.08 0-.11 0-.09 0-.15zm0 .75h-.06s.15.03.15 0zm.09 3.52c0 .09 0 .09 0 0s0-.08 0 0zm.1-4v.1c0 .1 0 .08-.07 0a.22.22 0 01.03-.11zm0 6.68c0-.06 0-.05 0 0s-.05.11-.1-.01zm.07-7.07h.1v.07h-.1zm.2 0v.2c0 .02-.08.09-.06.19s-.1-.1 0-.19a.36.36 0 00.1-.2zm-.1.62q0 .08 0 0c-.05-.11-.06-.09-.08-.01zm0 .17s-.06-.08-.08-.01zm.06-.95s.06 0 0 0a.09.09 0 000 .07s-.06 0 0 0-.1-.08-.08-.08zm0 .62V6.2zm.13 6.52s0 .05 0 0 0 0-.08 0-.06-.01 0-.01zm0-7.47a.14.14 0 010 .07.14.14 0 000 .06s-.06 0-.05-.08-.04-.08.01-.06zm0 1a.3.3 0 000-.11.11.11 0 010-.08c-.05 0-.07 0-.08.08s-.02.08 0 .08zm.07.36v.06l-.08-.09zm0 2.53v.1l-.08-.13zm0-3.83c0-.05.07 0 .07 0s-.08.03-.12-.03zm.16-.07zm.1.36s-.05-.06 0-.11 0-.09-.1-.09a.78.78 0 010 .14.08.08 0 00.05.03zm0-.68v.09zm.2-.3v.1a.13.13 0 010 .07.06.06 0 01-.07-.07.1.1 0 01.02-.13zm.13-.23v.12c0 .06-.09.08-.13.08a.46.46 0 01.08-.23zM45 4.28h.07s0 .06-.07 0zm.13-.13c0-.09 0-.09 0 0s.02.07 0 0zm0 .1zm.26-.59s-.06.06 0 .12 0 .08-.12.08a.27.27 0 00.08-.13.08.08 0 01.08-.07zm-.17.49h.04zm.1 3.29zm0-3.55v.07c0-.04.03-.07.07-.07zm0 0c0-.15.12-.23.23-.23a.28.28 0 01-.1.12zm.1 8.8h-.06.13zm.1-9.32v.11a.14.14 0 01-.14.08.1.1 0 01.06-.09.1.1 0 00.15-.1zm-.13.91h.13v-.1h-.13zm.19-.75H45.65zm.1-.32c0 .06 0 .08 0 0s.01 0 .07 0zm0 .75q0-.13 0 0t.07.04zm0-.59c0-.09 0-.09 0 0s.05.09.07 0zm0-.2v-.06s.11.06.07.06zm.07 9.32s.09-.06.07 0zM46 2.88c.09 0 .1.11 0 .21a1 1 0 00-.15.25.21.21 0 010-.25.32.32 0 00.15-.21zm0-.19q.14 0 .09.09c0 .07-.07.08-.12 0s.03-.05.03-.09zm.27-.18c0 .05-.06.07-.1 0 .14-.06.16-.06.14 0zm-.1 11.32s.06-.09.04 0zm.27-11.63l.08.13a.44.44 0 000 .09.3.3 0 00-.13.17.2.2 0 01-.2.1.73.73 0 01.11-.15.38.38 0 00.09-.12h-.07a.08.08 0 01.07-.08s.09-.06.05-.14zm0 11.63H46.61c0-.09 0-.13-.09-.13s-.16.04-.12.13zm.17-11.7c.06 0 .07.08 0 .23 0-.07-.06-.11-.05-.13a.22.22 0 00.01-.1zm.16 10.17h.06s-.1-.02-.1 0zm.16-10.36a.12.12 0 010 .09l-.07.1v-.11a.12.12 0 01.03-.08zm-.13-.1c.05-.05.06 0 .05 0s-.07.06-.09 0zm.13.52h-.04zm0-.65zm.07.13a.24.24 0 01-.1.1 1.62 1.62 0 01.33-.4c0 .11 0 .18-.1.2a.19.19 0 00-.13.1zm0 10.43h-.07s.07.02.07 0zm0-10.66zm.2 14a13.81 13.81 0 000 1.8v1.66a9 9 0 01-.1-1.7c.01-.5.04-1.09.09-1.72zm0-1.14a.51.51 0 010 .39.8.8 0 000 .36.3.3 0 010-.32.63.63 0 00.02-.39zm.06.79a.1.1 0 000 .14c0 .06 0 .08-.08.08a.78.78 0 000-.14c-.02-.02.02-.04.1-.04zm-.04-13.72c0-.1.06-.12.06 0s-.02.05-.06 0zm0 10.43h.06s-.02.03-.06.03zm0 2.09c.08 0 .11.14.06.29 0 0-.05-.06 0-.13a.15.15 0 00-.06-.16zm0 .42h.1zm0 4.63c0-.07.06-.07.06 0s-.02.04-.06 0zm.19 1.11c.05.08.07.09.07 0s-.02-.07-.07 0zm.17-9.06a1.18 1.18 0 00-.1.32.17.17 0 010-.19c.02-.09.05-.13.1-.13zm-.1 6.22a1.61 1.61 0 00.08-.47 1.22 1.22 0 00-.05-.47 3.91 3.91 0 000 .45zm0 .65s.06-.12.06-.29 0-.27-.06-.29a.9.9 0 010 .27 1.37 1.37 0 000 .28zm0 .1c0 .05.06.05.05 0s-.03-.04-.05 0zm0 .29h.06v-.08a.09.09 0 010 .05s-.06.01-.06.03zm.06.36a.37.37 0 010-.18c0-.05 0-.08-.05-.08v.15a.11.11 0 00.05.11zm0 .43c0 .08 0 .09 0 0s-.03-.05-.03 0zm.07 1.3a1.36 1.36 0 010-.18c0-.07 0-.09-.05 0a.1.1 0 000 .13c-.05.02-.03.05.02.05zm0-10.07a.25.25 0 01.07.29 1 1 0 00-.07.36.46.46 0 010-.29 2 2 0 00-.07-.36zm0 1.11s-.1-.02-.1 0zm0 4.53a.16.16 0 00.07-.15c0-.07 0-.11-.07-.11zm0 .1v-.07.07zm0 .09c0-.06 0-.08-.07-.06v.1s.04.03.04-.04zm0 3.49c.05-.11 0-.16 0-.16s-.09.16-.07.16zm0-7.56s.05 0 .07-.06 0-.07 0-.07-.16.09-.14.13zm0-1.95v.06a.13.13 0 010 .07s-.06 0 0 0a.1.1 0 00-.03-.13zm0 10.46h-.05zm0 .19c.05.05.07 0 .07 0s-.09-.06-.14 0zm0 .29q.1.07.09-.06c0-.09 0-.13-.05-.13a.09.09 0 010 .1.1.1 0 00-.11.09zm.17-12v.07a.28.28 0 000 .13v.45a1.35 1.35 0 01-.08.36 2.56 2.56 0 01.01-1zm-.1 4.63c.06 0 .1-.05.1-.16v-.2a.2.2 0 010 .13c-.19.06-.19.13-.17.24zm.1-13v.07c0 .09 0 .1-.1 0s-.04-.06.03-.06zm-.1 14.63c.06 0 .1 0 .1-.07s-.17.04-.17.08zm0 .55h-.07zm.1 5.58c-.07 0-.1 0-.1.06s.03-.01.03-.05zm0 .19v-.06zm.07-13.29c.06 0 .09.07.08.09s0 0 .08 0a.38.38 0 00-.1.26.48.48 0 01-.06.26c-.07 0-.07-.12 0-.23a.42.42 0 00-.11-.37zm0 5.6s.07.05.08 0 0-.06 0-.08a.09.09 0 01-.22.09zm.06 1.73h-.06s-.08.03-.08.01zm0 1.53l-.17.01zm0-5.38a.13.13 0 010-.14q.08-.09-.06-.09a.15.15 0 010 .13c-.13.06-.12.14-.08.14zM47.8.8h-.06V.73c.14 0 .15.02.06.07zm0 12.77v.08c0-.01.04-.04-.03-.08zm.17-3.19a1.84 1.84 0 00-.14.63 4 4 0 000 .7c.05-.37.09-.73.12-1.09a5.68 5.68 0 01.18-1 .46.46 0 010-.26V9.2a2.08 2.08 0 01-.09.6 1.59 1.59 0 00-.1.58zm0-2h-.1c-.03 0-.05-.02.03.04zm0-.52c.11 0 .13.1.07.18s-.08.13 0 .18-.11-.07-.08-.13a.56.56 0 00-.09-.19zm0-.1h.07v.07h-.07zM48.13 6a1.18 1.18 0 010 .83 1.62 1.62 0 00-.1.86c-.11-.06-.14-.19-.1-.39a1.21 1.21 0 01.17-.42.66.66 0 010-.44 1.42 1.42 0 00.03-.44zM48 5.85h.07v.06H48zm.07-.4c.06 0 .08 0 0 .09s0 .02 0-.09zm0 9.26h.03zm0 .81s.03.03.03 0zm.06-9.71c0-.08-.06-.12-.06-.09h.06zm.2 1.11c0 .44-.1.84-.16 1.22a3.62 3.62 0 00-.07.93c.07-.35.11-.7.15-1.07s.07-.74.11-1.11zm-.23 3.88c0 .06 0 .07 0 0s.07-.04.03 0zM48.2.6q-.08.13 0 0zm.06 5.31a.09.09 0 01-.1-.1.05.05 0 01.06.06zm-.06 3.65h.09v-.1h-.09zm.06-.16c0 .06 0 .06 0 0s.02-.09 0 0zm0-8.8h.1a.57.57 0 01.1-.13h-.11zm.1 5.83a.19.19 0 00.12-.21.22.22 0 010-.21h-.06a.32.32 0 01-.05.21.32.32 0 00.02.21zm.07.36a.14.14 0 010-.19c0-.07 0-.11-.07-.13a.16.16 0 010 .17.12.12 0 00.1.15zm.06-1.63h-.1s0-.09.07-.09 0 0 0 .05a.07.07 0 01.06.04zm0 4.66v-.06a.16.16 0 01-.05.11s0 .06.08.08a.15.15 0 010-.13zm-.06-5.18c0-.07 0-.07 0 0s.07.07.03 0zm.09 1.24a.58.58 0 010-.1v-.06a.12.12 0 000 .09c-.03.05-.01.07.03.07zm0-3.26a.18.18 0 01.05.18c0 .08 0 .1-.08.08a.72.72 0 01.06-.26zm0 1c.07 0 .1 0 .1-.1s0-.09-.07-.09 0 .07 0 .09a.17.17 0 00-.03.14zm0 1.83c.09 0 .13 0 .13-.1s0-.14-.06-.16a.2.2 0 000 .13.35.35 0 01-.07.17zM48.68 3q-.06.13 0 0zm0 1.86h.07c.02 0 0-.08 0-.08v.06s-.1-.05-.1 0zm.2-.56h-.13.05l.05-.02zm0-.62c-.09.07-.08.09 0 .07s.12-.07 0-.09zM49.43 17q-.06.14 0 0zm0 2.61c0-.05 0 0 0 0s-.01.05.04-.01zm0 2.18s.06.06.04-.01zm.09-6.65h.13-.13zm.1-.49c.05 0 .07 0 .08-.09s0-.1-.05-.1 0 .07 0 .08-.03.04.01.1zm.89-2.65c0 .07 0 .07 0 0s.02-.07 0 0zm.2-.1h.06c-.04 0-.06.02-.06-.03zM66.93 9.37a15.25 15.25 0 01-1.46 2.2c-.57.7-1.16 1.36-1.76 2h-.07a12.06 12.06 0 01-2.44 2l-2.74 1.7a.13.13 0 01-.13-.1c-.07 0-.08 0 0 .13a.62.62 0 00-.39.06l-.32.2c-.31 0-.61.09-.91.15a5 5 0 00-.85.21c-.07-.11-.12-.18-.17-.2a.14.14 0 00.05.13v.17a.17.17 0 00-.2-.07c-.08 0-.1 0-.06-.1h-.23a.33.33 0 01-.19-.05s-.07.07-.09.15a.23.23 0 000 .18 1.74 1.74 0 00-.16.47 3.73 3.73 0 01-.16.57c-.11.69-.24 1.51-.38 2.44a11.39 11.39 0 00-.11 2.64.67.67 0 00.07.42c.06.13.12.25.16.36a2.27 2.27 0 01-.25.27.42.42 0 01-.37.09c-.09 0-.13 0-.13.09a.85.85 0 00-.47-.24 1.72 1.72 0 01-.54-.18.8.8 0 01-.36-.34 3.28 3.28 0 00-.26-.47c0-.24-.09-.47-.13-.69a1.62 1.62 0 010-.62.13.13 0 010-.1.1.1 0 000-.09H52a.21.21 0 01-.07-.15.11.11 0 00-.07-.11.11.11 0 010-.09v-.08c0-.08-.07 0-.07-.06v-.3H52a.94.94 0 010-.45 1.51 1.51 0 000-.52V21a.29.29 0 00.1.07c-.07-.11-.07-.17 0-.17a.52.52 0 01-.07-.32.36.36 0 01.16-.33s-.07-.06-.16-.06 0-.07.08-.08.07-.05.05-.12 0 0 0 .05v.05a.36.36 0 010-.26 2 2 0 000-.36h.08a.86.86 0 010-.39.35.35 0 01.18-.33v-.14a.45.45 0 010-.12h.09a.23.23 0 00-.06-.16l.08-.07v-.09c0-.04 0 0 0 0s.09-.12.13-.1a.35.35 0 010-.31 2.6 2.6 0 00.13-.24s0-.05 0 0 0 0-.07 0 0-.09 0-.15v-.14a.59.59 0 00-.32-.2.21.21 0 010-.13.48.48 0 01-.29-.23.58.58 0 00-.3-.23c.07-.1.06-.17 0-.19s-.1-.09-.08-.2a3 3 0 00.58.26 1.74 1.74 0 00.59.1.8.8 0 01.13-.32c.07-.11.09-.19.07-.23s-.1-.2 0-.28a.35.35 0 000-.34.26.26 0 00.11-.28.57.57 0 01.08-.41s.07 0 .07.05 0 0 .09 0a4 4 0 00-.09.42c0 .13 0 .25-.07.36a.52.52 0 00.16-.38 1.07 1.07 0 000-.44.09.09 0 00.07-.09v-.13a.7.7 0 00.1-.31 1.22 1.22 0 01.06-.35.24.24 0 00-.14.28 1.53 1.53 0 010 .38c-.07 0-.08.05 0 .09a.09.09 0 010 .13h-.05c.01 0 0-.05-.08 0a2.63 2.63 0 01.08-.42 1.18 1.18 0 00.05-.4s.09 0 .13-.11.07-.06.07.05a.29.29 0 00.06-.21 1.26 1.26 0 010-.28s-.06.07 0 .13a.18.18 0 01-.05.16q-.1-.06 0-.09s.05-.09 0-.2a.34.34 0 010-.31.62.62 0 00.1-.37s-.05 0 0 0 0 .08 0 .08-.08-.07 0-.15a1.78 1.78 0 01.08-.18v.07a.34.34 0 000 .09.3.3 0 00.13-.18c0-.07 0-.11-.13-.11a.6.6 0 00.14-.13s0-.07-.11-.07c.09 0 .11-.08.08-.13s0-.08 0-.13a.13.13 0 010 .07.38.38 0 01.13-.32c0-.05 0-.05-.05 0s-.06 0-.08 0a.45.45 0 00.08-.4.24.24 0 01-.12-.32v-.08c0 .01 0 0 0 0h.06s-.06-.14 0-.23a.34.34 0 00.08-.29s-.06 0 0 .08 0 .1-.08.08a.33.33 0 000-.21c0-.08 0-.12.11-.12s0-.07 0-.09 0 0 .09 0 0-.12 0-.1-.08 0-.08-.07 0-.06.05-.05a.07.07 0 100-.11s-.06 0 0-.1.1 0 .09.05a.82.82 0 01-.09.45c.08 0 .12-.08.11-.19a.29.29 0 01.05-.23h-.07a.49.49 0 01-.03-.49 2 2 0 000-.36.14.14 0 00.13.07c0-.05 0-.07-.05-.09h-.08a.22.22 0 01.08-.13v-.1c0-.04.16 0 .18-.1a.3.3 0 000-.2c.11 0 .13-.05.08-.09s-.08 0-.08.09h-.07v-.1c0 .04.08 0 .08-.06s0-.06-.06-.05-.09 0-.07 0h.16c0-.06 0-.1-.16-.1a.74.74 0 01.12-.09.39.39 0 00.08-.1.36.36 0 010-.26.26.26 0 01.12-.33c-.07-.11-.09-.2 0-.26a.63.63 0 000-.26h.06c.06 0 0 0 0 0s0-.11 0 0 0 .07-.08 0a1.22 1.22 0 00.06-.41.45.45 0 01.21-.39c-.06-.08-.08-.15 0-.21a.39.39 0 000-.24 2.77 2.77 0 01-.36.31.71.71 0 00-.26.34h-.06-.07a3.7 3.7 0 01-.52.75 3.24 3.24 0 00-.49.75.16.16 0 01.07.11.37.37 0 00.06.15.33.33 0 00-.06.13s0 .05.06.1-.13 0-.13 0a1.38 1.38 0 01-.75-.26 2.26 2.26 0 01-.29-.49 1.46 1.46 0 00-.33-.49V6.3a1.28 1.28 0 00.4-.47 1.1 1.1 0 01.42-.47v-.1h.13s.06-.09.06-.2a3.53 3.53 0 00.72-.62 4.77 4.77 0 01.65-.58 1 1 0 00.28-.26.64.64 0 00.11-.39c0-.17.08-.36.11-.55a.86.86 0 01.25-.43h-.08c-.08 0 .09-.25.14-.41a2.25 2.25 0 00.12-.44 1 1 0 00.47-.1.75.75 0 01.47 0l.17-.1a2.76 2.76 0 00.53.05.48.48 0 01.48.38.3.3 0 00.29-.1.3.3 0 01.29-.1 4.76 4.76 0 011.31-.66c.51-.17 1-.33 1.52-.51l.49-.06a2.61 2.61 0 00.42-.1s.07 0 .07.05 0 0 .06 0 0 0 0-.1a.66.66 0 00.44 0 .49.49 0 01.41 0h.11a1.74 1.74 0 00.48.07h.5a8 8 0 012.51 1.41 5.59 5.59 0 011.51 2.25A4.23 4.23 0 0168 6.07c-.13.76-.3 1.49-.49 2.19a1.66 1.66 0 00-.3.49c-.08.17-.21.38-.28.62zm-15.28 6.55v.06zm.35 5.37v-.05.05zm.1.62H52c0 .07 0 .1.07.12s0 0 0 .08-.06 0 0 0 .06 0 .06-.1 0-.1-.06-.1a.77.77 0 00.09-.28.38.38 0 000-.27.65.65 0 01-.06.26.3.3 0 00.01.29zm0 .46v-.08c0-.01 0 0-.08-.05s.05.05 0 .08.04.05.09.05zm.06.29a.19.19 0 00-.13-.19v.11c-.03.05.05.08.14.08zm-.13.23c0 .06.07.06.07 0s-.02-.09-.1 0zm0 .19c0 .07.07.06.07 0s-.02-.08-.1 0zm.2-2v-.05a.13.13 0 010 .1v.1a.22.22 0 01.01-.12zm0-.11a.36.36 0 010-.29v-.2a.38.38 0 010 .28.16.16 0 00.01.24zm0-1.21c0 .07.07.07.07 0s-.05-.01-.1.03zm0 .69c.06 0 .09 0 .08-.12s0-.15 0-.18-.12.06-.1.1a.26.26 0 01.03.23zm.06-1.34a.11.11 0 00.1-.08v-.08s-.05.17-.09.19zm.07.88a.36.36 0 010-.11v-.12a.12.12 0 00-.07.12.11.11 0 00.08.12zm0-.39v-.06zm0-.39a.08.08 0 010 .11v.08a.36.36 0 00.04-.16zm.06-.26v.13a.13.13 0 000 .1s.07 0 .08-.1 0-.11 0-.13.09-.08.07-.18 0-.16 0-.18-.1 0-.1.13zm.18-.82a.41.41 0 000-.32c0 .15-.05.28-.08.39a.44.44 0 000 .32c.06-.07.09-.2.12-.36zm0-.78v-.1a.11.11 0 010 .09s.02.04.06.04zm0 .39c.06 0 .07-.07 0-.08s.02.05.06.11zm0 2v-.1zm0-2.09s0-.06.05-.06 0 0 0-.1a.11.11 0 00-.1.06c.12.04.12.07.14.09zm.1-.23a.13.13 0 000-.06h-.05l.14.05zm0 1.44s.07-.01.09-.01zm.06-.43s-.06.06 0 .06.14-.07.09-.07zm0-2.24c0 .1.07.12.07 0s.07-.08.02-.01zm.24 2.17h-.14s.14.02.14 0zm0-2.54h0zm0 2.44c0 .07 0 .07 0 0s0-.04 0 0zm0-2.08a.69.69 0 00.11-.35 1.53 1.53 0 010-.31.52.52 0 00-.11.31 2.24 2.24 0 010 .35zm0-.56c0 .05 0 0 0 0s0-.06 0 0zm.11-.23s-.05 0-.05.07h.1s0-.07-.03-.07zm0-.35h.05c.05 0 .03-.04-.01-.04zm0-.33q0 .13 0 0t.07 0zm.16-.55c0 .06 0 .07 0 0s.1-.05.07 0zm0 2.05c0 .09 0 .09 0 0s.1-.07.07 0zm.1-2.84a.2.2 0 010 .09.08.08 0 010-.09c0-.01.03-.02.07 0zm0 2.71a.09.09 0 010-.12v-.11a.23.23 0 000 .11.1.1 0 00.04.12zm0-2.8c0-.07 0-.07 0 0s.06.04.04 0zm.13 2.11s.04-.04.04 0zm0-.13a.36.36 0 010-.11v-.11a.36.36 0 00-.06.11s.09.09.13.11zm.36-3.35h-.06v.16a.48.48 0 010 .18.14.14 0 000 .15.55.55 0 01-.1.22.19.19 0 000 .17v.19a.14.14 0 010-.1v-.09a.16.16 0 00.13-.17.73.73 0 010-.22l.07-.15a.21.21 0 000-.18h.06a.15.15 0 010-.1v-.06c0-.06.06-.12 0-.15a.22.22 0 010-.15q-.11.08-.09.15a.89.89 0 01.06.15zm-.13 2.38a.19.19 0 010-.09v.08c0 .01-.02-.02.07.01zm.08-.33l-.05-.06a.2.2 0 010 .08v.08a.11.11 0 01.12-.06zm0-.46q0 .11 0 0t.12 0zm.19-2.73v.06s.06-.02 0-.06zm.06.36a.34.34 0 00-.08.21.33.33 0 000 .21.54.54 0 01.06-.25v-.17a.63.63 0 00.08-.23 2 2 0 010-.26.29.29 0 00-.11.22c.06.14.05.2.05.27zm.26-1.13a.73.73 0 00-.13.59 1.28 1.28 0 00.07-.29 1.11 1.11 0 01.06-.3s-.06-.06 0 0zm-.13 2h.07-.07zm0 .13c0 .07 0 .07.05 0s-.01-.13-.05-.06zM54.35 9h.07v-.12h-.07zm.1-.78c.07.07 0 .1-.06.1a.06.06 0 000-.07s.02-.06.06-.06zm0 1v.07s.06 0 .06-.1.08 0 0-.05-.08-.07-.06 0zm0-.2c0 .05.07 0 .07 0s-.02-.16-.07-.08zm.07-.16a.18.18 0 010-.13v-.07.12c0 .04-.05-.02 0 0zm.14-.41v-.08a.15.15 0 010 .1v.1a.19.19 0 000-.2zm0-1.12c0 .06.06.06.06 0s-.03-.17-.07-.08zm.06.45c0 .07.06.07 0 0s.01-.12-.01-.08zm.07-.06a.41.41 0 010-.21.16.16 0 000-.18 1 1 0 01-.08.21s0 .03.07.1zm0-4.82v-.07s-.06.16 0 .16a.51.51 0 01.04-.17zm0 4.36l.07-.13s0-.06-.07-.06 0 .07 0 .09-.02-.02.02.02zm0-.58zm0 .13v-.15zm0-.59q0 .14 0 0t.02-.08zm0 .59v.09s.08 0 .1-.05 0-.08 0-.08 0-.04-.05-.04zm.1-.2c0 .07 0 .07 0 0s.11-.12.05-.08zm0-.29h.05c-.01 0 .06-.15.06-.08zm.17-4.47c0 .07 0 .07 0 0s.12-.12.08-.08zm1.79 13.36a.22.22 0 00.28-.06q.07-.13.24 0c0-.11 0-.18.07-.2s.06-.06.06-.13.05 0 0 0 0 0 0 .08a.71.71 0 00.21-.08.44.44 0 00.15-.12.12.12 0 00.07-.1s0-.07.06-.07 0 .13 0 .13a.26.26 0 01.09-.26 1.46 1.46 0 01.21-.16v.07c0-.07.09-.1.14-.09a.44.44 0 00.15 0v-.11h-.1a.25.25 0 01.17 0 .06.06 0 00.09 0c-.08 0-.13 0-.13-.1a1.64 1.64 0 00.35-.18 1.69 1.69 0 01.31-.21v.13c-.11 0-.19 0-.23.08l-.13.15c-.09 0-.13 0-.13.06L59 14c.05 0 .06 0 0-.08h.05c0-.11 0-.16.1-.15s.12 0 .17-.11a.31.31 0 00.26-.15q.09-.15 0-.18s0-.06.06-.06a.19.19 0 01.13 0 .07.07 0 000-.05.13.13 0 010-.08.43.43 0 00.23-.18.3.3 0 01.23-.15.19.19 0 01.08.07h.08c.08 0 0-.09 0-.08v-.05c0-.05.08 0 .13 0s.07 0 .09-.08h.07a.09.09 0 01-.06 0h-.07a.35.35 0 01.3-.13h-.07a.1.1 0 01.07 0h.09c.09 0 .09 0 .07-.07H61v-.06h.08H61a.13.13 0 010-.09 3.92 3.92 0 00.36-.33 1.27 1.27 0 01.36-.26s0 .05 0 0l.28-.33a1 1 0 01.36-.24l-.16.18a.12.12 0 000 .18.55.55 0 01.15-.2.36.36 0 00.11-.19s0-.13.1-.13 0 .06.09.06-.05-.06 0-.06l.41-.32a.44.44 0 00.18-.42 4.63 4.63 0 00.78-.88c.05 0 .06 0 0 .06s0 .08 0 0v-.08-.11c0-.06.08 0 0 0a.14.14 0 010-.1.9.9 0 00.28-.3.76.76 0 01.27-.29v.07a.13.13 0 000-.07V8.5a8.4 8.4 0 00.86-1.42c.23-.49.45-1 .67-1.65.08-.45.15-.87.19-1.24a5 5 0 000-1.23 2.64 2.64 0 00-1.45-1.13 5.78 5.78 0 00-2-.21h-.2a2.2 2.2 0 00-.63.11 1.19 1.19 0 01-.64.05v.1s-.06 0-.06-.05 0 0-.07 0a9.8 9.8 0 00-2 .56 8.26 8.26 0 00-1.72 1 20.09 20.09 0 01-.47 3.57 30 30 0 00-.61 3.7l-.1.13q-.19 1.05-.39 2.07t-.45 2.1a.55.55 0 01-.07.46.32.32 0 000 .39l.56-.24.52-.22a1.07 1.07 0 01-.6.35 1.94 1.94 0 00-.64.24 4.91 4.91 0 00.87-.28 3.15 3.15 0 00.79-.53zm-1.4 2.45s.1-.15.08-.08zm.29-1.6s.08-.12.08-.06zm.26 1.68h-.06s.06.02.06 0zm.72-2.54zm.26-.07h-.2a.69.69 0 01.21-.15.62.62 0 01.18-.05c0 .05 0 .07-.08.07a.11.11 0 00-.16.13zm.32-.19s0 .05 0 0-.11-.02-.05 0zm0 0a.37.37 0 01.12-.13.09.09 0 01.15 0l-.14.06zm.2.58c0 .07 0 .07 0 0s-.01-.04-.05 0zm.1-.62c0 .07 0 .08 0 0s.01-.04-.05 0zm.19-.26zm0 .4zm.23-.4h-.1a.08.08 0 01-.06-.08h.16a.06.06 0 010 .05s-.1-.01-.08.03zm-.15-13.06zm.26 12.77c0 .07 0 .1-.06.1s.02-.1.06-.1zm0 0h.07c.07 0 .02.05-.07 0zm.3-.13s0-.05 0 0 .02 0 0 0zm.06-.13c.09 0 .11 0 .07.07h-.07zm.23-13s.02-.03 0 .03zm.78 12.41s-.04 0 0 0zm.2-.16c0 .07-.09.12-.2.16s0-.1.07-.11zM59.81.66V.6c0-.06-.01.06 0 .06zm.12 12.58h.06s.01-.06-.06 0zm.13-.06s.06 0 .06-.1-.06.03-.06.1zm.13-.13h.05c.05 0-.01-.05-.05 0zm.49.29c0 .07 0 .07 0 0s.02-.04 0 0zm.29-.88h-.16c-.06 0 0-.06 0-.06v-.07c0-.07.19.07.19.13zm.26-.29v.1s.07 0 .08-.07 0-.1-.05-.1-.01.07-.03.07zm.13.55zm.07-.65s0-.07 0 0zm.16-.16s.08 0 .11-.05 0-.09-.05-.12a.52.52 0 00-.06.17zm1.14-1.18c0 .09 0 .13-.1.13s-.1.05-.1.13-.08-.08 0-.13a.53.53 0 00.2-.13zm-.07-9.15c.09 0 .1.06 0 .06s-.06-.02 0-.06zm.2 9c0 .09 0 .13-.13.13s.06 0 .06-.06.03-.02.07-.05zm0 0s0-.06.13-.06a.19.19 0 01-.13.08zm.16-.22v.06zm.33-.17c-.11 0-.16 0-.16.1s.09 0 .16-.1 0 0 0-.06-.02 0 0 .08zm.39-.42h-.07c.06.05.09.04.07.02zm0-.07s.07 0 .07-.09-.04.05-.04.11zm.2-.45s.06.06.06.02zm.16-.07q0 .11 0 0t.03.02zm.29-.39c0 .09.07.09.07 0s.01-.04-.04.02zm.13-.26v-.06s.06.08.03.08zm2.38.88c0 .09 0 .11-.05.08s0-.04.08-.06zm0-.06v.06zm0 0v-.09c0 .03.1.08.1.11zm.23-.35c0-.07 0-.08.05 0s.01 0-.05 0zm.16-.26v0zm0 0v-.07s.02.03 0 .08z"/><path class="cls-1" d="M82.18 5.32l-.06-.06c-.05.13-.1.19-.18.18s-.11 0-.11.18c0-.09-.09-.11-.12-.07s-.06.07-.08.07a.3.3 0 010-.2.45.45 0 01.07-.18 1.19 1.19 0 00.08-.16.28.28 0 000-.18c0-.06-.08-.1-.12-.1h-.18l-.06-.07c-.06-.07-.1 0-.1.13a4.14 4.14 0 00-.62 0A4 4 0 0080 5a2.25 2.25 0 01-.62 0 1.15 1.15 0 00-.58.1.87.87 0 00-.77 0 1.52 1.52 0 01-.89.13A19.26 19.26 0 0072.6 6.5a9.69 9.69 0 01-.49 2.56q-.39 1.15-.75 2.46h.12c.06 0 .06 0 0 .05a5.13 5.13 0 01.89-.24l.93-.18a.05.05 0 00.05 0h.08a4.12 4.12 0 01.77-.15l.81-.05h.87a3.91 3.91 0 01.91.07 2.39 2.39 0 01.8.29 1.21 1.21 0 01.52.63.21.21 0 010 .12.26.26 0 000 .18c-.11-.09-.2-.11-.28-.07a.35.35 0 00-.15.23h-.26c-.06 0-.11.07-.13.18a.57.57 0 00-.26 0 .2.2 0 00-.16.13 23.87 23.87 0 00-2.77.47c-.89.21-1.79.4-2.71.57a.46.46 0 00-.32-.07 1.06 1.06 0 01-.33 0c-.19.69-.38 1.43-.57 2.2a9 9 0 00-.21 2.46 1.37 1.37 0 00.57 0 2 2 0 01.51-.07c.82-.22 1.57-.45 2.23-.7a20 20 0 012.17-.67.1.1 0 01.09 0l.1.06v-.08a.15.15 0 00.08-.08 7.57 7.57 0 001-.07c.37 0 .71-.08 1-.13a.58.58 0 00.37.08 1.32 1.32 0 01.44.05v.07a1 1 0 01.75.26 1.43 1.43 0 01.49.65h-.1a.16.16 0 00-.09 0v.14c0 .01-.05.05 0 .12a.24.24 0 00-.12 0h-.08a.28.28 0 00-.11.11.22.22 0 010 .08c-.41.09-.83.2-1.24.33a7 7 0 01-1.14.26.59.59 0 01-.29.14.56.56 0 00-.26.12 5.21 5.21 0 00-1.47.41 5.54 5.54 0 01-1.47.4 3.39 3.39 0 01-1.37.31 3.86 3.86 0 01-1.37-.13 3 3 0 01-1.08-.64 2.41 2.41 0 01-.65-1 2.57 2.57 0 01-.62-1.27 4.87 4.87 0 010-1.53c0-.24.09-.47.15-.7s.1-.47.14-.73c.15-.53.29-1.05.41-1.58a9.59 9.59 0 01.44-1.45c.15-.61.33-1.24.52-1.88s.38-1.29.55-1.94a8.18 8.18 0 01-.92.39 6.1 6.1 0 00-.9.39.59.59 0 01-.37-.06.75.75 0 00-.32-.23.08.08 0 000-.08l.05-.08h-.26a2.24 2.24 0 00-.23-.73 1.63 1.63 0 01-.16-.77h.06a.1.1 0 000 .07 1 1 0 01.44-.25 1.54 1.54 0 00.5-.24s.06.08 0 .1a.13.13 0 000 .1c.07 0 .09 0 .08-.09a.53.53 0 010-.14 5 5 0 01.52-.32 3.48 3.48 0 01.48-.21.19.19 0 01-.17.18.31.31 0 00-.22.11.26.26 0 00.23 0 1.17 1.17 0 01.23-.11v-.07s-.05 0 0-.09a1.14 1.14 0 01.3-.15.49.49 0 00.28-.18V5a.48.48 0 01-.16.08l-.19.07a.12.12 0 00-.1.13l.58-.28c.19-.1.4-.19.62-.28a.14.14 0 010-.19c.06-.05 0-.12 0-.23a1 1 0 00.48 0 2.8 2.8 0 01.47-.07c0 .09-.07.12-.13.09s-.12 0-.16.08a11.93 11.93 0 001.74-.52A4.9 4.9 0 0175 3.47a5.93 5.93 0 011.52-.35c.55-.05 1.18-.12 1.87-.21a6.17 6.17 0 00-.86 0l-.8.07a.27.27 0 01.27-.12 1.62 1.62 0 00.3 0 12.7 12.7 0 012.31 0 3.23 3.23 0 011.92.73 5 5 0 00.56.79.9.9 0 01.09.94zM68.07 6c.05 0 .07 0 .07-.07s-.14 0-.07.07zm.17-.07zm.09-.06h.07s-.04-.02-.07-.02zm.41-.28c-.12 0-.16.11-.11.18a.57.57 0 01.19-.12.44.44 0 00.23-.18 2.13 2.13 0 00-.31.1zm.15 7.58zm0 .09s.03.01.03-.02zm.29-1.07c.05 0 .05 0 0-.07s-.01-.04.03.05zm0-.16c.05.08.06.09.05 0s.01-.03-.02-.03zm.13-.49h.07s.01-.09-.04-.02zm.13-.53zm.33-.78h-.1zm.2-.73c0-.05 0-.06-.07 0s.1.03.1-.02zm.71-5c.07 0 .1 0 .1.06a1.61 1.61 0 01-.28.17l-.31.13c0-.15.1-.22.23-.21a.23.23 0 00.29-.14zm-.24.5v.06h.09S70.47 5 70.44 5zM72 4.12a.22.22 0 01-.11.1c-.05 0-.07 0-.05-.1s0 0 .05 0 .03-.02.11 0zm1.8-.56c-.31.11-.61.21-.92.3l-.88.26c0-.07 0-.1.13-.12h.23a3.36 3.36 0 01.64-.32 2.43 2.43 0 01.78-.12zm-1.76 8c0 .07.06.07.06 0s-.04-.02-.1.02zm.32 0h-.11s.05-.03.09-.01zm.3-.13s-.07 0-.07.06.02-.03.05-.07zm0-7.3c0 .06 0 .06 0 0s.02-.08-.02-.01zm0 7.3h.1s-.03-.08-.09-.01zm.26 0h.06s0-.05.07-.05h.06c.06 0 0-.12-.08-.1a.18.18 0 00-.1.11zM73 4.05q.09 0 .09-.06t-.09.06zm.19 7.3a.15.15 0 01.08-.08v-.08l-.08.05s.03.05.03.11zm.2-.06v-.1zm.13-.07a.28.28 0 01.16 0c.07 0 .11 0 .13-.05s-.07 0-.16 0-.1.01-.1.05zm.62-7.75s-.07.06-.15.06a.66.66 0 00-.21 0 .64.64 0 01.39-.06zm-.23 7.69zm.26-.07h-.16c-.08 0 0 .07.08.07s.13-.02.11-.07zm.13-7.72a.14.14 0 010 .06.2.2 0 000 .07c-.07 0-.09 0-.07-.07a.11.11 0 01.1-.06zm0 7.76V11zm.06-7.48c0-.06 0 0 0 0zm0 7.44h.13c.06 0 .09 0 .09-.1h-.18zm1-7.95a.65.65 0 01-.47.2.81.81 0 00-.47.13c0-.11.17-.18.39-.2a1.65 1.65 0 00.56-.13zm-.68 8h.15a.7.7 0 01.24 0S75 11 74.85 11s-.16.05-.16.09zm.42-.1h.17a.11.11 0 00.13 0 .73.73 0 00-.29-.04zm.17 6.1c0 .06 0 .06 0 0s.03-.14.01-.05zm.19-13.88h.07c.07 0-.02-.05-.06-.05zm0 7.78h.07v-.06h-.07zm.13 0c0 .07.07.07.07 0s-.02-.14-.06-.04zm.59-8a.25.25 0 01-.26.16.47.47 0 00-.23 0 .18.18 0 01.19-.2zm-.26 8c0 .07.06.08 0 0s.08-.04.01-.04zm.34-7.36s.02-.03.01-.05zm.26-.6h-.24c-.02 0 0-.06.14 0s.17 0 .21 0 .04-.08-.1-.08zm-.21 8h.06-.06zm.13 0h.08s-.05-.08-.07-.08zm.26-7.55s.01.01.01-.05zm0-.27s.02-.05.04-.05zm.13 0s.02-.05.04-.05zm1.24-.13v-.07.07l.04-.05zm.37-.13a2.15 2.15 0 01.62 0 .5.5 0 00-.33-.12c-.15-.06-.25-.02-.29.12zm1.33 0a.35.35 0 00-.32-.07.88.88 0 01-.33 0 .3.3 0 00.28.07.77.77 0 01.37 0zm.07 0H80h-.13zm.23 0H80h.07zm.39 2h.09a.16.16 0 01-.09 0zM81.21 18.07h-.1c.12-.07.14-.07.1 0zm10.88-9.88c-.11 0-.15 0-.11.08a.12.12 0 010 .15 1.14 1.14 0 00-.28 0 1 1 0 01-.27 0v-.1a1.2 1.2 0 01-.43-.19l-.32-.33h.06c-.15-.15-.29-.29-.41-.43a1 1 0 01-.24-.52h.16a1.19 1.19 0 01.12-.54c.07-.16.15-.33.24-.49s.17-.33.25-.49a2.57 2.57 0 00.14-.56 7.9 7.9 0 00-1.61.85l-1.48 1A17.94 17.94 0 0086.4 7.9c-.49.46-1 .89-1.45 1.3a3.43 3.43 0 00-.27.33c-.1.13-.18.19-.25.19a2.69 2.69 0 01-.29.43 1.34 1.34 0 00-.26.49 2.45 2.45 0 001 .19 4.7 4.7 0 011 .13 2.55 2.55 0 01.75.12 2.72 2.72 0 00.68.11A18.9 18.9 0 0190 12.25a8 8 0 012.17 1.58c.1.24.23.49.37.77a2.22 2.22 0 01.24.89 2.69 2.69 0 01-.48 1.86v.13a12.84 12.84 0 01-1.11 1.21 6.18 6.18 0 01-1.34.94c-.54.33-1.08.64-1.61.95a7.15 7.15 0 01-1.88.71.72.72 0 01-.34.05 1.4 1.4 0 00-.41.05.2.2 0 00-.17-.05h-.22a1.7 1.7 0 00-.44-.08h-.53a3.75 3.75 0 00-.72-.44 2.55 2.55 0 01-.69-.47c-.1-.18-.22-.36-.34-.56a1.35 1.35 0 00-.44-.45c0-.18-.15-.32-.39-.43a.44.44 0 00-.21-.39.46.46 0 01-.24-.36.17.17 0 00.09 0 .24.24 0 010-.26c0-.07-.07-.07-.07 0s0 .07-.06 0a1.47 1.47 0 01.13-.51 2.15 2.15 0 00.13-.47s.07-.06.09 0 0 0 .07-.05 0 0 0-.06 0 0 .08 0a.83.83 0 01.18-.62 4.24 4.24 0 00.38-.56c0 .13 0 .28-.18.44a.75.75 0 00-.25.54 1.09 1.09 0 00.25-.42.51.51 0 01.34-.36 4.75 4.75 0 00-.6 1 3.34 3.34 0 00-.31 1c.06 0 .09 0 .08-.08s0-.1.08 0a3.91 3.91 0 01.24-.94 1.36 1.36 0 01.57-.78c-.08.17-.18.34-.27.5a1 1 0 00-.15.51 1.37 1.37 0 00.2-.35.66.66 0 01.22-.31 2.08 2.08 0 01-.13.3l-.13.29a.67.67 0 00.12-.16.46.46 0 01.14-.17q.07.07 0 .27a1 1 0 01-.13.29s.08.05.1 0a.09.09 0 000-.06c.07 0 .06.1 0 .18a.21.21 0 00-.05.27h.05c.05 0 0-.05 0-.1a.54.54 0 010 .31c0 .17 0 .27.14.31s.09-.16.13-.16a.24.24 0 000 .28.23.23 0 010 .27c.07.07.1.06.1 0v-.06s.06 0 .06.13 0 .13-.06.13a.2.2 0 000 .11.19.19 0 010 .15.67.67 0 00.25.1h.24c.04 0 0 .09 0 .07s-.08 0-.08.06a1.53 1.53 0 00.9 0 5.2 5.2 0 011-.16 2.64 2.64 0 01-.88.2c-.32 0-.62.05-.88.09a4.68 4.68 0 001.61-.08 3.5 3.5 0 001.45-.63c.11.06.19.05.25 0a.26.26 0 01.28-.09s-.06-.05 0-.07a3 3 0 001.34-.72.24.24 0 00.18-.05l.14-.11v-.07h.07q.42-.39.84-.72a3.49 3.49 0 00.75-.78 2 2 0 00-.39.38 1.28 1.28 0 01-.42.34.32.32 0 01.21-.21c.1 0 .16-.13.18-.28h.06a2 2 0 00.2-.21.79.79 0 01.19-.18 7.06 7.06 0 00.43-.82 1.63 1.63 0 00.1-1 .71.71 0 00-.48-.43 1.87 1.87 0 01-.57-.26A1.91 1.91 0 0189 13a.91.91 0 00-.62-.08 14.68 14.68 0 00-1.76-.33l-1.79-.22c0-.05 0-.06-.13-.05a.25.25 0 01-.2 0 1.77 1.77 0 01-1-.38 3.61 3.61 0 01-.67-.73 8.88 8.88 0 00-.58-.83 2.11 2.11 0 01-.43-1 .63.63 0 010-.16.51.51 0 000-.2.15.15 0 01.13 0v-.08c0-.01-.06-.05-.06-.12H82a.19.19 0 000-.13V8.6h.13s.14-.21.09-.29.14 0 .22 0a.25.25 0 000-.28 1.08 1.08 0 00.66-.65v.06a.15.15 0 000 .13l.15-.23a.32.32 0 000-.29h.23a.29.29 0 01.2-.13h.08c-.03 0 0-.07 0-.11s.07 0 .07 0a.09.09 0 000 .06v-.06-.1c0-.04.15-.06.2-.19h.16c.07 0 0-.11 0-.13s0-.11.08-.07a.11.11 0 00.15 0s0-.08.05-.11a.16.16 0 00.11-.15c.09 0 .13 0 .13-.06v.06a.3.3 0 00.29-.25c0-.06 0 0 .1 0a.23.23 0 01.09-.2.48.48 0 00.17-.23.71.71 0 00.45-.32h.17c.07 0 0 0 0-.09s0-.07.1 0 0 .06 0 .06.07 0 .07-.09.09 0 .08 0h.08v-.1a.12.12 0 00.1 0h.09a.61.61 0 01.33-.29c0-.15 0-.23.13-.23s0 0-.06.1 0 0 .06.06l.18-.19c.1-.09.17-.11.21-.07a.22.22 0 000-.26l.14-.11a.53.53 0 01.15-.08v.19h-.07c-.06 0-.09.06-.09.17a.17.17 0 000-.13h.07a1 1 0 00.45-.24l.29-.2h-.06a1.3 1.3 0 01.36-.35c.19-.16.36-.19.49-.1C89 3 89 3 89.08 3l.08-.07c.06 0 .07.05 0 .08s0 .08 0 .15a.9.9 0 01.26-.2h.08a.2.2 0 01.11 0c0-.06 0-.09-.08-.08a.15.15 0 00-.11.08h-.1a1.28 1.28 0 01.85-.24A1.2 1.2 0 0191 3a2.91 2.91 0 011 .26 6 6 0 00.88.35l.52.59a1.07 1.07 0 01.26.75A5.58 5.58 0 0193 6.73c-.3.52-.61 1-.91 1.53zm-10.75 9.55a.54.54 0 00.11-.23v-.16a.35.35 0 00-.1.19 1.06 1.06 0 00-.01.2zm.13.52v-.16c0-.07 0-.11.06-.13-.11 0-.16 0-.15.1a.34.34 0 00.09.19zm.26.1c0-.07 0-.1-.07-.1s.02.12.07.1zm.16-1s.07 0 .07-.07 0-.08-.07-.06zm0-.16h.07s.04-.08-.04-.01zm.17-8.57v-.07s.03.01.03.06zm0 .16s.03-.03.03-.01zm.13 8.47h-.13s.16.01.16-.01zm.06-8.89s0 .05-.06.09 0 0 .06 0 0 .07 0 .08a.15.15 0 00-.07 0 .16.16 0 000-.15c-.05.03-.01-.01.1-.03zm0-.07s.07-.03.03-.01zm.16 7.17a.1.1 0 00-.06.1s0 .06-.1.06a.14.14 0 01.19-.17zm0-7.3v-.06zm0 0V8.1s.06.02.03.06zm.36-.17q.06.09.06 0t-.06 0zM83 19.17h.06s-.06-.02-.06 0zm.06-11.66c0-.07 0-.07 0 0s.02.06 0 0zm.2-.3q.06-.12.06 0t-.06 0zm.13 11.9c0-.07 0-.07 0 0s.04.04 0 0zm.06-.07c.09 0 .13 0 .13.1h-.13zm.2.07s0-.06.08 0 .09 0 .12 0 0 .07-.09.09a.12.12 0 01-.11-.09zm.2-12.45h0zm.15-.13s0 .07 0 0zm.11-.08h.09c.03 0-.08.03-.05 0zM84.2 19s.05.08 0 0zm.17-12.74a.14.14 0 00-.05.08.08.08 0 01-.08.05c.02-.08.06-.12.13-.12zm-.13.26zm.16-.29v.01zm.16-.17zm.23-.13c-.06 0-.06 0 0-.05s.07.02 0 .06zm.13-.13c0-.06.06-.07 0 0s.02.06 0 .01zm.23-.19s0 .06-.1.06.03-.05.1-.05zm.68 13.13a2.47 2.47 0 01-.68.26.55.55 0 01.31-.16 2.93 2.93 0 00.37-.09zm-.45-13.32a.09.09 0 00-.07 0 .11.11 0 01-.1 0s.05-.07.09-.07 0 0 .08-.06zm.13.13v-.06a.05.05 0 000 .06zm.06-.32s0 .06-.06.06.06-.04.06-.06zm.26-.13s.05-.1 0 0zm.07.16v-.1c-.07.07-.07.1 0 .1zm0 13.49c-.05-.06-.05-.09 0-.06h.08a.09.09 0 01-.08.06zM85.9 5a.05.05 0 01.1 0 .05.05 0 01-.1 0zm.1-.1s.07 0 0 0zm.16 13.62v.1c0 .05-.06 0 0-.07zM86.13 5zm.16-.2s-.06 0 0 0 0-.05 0-.03zm.26-.26a.27.27 0 01-.2.16.14.14 0 01.07-.13.31.31 0 01.13-.06zm-.16.34v-.03zm0 13.61s.07-.03.03-.03zm.13-13.95c0-.11.11-.15.2-.13a.26.26 0 01-.17.1zm.33 13.69q0-.11 0 0t.03-.03zm.09.16h-.06s.12-.01.12-.03zM87 4.18zm0 0c0-.06.12-.09.3-.09a1.32 1.32 0 01-.3.09zm0 14a.28.28 0 01.13-.06s-.04.01-.13.01zm.13-.06c0-.07 0-.08.06 0s-.01-.05-.05-.05zm.22 0a.08.08 0 01-.09.09.08.08 0 01.1-.14zM87.3 4h.06v.1h-.06zm.16 14h.07-.07zm.07-.13s0 .04 0 0zm.23-.19c-.05.06-.08.09-.1.09s.03-.12.1-.09zm.29-14.21q.09-.08 0 0v.09a.41.41 0 01-.39.17.22.22 0 01.2-.1c.14 0 .19-.05.19-.16zm-.2 13.94c0 .07-.06.08-.06 0s.02-.04.06 0zm0 .27c.05 0 .07 0 .07.09s0 .08-.07 0v-.13zm.2-.14s-.05.03 0 0zm0 0v-.06.06zm.1.1c-.05 0-.06 0-.05-.05s0 0 .08 0-.03.03-.03.05zm0-14.24v.07s-.01-.02.03-.07zm0 14c0 .07 0 .08 0 0s-.01-.01.03.01zm0-14h.03zm.16 14v.13a.12.12 0 01-.16 0 .33.33 0 01.11-.08s.08-.02.08-.07zm-.16 0s.07.01.03.01zm.26-.16c0 .07 0 .1-.1.1a.09.09 0 01.13-.09zm0 0s0-.05 0 0 .1.01.03.01zM88.54 3zm.13 14.11a.12.12 0 01-.13.13c0-.14.04-.18.13-.18zm0-13.69c.06 0 .09 0 .09-.07s-.17-.02-.12.02zm.09 14v-.07a.09.09 0 00.08-.06.11.11 0 00-.13 0s-.02.02.02.06zm.1-.36c0 .09 0 .11-.08.07s-.06-.13.05-.13zm0 0a.64.64 0 01.2-.24.37.37 0 01.26-.12 1.36 1.36 0 01-.25.2 1.46 1.46 0 00-.24.1zm.1.29a.23.23 0 010-.13h-.08a.23.23 0 00.05.06zM89 3.17h-.1s.1.03.1 0zm.63 12.88c0 .06 0 .06 0 0s.04-.05.03 0zM90 7c0-.07 0 0 0 0s0 .13 0 0zm0-.36h.06s0 .06-.06 0z"/></svg>