<?xml version="1.0" encoding="utf-8"?>
<!-- Generator: Adobe Illustrator 24.3.0, SVG Export Plug-In . SVG Version: 6.00 Build 0)  -->
<svg version="1.1" id="Layer_1" xmlns="http://www.w3.org/2000/svg" xmlns:xlink="http://www.w3.org/1999/xlink" x="0px" y="0px"
	 viewBox="0 0 79.3 20.6" style="enable-background:new 0 0 79.3 20.6;" xml:space="preserve">
<style type="text/css">
	.st0{fill:#FFFFFF;}
</style>
<g>
	<path class="st0" d="M11.9,4.3c-0.1,0.2-0.2,0.1-0.2,0.3c-0.1-0.1-0.1,0-0.2,0c-0.2-0.2,0.2-0.4,0.1-0.6c-0.1-0.2-0.2,0.1-0.3-0.1
		c-0.1,0-0.1,0.1-0.1,0.1c-0.3,0-0.7,0-1,0.1c-0.4,0.1-0.6,0-1,0.1C8.9,4,8.5,4.3,7.9,4.3c-1.2,0.2-2.5,0.5-3.7,1
		c-0.1,1.5-0.6,2.7-1,4.1c0,0,0.2,0,0.1,0.1c0.5-0.2,1-0.2,1.5-0.3C4.8,9,4.9,9,4.9,9c0.4-0.1,0.8-0.1,1.3-0.1
		C7,8.8,8.4,8.7,8.7,9.6c0,0.1-0.1,0.1,0,0.2C8.5,9.7,8.4,9.8,8.3,10C8.1,10,8,10,8,10.2c-0.1,0-0.3,0-0.3,0.1
		c-1.5,0.2-3,0.6-4.4,0.8c-0.2-0.1-0.3,0-0.5,0c-0.3,1.1-0.7,2.4-0.6,3.8c0.3,0.1,0.6-0.1,0.9-0.1c1.3-0.3,2.3-0.8,3.6-1.1
		c0.1,0,0.1,0.1,0.2,0.1c0-0.1,0.1-0.1,0.1-0.1c0.5,0,1.1-0.1,1.6-0.2c0.2,0.1,0.4,0.1,0.7,0.1c0,0,0,0,0,0.1c0.4,0,0.9,0.3,1,0.7
		c-0.1,0-0.1,0-0.2,0.1c0.1,0.1-0.1,0.1,0,0.2c-0.1,0-0.1,0.1-0.2,0c-0.1,0.1-0.1,0.1-0.1,0.2c-0.7,0.1-1.4,0.4-1.9,0.5
		c-0.2,0.1-0.3,0.1-0.4,0.2c-0.8,0.1-1.6,0.6-2.4,0.7c-1.4,0.6-3.2,0-3.6-1.2c-0.5-0.6-0.6-1.4-0.5-2.3c0.1-0.4,0.2-0.7,0.2-1.2
		C1.2,10.6,1.4,9.7,1.6,9c0.2-1,0.6-2,0.9-3.1C2,6.2,1.5,6.3,1,6.6c-0.2,0-0.3-0.2-0.5-0.3c0-0.1-0.1-0.1,0-0.1c-0.1,0-0.1,0-0.2,0
		C0.2,5.7,0,5.4,0,4.9c0.1,0,0.1,0,0.1,0.1c0.2-0.2,0.5-0.2,0.8-0.4c0.1,0.1,0,0.1,0,0.2c0.1,0,0.1-0.1,0.1-0.2
		c0.3-0.2,0.5-0.3,0.8-0.4c0,0.2-0.3,0.1-0.3,0.2c0.1,0,0.3-0.1,0.4-0.1c0.1-0.1-0.1,0,0-0.1C1.9,4,2.1,4,2.2,3.9
		C2.3,4.1,1.8,4,1.8,4.2c0.3-0.1,0.7-0.3,1-0.4c-0.1-0.1,0.1-0.2,0-0.3C3,3.5,3.4,3.4,3.6,3.4c0,0.1-0.2,0-0.2,0.1
		c0.9-0.2,2-0.7,2.9-0.7c0.7-0.3,1.6-0.3,2.7-0.4c-0.4,0-1,0-1.3,0.1C7.7,2.3,7.9,2.3,8,2.3c1.2-0.1,2.6-0.2,3.4,0.6
		C11.7,3.3,12.3,3.7,11.9,4.3C12,4.3,12,4.3,11.9,4.3z M0.4,4.9 M0.6,4.8C0.6,4.8,0.6,4.8,0.6,4.8C0.5,4.8,0.6,4.9,0.6,4.8z
		 M0.7,4.8 M0.7,4.8C0.8,4.8,0.8,4.8,0.7,4.8C0.8,4.7,0.7,4.7,0.7,4.8z M1,4.7c0.1-0.1,0.2-0.1,0.3-0.2c0,0,0,0,0,0
		C1.2,4.4,1,4.6,1,4.7z M1.2,10.7C1.2,10.7,1.3,10.7,1.2,10.7C1.2,10.7,1.2,10.7,1.2,10.7z M1.2,10.8C1.2,10.8,1.2,10.8,1.2,10.8
		C1.2,10.7,1.2,10.7,1.2,10.8z M1.2,10.6 M1.5,9.9C1.5,9.9,1.4,9.7,1.5,9.9C1.4,9.9,1.5,9.9,1.5,9.9z M1.5,9.7 M1.5,9.7 M1.6,9.5
		 M1.6,9.5 M1.6,9.3 M1.7,8.9L1.7,8.9L1.7,8.9L1.7,8.9L1.7,8.9z M1.7,9 M2,8.3L2,8.3C1.9,8.3,1.9,8.3,2,8.3L2,8.3
		C1.9,8.3,1.9,8.3,2,8.3z M2,7.7 M2.1,7.7 M2.8,3.7C2.6,3.8,2.5,3.9,2.3,3.9C2.3,3.7,2.6,3.8,2.8,3.7C2.7,3.7,2.8,3.7,2.8,3.7z
		 M2.4,4.1C2.5,4.1,2.5,4.1,2.4,4.1C2.5,4,2.4,4,2.4,4.1z M3.6,3.3c0,0,0,0,0.1,0C3.7,3.4,3.6,3.5,3.6,3.3z M3.8,3.3
		c0-0.1,0.2-0.1,0.3-0.1C4.4,3,4.8,2.9,5.2,2.9C4.7,3,4.2,3.2,3.8,3.3z M3.8,9.4 M4.1,9.3C4,9.3,3.9,9.3,4.1,9.3
		C4,9.3,4.1,9.4,4.1,9.3z M4.2,9.3C4.2,9.3,4.2,9.3,4.2,9.3C4.2,9.3,4.2,9.3,4.2,9.3z M4.3,3.3 M4.3,9.3 M4.6,9.2
		C4.6,9.2,4.6,9.2,4.6,9.2c0.1-0.1-0.1-0.1-0.1,0C4.5,9.3,4.5,9.2,4.6,9.2z M4.6,3.3C4.6,3.3,4.7,3.3,4.6,3.3
		C4.6,3.2,4.6,3.2,4.6,3.3z M4.8,9.1c0,0-0.1,0-0.1,0.1C4.8,9.1,4.8,9.1,4.8,9.1z M4.9,9.1C4.9,9.1,4.9,9.1,4.9,9.1L4.9,9.1
		C4.9,9.1,4.9,9.1,4.9,9.1L4.9,9.1z M5.2,9C5.2,9,5,9,5,9.1C5,9.1,5.2,9.1,5.2,9z M5.2,2.9c0.1-0.1,0.2-0.1,0.3-0.1
		C5.5,2.9,5.3,2.9,5.2,2.9z M5.3,9L5.3,9L5.3,9L5.3,9L5.3,9z M5.4,3 M5.4,9C5.4,9,5.5,9,5.5,9C5.4,9,5.4,9,5.4,9z M5.5,3 M5.6,2.8
		c-0.1,0-0.1-0.1,0-0.1C5.6,2.8,5.6,2.8,5.6,2.8z M5.6,9C5.6,9,5.6,9,5.6,9L5.6,9C5.6,9,5.6,9,5.6,9L5.6,9z M5.6,3 M5.9,8.9
		c-0.1,0-0.2,0-0.2,0c0,0,0,0.1,0,0.1C5.7,9,5.9,9,5.9,8.9z M5.7,2.8c0.1-0.2,0.5-0.2,0.8-0.3C6.3,2.8,5.9,2.7,5.7,2.8z M6.2,8.9
		C6.2,8.9,5.9,8.9,5.9,9C6,9,6.1,8.9,6.2,8.9z M5.9,2.9 M6,2.9 M6,14 M6.5,8.9c-0.1,0-0.2,0-0.2,0C6.3,8.9,6.5,8.9,6.5,8.9z
		 M6.4,13.9 M6.6,2.6C6.6,2.6,6.6,2.6,6.6,2.6C6.6,2.6,6.6,2.6,6.6,2.6z M6.6,2.8 M6.6,8.9C6.6,8.9,6.6,8.9,6.6,8.9
		C6.6,8.9,6.6,8.9,6.6,8.9C6.6,8.9,6.6,8.9,6.6,8.9C6.6,8.9,6.6,8.9,6.6,8.9z M6.7,8.9 M6.7,2.6c0-0.2,0.2-0.1,0.4-0.2
		C7.1,2.6,6.8,2.5,6.7,2.6z M6.9,8.9 M7.2,2.4c0-0.1,0.2,0,0.3-0.1C7.6,2.4,7.2,2.5,7.2,2.4z M7.2,2.9 M7.3,8.9L7.3,8.9
		C7.3,8.9,7.3,8.9,7.3,8.9L7.3,8.9C7.3,8.9,7.3,8.9,7.3,8.9z M7.5,8.9c-0.1,0-0.1,0-0.1,0C7.4,8.9,7.4,9,7.5,8.9z M7.5,2.8 M7.6,2.6
		 M7.7,2.6 M8.7,2.5C8.7,2.5,8.7,2.5,8.7,2.5C8.7,2.4,8.7,2.4,8.7,2.5z M9.5,2.4C9.4,2.3,9,2.3,9,2.4C9.2,2.4,9.3,2.4,9.5,2.4z
		 M9.5,2.3c0.1,0.1,0.3,0,0.5,0.1C9.9,2.3,9.6,2.4,9.5,2.3z M10.2,2.4c-0.1,0-0.1,0-0.1,0v0C10.1,2.4,10.2,2.4,10.2,2.4z M10.3,2.4
		C10.1,2.4,10.3,2.4,10.3,2.4C10.3,2.4,10.3,2.4,10.3,2.4z M10.7,4C10.6,4,10.6,4,10.7,4C10.6,4,10.6,4,10.7,4z M11.6,4.4"/>
	<path class="st0" d="M11.6,14.6C11.6,14.6,11.6,14.6,11.6,14.6L11.6,14.6C11.6,14.6,11.6,14.6,11.6,14.6
		C11.6,14.6,11.6,14.6,11.6,14.6z M20.5,6.6C20.4,6.6,20.4,6.6,20.5,6.6c-0.2,0-0.1,0.1-0.2,0.2c-0.2,0-0.3,0.1-0.4,0.1
		c0,0,0-0.1,0-0.1c-0.3-0.1-0.4-0.3-0.6-0.5c0,0,0,0,0.1,0c-0.2-0.2-0.5-0.4-0.5-0.8c0,0,0.1,0,0.1,0c0-0.7,0.5-1,0.6-1.7
		c-1,0.4-1.7,1-2.5,1.5c-0.8,0.6-1.6,1.4-2.4,2.1c-0.1,0.1-0.3,0.4-0.4,0.4c-0.1,0.2-0.3,0.4-0.4,0.7c0.5,0.2,1.1,0.1,1.6,0.3
		c0.4,0,0.8,0.2,1.2,0.2c1.5,0.5,2.9,1.1,3.9,2.1c0.2,0.4,0.5,0.8,0.5,1.3c0.1,0.5-0.1,1.1-0.4,1.5c0,0,0,0.1,0,0.1
		c-0.6,0.7-1.2,1.3-2,1.7c-0.9,0.5-1.7,1.1-2.8,1.3c-0.2,0.1-0.3,0-0.6,0.1c-0.1-0.1-0.2,0-0.3,0c-0.2-0.1-0.4-0.1-0.8-0.1
		c-0.3-0.3-0.8-0.4-1.1-0.7c-0.2-0.3-0.4-0.6-0.6-0.8c0-0.2-0.2-0.3-0.3-0.3c0-0.3-0.3-0.4-0.4-0.6c0,0,0.1,0,0.1,0
		c-0.1-0.1-0.1-0.1,0-0.2c-0.1-0.1-0.1,0.1-0.1,0c0-0.3,0.2-0.5,0.2-0.8c0.1-0.1,0.1,0,0.1-0.1c0,0-0.1-0.1,0-0.1
		c0-0.4,0.3-0.6,0.5-1c0.1,0.2-0.3,0.5-0.3,0.8c0.2-0.2,0.2-0.5,0.5-0.6c-0.4,0.5-0.7,1.1-0.7,1.6c0.1,0.1,0-0.2,0.1-0.1
		c0-0.4,0.3-1.2,0.7-1.4c-0.1,0.3-0.3,0.5-0.3,0.8c0.1-0.2,0.2-0.4,0.3-0.5c-0.1,0.2-0.2,0.3-0.2,0.5c0.1-0.1,0.1-0.2,0.2-0.3
		c0.1,0.1,0,0.3-0.1,0.4c0.1,0.1,0.1,0,0.1,0c0.1,0.1-0.1,0.2-0.1,0.4c0,0,0.1,0,0.1-0.1c0,0.1-0.1,0.4,0.1,0.5c0-0.1,0-0.1,0.1-0.1
		c-0.1,0.2,0.1,0.3,0,0.4c0.1,0,0.1-0.1,0.1-0.1c0.1,0,0.1,0.2,0,0.2h-0.1h0.1c0,0.1,0.1,0.1,0,0.2c0.1,0.1,0.3,0.1,0.4,0.1
		c0.1,0.1-0.1,0-0.1,0.1c0.4,0.1,1-0.1,1.5-0.1c-0.4,0.2-1,0.2-1.4,0.2c0.8,0.1,1.8-0.1,2.5-0.6c0.2,0.1,0.2-0.1,0.4-0.1
		c-0.1,0,0-0.1-0.1-0.1c0.4-0.1,0.8-0.3,1.1-0.6c0.1,0,0.2-0.1,0.3-0.1c0-0.1,0-0.1,0-0.1c0,0,0.1,0,0.1,0c0,0,0,0,0.1,0
		c0,0,0,0-0.1,0c0.4-0.4,1-0.7,1.3-1.2c-0.2,0.2-0.4,0.4-0.7,0.6c0.1-0.2,0.3-0.2,0.3-0.4c0,0,0,0,0.1,0c0.1-0.1,0.2-0.2,0.3-0.3
		c0.2-0.4,0.5-0.9,0.4-1.5c-0.1-0.3-0.6-0.4-0.8-0.6c-0.4-0.1-0.6-0.3-1-0.2c-0.8-0.2-2-0.3-2.9-0.4c0-0.1-0.2,0-0.3-0.1
		c-0.7-0.1-1-0.4-1.3-0.9c-0.3-0.4-0.7-0.9-0.8-1.5c0-0.1,0-0.2,0-0.3c0.1,0,0.1,0,0.1,0c0.1-0.1-0.1-0.1-0.1-0.2c0.1,0,0.1,0,0.1,0
		c0-0.1,0-0.2,0-0.2c0,0,0,0,0,0h0.1c0,0,0,0,0,0c0.1-0.1,0.1-0.1,0.1-0.2c0.1,0.1,0.3-0.1,0.2-0.3c0.2-0.1,0.4-0.3,0.5-0.5
		c0.1,0,0,0.1,0,0.2c0.1-0.1,0.2-0.2,0.1-0.4c0.2,0.1,0.2-0.1,0.3-0.1c0.1,0,0-0.1,0.1-0.1c0.1,0,0.1,0.1,0.1,0.1c0.1,0,0-0.1,0-0.1
		c0.1,0,0.1-0.1,0.2-0.2c0.1,0,0.1-0.1,0.1-0.1c0-0.1,0.1-0.1,0-0.1c0-0.1,0.1,0,0.2,0c-0.1-0.1,0.1-0.1,0.1-0.2c0,0,0.1,0,0.1-0.1
		c0,0,0,0,0,0.1c0,0,0.1-0.2,0.1-0.1c0-0.1,0.2-0.2,0.2-0.3c0.2-0.1,0.3-0.1,0.4-0.3c0.1,0,0.1-0.1,0.1,0c0,0,0-0.1,0.1-0.1
		c0,0.1,0,0.1,0,0.1c0.1,0,0.1,0,0.1-0.1c0.1,0,0-0.1,0.1-0.1c0,0,0,0,0-0.1c0.1,0,0.1-0.1,0.2,0c0.1-0.1,0.2-0.2,0.3-0.2
		c0-0.1,0-0.2,0.1-0.2c0,0.1,0,0.1-0.1,0.1c0,0,0.1,0,0.1,0.1c0-0.1,0.2-0.3,0.3-0.2c0.1-0.1,0.1-0.1,0-0.2C16.7,3.1,16.8,3,16.9,3
		c0,0.1,0,0.1,0,0.2c-0.1-0.1-0.1,0-0.1,0c-0.1,0-0.1,0-0.1,0.1c0,0,0.1-0.1,0.1-0.1c0.1,0,0.1,0,0.1,0C17,3.1,17.2,3,17.3,2.9
		c0,0-0.1,0-0.1,0c0.1-0.1,0.5-0.5,0.7-0.4c0-0.1,0.1-0.2,0.1-0.2c0.1,0,0,0.1,0,0.2c0.1-0.1,0.1-0.1,0.2-0.2c0.1,0,0.1,0,0.2,0
		c0-0.1-0.1-0.1-0.2,0c-0.1,0-0.1,0-0.1,0c0.3-0.3,1-0.2,1.3,0c0.7,0.1,1,0.3,1.5,0.5c0.3,0.3,0.6,0.6,0.6,1.1
		C21.5,5.1,20.9,5.9,20.5,6.6C20.4,6.7,20.4,6.7,20.5,6.6C20.4,6.6,20.4,6.6,20.5,6.6z M11.8,14.1c-0.1,0.1-0.1,0.2-0.1,0.3
		C11.8,14.3,11.9,14.1,11.8,14.1z M11.9,14.6c-0.2,0-0.1,0.2-0.1,0.2C11.8,14.7,11.8,14.6,11.9,14.6z M12,14.8
		C12,14.9,12,14.9,12,14.8C12,14.9,12,14.8,12,14.8z M12.2,14c0,0,0,0.1,0,0.1C12.3,14.1,12.3,13.9,12.2,14z M12.2,13.9 M12.3,7
		C12.3,6.9,12.3,6.9,12.3,7C12.3,7,12.3,7,12.3,7z M12.3,7.1 M12.3,14c0.1,0,0.1,0,0.1,0C12.4,14,12.3,14,12.3,14z M12.4,6.9
		C12.4,6.9,12.5,6.9,12.4,6.9c0.1,0.1,0,0.1,0,0.1C12.4,6.9,12.3,6.8,12.4,6.9C12.5,6.8,12.5,6.8,12.4,6.9z M12.5,6.7 M12.5,6.8
		L12.5,6.8L12.5,6.8z M12.5,12.7c0-0.1,0-0.1,0.1-0.1C12.6,12.6,12.6,12.7,12.5,12.7z M12.6,6.7C12.6,6.7,12.6,6.6,12.6,6.7
		C12.6,6.6,12.6,6.6,12.6,6.7C12.6,6.6,12.6,6.6,12.6,6.7z M12.6,6.6 M12.9,6.2C12.9,6.2,12.9,6.2,12.9,6.2
		C12.9,6.2,12.9,6.2,12.9,6.2z M12.9,6.5 M13.1,15.5C13.1,15.5,13.1,15.5,13.1,15.5C13.1,15.5,13.1,15.5,13.1,15.5z M13.1,6.1
		 M13.3,15.7 M13.3,5.8 M13.4,15.5 M13.5,15.5c0,0-0.1,0-0.1,0c0,0,0,0,0-0.1C13.5,15.4,13.5,15.4,13.5,15.5z M13.8,15.4
		c0,0.1-0.1,0.1-0.2,0.1C13.6,15.4,13.7,15.5,13.8,15.4z M13.8,5.4C13.8,5.4,13.8,5.4,13.8,5.4C13.8,5.4,13.8,5.4,13.8,5.4z
		 M13.8,5.4 M13.8,5.6 M13.9,5.3 M14,15.4 M14.1,5.2c0-0.1,0-0.1,0.1-0.1C14.2,5.1,14.2,5.2,14.1,5.2z M14.1,5.2 M14.1,5.3
		C14.1,5.3,14.2,5.3,14.1,5.3C14.1,5.3,14.1,5.3,14.1,5.3z M14.2,5.1C14.2,5.1,14.2,5.1,14.2,5.1C14.2,5.1,14.2,5.1,14.2,5.1z
		 M14.3,4.9C14.3,4.9,14.3,4.9,14.3,4.9C14.3,4.9,14.3,4.9,14.3,4.9z M14.5,4.8 M14.6,4.7 M14.7,4.6C14.7,4.6,14.8,4.6,14.7,4.6
		C14.8,4.6,14.8,4.6,14.7,4.6z M14.8,15.4c0.1-0.1,0.3-0.2,0.6-0.2C15.2,15.3,15,15.4,14.8,15.4z M14.9,4.4c0-0.1,0.1-0.1,0.1-0.1
		c0,0.1,0,0.1,0,0.1C15,4.4,14.9,4.4,14.9,4.4z M15,4.6 M15.1,4.5C15.1,4.4,15.2,4.4,15.1,4.5C15.1,4.4,15.1,4.4,15.1,4.5z
		 M15.2,4.2C15.2,4.3,15.2,4.3,15.2,4.2C15.1,4.3,15.2,4.3,15.2,4.2L15.2,4.2z M15.3,4.3 M15.4,4.1 M15.4,4.2
		C15.4,4.2,15.3,4.3,15.4,4.2C15.4,4.2,15.5,4.2,15.4,4.2z M15.4,15.2C15.4,15.1,15.5,15.2,15.4,15.2C15.5,15.2,15.5,15.2,15.4,15.2
		z M15.5,4C15.5,4.1,15.5,4.1,15.5,4C15.4,4,15.5,4,15.5,4z M15.5,15.2 M15.5,4 M15.6,4L15.6,4C15.6,4,15.6,4,15.6,4z M15.6,15.1
		C15.6,15.1,15.6,15,15.6,15.1C15.7,15.1,15.6,15,15.6,15.1z M15.7,3.9 M15.8,3.8c0-0.1,0.1-0.1,0.2-0.1C15.9,3.7,15.9,3.8,15.8,3.8
		z M15.8,3.9 M15.8,15 M16.1,3.5c0,0.1-0.1,0.1-0.2,0.1C16,3.6,16,3.5,16.1,3.5z M16.2,14.8 M16.2,14.9
		C16.3,14.9,16.3,14.9,16.2,14.9C16.3,14.9,16.2,14.9,16.2,14.9z M16.3,3.4C16.3,3.4,16.3,3.4,16.3,3.4C16.3,3.4,16.3,3.4,16.3,3.4z
		 M16.5,3.3c-0.1,0-0.1,0.1-0.2,0.1C16.3,3.3,16.4,3.3,16.5,3.3z M16.4,14.6c0,0.1,0,0.1-0.1,0.1C16.4,14.6,16.4,14.6,16.4,14.6z
		 M16.3,14.7 M16.5,14.6C16.5,14.6,16.5,14.6,16.5,14.6C16.4,14.6,16.5,14.6,16.5,14.6z M16.5,14.7C16.5,14.6,16.6,14.6,16.5,14.7
		C16.6,14.7,16.6,14.7,16.5,14.7z M16.6,3.2C16.6,3.2,16.6,3.3,16.6,3.2C16.6,3.3,16.6,3.3,16.6,3.2C16.6,3.3,16.6,3.2,16.6,3.2
		C16.6,3.2,16.6,3.2,16.6,3.2z M16.7,14.6L16.7,14.6C16.7,14.6,16.7,14.6,16.7,14.6L16.7,14.6C16.7,14.6,16.7,14.6,16.7,14.6z
		 M16.7,14.5 M16.9,14.4C16.9,14.4,16.9,14.3,16.9,14.4C16.9,14.4,16.9,14.4,16.9,14.4z M17.2,2.9C17.2,3,17.1,3,16.9,3
		C17,2.9,17.2,3,17.2,2.9C17.3,2.8,17.1,2.9,17.2,2.9z M16.9,14.3 M17,14.1 M17,14.4C17,14.4,17,14.4,17,14.4c0-0.1,0-0.1,0-0.1
		C17.1,14.3,17.1,14.5,17,14.4z M17.2,14.2L17.2,14.2L17.2,14.2C17.2,14.2,17.2,14.1,17.2,14.2z M17.2,14.2 M17.3,14.3
		C17.3,14.3,17.2,14.3,17.3,14.3C17.2,14.3,17.2,14.2,17.3,14.3z M17.3,2.8 M17.3,2.8 M17.3,14.2c0.1-0.1,0.1-0.1,0.1-0.1
		C17.5,14.1,17.4,14.3,17.3,14.2z M17.3,14.1 M17.3,14.1 M17.4,2.9 M17.4,14.1C17.4,14,17.4,14,17.4,14.1
		C17.5,14,17.4,14.1,17.4,14.1z M17.5,14 M17.5,2.4 M17.5,2.4 M17.6,13.9c0-0.1,0-0.1,0.1-0.1C17.7,13.9,17.7,13.9,17.6,13.9z
		 M17.7,2.7C17.7,2.7,17.6,2.7,17.7,2.7C17.7,2.7,17.7,2.7,17.7,2.7z M17.8,14c-0.1,0-0.2,0.1-0.1,0.1C17.7,14,17.8,14,17.8,14z
		 M17.7,13.6 M18.2,13.5c-0.1,0.1-0.3,0.2-0.4,0.3C17.9,13.6,18,13.5,18.2,13.5z M17.8,13.8 M17.9,13.9c-0.1-0.1-0.1,0.1,0,0.1
		C17.9,14,17.9,13.9,17.9,13.9z M17.9,2.6C17.9,2.6,18,2.6,17.9,2.6C17.9,2.6,17.9,2.6,17.9,2.6z M18.4,13 M18.6,12.8 M18.8,5.7
		 M18.8,5.4C18.8,5.4,18.8,5.4,18.8,5.4C18.9,5.4,18.9,5.5,18.8,5.4z M18.9,5.2"/>
	<path class="st0" d="M22.9,12.1C22.9,12.2,22.9,12.1,22.9,12.1C22.9,12.1,22.9,12.1,22.9,12.1z M22.9,12.1 M22.9,13.5 M22.9,13.6
		C22.9,13.6,22.9,13.6,22.9,13.6C22.9,13.6,22.9,13.7,22.9,13.6z M22.9,13.9 M22.9,14 M22.9,11.6 M22.9,12.6
		C22.9,12.5,23,12.7,22.9,12.6L22.9,12.6z M22.9,12.7C22.9,12.7,22.9,12.7,22.9,12.7C22.9,12.7,23,12.7,22.9,12.7z M22.9,12.8
		 M22.9,13.1 M22.9,13.4 M22.9,13.5 M22.9,14.6 M23,15.1C23,15.1,22.9,15.1,23,15.1C22.9,15,23,15,23,15.1z M28.4,3.2
		c-0.1-0.2-0.1-0.4-0.3-0.6c-0.8,0.7-1.2,1.8-1.8,2.8c-0.2,0.7-0.5,1.5-0.7,2.2c0,0.4-0.2,0.8-0.2,1.2c0,0.1,0,0.1,0.1,0.1
		c0,0.1-0.1,0.2-0.1,0.3c-0.4,1.9-0.6,3.9-0.4,5.8c0,0,0.1,0,0.1,0.1c0,0.1,0,0.3,0,0.3c0.1,0.7,0.3,1.7,0.8,2
		c0.6-0.3,1.1-0.7,1.5-1.1c0.2-0.2,0.3-0.5,0.6-0.6c0-0.1,0-0.1,0-0.1c0.1,0,0.2-0.1,0.2-0.3c0.4-0.3,0.6-0.8,0.9-1.2
		c1-1.7,2-3.4,2.8-5.2c0.1,0-0.1-0.1,0-0.1c0,0,0,0,0,0c0.1,0,0.1,0,0.1-0.1c0.1,0,0,0,0,0s0,0-0.1,0c0.1-0.2,0.1-0.3,0.2-0.4
		c0,0.1,0,0.1,0.1,0.1c0,0.1,0,0.1,0,0.3c0,0,0,0.1,0,0c0,0,0-0.1,0.1-0.2c0.1,0.1-0.1,0.3-0.1,0.4c0,0,0.1-0.1,0.1-0.1
		c0.1,0.1-0.1,0.3-0.1,0.3c0.1,0.1,0.1,0.1,0.1,0.1c0,0.2,0,0.3-0.1,0.4c0,0,0.1,0.1,0.1,0.2c0,0.4,0,0.9-0.2,1.2c0,0-0.1,0-0.1,0.1
		c0,0.1,0.1,0,0.1-0.1c0.1,0,0.1-0.1,0.1-0.2c0.1,0.1-0.1,0.2-0.1,0.2c0,0.4-0.2,0.4-0.1,0.7c-0.2,0.4-0.4,0.6-0.4,1c0,0,0,0-0.1,0
		c0,0.4-0.4,0.6-0.4,1c-0.2,0.3-0.2,0.6-0.5,0.8c0,0.1,0,0.1,0,0.2c0,0,0,0-0.1,0c0,0-0.1,0.1,0,0.1c-0.3,0.6-0.8,1.1-1.1,1.6
		c-0.1,0-0.1,0-0.1,0c-0.8,1.1-2.2,2.1-3.9,1.7c-0.3-0.2-0.4-0.2-0.8-0.3c-0.5-0.2-1-0.5-1.1-1.1c-0.3-0.6-0.3-1.1-0.3-1.6
		c0,0,0,0.1,0,0.1c0.1,0,0-0.1,0-0.2c0,0,0,0-0.1,0c-0.1-0.3,0-0.7-0.1-0.9c0,0,0.1,0,0.1,0c-0.1,0-0.1-0.2,0-0.2c0,0,0,0.2,0,0.2
		c0,0,0-0.2,0-0.2c0-0.1,0.1-0.1,0-0.1c0,0,0-0.1-0.1-0.1c0.1-0.3,0-0.6,0.1-0.9c0,0,0,0,0,0.1c0.1,0,0-0.1,0.1-0.1
		c-0.1,0-0.1,0.1-0.1,0.1c-0.1-0.2,0.1-0.4,0-0.6c0.1,0,0,0.1,0.1,0.1c0-0.1-0.1-0.1-0.1-0.2c0,0.1,0.1,0.1,0.1,0.1
		c0-0.1-0.1-0.1-0.1-0.1c0-0.1,0-0.4,0.1-0.4c-0.1-0.1-0.1-0.3,0-0.3c0-0.1,0-0.3,0.1-0.3c-0.1-0.4,0.1-0.7,0.1-1.2
		c0.1,0,0,0.1,0.1,0.1c0.1-0.2,0-0.2,0-0.5c0.1,0,0.1,0,0.1,0c-0.1-0.1,0-0.1,0-0.3c0.1,0,0.1,0.2,0.1,0c0,0,0,0,0-0.1
		c-0.1-0.1,0,0.1,0,0.1c-0.1,0,0-0.1-0.1-0.2c0.1-0.1,0.2-0.3,0.1-0.4c0-0.1,0-0.1,0-0.2c0,0,0,0,0,0.1c0.1-0.1,0-0.1,0-0.2
		c0.2,0,0.1-0.4,0.3-0.6C24,7.5,24,7.3,24,7.1c0.1,0,0,0.1,0.1,0.1c0.1-0.4,0.1-0.6,0.3-1c0,0,0,0,0.1,0c-0.1-0.1,0.2-0.2,0-0.3
		c0.1-0.2,0.1-0.2,0.2-0.4c-0.1,0,0,0,0.1-0.1c0,0,0,0,0,0c-0.2,0,0.1-0.1,0.1-0.2c0.1-0.2,0.1-0.3,0.1-0.4c0,0,0,0,0.1,0
		c0,0,0,0,0,0c0,0,0,0,0,0c0-0.1,0-0.2,0.1-0.3c0.1,0,0,0.1,0,0.1c0.1-0.1,0.1-0.3,0.2-0.5c0.1,0-0.1,0.1,0,0.1c0.1,0,0-0.2,0.1-0.3
		c-0.1-0.1-0.1,0.1-0.1,0.1C25,4.1,25.1,4,25.1,3.9c0,0.1,0,0.1,0.1,0.2c0.1-0.1,0-0.1,0.1-0.2c0-0.1-0.2,0-0.2-0.1s0.1-0.1,0.1-0.2
		c0,0,0,0,0.1,0c0-0.1,0,0-0.1,0c0-0.2,0.1-0.2,0.2-0.4c0.1,0,0.1,0,0.1,0c-0.1-0.5,0.5-1,0.7-1.3c-0.1-0.1-0.1,0.1-0.2,0.1
		c0.1-0.2,0.5-0.2,0.7-0.2c0.4-0.1,0.8-0.2,1.2-0.2c0.2,0,0.3-0.1,0.6-0.1c0.4,0,1,0.3,1.3,0.6c0,0,0-0.1,0-0.1
		C30,2.2,30,2.4,30.2,2.5c0,0.3,0.2,0.7,0.3,0.9c0.1,0.5,0.2,1.2,0.2,1.7c0,0.2,0.1,0.5,0.1,0.6c0,0.4-0.5,0.5-0.8,0.4
		c-0.1,0-0.1-0.2-0.2-0.1c-0.3-0.3-0.6-0.5-1-0.7c0,0,0-0.1,0.1-0.1C28.8,4.6,28.8,3.8,28.4,3.2c0,0.1,0.2,0.2,0.1,0.3
		C28.4,3.4,28.5,3.3,28.4,3.2C28.6,3.2,28.4,3,28.4,3.2z M22.9,12.3 M23,13.6C23,13.7,22.9,13.6,23,13.6C23,13.6,23,13.6,23,13.6z
		 M23,12.2C23,12.2,22.9,12.2,23,12.2C23,12.2,23,12.2,23,12.2z M23,12.2 M23,12.2 M23,15C23,14.9,23.1,15,23,15C23,15,23,15,23,15z
		 M23,11.8c-0.1,0.1,0-0.1,0-0.1C23.1,11.7,23,11.7,23,11.8z M23,13.3c0,0.1,0,0.2,0,0.2C23.1,13.4,23,13.4,23,13.3z M23,12.9
		c0,0,0,0.1,0,0.1C23.1,13,23.1,12.9,23,12.9z M23,13.1c0,0.1,0,0.1,0,0.1C23.1,13.2,23.1,13.1,23,13.1z M23,14.1 M23,14.2 M23,11.5
		 M23,11.6 M23,12.5C23.1,12.6,23.1,12.4,23,12.5C23.1,12.4,23.1,12.4,23,12.5L23,12.5z M23,12.8C23,12.8,23.1,12.8,23,12.8
		C23.1,12.8,23,12.8,23,12.8z M23.1,13.1C23.1,13.1,23.1,13,23.1,13.1L23.1,13.1C23,13,23,13.1,23.1,13.1L23.1,13.1z M23,14.7
		 M23,14.8 M23.1,11c0.1,0,0-0.1,0.1-0.1C23.1,10.9,23.2,11.1,23.1,11z M23.1,11.1 M23.1,11.1 M23.1,11.9 M23.1,14.3
		C23.1,14.3,23.1,14.4,23.1,14.3C23.1,14.3,23.1,14.3,23.1,14.3z M23.1,11.7c-0.1,0-0.1,0.1-0.1,0.2C23.2,11.9,23.2,11.7,23.1,11.7z
		 M23.1,10.9 M23.1,12.7C23.1,12.7,23.2,12.7,23.1,12.7C23.2,12.7,23.1,12.7,23.1,12.7z M23.2,11.3c0,0.1,0,0.2,0,0.2
		C23.2,11.4,23.3,11.3,23.2,11.3z M23.2,10.6c-0.1,0,0-0.2,0.1-0.2C23.2,10.4,23.2,10.5,23.2,10.6z M23.2,10.7 M23.2,10.7
		 M23.2,11.6C23.2,11.6,23.3,11.6,23.2,11.6C23.4,11.6,23.3,11.5,23.2,11.6C23.2,11.6,23.2,11.6,23.2,11.6z M23.2,12.1 M23.2,12.2
		c0,0.1,0,0.1,0,0.1C23.2,12.3,23.2,12.2,23.2,12.2z M23.2,13 M23.2,13c0.1,0,0,0.2,0.1,0.1C23.2,13.1,23.3,13,23.2,13z M23.2,13.9
		c0.1-0.3,0.1-0.4,0-0.6c0.1,0,0.1-0.1,0-0.1c0,0.1,0,0.1,0,0.1C23.2,13.5,23.2,13.7,23.2,13.9z M23.2,14C23.2,14,23.2,14,23.2,14
		C23.2,14,23.2,14,23.2,14z M23.2,14.3 M23.2,14.4 M23.3,15.3c-0.1-0.2,0-0.4-0.1-0.6c0.1,0,0-0.1,0,0
		C23.2,14.8,23.2,15.2,23.3,15.3z M23.2,12.7 M23.3,12.4C23.3,12.3,23.3,12.3,23.3,12.4C23.3,12.4,23.3,12.4,23.3,12.4
		C23.3,12.4,23.3,12.4,23.3,12.4z M23.3,15.4c0,0,0-0.1-0.1-0.1C23.3,15.3,23.3,15.4,23.3,15.4C23.3,15.4,23.3,15.4,23.3,15.4z
		 M23.3,9.9c0.1,0.1,0,0.1,0,0.2c0,0,0,0,0,0C23.3,10,23.3,9.9,23.3,9.9z M23.3,10.1 M23.3,11C23.3,11,23.3,11,23.3,11
		C23.3,11,23.3,11,23.3,11z M23.3,12.1c0,0.1,0,0.1,0,0.1C23.4,12.2,23.4,12.1,23.3,12.1z M23.3,11.1c0,0,0,0.2,0,0.2
		C23.3,11.2,23.4,11.1,23.3,11.1z M23.3,16.2c0,0.1,0,0.1,0,0.1C23.4,16.3,23.4,16.3,23.3,16.2z M23.4,10.4
		C23.4,10.4,23.4,10.4,23.4,10.4c0-0.1,0-0.1,0-0.1C23.3,10.4,23.3,10.4,23.4,10.4L23.4,10.4z M23.3,11.1 M23.3,12 M23.4,11.6
		c-0.1,0-0.1,0.1-0.1,0.1C23.4,11.6,23.4,11.6,23.4,11.6z M23.4,11.5c0-0.1,0-0.1-0.1-0.1C23.4,11.4,23.4,11.5,23.4,11.5
		C23.4,11.5,23.4,11.5,23.4,11.5z M23.4,16.1 M23.4,9.5 M23.4,9.5 M23.5,10c-0.1,0.1,0,0.2-0.1,0.3C23.5,10.3,23.5,10,23.5,10z
		 M23.4,10.7 M23.5,10.9c0,0.1-0.1,0.2-0.1,0.3C23.5,11.1,23.5,10.9,23.5,10.9z M23.4,11.3c0,0.1-0.1,0.1,0.1,0.1
		C23.5,11.4,23.5,11.3,23.4,11.3z M23.5,10.3c-0.1,0-0.1,0.3,0,0.3C23.4,10.5,23.5,10.3,23.5,10.3z M23.5,16.7 M23.5,9.4
		C23.5,9.4,23.5,9.4,23.5,9.4C23.5,9.4,23.5,9.4,23.5,9.4C23.5,9.4,23.5,9.4,23.5,9.4C23.5,9.4,23.5,9.4,23.5,9.4z M23.5,10.8
		 M23.5,9.5 M23.5,9.9C23.5,9.9,23.6,9.9,23.5,9.9C23.5,9.9,23.5,9.9,23.5,9.9z M23.5,10.6 M23.5,9.6c0,0.1,0,0.2,0,0.2
		C23.6,9.7,23.7,9.7,23.5,9.6z M23.6,10c0.1,0.1,0,0.2,0,0.2C23.7,10.2,23.7,10,23.6,10z M23.5,16.9C23.6,16.9,23.6,16.9,23.5,16.9
		C23.6,16.9,23.5,16.9,23.5,16.9z M23.6,9.4c0.1,0.1,0,0.2,0.1,0.2C23.7,9.5,23.7,9.4,23.6,9.4C23.7,9.4,23.6,9.3,23.6,9.4
		C23.6,9.4,23.6,9.4,23.6,9.4z M23.7,9.2c0,0,0,0.1,0,0.1C23.7,9.3,23.7,9.2,23.7,9.2z M23.7,8.9 M23.7,9.5c0,0.1-0.1,0.2,0,0.3
		C23.7,9.8,23.7,9.7,23.7,9.5z M23.7,17.1C23.7,17,23.7,17.1,23.7,17.1C23.7,17.1,23.7,17.1,23.7,17.1z M23.7,8.4 M23.7,8.9
		 M23.7,9.2c0,0,0,0.1,0,0.1C23.7,9.3,23.8,9.3,23.7,9.2z M23.7,9.4C23.7,9.4,23.7,9.4,23.7,9.4C23.7,9.4,23.7,9.4,23.7,9.4z
		 M23.7,17.1 M23.7,7.8 M23.8,8.4c0,0.1-0.1,0.3,0,0.4C23.8,8.6,23.8,8.5,23.8,8.4C24,8.3,24,8.1,23.9,8.1
		C23.9,8.2,23.8,8.2,23.8,8.4C23.8,8.4,23.8,8.4,23.8,8.4z M23.8,9 M23.9,7.5c0.1,0,0.1,0,0.1,0v0.1C23.9,7.6,23.9,7.6,23.9,7.5z
		 M23.9,8 M24,7.3c0,0,0,0.1,0,0.1C24,7.4,23.9,7.4,24,7.3z M24,7.4 M24,7.6C24,7.6,24,7.7,24,7.8C24,7.8,24,7.6,24,7.6
		C24.1,7.6,24.1,7.5,24,7.6C24.2,7.5,24,7.4,24,7.6C24,7.5,24,7.5,24,7.6z M24,17.4 M24,8.3 M24,7 M24,8.1C24,8.1,24.1,8.1,24,8.1
		C24,8.1,24,8.1,24,8.1z M24.1,6.5 M24.1,7.1C24.1,7.1,24.2,7.2,24.1,7.1C24.2,7.1,24.2,7.1,24.1,7.1z M24.1,7.7 M24.2,6.7
		 M24.2,7.6 M24.2,6.9c0,0,0,0.1,0,0.1C24.3,7,24.3,6.8,24.2,6.9z M24.3,6.5C24.3,6.5,24.3,6.6,24.3,6.5C24.3,6.5,24.3,6.5,24.3,6.5
		z M24.3,6.7C24.3,6.7,24.3,6.7,24.3,6.7C24.3,6.7,24.3,6.7,24.3,6.7z M24.3,6.8 M24.3,6.5c0,0-0.1,0.1,0,0.1
		C24.3,6.6,24.4,6.6,24.3,6.5z M24.3,6 M24.3,6 M24.3,6.2 M24.4,5.7L24.4,5.7C24.4,5.7,24.4,5.7,24.4,5.7L24.4,5.7
		C24.4,5.7,24.4,5.7,24.4,5.7z M24.4,6.7C24.4,6.7,24.4,6.8,24.4,6.7C24.4,6.7,24.4,6.7,24.4,6.7z M24.5,6.1 M24.5,5.7 M24.6,5.2
		 M24.6,5.9 M24.7,5 M24.7,5.3 M24.7,5.6 M24.7,5.5C24.8,5.5,24.8,5.5,24.7,5.5C24.8,5.4,24.7,5.4,24.7,5.5z M24.8,6.2 M24.8,4.8
		 M24.9,5.1 M24.9,4.9C24.9,5,24.9,5,24.9,4.9C25,4.9,25,4.9,24.9,4.9C25,4.9,25,4.9,24.9,4.9C24.9,4.9,24.9,4.9,24.9,4.9z
		 M25.1,4.7C25,4.7,25,4.8,25.1,4.7C25.1,4.9,25,4.7,25.1,4.7z M25.1,4.6C25.1,4.6,25,4.7,25.1,4.6C25.1,4.7,25.1,4.6,25.1,4.6z
		 M25.1,4.5C25.1,4.5,25.1,4.5,25.1,4.5C25.1,4.5,25.1,4.5,25.1,4.5z M25.2,4.3 M25.2,4.4 M25.3,3.7C25.1,3.8,25.2,3.7,25.3,3.7
		L25.3,3.7z M25.3,4.2C25.3,4.2,25.3,4.2,25.3,4.2C25.2,4.3,25.3,4.3,25.3,4.2z M25.3,4.1C25.3,4.1,25.3,4.2,25.3,4.1
		C25.3,4.2,25.4,4.2,25.3,4.1z M25.4,3.5 M25.5,8.7c0,0,0,0.1,0,0.1C25.4,8.8,25.4,8.7,25.5,8.7z M25.6,3.1 M25.6,3.5 M25.7,3.1
		 M25.8,2.9C25.8,2.9,25.8,2.8,25.8,2.9C25.7,2.9,25.7,2.9,25.8,2.9C25.7,2.9,25.7,2.9,25.8,2.9z M25.7,3C25.7,3,25.7,3,25.7,3
		L25.7,3C25.7,3,25.7,3,25.7,3L25.7,3z M25.8,2.8 M25.9,2.7C26,2.7,25.9,2.7,25.9,2.7C25.9,2.7,25.9,2.7,25.9,2.7z M25.9,2.4
		 M25.9,2.5 M26,2.6 M26.1,2.4 M28.4,3 M28.6,3.2c0,0-0.1-0.1-0.1,0C28.5,3.2,28.5,3.2,28.6,3.2C28.6,3.2,28.6,3.2,28.6,3.2z
		 M28.6,4c-0.1-0.1-0.1-0.3-0.1-0.5C28.6,3.6,28.6,3.8,28.6,4z M28.6,14.7c0-0.1,0.1-0.1,0.1-0.1c0,0,0,0,0,0
		C28.6,14.6,28.6,14.7,28.6,14.7z M28.7,4.2c-0.1,0-0.1-0.1-0.1-0.2C28.7,4.1,28.7,4.2,28.7,4.2z M28.7,4.4
		C28.7,4.5,28.7,4.4,28.7,4.4C28.6,4.4,28.7,4.4,28.7,4.4z M28.7,4.3 M28.7,4.5 M28.8,4.6C28.8,4.7,28.8,4.7,28.8,4.6
		C28.7,4.6,28.8,4.7,28.8,4.6z M28.9,14.3 M29,14.1C29,14.1,29,14.1,29,14.1c-0.1,0.1-0.1,0.1-0.1,0.2C29,14.3,29,14.2,29,14.1
		C29,14.2,29,14.1,29,14.1c0.1,0,0.1-0.1,0.2-0.2C29.1,13.9,29.1,14,29,14.1C29,14.1,29,14.1,29,14.1z M29.3,13.7
		C29.4,13.6,29.3,13.6,29.3,13.7C29.2,13.7,29.3,13.8,29.3,13.7z M29.4,13.5C29.4,13.5,29.4,13.6,29.4,13.5
		C29.3,13.6,29.4,13.6,29.4,13.5C29.4,13.6,29.4,13.5,29.4,13.5C29.4,13.5,29.4,13.5,29.4,13.5C29.4,13.5,29.4,13.5,29.4,13.5
		c0.1-0.1,0.1-0.1,0.1-0.1C29.4,13.5,29.4,13.5,29.4,13.5C29.4,13.5,29.4,13.5,29.4,13.5z M29.6,13.1C29.6,13.1,29.6,13.1,29.6,13.1
		c0,0.1,0,0.1,0,0.1c0,0-0.1,0.1-0.1,0.1c0.1,0,0.1-0.1,0.1-0.1C29.6,13.3,29.6,13.2,29.6,13.1C29.6,13.1,29.6,13.1,29.6,13.1
		c0.1-0.1,0.2-0.2,0.1-0.2C29.7,13,29.6,13,29.6,13.1C29.6,13.1,29.6,13.1,29.6,13.1z M29.8,12.9C29.8,12.8,29.8,12.8,29.8,12.9
		C29.8,12.9,29.8,12.9,29.8,12.9z M29.8,12.7C29.9,12.7,29.9,12.7,29.8,12.7C29.9,12.7,29.8,12.7,29.8,12.7z M30,12.6
		C29.9,12.6,30,12.6,30,12.6C30,12.6,30,12.6,30,12.6C30.1,12.5,30,12.4,30,12.6C30,12.5,30,12.6,30,12.6z M30.1,12.3
		c0,0-0.1,0.1,0,0.1C30.1,12.4,30.2,12.3,30.1,12.3z M30.2,12.2c0,0.1-0.1,0.1,0,0.1C30.2,12.2,30.2,12.2,30.2,12.2z M30.2,12.1
		 M30.3,12 M30.5,11.7C30.4,11.7,30.5,11.7,30.5,11.7C30.5,11.7,30.5,11.6,30.5,11.7C30.5,11.6,30.5,11.6,30.5,11.7
		C30.5,11.6,30.5,11.7,30.5,11.7z M31.3,9.8c0-0.1,0.1-0.1,0-0.2C31.4,9.7,31.3,9.8,31.3,9.8z M31.4,9.5 M31.6,9.2 M31.6,9.1
		 M31.6,9.1 M31.6,12C31.6,12.1,31.6,12.1,31.6,12C31.7,12.1,31.7,12,31.6,12z M31.7,8.9 M31.7,11.7 M31.7,11.9 M31.8,8.6L31.8,8.6
		C31.8,8.7,31.8,8.7,31.8,8.6z M32,8.6c0,0,0,0,0-0.1c0,0,0,0-0.1,0C31.9,8.5,31.9,8.6,32,8.6C31.9,8.6,31.9,8.6,32,8.6z"/>
	<path class="st0" d="M42.3,9.8c0,0.1,0.1,0.1,0.1,0.1C42.4,10,42.3,10,42.2,10c0,0.1-0.2,0.2-0.3,0.3c-0.2,1-0.2,2.3-0.3,3.4
		c-0.1-0.3,0.1-0.8,0-1.3c-0.2,0.7-0.1,1.7-0.2,2.4c-0.1,0-0.1,0-0.1,0.1c0.1,0.1,0.1,0,0.1-0.1c0.1,0.1,0,0.3-0.1,0.5
		c0,0,0.1,0.1,0.1,0.1c0,0.4,0,1-0.1,1.4c-0.1,0-0.1,0.1-0.1,0.2c0.1,0,0-0.1,0.1-0.1c0,0.1-0.1,0.2-0.1,0.4c0.1,0,0-0.2,0.1-0.2
		c0,0.1,0,0.3-0.1,0.3c0.1,0,0-0.1,0.1-0.1c0,0.1,0,0.2-0.1,0.1c0.1,0.4,0,0.9,0.3,1.2c0,0.1-0.2,0.1-0.2,0.2c-0.1,0-0.1,0-0.1-0.1
		c-0.1,0.1-0.2,0-0.3,0.1c-0.4-0.1-1.1-0.2-1.4-0.8c-0.1-0.7-0.3-1.7-0.2-2.6c0.1,1,0,1.9,0.4,2.7c-0.5-2-0.2-3.8-0.3-6
		c0.1,0,0,0.1,0.1,0.1c0-0.1,0-0.2,0.1-0.3c0.1,0.2-0.1,0.4,0,0.6c0.1-0.5,0.1-1,0.1-1.5c-0.1,0.2,0,0.7-0.1,0.9
		c-0.1,0-0.1,0.1-0.1,0.1c0.1-0.1,0-0.4,0.1-0.6c-0.2-0.2,0-0.5,0-0.7c0,0-0.1,0-0.1,0.1c-0.1,0.1,0.1,0.4-0.1,0.4
		c0-0.1,0-0.2,0-0.4c-0.6,0.3-1.2,0.4-1.9,0.6c0,0-0.1,0-0.1,0.1c-0.6,0.1-1.1,0.4-1.8,0.6c-0.4,1.3-0.6,2.5-0.9,3.6c0,0,0,0,0,0.1
		c-0.2-0.1-0.5,0-0.6-0.2c-0.1,0-0.1,0-0.1,0.1c-0.3-0.2-0.7-0.3-1-0.7c0,0,0,0,0.1,0c-0.1-1,0.2-1.9,0.3-2.8
		c-0.2-0.3-0.4-0.6-0.6-1c0.1,0,0.1-0.1,0.1-0.1c0.1,0.2,0.4-0.1,0.6,0c0.2-0.2,0.2-0.7,0.3-0.8c0,0.3-0.1,0.4-0.1,0.7
		c0.2,0,0.1-0.3,0.2-0.3c0.2-1.2,0.5-2.4,0.8-3.5c0-0.1,0,0,0.1,0c0-0.6,0.2-1.1,0.3-1.6c-0.2,0.2-0.2,0.7-0.3,0.9
		c0,0.4-0.2,0.8-0.2,1.1c-0.1-0.3,0.1-0.8,0.2-1c0.2-1.2,0.5-2.2,0.8-3.1c0.1-0.1,0.1-0.2,0.2-0.3c-0.1,0-0.1,0.2-0.2,0.2
		c0-0.2,0.2-0.2,0.1-0.5c0.1,0,0.3,0.1,0.4,0c0.2,0.2,0.8,0.2,0.7,0.6c0,0,0.1,0,0.1,0c-0.2,0.6-0.2,1.1-0.4,1.7
		c0.1,0,0.1-0.2,0.2-0.2c-0.1,0.2-0.3,0.3-0.2,0.6c0.1-0.1,0-0.2,0.1-0.3c0,0,0,0,0,0.1c0.1,0,0.2-0.1,0.1-0.1
		c0.1-0.1,0.1,0.1,0.1,0.1c0-0.2,0.1-0.4,0.2-0.6c0.1-0.1,0.1-0.2,0.2-0.2c0-0.1,0-0.1-0.1-0.1c0.1-0.1,0.1-0.2,0.1-0.3
		c0.1,0,0,0.2,0.1,0.2c0,0-0.1,0-0.1,0.1c-0.1,0,0-0.1,0-0.1c-0.1,0-0.1,0.2,0,0.2c0,0,0,0,0-0.1c0.1,0,0.1-0.1,0.1-0.1h0
		c0-0.3,0.2-0.3,0.2-0.5c0,0,0,0,0,0.1c0.1,0,0.1-0.2,0.1-0.3c0,0,0.1,0.1,0.1,0.1c0-0.3,0.2-0.4,0.3-0.7c0.1,0,0.1,0,0.1,0
		c0-0.2,0.2-0.3,0.2-0.5c0.1,0.1,0,0.1,0.1,0.1c0.2-0.6,0.7-0.9,1-1.5c0.2,0,0.3-0.3,0.4-0.4c0,0-0.1,0-0.1-0.1
		c-0.1,0-0.1,0-0.1,0.1c0,0.1,0.1-0.1,0.1,0c0,0.1-0.1,0.2-0.2,0.3c0-0.1,0.1-0.1,0.1-0.2c-0.1-0.1-0.1,0.2-0.2,0.2
		c0.1-0.2,0.2-0.3,0.4-0.4c-0.1,0.1,0,0.1,0.1,0C40,0.9,40,0.9,40,1c0.2,0,0-0.2,0.1-0.3c0.1,0,0,0.1,0,0.1c0.1-0.1,0.2-0.1,0.3-0.2
		c-0.1-0.1-0.1,0.1-0.2,0.1c0-0.2,0.3-0.3,0.3-0.4c-0.2,0-0.2,0.1-0.3,0.2c0.2-0.3,0.6-0.1,0.9-0.2c0.1,0,0.1,0,0.1,0.1
		c0.1,0,0.1,0,0.1,0c0.1,0.1,0.3,0.1,0.4,0.1c0.2,0.2,0.5,0.4,0.8,0.6c0.2,0.4,0.1,0.8,0.2,1.3c-0.1,0.3-0.1,0.8-0.1,1.1
		c0,0.4-0.2,0.8-0.1,1.1c-0.1,0.1,0,0.3-0.1,0.5c0.1,0,0.1-0.1,0.1-0.1c-0.1,1.6-0.3,2.9-0.5,4.4c0.2,0.2,0.4,0,0.5,0.3
		C42.3,9.7,42.5,9.9,42.3,9.8z M33.1,11.1 M33.3,14.9 M33.3,15 M33.4,14 M33.6,11.4C33.5,11.4,33.5,11.3,33.6,11.4
		C33.5,11.4,33.6,11.4,33.6,11.4z M33.5,14.9C33.5,14.9,33.6,14.9,33.5,14.9C33.5,14.9,33.5,14.9,33.5,14.9z M33.9,12.8
		c-0.1-0.1,0.1-0.5-0.1-0.6c-0.1,0.6-0.3,2-0.2,2.6c0-0.4,0.2-1.1,0.1-1.3C33.9,13.5,33.7,13,33.9,12.8
		C33.9,12.9,33.9,12.8,33.9,12.8C33.9,12.8,33.8,12.7,33.9,12.8z M33.7,14.6C33.7,14.6,33.7,14.6,33.7,14.6L33.7,14.6
		C33.6,14.6,33.6,14.6,33.7,14.6L33.7,14.6z M33.7,14.1C33.7,14.1,33.6,14.2,33.7,14.1C33.7,14.2,33.7,14.1,33.7,14.1z M33.7,14.3
		 M33.7,14 M33.7,13.6C33.7,13.6,33.7,13.6,33.7,13.6C33.7,13.6,33.8,13.6,33.7,13.6z M33.7,13.5C33.7,13.5,33.8,13.5,33.7,13.5
		C33.8,13.4,33.7,13.4,33.7,13.5z M33.8,13.1C33.8,13,33.9,13.1,33.8,13.1C33.8,13,33.8,13,33.8,13.1z M33.8,13.2 M33.9,12.7
		c0.1,0,0.1-0.1,0-0.1C33.9,12.6,33.9,12.6,33.9,12.7C33.9,12.6,33.9,12.6,33.9,12.7z M33.9,12.4 M33.9,13.1 M34,11.2L34,11.2
		C34,11.2,34,11.2,34,11.2L34,11.2C34,11.2,34,11.2,34,11.2z M34,12.7C34,12.6,34,12.6,34,12.7L34,12.7C34,12.6,34,12.6,34,12.7
		L34,12.7z M34,11.2 M34.1,10.4c0-0.1,0-0.1,0-0.1c0.1,0,0.1,0,0.1,0C34.2,10.4,34.1,10.4,34.1,10.4z M34.5,8.8
		c0,0.2-0.2,0.6-0.1,0.8c0,0-0.1,0-0.1,0c0,0.2,0,0.4-0.2,0.6c0.2-0.8,0.4-1.8,0.6-2.5c0,0,0,0,0.1,0C34.7,8.1,34.6,8.4,34.5,8.8z
		 M34.1,10.2 M34.2,10.3 M34.5,8.8 M34.6,7.9C34.6,7.9,34.6,7.9,34.6,7.9L34.6,7.9C34.6,7.9,34.6,7.9,34.6,7.9L34.6,7.9z M34.8,7
		 M35,7.4 M35.3,5.4C35.3,5.4,35.3,5.3,35.3,5.4C35.2,5.3,35.3,5.3,35.3,5.4z M35.3,5.2C35.3,5.2,35.3,5.2,35.3,5.2
		C35.3,5.2,35.3,5.2,35.3,5.2z M35.3,5.1 M35.4,5.4c0,0.1-0.1,0.2-0.1,0.3C35.4,5.7,35.4,5.4,35.4,5.4z M35.4,4.8
		C35.4,4.8,35.4,4.9,35.4,4.8C35.4,4.9,35.3,4.8,35.4,4.8z M35.4,4.9 M35.4,5.1c0,0.1,0,0.1,0,0.2C35.5,5.3,35.5,5.1,35.4,5.1z
		 M35.4,4.2 M35.5,4.4c-0.1,0,0-0.1,0-0.1C35.6,4.3,35.5,4.4,35.5,4.4z M35.5,5C35.5,5.1,35.5,5.1,35.5,5C35.5,5.1,35.5,5,35.5,5z
		 M35.6,4.9C35.5,4.9,35.5,4.9,35.6,4.9C35.6,5,35.6,4.9,35.6,4.9z M35.5,4.7C35.5,4.7,35.5,4.7,35.5,4.7
		C35.6,4.8,35.6,4.6,35.5,4.7z M35.6,4.1c-0.1,0,0-0.1,0-0.2C35.7,4,35.6,4.1,35.6,4.1z M35.6,13.2 M35.7,3.9c-0.1,0,0-0.1,0-0.2
		C35.8,3.7,35.7,3.8,35.7,3.9z M35.6,4.4 M35.6,12.9 M35.7,3.6 M35.8,3.7C35.8,3.7,35.8,3.7,35.8,3.7C35.8,3.7,35.7,3.7,35.8,3.7
		C35.7,3.7,35.7,3.7,35.8,3.7C35.7,3.7,35.8,3.7,35.8,3.7z M35.7,4.3 M35.7,12.7C35.7,12.7,35.8,12.7,35.7,12.7L35.7,12.7
		C35.8,12.7,35.7,12.7,35.7,12.7L35.7,12.7z M35.8,4.2 M35.8,4L35.8,4C35.8,4,35.8,4,35.8,4L35.8,4C35.8,4,35.8,4,35.8,4z M35.8,4.1
		C35.8,4.1,35.8,4.1,35.8,4.1C35.8,4.1,35.8,4.1,35.8,4.1z M35.8,12.4 M35.8,12.5 M36.4,10.8C36.4,10.7,36.2,10.7,36.4,10.8
		C36.3,10.7,36.3,10.7,36.4,10.8L36.4,10.8z M36.5,9.9c-0.1-0.1-0.1,0.1-0.1,0.1c0,0.2-0.1,0.3-0.1,0.6c0.2-0.1,0.1,0.1,0.1,0.1
		c0.2,0.1,0.1-0.1,0.2,0c0-0.1,0-0.1,0.1-0.1c-0.1,0.1,0.1,0.1,0.1,0.1c0.3-0.1,0.5-0.2,0.9-0.2c0-0.1,0-0.2,0.1-0.1
		c0,0-0.1,0.1,0.1,0.1c0.1,0,0-0.1,0.1-0.1c0,0.1,0,0.1,0,0.1c0.1,0,0.1-0.1,0.1-0.1c0,0.1,0,0.1,0,0.1c0-0.1,0-0.1,0.1-0.1
		c0,0.1-0.1,0.1,0,0.1c0.1,0,0-0.1,0.2,0c0-0.1-0.1-0.1,0-0.1c0.1,0,0.1-0.1,0.1,0c0,0.1-0.1,0.1,0,0.1c0.1,0,0,0,0-0.1
		c0.1,0.1,0.2-0.1,0.3,0c0,0.1-0.1,0-0.1,0.1c0.1,0,0.1,0,0.2,0c0-0.1,0-0.1,0-0.1c0.1,0,0,0.1,0.1,0.1C39,10,39,10,39.1,10
		c0,0,0-0.1,0-0.1c0,0,0,0.1,0.1,0.1c0-0.1-0.1,0-0.1-0.1c0.2,0,0.4-0.1,0.6-0.2c0-0.1,0-0.3,0.1-0.3c0,0.2,0,0.3,0,0.4
		c0.3-0.4,0.1-1.2,0.3-1.7c0-0.4,0.1-1.2,0.2-1.9c0,0-0.1,0-0.1,0c0.2-0.5,0.1-1.1,0.3-1.5c-0.1-0.1,0-0.3,0.1-0.4c0,0,0,0,0-0.1
		c0-0.1,0-0.2-0.1-0.2c0.1-0.3,0.2-0.8,0.2-1.1c0.1-0.3,0.2-0.8,0.2-1.1c-0.1,0.8-0.3,1.3-0.3,1.9c0,0-0.1,0-0.1,0
		c0,0.1,0,0.2,0.1,0.3c-0.2,0.1-0.1,0.2-0.1,0.3c0.1,0.1,0,0.3,0,0.4c-0.1-0.6,0.2-1.2,0.2-1.9c0.1-0.1,0-0.3,0.1-0.5
		c-0.1-0.2,0.2-0.4,0-0.4c0,0.1,0,0.2-0.1,0.2c0-0.1,0-0.1,0-0.1c-0.1,0.2-0.3,0.4-0.5,0.5c0,0.2-0.1,0.3-0.2,0.3
		c0,0.1-0.1,0.1,0,0.1c-0.5,0.5-0.7,1.2-1.2,1.6c-0.2,0.7-0.7,1.1-0.8,1.8c-0.1,0-0.1,0-0.1,0.1c-0.1,0.3-0.2,0.5-0.2,0.7
		c-0.1,0,0.1-0.1-0.1-0.1c0.1,0.2,0,0.6-0.2,0.7c-0.1,0.3-0.2,0.5-0.3,0.7c-0.2,0.6-0.3,1.2-0.6,1.7C36.4,10,36.5,9.9,36.5,9.9z
		 M36.6,10.5 M36.7,6.1L36.7,6.1C36.7,6,36.6,6,36.7,6.1L36.7,6.1C36.6,6.1,36.7,6.1,36.7,6.1z M36.7,9.1c0,0.1,0,0.1,0,0.1
		C36.7,9.2,36.8,9.1,36.7,9.1z M36.7,10.6 M36.8,6C36.8,6,36.8,6,36.8,6C36.8,5.9,36.8,5.9,36.8,6C36.7,6,36.7,6,36.8,6
		C36.8,6,36.8,6,36.8,6z M36.8,5.7c0,0.1,0.1,0,0,0.1c0.1,0,0.2-0.2,0.1-0.2C36.9,5.7,36.9,5.7,36.8,5.7C36.8,5.7,36.8,5.7,36.8,5.7
		z M36.8,5.2 M37,5.1C37,5.2,36.9,5.1,37,5.1C37,5,36.9,5.1,37,5.1z M36.9,8.4 M37,10.4C37,10.5,36.9,10.5,37,10.4
		C36.9,10.4,37,10.4,37,10.4z M37.1,4.8c0,0.1,0,0.2-0.1,0.2C36.9,5,37,4.9,37.1,4.8C37,4.8,37.1,4.8,37.1,4.8z M37,5.4
		C37,5.4,37,5.4,37,5.4C37,5.4,37,5.4,37,5.4z M37,8.3 M37,5.1c0-0.1,0-0.1,0-0.1C37.1,5,37.1,5.2,37,5.1z M37,10.4 M37.1,10.4
		 M37.2,4.7C37.2,4.7,37.2,4.7,37.2,4.7C37.2,4.8,37.2,4.8,37.2,4.7C37.1,4.7,37.1,4.7,37.2,4.7C37.2,4.7,37.2,4.7,37.2,4.7z
		 M37.2,5c-0.1-0.1,0.1-0.2,0.1-0.3c0,0,0,0,0,0C37.3,4.9,37.2,4.9,37.2,5z M37.2,5.2 M37.2,5.3 M37.2,7.9 M37.2,4.7
		C37.2,4.7,37.2,4.6,37.2,4.7C37.3,4.6,37.2,4.6,37.2,4.7z M37.3,5.1C37.3,5.1,37.3,5,37.3,5.1L37.3,5.1C37.2,5,37.2,5.1,37.3,5.1
		L37.3,5.1z M37.3,10.4C37.3,10.4,37.3,10.4,37.3,10.4C37.3,10.4,37.3,10.4,37.3,10.4z M37.3,4.4c-0.1,0,0-0.1,0-0.1
		C37.4,4.3,37.3,4.4,37.3,4.4z M37.4,4.9c-0.1,0-0.1,0.2-0.1,0.2C37.4,5.1,37.4,5,37.4,4.9z M37.4,5.4C37.4,5.4,37.4,5.3,37.4,5.4
		C37.4,5.4,37.3,5.4,37.4,5.4C37.4,5.4,37.4,5.4,37.4,5.4z M37.4,7.4C37.4,7.4,37.3,7.5,37.4,7.4C37.4,7.5,37.4,7.4,37.4,7.4z
		 M37.4,4.3 M37.5,7.2 M37.6,4.3C37.5,4.3,37.5,4.3,37.6,4.3C37.5,4.3,37.6,4.3,37.6,4.3z M37.5,4.4c0,0.1,0,0.2,0.1,0.2
		C37.6,4.6,37.7,4.4,37.5,4.4z M37.6,10.3 M37.7,4C37.7,4.1,37.7,4.1,37.7,4L37.7,4C37.6,4.1,37.6,4.1,37.7,4L37.7,4z M37.8,3.9
		c-0.1,0-0.1-0.1,0-0.1C37.8,3.8,37.8,3.9,37.8,3.9z M37.8,3.8c0-0.1,0.1-0.1,0.1-0.2C38,3.6,37.9,3.8,37.8,3.8z M37.8,3.5
		C37.8,3.5,37.8,3.5,37.8,3.5C37.9,3.4,37.9,3.5,37.8,3.5z M37.9,3.4 M38,3.5C38,3.5,38,3.5,38,3.5C38,3.5,37.9,3.5,38,3.5z M38,3.3
		 M38.1,3.1C38.1,3.1,38.1,3,38.2,3C38.1,3,38.2,3.1,38.1,3.1z M38.1,3.4 M38.1,6C38.1,6,38.1,6,38.1,6C38.1,6,38.1,6,38.1,6z
		 M38.3,3c0,0.1-0.1,0.1-0.2,0.2C38.2,3,38.2,3,38.3,3z M38.2,3.2 M38.2,10.3c0,0,0,0,0.1,0C38.3,10.3,38.2,10.3,38.2,10.3z
		 M38.2,2.9c0-0.1,0.1-0.1,0.1-0.2C38.4,2.8,38.3,2.9,38.2,2.9z M38.3,3.5C38.3,3.4,38.3,3.4,38.3,3.5c0-0.1-0.1-0.1-0.1-0.1
		c0,0.1,0,0.1,0,0.1C38.2,3.5,38.3,3.5,38.3,3.5z M38.5,2.8C38.5,2.9,38.4,2.9,38.5,2.8C38.4,2.8,38.4,2.9,38.5,2.8z M38.4,3.2
		 M38.5,2.6 M38.5,2.6L38.5,2.6C38.5,2.6,38.5,2.6,38.5,2.6z M38.5,2.6 M38.5,2.7 M38.5,3 M38.5,10.1 M38.6,2.7
		c-0.1-0.1,0.1-0.3,0.1-0.4C38.8,2.4,38.6,2.6,38.6,2.7z M38.7,2.3c0,0,0-0.1,0-0.1C38.8,2.2,38.7,2.3,38.7,2.3z M38.8,2.1L38.8,2.1
		C38.8,2,38.8,2,38.8,2.1C39,2,38.9,2.1,38.8,2.1z M38.8,10.2 M38.8,11.2 M39.1,2C39,2,39,2.2,38.8,2.2C38.9,2.1,39,2,39,2
		c0,0,0,0-0.1,0c0-0.1,0.1-0.1,0.1-0.2C39.1,1.9,39.1,1.9,39.1,2z M39,10 M39.1,11.2c0.1-0.1-0.2-0.1-0.1,0
		C39,11.2,39.1,11.1,39.1,11.2z M39.1,1.9c-0.1-0.1,0-0.1,0-0.2C39.2,1.7,39.2,1.8,39.1,1.9z M39.2,1.7 M39.2,10
		C39.3,10,39.3,10,39.2,10C39.3,9.9,39.2,9.9,39.2,10z M39.3,1.5 M39.3,1.7c-0.1,0,0-0.2,0.1-0.2C39.4,1.6,39.3,1.6,39.3,1.7z
		 M39.3,1.9C39.3,1.9,39.4,1.9,39.3,1.9C39.4,1.9,39.3,1.9,39.3,1.9z M39.4,1.6c0.1-0.1,0.2-0.2,0.3-0.3c0,0.1,0,0.1-0.1,0.2
		C39.5,1.4,39.4,1.5,39.4,1.6z M39.4,10C39.4,10,39.4,10,39.4,10C39.4,9.9,39.4,9.9,39.4,10z M39.4,1.4 M39.5,1.3 M39.5,1.2
		 M39.6,12.7c-0.1,1.1,0,1.9,0,2.8C39.5,14.5,39.6,13.7,39.6,12.7C39.6,12.7,39.6,12.7,39.6,12.7z M39.6,12.4
		c-0.1-0.1,0.1-0.4,0-0.6C39.7,12,39.6,12.2,39.6,12.4z M39.6,12.6c0-0.1-0.1-0.2,0.1-0.2C39.6,12.5,39.7,12.6,39.6,12.6z M39.6,1.2
		 M39.6,9.7 M39.7,11.6c-0.1,0,0-0.2-0.1-0.2C39.7,11.4,39.7,11.6,39.7,11.6z M39.7,11.7C39.7,11.7,39.7,11.7,39.7,11.7
		C39.6,11.7,39.7,11.7,39.7,11.7z M39.6,15.5 M39.6,16.8 M39.7,9.9 M39.8,13.1 M39.8,16.4 M39.9,9.3c-0.1-0.1,0-0.3,0.1-0.3
		C39.9,9.1,39.9,9.2,39.9,9.3z M39.9,13.3c0,0.3,0,0.4,0,0.8C39.9,13.9,39.9,13.5,39.9,13.3z M39.9,14.1c0,0.2,0,0.3,0,0.5
		C39.9,14.6,39.9,14.2,39.9,14.1z M39.9,14.7 M39.9,14.9C39.9,14.9,39.9,14.9,39.9,14.9C39.9,15,39.9,14.9,39.9,14.9z M39.9,15
		c0,0.1,0,0.2,0.1,0.2C39.9,15.1,39.9,15,39.9,15z M39.9,15.9c0,0.1,0,0.1,0,0.1C39.9,16,39.9,15.9,39.9,15.9z M39.9,16.4
		c-0.1,0,0,0.2,0,0.2C39.9,16.5,40,16.4,39.9,16.4z M39.9,9.3C39.9,9.3,39.9,9.3,39.9,9.3C39.9,9.3,39.9,9.4,39.9,9.3z M39.9,12.8
		c0,0.1,0,0.2,0,0.2C39.9,13,40,12.8,39.9,12.8z M39.9,13.1L39.9,13.1L39.9,13.1L39.9,13.1L39.9,13.1z M39.9,13.1
		C39.9,13.2,39.9,13.2,39.9,13.1C39.9,13.3,39.9,13.1,39.9,13.1z M39.9,15.6 M39.9,9c-0.1-0.1,0-0.3,0-0.5C40,8.6,39.9,8.8,39.9,9z
		 M39.9,9.8c0,0-0.1,0,0,0.1C39.9,9.9,40,9.8,39.9,9.8z M39.9,16.8C39.9,16.8,39.9,16.8,39.9,16.8C39.9,16.8,39.9,16.8,39.9,16.8z
		 M39.9,16.9 M39.9,17c0,0.1,0,0.1,0,0.2C40,17.2,40,17,39.9,17z M39.9,8.4c-0.1,0,0-0.1,0-0.1C40,8.3,39.9,8.4,39.9,8.4z
		 M39.9,15.7 M40,7.6c0,0.3,0,0.5-0.1,0.7c0-0.2,0-0.5,0.1-0.8C40.1,7.5,40,7.6,40,7.6z M40,10.9c0,0.1-0.1,0.1-0.1,0.3
		C40.1,11.2,40,10.9,40,10.9z M40,0.7C40,0.7,40,0.7,40,0.7C40,0.7,40,0.8,40,0.7z M40,12.5C40,12.5,40,12.5,40,12.5
		C40,12.5,40,12.5,40,12.5z M40,13 M40,17.6C40,17.6,40,17.6,40,17.6C40,17.5,40,17.5,40,17.6z M40,17.7C40,17.6,40,17.6,40,17.7
		L40,17.7C40,17.6,40,17.6,40,17.7L40,17.7z M40.2,6.9c-0.1,0.1-0.1,0.3-0.1,0.4c-0.1-0.1,0.1-0.3,0-0.5C40.2,6.9,40.1,7,40.2,6.9z
		 M40.1,11.4C40.1,11.4,40.1,11.4,40.1,11.4C40.1,11.5,40.1,11.4,40.1,11.4z M40,12.8C40.1,12.8,40.1,12.8,40,12.8
		C40.1,12.8,40,12.8,40,12.8z M40,14.1C40,14.1,40.1,14.1,40,14.1C40.1,14.1,40,14.1,40,14.1z M40.1,0.6C40.1,0.6,40.1,0.6,40.1,0.6
		C40.1,0.6,40.1,0.6,40.1,0.6C40.1,0.6,40.1,0.6,40.1,0.6C40.2,0.6,40.2,0.6,40.1,0.6z M40.1,9.5c0,0.1,0,0.2,0,0.2
		C40.1,9.7,40.2,9.5,40.1,9.5z M40.1,11 M40.1,9.5c0.1-0.6,0.1-1.2,0.2-1.7c0-0.1,0.1-0.3,0-0.3c0,0.3-0.1,0.7-0.1,1
		C40.1,8.6,40.1,9.2,40.1,9.5z M40.1,0.5 M40.2,6.7c-0.1,0,0-0.2,0-0.3C40.3,6.5,40.1,6.6,40.2,6.7z M40.2,6.3
		C40.2,6.3,40.2,6.3,40.2,6.3C40.2,6.4,40.2,6.4,40.2,6.3C40.2,6.3,40.2,6.3,40.2,6.3C40.2,6.3,40.2,6.3,40.2,6.3z M40.3,6.2
		c-0.2-0.1-0.1-0.5,0.1-0.7c-0.1-0.3,0.1-0.4,0.1-0.7C40.5,5.4,40.2,5.7,40.3,6.2z M40.2,6.8 M40.3,4.7C40.3,4.8,40.3,4.8,40.3,4.7
		L40.3,4.7C40.3,4.8,40.3,4.8,40.3,4.7L40.3,4.7z M40.3,4.4 M40.3,12C40.3,12,40.4,12,40.3,12C40.4,11.9,40.3,11.9,40.3,12z
		 M40.3,12.3 M40.3,12.6C40.3,12.6,40.4,12.6,40.3,12.6C40.4,12.6,40.3,12.6,40.3,12.6z M40.4,4.6C40.4,4.6,40.4,4.6,40.4,4.6
		C40.4,4.6,40.4,4.7,40.4,4.6C40.4,4.7,40.4,4.7,40.4,4.6z M40.4,7.4c0.1-0.6,0.2-1.2,0.2-1.8c0,0,0,0,0,0c0,0,0,0.1,0,0.1
		C40.5,6.3,40.4,7,40.4,7.4z M40.4,8.8 M40.4,4.7C40.4,4.7,40.4,4.7,40.4,4.7C40.5,4.7,40.5,4.8,40.4,4.7
		C40.4,4.8,40.4,4.7,40.4,4.7z M40.4,5.4 M40.4,0.5 M40.5,7.7C40.5,7.7,40.5,7.7,40.5,7.7C40.5,7.7,40.5,7.7,40.5,7.7
		C40.4,7.7,40.4,7.7,40.5,7.7C40.5,7.7,40.5,7.7,40.5,7.7z M40.5,4.8 M40.5,7.6 M40.7,0.4c-0.1-0.1-0.1,0.1-0.2,0.1
		C40.6,0.5,40.6,0.4,40.7,0.4z M40.6,7L40.6,7L40.6,7z M40.6,8.8 M40.7,4.9C40.7,4.9,40.7,4.9,40.7,4.9c-0.1,0.2-0.1,0.2-0.1,0.3
		C40.7,5.1,40.7,4.9,40.7,4.9z M40.6,5.2c0.1,0.1,0,0.2,0.1,0.3C40.6,5.4,40.7,5.3,40.6,5.2z M40.7,4.1C40.6,4.1,40.6,4.2,40.7,4.1
		C40.7,4.2,40.7,4.1,40.7,4.1z M40.7,7.9c0,0.1-0.1,0.1,0,0.2C40.7,8,40.8,7.9,40.7,7.9z M40.6,3.8 M40.7,4.6c0,0,0,0.1,0,0.1
		C40.7,4.7,40.8,4.6,40.7,4.6z M40.7,2.3c0-0.1,0-0.2,0-0.2C40.8,2.2,40.8,2.4,40.7,2.3z M40.7,2.8c0,0.1,0,0.1,0,0.2
		C40.8,3,40.8,2.8,40.7,2.8z M40.8,4.2c0,0.1,0,0.2-0.1,0.2C40.8,4.5,40.8,4.3,40.8,4.2z M40.8,7C40.8,7,40.8,7,40.8,7
		C40.8,7,40.8,7,40.8,7z M40.8,3.8c0,0.1,0,0.1,0,0.1C40.8,3.9,40.9,3.8,40.8,3.8z M40.8,2.4 M40.9,3.5c0,0,0,0,0.1,0
		C41,3.4,40.9,3.4,40.9,3.5z M41,3 M41.4,13.8 M41.5,15.9 M41.5,17.7 M41.6,12.3L41.6,12.3c0,0-0.1,0-0.1,0v0
		C41.5,12.3,41.6,12.3,41.6,12.3z M41.6,11.7c0,0.1-0.1,0.1,0,0.2C41.7,11.9,41.7,11.7,41.6,11.7z M41.6,11.5L41.6,11.5L41.6,11.5z
		 M42.3,9.7 M42.5,9.6"/>
	<path class="st0" d="M53.9,11C53.9,11,53.9,10.9,53.9,11c-1.2,1.2-2.8,2.1-4.3,3c-0.1,0-0.1,0-0.1-0.1c0,0-0.1,0.1,0,0.1
		c-0.2,0-0.4,0.1-0.6,0.2c-0.5,0.1-1,0.2-1.4,0.3c0-0.1-0.1-0.1-0.1-0.2c0,0.1,0.1,0.1,0.1,0.2c-0.1-0.1-0.3,0-0.2-0.1
		c-0.2,0-0.2,0-0.3,0c-0.1,0-0.1,0.2,0,0.3c-0.1,0.3-0.1,0.5-0.3,0.8c-0.2,1.1-0.5,2.8-0.4,4.1c0,0,0,0,0,0c0,0.2,0.1,0.4,0.2,0.6
		c-0.1,0.2-0.2,0.3-0.5,0.3c0,0-0.1,0-0.1,0.1c-0.2-0.2-0.6-0.2-0.8-0.3c-0.3-0.1-0.3-0.4-0.5-0.7c-0.1-0.4-0.2-0.7-0.1-1.1
		c0,0,0-0.1-0.1-0.2c0,0,0.1,0,0.1,0c-0.1-0.1-0.1-0.2-0.1-0.2c0-0.1,0.1-0.1,0.1-0.1c-0.1,0.1-0.1-0.1-0.1-0.3c0,0,0.1,0,0.1,0
		c-0.1-0.2,0-0.5-0.1-0.8c0.1,0,0.1,0.1,0.2,0.1c-0.1-0.1-0.1-0.1,0-0.1c-0.1-0.1-0.1-0.4,0.1-0.5c0-0.1-0.1-0.1-0.1-0.1
		c0-0.1,0.1-0.1,0.1-0.2c0,0,0,0.1,0,0.1c-0.1-0.1,0-0.3,0-0.5c0-0.1,0,0.1,0.1,0c-0.1-0.1-0.1-0.5,0.1-0.6c0-0.1-0.1-0.1-0.1-0.2
		c0,0,0.1,0,0.1,0c0-0.1,0-0.1-0.1-0.1c0,0,0.1-0.1,0.1-0.1c0,0,0,0,0-0.1c0-0.1,0-0.1,0.1-0.1c-0.1-0.2,0-0.3,0.1-0.4
		c0-0.1,0,0-0.1,0c0.1-0.1-0.1-0.2,0-0.2c-0.1-0.1-0.1-0.1-0.3-0.2c0-0.1,0-0.1,0-0.1c-0.2-0.1-0.3-0.3-0.5-0.4
		c0.1-0.2-0.1-0.2-0.1-0.3c0.3,0.2,0.6,0.3,1,0.3c0-0.2,0.2-0.4,0.2-0.4c-0.1-0.2,0.1-0.3,0-0.5c0.2-0.1,0-0.3,0.2-0.6
		c0.1,0,0,0.1,0.1,0c-0.1,0.2-0.1,0.4-0.1,0.6c0.1-0.1,0.2-0.5,0.1-0.7c0.1,0,0.1-0.1,0.1-0.2c0.1-0.2,0.1-0.3,0.1-0.5
		c-0.2,0.1-0.1,0.3-0.1,0.5c-0.1,0,0,0.1-0.1,0.2c-0.1,0,0-0.1-0.1-0.1c0-0.3,0.1-0.4,0.1-0.7c0.1,0,0.2-0.2,0.2-0.1
		c0.1-0.1,0.1-0.3,0.1-0.4c-0.1,0,0,0.2-0.1,0.2c-0.1-0.1,0-0.1,0-0.2h0c0,0,0,0,0,0c-0.1-0.2,0.1-0.3,0.1-0.6c-0.1,0,0,0.1-0.1,0.1
		c-0.1,0,0-0.2,0-0.3c0,0,0,0.1,0,0.1c0.1-0.1,0.2-0.2,0-0.2c0.1-0.1,0.2-0.2,0-0.2c0.1-0.1,0-0.1,0.1-0.2c0,0,0,0.1,0,0.1
		c0-0.1,0-0.2,0.1-0.3c0-0.1-0.1,0-0.1,0c0.1-0.2,0-0.4,0.2-0.6c0-0.1-0.1-0.1,0-0.1c0,0,0.1,0,0.1,0c-0.1-0.1,0.1-0.2,0.1-0.4
		c-0.1,0,0,0.2-0.1,0.1c0.1-0.1,0-0.3,0.1-0.3c0-0.1-0.1-0.1,0.1-0.1c0.1-0.1-0.1,0-0.1-0.1c0-0.1,0.1,0,0.1-0.1
		c0-0.1-0.1-0.1-0.1-0.2c0.1,0,0,0.1,0.1,0c0,0.1,0,0.3-0.1,0.4c0.1,0,0.1-0.3,0.1-0.3c0,0,0,0-0.1,0c-0.1-0.2,0-0.3,0-0.6
		c0,0.1,0.1,0.1,0.1,0.1C46.4,7,46.4,7,46.3,7c0-0.1,0.1-0.1,0.1-0.2c0.2,0,0.2-0.1,0.1-0.2c0.2,0,0-0.2,0,0c-0.1,0-0.1,0-0.1,0
		c0-0.2,0.1,0,0.1-0.1c0-0.1-0.1,0-0.1-0.1c0.1,0,0.1,0,0.1,0c0-0.1,0-0.1-0.1-0.1c0.1-0.1,0.1-0.1,0.2-0.2
		c-0.1-0.1-0.1-0.3,0.1-0.4c-0.1-0.2,0-0.3,0-0.4c0,0,0.1,0,0.1,0c0-0.1,0,0-0.1,0c0.1-0.2,0-0.5,0.2-0.6c-0.1-0.1,0-0.2,0-0.4
		c-0.2,0.2-0.4,0.3-0.5,0.5c-0.1,0,0,0-0.1,0C46,5.2,45.6,5.5,45.4,6c0.1,0.1,0,0.1,0.1,0.2c-0.1,0.1-0.1,0.1,0,0.2
		c-0.1,0-0.1,0-0.1,0c-0.3,0-0.4-0.1-0.6-0.2c-0.2-0.2-0.3-0.6-0.5-0.8c0-0.1,0-0.3,0-0.3c0.3-0.2,0.3-0.6,0.7-0.8c0,0,0-0.1,0-0.1
		c0,0,0.1,0,0.1,0c0.1,0,0.1-0.1,0.1-0.2c0.4-0.3,0.8-0.7,1.1-1c0.2-0.1,0.3-0.3,0.3-0.5c0,0,0,0.1,0,0.1c0.1-0.3,0.1-0.6,0.3-0.8
		c0-0.1,0,0.1-0.1,0C46.9,1.6,47,1.3,47,1.1c0.3,0,0.5-0.2,0.8-0.1c0,0,0.1-0.1,0.1-0.1c0.2,0,0.7,0,0.8,0.3c0.2,0,0.3-0.2,0.5-0.2
		c0.6-0.4,1.5-0.6,2.3-0.9c0.2,0,0.6-0.1,0.7-0.1c0.1,0,0.1,0.1,0.1,0.1c0,0,0,0,0-0.1c0.2,0.1,0.5-0.1,0.7,0c0,0,0-0.1,0.1-0.1
		c0.3,0.1,0.5,0.1,0.8,0.1c1.5,0.6,2.6,1.5,3.2,3c0.5,1.3,0.1,2.5-0.2,3.6c-0.2,0.2-0.3,0.5-0.4,0.9C55.9,8.8,54.9,10,53.9,11z
		 M44.2,12.9C44.2,13,44.2,13,44.2,12.9C44.2,12.9,44.2,12.9,44.2,12.9z M44.4,17.3 M44.5,18.2c0,0,0,0.2,0.1,0.2
		C44.6,18.3,44.5,18.2,44.5,18.2z M44.5,17.8c0,0.1,0.1,0.1,0.1,0.2c-0.1,0,0,0,0,0C44.6,17.9,44.6,17.8,44.5,17.8
		c0.1-0.1,0.2-0.3,0.1-0.4C44.6,17.4,44.5,17.6,44.5,17.8L44.5,17.8z M44.5,18c0.1,0,0,0.1,0.1,0.1C44.5,18.1,44.6,18.1,44.5,18z
		 M44.5,18.6 M44.5,18.7 M44.6,17.1c0,0.1-0.1,0.1,0,0.2C44.6,17.1,44.7,17.1,44.6,17.1z M44.6,16.7 M44.6,16.6c0,0.2-0.1,0.3,0,0.4
		C44.6,16.9,44.7,16.7,44.6,16.6z M44.6,16 M44.6,15.9 M44.7,16.4c-0.1,0-0.1,0.1-0.1,0.2C44.7,16.6,44.7,16.4,44.7,16.4z
		 M44.7,15.4c0,0.1,0,0.1-0.1,0.1C44.8,15.5,44.8,15.4,44.7,15.4z M44.7,15.6 M44.7,16c-0.1,0-0.1,0.2,0,0.2
		C44.7,16.2,44.8,16.1,44.7,16z M44.8,15.9C44.8,15.9,44.8,15.9,44.8,15.9L44.8,15.9C44.7,15.9,44.7,15.9,44.8,15.9L44.8,15.9z
		 M44.8,15.6c0,0.1-0.1,0.1,0,0.2C44.8,15.7,44.8,15.7,44.8,15.6z M44.8,15.4c0,0.1,0,0.1,0,0.2C44.8,15.6,44.8,15.4,44.8,15.4
		c0.1,0,0-0.3,0.1-0.3C44.8,15.1,44.8,15.3,44.8,15.4L44.8,15.4z M44.8,14.8 M45,14.5c0,0.2-0.1,0.4-0.1,0.6
		C44.9,14.9,45,14.6,45,14.5z M45,14C45,14.1,44.9,14.1,45,14C45,14.1,45,14,45,14z M45,14.4C45.1,14.3,44.9,14.3,45,14.4
		C45,14.4,45,14.4,45,14.4z M45,16C45,16,45,16,45,16L45,16C45,16,45,16,45,16L45,16z M45.1,14.2c-0.1,0-0.1,0.1-0.1,0.1
		C45,14.3,45.1,14.3,45.1,14.2z M45.1,14.1C45.1,14.1,45.1,14,45.1,14.1C45.1,14.1,45.1,14.1,45.1,14.1
		C45.1,14.1,45.1,14.1,45.1,14.1z M45.1,15.3 M45.1,15C45,15.1,45.3,14.9,45.1,15C45.1,14.9,45.1,14.9,45.1,15z M45.1,13.1
		 M45.1,14.9c0.1,0,0.1,0,0.1,0C45.2,14.9,45.1,14.9,45.1,14.9z M45.2,14.8 M45.2,12.8 M45.2,14.7 M45.3,13.1
		c0.1-0.1,0.1-0.4,0.1-0.5C45.3,12.7,45.3,13,45.3,13.1C45.2,13.1,45.3,13.1,45.3,13.1z M45.3,12.7 M45.3,14.4 M45.3,12.5
		C45.4,12.5,45.4,12.6,45.3,12.5C45.4,12.5,45.3,12.5,45.3,12.5z M45.4,12.2 M45.4,11.9 M45.5,11.5 M45.5,13.1 M45.6,10.9
		c-0.1,0-0.1-0.1,0-0.1C45.6,10.9,45.6,10.9,45.6,10.9z M45.6,12.8c0,0-0.1,0.2,0,0.2C45.6,13,45.6,12.9,45.6,12.8z M45.6,10.8
		 M45.7,12.5C45.7,12.5,45.7,12.4,45.7,12.5C45.6,12.5,45.7,12.6,45.7,12.5z M45.7,12.2c0,0-0.1,0.2,0,0.2
		C45.7,12.3,45.8,12.2,45.7,12.2z M46,9.7c0,0.1,0,0,0,0.1c0,0,0,0,0,0c0,0.1-0.1,0.2,0,0.3c0,0,0,0,0,0c0,0.1-0.1,0.2-0.1,0.3
		c0,0,0,0,0,0c0,0.1,0,0.1,0,0.2c0-0.1,0.1-0.1,0-0.2c0.1,0,0.1-0.2,0.1-0.3c0-0.1,0.1-0.2,0-0.3H46C46,9.7,46.1,9.7,46,9.7
		c0.1-0.1,0.1-0.1,0.1-0.2C46,9.5,46,9.6,46,9.7L46,9.7z M45.9,11.5c0,0.1-0.1,0.1,0,0.1C45.9,11.6,46,11.5,45.9,11.5z M45.9,11.3
		c0,0-0.1,0.1,0,0.1C45.9,11.3,46,11.3,45.9,11.3z M46,10.9 M46.1,9.4c0-0.1,0.1-0.3,0.1-0.3c0.1-0.1,0.1-0.3,0.1-0.4
		c-0.1,0.1-0.1,0.3-0.1,0.4C46.1,9.1,46,9.3,46.1,9.4z M46.1,8.7 M46.2,8.6c0.1-0.2,0.1-0.3,0.1-0.5c0.1,0-0.1-0.1,0,0
		C46.2,8.2,46.2,8.4,46.2,8.6z M46.3,9.7L46.3,9.7C46.2,9.7,46.2,9.7,46.3,9.7L46.3,9.7C46.2,9.7,46.2,9.7,46.3,9.7z M46.2,9.8
		 M46.4,7.3C46.4,7.2,46.4,7.2,46.4,7.3C46.4,7.2,46.4,7.2,46.4,7.3C46.4,7.2,46.4,7.2,46.4,7.3C46.4,7.3,46.4,7.3,46.4,7.3z
		 M46.4,6.7C46.4,6.7,46.4,6.6,46.4,6.7C46.5,6.7,46.4,6.7,46.4,6.7z M46.4,7.4C46.4,7.4,46.4,7.4,46.4,7.4
		C46.4,7.5,46.4,7.5,46.4,7.4C46.4,7.5,46.4,7.5,46.4,7.4C46.5,7.4,46.4,7.3,46.4,7.4C46.4,7.4,46.4,7.4,46.4,7.4z M46.4,7.2
		 M46.5,7c0.1,0.1-0.1,0.1,0,0.2C46.5,7,46.6,7,46.5,7z M46.6,6.7c0,0.1-0.1,0.1,0,0.2C46.6,6.9,46.6,6.7,46.6,6.7z M46.6,5.9
		 M46.6,6.5 M46.6,6.7 M46.6,6.2 M46.7,5.9c0,0.1-0.1,0.2,0,0.3C46.7,6.1,46.8,5.9,46.7,5.9z M46.7,2.2c0,0.1-0.1,0.1,0,0.1
		C46.7,2.3,46.7,2.2,46.7,2.2z M46.7,5.4C46.7,5.4,46.7,5.4,46.7,5.4L46.7,5.4C46.7,5.4,46.7,5.4,46.7,5.4L46.7,5.4z M46.7,5.7
		c0,0.1-0.1,0.1,0,0.2C46.7,5.8,46.8,5.7,46.7,5.7z M46.7,5 M46.7,5.3 M46.7,5.5c0.1,0,0.1-0.1,0.1-0.1C46.8,5.4,46.8,5.4,46.7,5.5
		C46.7,5.4,46.7,5.5,46.7,5.5z M46.8,5.3 M46.9,5.1 M46.9,1.6 M47,1.4 M47.1,14.5 M48.9,12.2c0-0.2,0.1-0.2,0.1-0.3c0.1,0,0,0,0,0.1
		c0.1,0,0.2-0.1,0.3-0.2c0,0,0,0,0,0c0.1,0,0.1-0.1,0.1-0.1c0,0,0,0.1,0,0.1c0-0.2,0.1-0.3,0.2-0.3c0,0,0,0.1,0,0.1
		c0.1-0.1,0.2-0.1,0.2-0.1c0-0.1,0-0.1-0.1-0.1c0.1,0,0.2,0.1,0.2,0c-0.1,0-0.1,0-0.1-0.1c0.2-0.1,0.4-0.2,0.5-0.3c0,0,0,0,0,0.1
		c-0.2,0-0.2,0.1-0.3,0.2c-0.1,0-0.1,0-0.1,0.1c0,0,0.1,0.1,0.1-0.1c0,0,0.1,0,0.1,0c0-0.2,0.2-0.1,0.2-0.2c0.2,0,0.3-0.2,0.2-0.3
		c0-0.1,0.1-0.1,0.2,0c0,0,0-0.1,0-0.1c0.2-0.1,0.2-0.2,0.4-0.3c0.1,0,0.1,0.1,0.1,0c0-0.1-0.1,0-0.1-0.1c0.1-0.1,0.2,0.1,0.2-0.1
		c0,0,0.1,0,0.1,0s-0.1,0-0.1,0c0,0-0.1,0.1-0.1,0c0.1-0.1,0.1-0.1,0.2-0.1c-0.1,0,0-0.1,0-0.1c0,0,0.2,0.1,0.1,0c0,0,0,0,0.1,0
		c0-0.1,0-0.1,0-0.1c0.2,0,0-0.1,0,0c0,0,0,0,0-0.1c0.2-0.2,0.4-0.4,0.6-0.5c0,0.1,0.1,0,0,0c0.1-0.1,0.2-0.3,0.5-0.4
		c-0.1,0.1-0.2,0.2-0.2,0.3c0.1-0.1,0.2-0.2,0.2-0.3c0,0,0,0-0.1,0c0-0.1,0-0.1,0.1-0.1C52.9,9,52.9,9,53,9c-0.1-0.1,0-0.1,0-0.1
		c0.2-0.2,0.5-0.3,0.5-0.6c0.2-0.2,0.4-0.4,0.6-0.7c0.1,0,0,0.1,0.1,0.1c0-0.1,0.1-0.1,0-0.2c0.1,0,0-0.1,0-0.1
		c0.2-0.1,0.3-0.4,0.4-0.5c0,0,0,0.1,0,0.1c0,0,0.1-0.1,0-0.1c0.6-0.7,0.9-1.5,1.2-2.5c0.1-0.7,0.2-1.3,0.2-2
		c-0.6-0.9-1.6-1.1-2.8-1.1c0,0-0.1-0.1-0.2,0c-0.3,0-0.7,0.2-1,0.1c0,0,0,0.1,0,0.1c-0.1,0-0.1-0.1-0.1-0.1c-1.2,0.2-2.1,0.6-3,1.2
		c-0.1,1.9-0.7,3.9-0.9,5.9C48,8.6,48,8.6,48,8.7c-0.2,1.1-0.4,2.2-0.7,3.4c0.1,0.3-0.2,0.5,0,0.7c0.2-0.1,0.7-0.3,0.9-0.4
		c-0.2,0.3-0.7,0.3-1,0.5c0.5-0.1,1-0.3,1.3-0.6C48.7,12.3,48.7,12.1,48.9,12.2z M47.3,14.3 M47.5,14.4 M47.5,13 M47.6,14.4
		C47.6,14.4,47.6,14.4,47.6,14.4C47.6,14.4,47.6,14.4,47.6,14.4z M48.2,12.4C48.2,12.3,48.2,12.3,48.2,12.4
		C48.3,12.3,48.2,12.3,48.2,12.4z M48.3,12.3c0.1-0.1,0.3-0.2,0.3-0.2c0,0.1-0.1,0.1-0.2,0.1C48.4,12.3,48.3,12.3,48.3,12.3z
		 M48.9,12c-0.1,0-0.1,0.1-0.2,0.1C48.7,12,48.9,12,48.9,12z M48.7,12.1 M48.9,12.6 M48.9,12.1 M49.1,11.9
		C49.1,11.9,49.1,11.9,49.1,11.9C49.1,11.9,49.1,11.9,49.1,11.9z M49.1,12.2L49.1,12.2L49.1,12.2L49.1,12.2L49.1,12.2z M49.1,11.8
		c0.1,0,0.1-0.1,0.1,0c0,0,0,0,0,0.1C49.2,11.9,49.1,11.9,49.1,11.8z M49.2,1.3 M49.4,11.7C49.4,11.7,49.4,11.6,49.4,11.7
		C49.4,11.7,49.4,11.7,49.4,11.7z M49.4,11.6 M49.7,11.5 M49.8,11.5C49.8,11.5,49.7,11.5,49.8,11.5C49.7,11.4,49.7,11.4,49.8,11.5
		C49.8,11.4,49.8,11.4,49.8,11.5z M49.9,0.9 M50.5,10.9c0.1,0,0.1-0.1,0.2-0.1C50.6,10.8,50.5,10.8,50.5,10.9z M50.5,10.9 M50.8,0.5
		C50.8,0.5,50.8,0.5,50.8,0.5C50.8,0.5,50.8,0.5,50.8,0.5z M50.9,10.7 M50.9,10.9 M51,10.6C51,10.6,51,10.7,51,10.6
		C51,10.7,51,10.7,51,10.6z M51.1,10.6 M51.5,10.8 M51.6,10.1c0-0.1,0.1,0,0.1-0.1c0.1,0,0.1,0,0.1,0.1C51.6,10.2,51.6,10,51.6,10.1
		z M51.8,0.2 M51.9,9.9c0.1,0,0.1-0.1,0-0.1C52,9.9,52,9.9,51.9,9.9C51.9,9.9,51.9,9.9,51.9,9.9z M52,9.9 M52,10.3
		C52,10.3,52.1,10.3,52,10.3C52.1,10.3,52,10.3,52,10.3z M52.1,9.8 M52.3,9.5c-0.1,0.1,0,0.1-0.1,0.1C52.3,9.7,52.4,9.5,52.3,9.5z
		 M52.2,0.1 M53,8.9c-0.1-0.1,0.1-0.2,0.2-0.2C53.1,8.8,53,8.8,53,8.9z M53.1,1.3 M53.1,8.7c0.1,0,0.1-0.1,0.1-0.1
		C53.2,8.7,53.2,8.7,53.1,8.7z M53.4,8.5c0,0,0,0.1-0.1,0.1C53.2,8.6,53.3,8.5,53.4,8.5z M53.4,8.5C53.4,8.5,53.4,8.4,53.4,8.5
		C53.5,8.4,53.4,8.4,53.4,8.5z M53.5,8.4C53.5,8.4,53.5,8.4,53.5,8.4c0.1,0,0.1-0.1,0.1-0.1c0.1,0,0-0.1,0,0
		C53.6,8.3,53.5,8.3,53.5,8.4z M54,7.9L54,7.9C53.9,7.9,53.9,7.9,54,7.9C53.9,8,54,8,54,7.9z M54,7.9C54,7.9,54,7.9,54,7.9
		C54,7.8,54,7.8,54,7.9z M54,7.8 M54.1,7.5L54.1,7.5C54.1,7.6,54.1,7.6,54.1,7.5z M54.3,7.5 M54.5,7.1 M54.6,6.9
		C54.6,6.9,54.6,6.9,54.6,6.9C54.6,6.9,54.6,6.9,54.6,6.9z M54.8,6.8 M55.3,6.1 M56.6,7.6C56.6,7.6,56.6,7.6,56.6,7.6
		C56.6,7.6,56.6,7.6,56.6,7.6L56.6,7.6z M56.6,7.6 M56.6,7.6 M56.7,7.4 M56.7,7.3 M56.7,7.3 M56.8,7.1C56.8,7.1,56.8,7.1,56.8,7.1
		C56.8,7.1,56.8,7.1,56.8,7.1C56.8,7.1,56.8,7.1,56.8,7.1z M56.8,7.1"/>
	<path class="st0" d="M69.6,4.3c-0.1,0.2-0.2,0.1-0.2,0.3c-0.1-0.1-0.1,0-0.2,0C69,4.3,69.3,4.2,69.3,4C69.2,3.8,69,4,69,3.9
		c-0.1,0-0.1,0.1-0.1,0.1c-0.3,0-0.7,0-1,0.1c-0.4,0.1-0.6,0-1,0.1c-0.4-0.2-0.8,0.2-1.3,0.1c-1.2,0.2-2.5,0.5-3.7,1
		c-0.1,1.5-0.6,2.7-1,4.1c0,0,0.2,0,0.1,0.1c0.5-0.2,1-0.2,1.5-0.3c0,0,0.1-0.1,0.1-0.1c0.4-0.1,0.8-0.1,1.3-0.1
		c0.8-0.1,2.2-0.2,2.5,0.8c0,0.1-0.1,0.1,0,0.2C66.1,9.7,66,9.8,66,10c-0.2,0-0.3,0-0.3,0.2c-0.1,0-0.3,0-0.3,0.1
		c-1.5,0.2-3,0.6-4.4,0.8c-0.2-0.1-0.3,0-0.5,0c-0.3,1.1-0.7,2.4-0.6,3.8c0.3,0.1,0.6-0.1,0.9-0.1c1.3-0.3,2.3-0.8,3.6-1.1
		c0.1,0,0.1,0.1,0.2,0.1c0-0.1,0.1-0.1,0.1-0.1c0.5,0,1.1-0.1,1.6-0.2c0.2,0.1,0.4,0.1,0.7,0.1c0,0,0,0,0,0.1c0.4,0,0.9,0.3,1,0.7
		c-0.1,0-0.1,0-0.2,0.1c0.1,0.1-0.1,0.1,0,0.2c-0.1,0-0.1,0.1-0.2,0c-0.1,0.1-0.1,0.1-0.1,0.2c-0.7,0.1-1.4,0.4-1.9,0.5
		c-0.2,0.1-0.3,0.1-0.4,0.2c-0.8,0.1-1.6,0.6-2.4,0.7c-1.4,0.6-3.2,0-3.6-1.2c-0.5-0.6-0.6-1.4-0.5-2.3c0.1-0.4,0.2-0.7,0.2-1.2
		c0.2-0.8,0.4-1.8,0.7-2.5c0.2-1,0.6-2,0.9-3.1c-0.5,0.2-1,0.4-1.5,0.6c-0.2,0-0.3-0.2-0.5-0.3c0-0.1-0.1-0.1,0-0.1
		c-0.1,0-0.1,0-0.2,0c-0.1-0.4-0.3-0.7-0.3-1.2c0.1,0,0.1,0,0.1,0.1c0.2-0.2,0.5-0.2,0.8-0.4c0.1,0.1,0,0.1,0,0.2
		c0.1,0,0.1-0.1,0.1-0.2c0.3-0.2,0.5-0.3,0.8-0.4c0,0.2-0.3,0.1-0.3,0.2c0.1,0,0.3-0.1,0.4-0.1c0.1-0.1-0.1,0,0-0.1
		C59.5,4,59.7,4,59.9,3.9c0.1,0.3-0.4,0.2-0.4,0.4c0.3-0.1,0.7-0.3,1-0.4c-0.1-0.1,0.1-0.2,0-0.3c0.2,0.1,0.6-0.1,0.8-0.1
		c0,0.1-0.2,0-0.2,0.1c0.9-0.2,2-0.7,2.9-0.7c0.7-0.3,1.6-0.3,2.7-0.4c-0.4,0-1,0-1.3,0.1c0.1-0.1,0.3-0.1,0.4-0.1
		c1.2-0.1,2.6-0.2,3.4,0.6C69.3,3.3,69.9,3.7,69.6,4.3C69.6,4.3,69.6,4.3,69.6,4.3z M58,4.9 M58.2,4.8C58.3,4.8,58.2,4.8,58.2,4.8
		C58.1,4.8,58.2,4.9,58.2,4.8z M58.3,4.8 M58.4,4.8C58.4,4.8,58.4,4.8,58.4,4.8C58.4,4.7,58.4,4.7,58.4,4.8z M58.6,4.7
		c0.1-0.1,0.2-0.1,0.3-0.2c0,0,0,0,0,0C58.8,4.4,58.6,4.6,58.6,4.7z M58.8,10.7C58.9,10.7,58.9,10.7,58.8,10.7
		C58.9,10.7,58.8,10.7,58.8,10.7z M58.8,10.8C58.8,10.8,58.9,10.8,58.8,10.8C58.8,10.7,58.8,10.7,58.8,10.8z M58.9,10.6 M59.1,9.9
		C59.2,9.9,59.1,9.7,59.1,9.9C59,9.9,59.1,9.9,59.1,9.9z M59.1,9.7 M59.1,9.7 M59.2,9.5 M59.2,9.5 M59.2,9.3 M59.3,8.9L59.3,8.9
		L59.3,8.9L59.3,8.9L59.3,8.9z M59.3,9 M59.6,8.3L59.6,8.3C59.5,8.3,59.5,8.3,59.6,8.3L59.6,8.3C59.5,8.3,59.5,8.3,59.6,8.3z
		 M59.7,7.7 M59.7,7.7 M60.4,3.7c-0.1,0.1-0.3,0.2-0.5,0.2C60,3.7,60.3,3.8,60.4,3.7C60.4,3.7,60.4,3.7,60.4,3.7z M60.1,4.1
		C60.1,4.1,60.1,4.1,60.1,4.1C60.1,4,60.1,4,60.1,4.1z M61.2,3.3c0,0,0,0,0.1,0C61.3,3.4,61.2,3.5,61.2,3.3z M61.4,3.3
		c0-0.1,0.2-0.1,0.3-0.1C62,3,62.4,2.9,62.8,2.9C62.3,3,61.8,3.2,61.4,3.3z M61.4,9.4 M61.7,9.3C61.7,9.3,61.6,9.3,61.7,9.3
		C61.6,9.3,61.7,9.4,61.7,9.3z M61.8,9.3C61.9,9.3,61.9,9.3,61.8,9.3C61.9,9.3,61.8,9.3,61.8,9.3z M61.9,3.3 M61.9,9.3 M62.2,9.2
		C62.2,9.2,62.2,9.2,62.2,9.2c0.1-0.1-0.1-0.1-0.1,0C62.2,9.3,62.1,9.2,62.2,9.2z M62.2,3.3C62.2,3.3,62.3,3.3,62.2,3.3
		C62.2,3.2,62.2,3.2,62.2,3.3z M62.5,9.1c0,0-0.1,0-0.1,0.1C62.4,9.1,62.5,9.1,62.5,9.1z M62.5,9.1C62.5,9.1,62.5,9.1,62.5,9.1
		L62.5,9.1C62.5,9.1,62.5,9.1,62.5,9.1L62.5,9.1z M62.9,9c0,0-0.2,0-0.2,0.1C62.7,9.1,62.8,9.1,62.9,9z M62.8,2.9
		c0.1-0.1,0.2-0.1,0.3-0.1C63.1,2.9,62.9,2.9,62.8,2.9z M63,9L63,9L63,9L63,9L63,9z M63,3 M63,9C63,9,63.2,9,63.2,9
		C63.1,9,63.1,9,63,9z M63.1,3 M63.2,2.8c-0.1,0-0.1-0.1,0-0.1C63.3,2.8,63.2,2.8,63.2,2.8z M63.3,9C63.3,9,63.3,9,63.3,9L63.3,9
		C63.2,9,63.2,9,63.3,9L63.3,9z M63.3,3 M63.5,8.9c-0.1,0-0.2,0-0.2,0c0,0,0,0.1,0,0.1C63.3,9,63.5,9,63.5,8.9z M63.3,2.8
		c0.1-0.2,0.5-0.2,0.8-0.3C63.9,2.8,63.6,2.7,63.3,2.8z M63.9,8.9c-0.1-0.1-0.3,0-0.3,0.1C63.6,9,63.7,8.9,63.9,8.9z M63.6,2.9
		 M63.6,2.9 M63.6,14 M64.1,8.9c-0.1,0-0.2,0-0.2,0C64,8.9,64.1,8.9,64.1,8.9z M64,13.9 M64.2,2.6C64.2,2.6,64.2,2.6,64.2,2.6
		C64.2,2.6,64.2,2.6,64.2,2.6z M64.2,2.8 M64.2,8.9C64.2,8.9,64.2,8.9,64.2,8.9C64.2,8.9,64.2,8.9,64.2,8.9
		C64.2,8.9,64.2,8.9,64.2,8.9C64.2,8.9,64.2,8.9,64.2,8.9z M64.3,8.9 M64.4,2.6c0-0.2,0.2-0.1,0.4-0.2C64.7,2.6,64.4,2.5,64.4,2.6z
		 M64.6,8.9 M64.8,2.4c0-0.1,0.2,0,0.3-0.1C65.2,2.4,64.9,2.5,64.8,2.4z M64.8,2.9 M64.9,8.9L64.9,8.9C64.9,8.9,64.9,8.9,64.9,8.9
		L64.9,8.9C64.9,8.9,64.9,8.9,64.9,8.9z M65.1,8.9c-0.1,0-0.1,0-0.1,0C65,8.9,65.1,9,65.1,8.9z M65.2,2.8 M65.2,2.6 M65.3,2.6
		 M66.3,2.5C66.3,2.5,66.3,2.5,66.3,2.5C66.3,2.4,66.3,2.4,66.3,2.5z M67.1,2.4c-0.1-0.1-0.4-0.1-0.5,0C66.8,2.4,66.9,2.4,67.1,2.4z
		 M67.1,2.3c0.1,0.1,0.3,0,0.5,0.1C67.6,2.3,67.3,2.4,67.1,2.3z M67.8,2.4c-0.1,0-0.1,0-0.1,0v0C67.8,2.4,67.9,2.4,67.8,2.4z
		 M67.9,2.4C67.8,2.4,67.9,2.4,67.9,2.4C67.9,2.4,67.9,2.4,67.9,2.4z M68.3,4C68.3,4,68.3,4,68.3,4C68.2,4,68.3,4,68.3,4z M69.3,4.4
		"/>
	<path class="st0" d="M69.2,14.6C69.2,14.6,69.2,14.6,69.2,14.6L69.2,14.6C69.2,14.6,69.2,14.6,69.2,14.6
		C69.3,14.6,69.3,14.6,69.2,14.6z M78.1,6.6C78.1,6.6,78.1,6.6,78.1,6.6c-0.2,0-0.1,0.1-0.2,0.2c-0.2,0-0.3,0.1-0.4,0.1
		c0,0,0-0.1,0-0.1c-0.3-0.1-0.4-0.3-0.6-0.5c0,0,0,0,0.1,0c-0.2-0.2-0.5-0.4-0.5-0.8c0,0,0.1,0,0.1,0c0-0.7,0.5-1,0.6-1.7
		c-1,0.4-1.7,1-2.5,1.5c-0.8,0.6-1.6,1.4-2.4,2.1c-0.1,0.1-0.3,0.4-0.4,0.4c-0.1,0.2-0.3,0.4-0.4,0.7c0.5,0.2,1.1,0.1,1.6,0.3
		c0.4,0,0.8,0.2,1.2,0.2c1.5,0.5,2.9,1.1,3.9,2.1c0.2,0.4,0.5,0.8,0.5,1.3c0.1,0.5-0.1,1.1-0.4,1.5c0,0,0,0.1,0,0.1
		c-0.6,0.7-1.2,1.3-2,1.7c-0.9,0.5-1.7,1.1-2.8,1.3c-0.2,0.1-0.3,0-0.6,0.1c-0.1-0.1-0.2,0-0.3,0c-0.2-0.1-0.4-0.1-0.8-0.1
		c-0.3-0.3-0.8-0.4-1.1-0.7c-0.2-0.3-0.4-0.6-0.6-0.8c0-0.2-0.2-0.3-0.3-0.3c0-0.3-0.3-0.4-0.4-0.6c0,0,0.1,0,0.1,0
		c-0.1-0.1-0.1-0.1,0-0.2c-0.1-0.1-0.1,0.1-0.1,0c0-0.3,0.2-0.5,0.2-0.8c0.1-0.1,0.1,0,0.1-0.1c0,0-0.1-0.1,0-0.1
		c0-0.4,0.3-0.6,0.4-1c0.1,0.2-0.3,0.5-0.3,0.8c0.2-0.2,0.2-0.5,0.5-0.6c-0.4,0.5-0.7,1.1-0.7,1.6c0.1,0.1,0-0.2,0.1-0.1
		c0-0.4,0.3-1.2,0.7-1.4c-0.1,0.3-0.3,0.5-0.3,0.8c0.1-0.2,0.2-0.4,0.3-0.5c-0.1,0.2-0.2,0.3-0.2,0.5c0.1-0.1,0.1-0.2,0.2-0.3
		c0.1,0.1,0,0.3-0.1,0.4c0.1,0.1,0.1,0,0.1,0c0.1,0.1-0.1,0.2-0.1,0.4c0,0,0.1,0,0.1-0.1c0,0.1-0.1,0.4,0.1,0.5c0-0.1,0-0.1,0.1-0.1
		c-0.1,0.2,0.1,0.3,0,0.4c0.1,0,0.1-0.1,0.1-0.1c0.1,0,0.1,0.2,0,0.2h-0.1h0.1c0,0.1,0.1,0.1,0,0.2c0.1,0.1,0.3,0.1,0.4,0.1
		c0.1,0.1-0.1,0-0.1,0.1c0.5,0.1,1-0.1,1.5-0.1c-0.4,0.2-1,0.2-1.4,0.2c0.8,0.1,1.8-0.1,2.5-0.6c0.2,0.1,0.2-0.1,0.4-0.1
		c-0.1,0,0-0.1-0.1-0.1c0.4-0.1,0.8-0.3,1.1-0.6c0.1,0,0.2-0.1,0.3-0.1c0-0.1,0-0.1,0-0.1c0,0,0.1,0,0.1,0c0,0,0,0,0.1,0
		c0,0,0,0-0.1,0c0.4-0.4,1-0.7,1.3-1.2c-0.2,0.2-0.4,0.4-0.7,0.6c0.1-0.2,0.3-0.2,0.3-0.4c0,0,0,0,0.1,0c0.1-0.1,0.2-0.2,0.3-0.3
		c0.2-0.4,0.5-0.9,0.4-1.5c-0.1-0.3-0.6-0.4-0.8-0.6c-0.4-0.1-0.6-0.3-1-0.2c-0.8-0.2-2-0.3-2.9-0.4c0-0.1-0.2,0-0.3-0.1
		c-0.7-0.1-1-0.4-1.3-0.9c-0.3-0.4-0.7-0.9-0.8-1.5c0-0.1,0-0.2,0-0.3c0.1,0,0.1,0,0.1,0c0.1-0.1-0.1-0.1-0.1-0.2c0.1,0,0.1,0,0.1,0
		c0-0.1,0-0.2,0-0.2c0,0,0,0,0,0H70c0,0,0,0,0,0c0.1-0.1,0.1-0.1,0.1-0.2c0.1,0.1,0.3-0.1,0.2-0.3c0.2-0.1,0.4-0.3,0.5-0.5
		c0.1,0,0,0.1,0,0.2C71,6,71.1,5.9,71,5.7c0.2,0.1,0.2-0.1,0.3-0.1c0.1,0,0-0.1,0.1-0.1c0.1,0,0.1,0.1,0.1,0.1c0.1,0,0-0.1,0-0.1
		c0.1,0,0.1-0.1,0.2-0.2c0.1,0,0.1-0.1,0.1-0.1c0-0.1,0.1-0.1,0-0.1c0-0.1,0.1,0,0.2,0c-0.1-0.1,0.1-0.1,0.1-0.2c0,0,0.1,0,0.1-0.1
		c0,0,0,0,0,0.1c0,0,0.1-0.2,0.1-0.1c0-0.1,0.2-0.2,0.2-0.3c0.2-0.1,0.3-0.1,0.4-0.3c0.1,0,0.1-0.1,0.1,0c0,0,0-0.1,0.1-0.1
		c0,0.1,0,0.1,0,0.1c0.1,0,0.1,0,0.1-0.1c0.1,0,0-0.1,0.1-0.1c0,0,0,0,0-0.1c0.1,0,0.1-0.1,0.2,0c0.1-0.1,0.2-0.2,0.3-0.2
		c0-0.1,0-0.2,0.1-0.2c0,0.1,0,0.1-0.1,0.1c0,0,0.1,0,0.1,0.1c0-0.1,0.2-0.3,0.3-0.2c0.1-0.1,0.1-0.1,0-0.2C74.4,3.1,74.4,3,74.5,3
		c0,0.1,0,0.1,0,0.2c-0.1-0.1-0.1,0-0.1,0c-0.1,0-0.1,0-0.1,0.1c0,0,0.1-0.1,0.1-0.1c0.1,0,0.1,0,0.1,0C74.6,3.1,74.8,3,75,2.9
		c0,0-0.1,0-0.1,0c0.1-0.1,0.5-0.5,0.7-0.4c0-0.1,0.1-0.2,0.1-0.2c0.1,0,0,0.1,0,0.2c0.1-0.1,0.1-0.1,0.2-0.2c0.1,0,0.1,0,0.2,0
		c0-0.1-0.1-0.1-0.2,0c-0.1,0-0.1,0-0.1,0c0.3-0.3,1-0.2,1.3,0c0.7,0.1,1,0.3,1.5,0.5C79,3.2,79.3,3.5,79.3,4
		C79.1,5.1,78.6,5.9,78.1,6.6C78.1,6.7,78.1,6.7,78.1,6.6C78.1,6.6,78.1,6.6,78.1,6.6z M69.5,14.1c-0.1,0.1-0.1,0.2-0.1,0.3
		C69.4,14.3,69.5,14.1,69.5,14.1z M69.5,14.6c-0.2,0-0.1,0.2-0.1,0.2C69.5,14.7,69.5,14.6,69.5,14.6z M69.6,14.8
		C69.6,14.9,69.6,14.9,69.6,14.8C69.7,14.9,69.6,14.8,69.6,14.8z M69.8,14c0,0,0,0.1,0,0.1C69.9,14.1,69.9,13.9,69.8,14z M69.8,13.9
		 M69.9,7C69.9,6.9,70,6.9,69.9,7C69.9,7,69.9,7,69.9,7z M70,7.1 M70,14c0.1,0,0.1,0,0.1,0C70,14,70,14,70,14z M70.1,6.9
		C70.1,6.9,70.1,6.9,70.1,6.9C70.1,7,70.1,7,70,7C70.1,6.9,70,6.8,70.1,6.9C70.1,6.8,70.1,6.8,70.1,6.9z M70.1,6.7 M70.1,6.8
		L70.1,6.8L70.1,6.8z M70.1,12.7c0-0.1,0-0.1,0.1-0.1C70.2,12.6,70.2,12.7,70.1,12.7z M70.2,6.7C70.2,6.7,70.2,6.6,70.2,6.7
		C70.2,6.6,70.2,6.6,70.2,6.7C70.3,6.6,70.2,6.6,70.2,6.7z M70.3,6.6 M70.6,6.2C70.5,6.2,70.5,6.2,70.6,6.2
		C70.5,6.2,70.6,6.2,70.6,6.2z M70.5,6.5 M70.7,15.5C70.7,15.5,70.8,15.5,70.7,15.5C70.7,15.5,70.7,15.5,70.7,15.5z M70.8,6.1
		 M70.9,15.7 M70.9,5.8 M71,15.5 M71.2,15.5c0,0-0.1,0-0.1,0c0,0,0,0,0-0.1C71.2,15.4,71.2,15.4,71.2,15.5z M71.4,15.4
		c0,0.1-0.1,0.1-0.2,0.1C71.2,15.4,71.4,15.5,71.4,15.4z M71.5,5.4C71.5,5.4,71.4,5.4,71.5,5.4C71.4,5.4,71.4,5.4,71.5,5.4z
		 M71.4,5.4 M71.4,5.6 M71.5,5.3 M71.7,15.4 M71.7,5.2c0-0.1,0-0.1,0.1-0.1C71.8,5.1,71.8,5.2,71.7,5.2z M71.7,5.2 M71.7,5.3
		C71.7,5.3,71.8,5.3,71.7,5.3C71.7,5.3,71.7,5.3,71.7,5.3z M71.8,5.1C71.8,5.1,71.8,5.1,71.8,5.1C71.8,5.1,71.8,5.1,71.8,5.1z
		 M72,4.9C72,4.9,71.9,4.9,72,4.9C71.9,4.9,72,4.9,72,4.9z M72.2,4.8 M72.3,4.7 M72.4,4.6C72.4,4.6,72.4,4.6,72.4,4.6
		C72.4,4.6,72.4,4.6,72.4,4.6z M72.4,15.4c0.1-0.1,0.3-0.2,0.6-0.2C72.8,15.3,72.6,15.4,72.4,15.4z M72.5,4.4c0-0.1,0.1-0.1,0.1-0.1
		c0,0.1,0,0.1,0,0.1C72.6,4.4,72.6,4.4,72.5,4.4z M72.6,4.6 M72.7,4.5C72.8,4.4,72.8,4.4,72.7,4.5C72.8,4.4,72.7,4.4,72.7,4.5z
		 M72.8,4.2C72.8,4.3,72.8,4.3,72.8,4.2C72.8,4.3,72.8,4.3,72.8,4.2L72.8,4.2z M72.9,4.3 M73,4.1 M73.1,4.2C73,4.2,73,4.3,73.1,4.2
		C73.1,4.2,73.1,4.2,73.1,4.2z M73.1,15.2C73,15.1,73.1,15.2,73.1,15.2C73.1,15.2,73.1,15.2,73.1,15.2z M73.1,4
		C73.1,4.1,73.1,4.1,73.1,4C73.1,4,73.1,4,73.1,4z M73.1,15.2 M73.2,4 M73.3,4L73.3,4C73.2,4,73.3,4,73.3,4z M73.3,15.1
		C73.2,15.1,73.3,15,73.3,15.1C73.4,15.1,73.3,15,73.3,15.1z M73.4,3.9 M73.4,3.8c0-0.1,0.1-0.1,0.2-0.1C73.6,3.7,73.5,3.8,73.4,3.8
		z M73.4,3.9 M73.5,15 M73.7,3.5c0,0.1-0.1,0.1-0.2,0.1C73.6,3.6,73.6,3.5,73.7,3.5z M73.8,14.8 M73.9,14.9
		C73.9,14.9,73.9,14.9,73.9,14.9C73.9,14.9,73.9,14.9,73.9,14.9z M73.9,3.4C73.9,3.4,73.9,3.4,73.9,3.4C73.9,3.4,73.9,3.4,73.9,3.4z
		 M74.2,3.3c-0.1,0-0.1,0.1-0.2,0.1C74,3.3,74.1,3.3,74.2,3.3z M74.1,14.6c0,0.1,0,0.1-0.1,0.1C74,14.6,74,14.6,74.1,14.6z M74,14.7
		 M74.1,14.6C74.1,14.6,74.1,14.6,74.1,14.6C74.1,14.6,74.1,14.6,74.1,14.6z M74.2,14.7C74.2,14.6,74.2,14.6,74.2,14.7
		C74.2,14.7,74.2,14.7,74.2,14.7z M74.2,3.2C74.2,3.2,74.2,3.3,74.2,3.2C74.2,3.3,74.2,3.3,74.2,3.2C74.2,3.3,74.2,3.2,74.2,3.2
		C74.2,3.2,74.2,3.2,74.2,3.2z M74.4,14.6L74.4,14.6C74.4,14.6,74.4,14.6,74.4,14.6L74.4,14.6C74.4,14.6,74.4,14.6,74.4,14.6z
		 M74.4,14.5 M74.5,14.4C74.5,14.4,74.5,14.3,74.5,14.4C74.5,14.4,74.5,14.4,74.5,14.4z M74.9,2.9C74.8,3,74.7,3,74.5,3
		C74.6,2.9,74.8,3,74.9,2.9C74.9,2.8,74.7,2.9,74.9,2.9z M74.6,14.3 M74.6,14.1 M74.6,14.4C74.6,14.4,74.6,14.4,74.6,14.4
		c0-0.1,0-0.1,0-0.1C74.7,14.3,74.7,14.5,74.6,14.4z M74.8,14.2L74.8,14.2L74.8,14.2C74.8,14.2,74.8,14.1,74.8,14.2z M74.8,14.2
		 M74.9,14.3C74.9,14.3,74.9,14.3,74.9,14.3C74.8,14.3,74.8,14.2,74.9,14.3z M74.9,2.8 M74.9,2.8 M74.9,14.2
		c0.1-0.1,0.1-0.1,0.1-0.1C75.1,14.1,75,14.3,74.9,14.2z M74.9,14.1 M74.9,14.1 M75,2.9 M75,14.1C75,14,75.1,14,75,14.1
		C75.1,14,75.1,14.1,75,14.1z M75.1,14 M75.2,2.4 M75.2,2.4 M75.2,13.9c0-0.1,0-0.1,0.1-0.1C75.3,13.9,75.3,13.9,75.2,13.9z
		 M75.4,2.7C75.3,2.7,75.2,2.7,75.4,2.7C75.3,2.7,75.4,2.7,75.4,2.7z M75.5,14c-0.1,0-0.2,0.1-0.1,0.1C75.4,14,75.4,14,75.5,14z
		 M75.4,13.6 M75.8,13.5c-0.1,0.1-0.3,0.2-0.4,0.3C75.5,13.6,75.7,13.5,75.8,13.5z M75.4,13.8 M75.5,13.9c-0.1-0.1-0.1,0.1,0,0.1
		C75.5,14,75.5,13.9,75.5,13.9z M75.5,2.6C75.5,2.6,75.6,2.6,75.5,2.6C75.5,2.6,75.5,2.6,75.5,2.6z M76.1,13 M76.3,12.8 M76.4,5.7
		 M76.4,5.4C76.4,5.4,76.4,5.4,76.4,5.4C76.5,5.4,76.5,5.5,76.4,5.4z M76.5,5.2"/>
</g>
</svg>
