<?xml version="1.0" encoding="utf-8"?>
<!-- Generator: Adobe Illustrator 24.3.0, SVG Export Plug-In . SVG Version: 6.00 Build 0)  -->
<svg version="1.1" id="Layer_1" xmlns="http://www.w3.org/2000/svg" xmlns:xlink="http://www.w3.org/1999/xlink" x="0px" y="0px"
	 width="230.66px" height="74.06px" viewBox="0 0 230.66 74.06" style="enable-background:new 0 0 230.66 74.06;"
	 xml:space="preserve">
<style type="text/css">
	.st0{fill:#FFFFFF;}
	.st1{fill:url(#SVGID_1_);}
</style>
<g>
	<g>
		<g id="dicAyu.tif_3_">
			<g>
				<path class="st0" d="M100.22,2.58c-0.24-0.44-0.57-0.85-1.1-0.91c-0.74-0.08-1.52-0.2-2.24-0.07C95.8,1.8,94.7,1.97,93.7,2.48
					c-0.71,0.36-1.43,0.71-2.14,1.06v0.28c0.07,0.17,0.15,0.34,0.2,0.52c0.14,0.47,0.63,0.69,1.08,0.49
					c0.08-0.03,0.17-0.06,0.3-0.11c-0.22,0.77-0.45,1.47-0.62,2.18c-0.19,0.82-0.48,1.66-0.44,2.48c0.07,1.5,1.2,2.6,2.83,2.18
					c1.16-0.29,2.31-0.64,3.45-1.01c0.21-0.07,0.41-0.34,0.49-0.56c0.04-0.12-0.13-0.39-0.27-0.5c-0.18-0.14-0.41-0.23-0.64-0.26
					c-0.83-0.12-1.64,0.02-2.43,0.28c-0.5,0.16-1,0.33-1.51,0.49c-0.16,0.05-0.33,0.07-0.57,0.11c0.14-0.73,0.27-1.4,0.39-2.02
					c1.34-0.27,2.61-0.53,3.86-0.79c0.05-0.12,0.07-0.25,0.13-0.28c0.38-0.22,0.16-0.45-0.01-0.62c-0.15-0.15-0.37-0.3-0.57-0.32
					c-0.53-0.05-1.08-0.06-1.61-0.03c-0.4,0.02-0.8,0.13-1.19,0.2c0.17-0.67,0.34-1.32,0.48-1.97c0.05-0.23,0.15-0.32,0.36-0.4
					c1.33-0.47,2.72-0.6,4.11-0.69c0.12,0.3,0.28,0.4,0.48,0.33C100.24,3.38,100.42,2.94,100.22,2.58z M139.01,2.59
					c-0.23-0.44-0.55-0.79-1.06-0.92c-0.79-0.2-1.58-0.16-2.37-0.03c-0.58,0.09-1.16,0.2-1.72,0.36c-0.61,0.18-1.21,0.43-1.8,0.67
					c-0.39,0.16-0.76,0.35-1.18,0.54c0.02-0.69-0.2-1.28-0.59-1.79c-0.53-0.7-1.2-1.24-2.07-1.37c-1.12-0.16-2.16,0.16-3.17,0.65
					c-0.11,0.05-0.25,0.02-0.38,0.02c-0.42,0.02-0.85-0.02-1.24,0.09c-0.14,0.04-0.2,0.43-0.28,0.67c-0.05,0.14-0.07,0.3-0.13,0.44
					c-0.04,0.1-0.11,0.21-0.18,0.29c-0.41,0.43-0.84,0.84-1.24,1.29c-0.1,0.12-0.16,0.36-0.11,0.5c0.09,0.25,0.24,0.5,0.43,0.67
					c0.15,0.13,0.42,0.18,0.61,0.15c0.11-0.02,0.18-0.29,0.26-0.45c0.05-0.11,0.1-0.22,0.14-0.33c0.03,0.01,0.06,0.02,0.1,0.03
					c-0.33,1.64-0.67,3.28-0.98,4.81c-0.3,0.06-0.52,0.1-0.81,0.16c0.12,0.17,0.18,0.24,0.23,0.33c0.12,0.23,0.28,0.46,0.34,0.71
					c0.04,0.18-0.09,0.39-0.11,0.58c-0.07,0.87-0.3,1.71-0.19,2.6c0.12,1.03,0.61,1.13,1.36,1.22c0.33,0.04,0.57-0.32,0.47-0.63
					c-0.05-0.16-0.12-0.32-0.1-0.48c0.11-0.93,0.23-1.86,0.36-2.79c0.01-0.08,0.15-0.19,0.24-0.21c0.88-0.2,1.74-0.42,2.51-0.94
					c1.06-0.71,2.1-1.43,2.92-2.42c0.58-0.71,1.08-1.47,1.42-2.37c0.38,0.33,0.76,0.4,1.22,0.14c-0.03,0.12-0.07,0.24-0.1,0.36
					c-0.3,1.12-0.59,2.24-0.9,3.36c-0.26,0.94,0.04,1.74,0.59,2.47c0.47,0.61,1.46,0.82,2.34,0.56c1.06-0.32,2.11-0.63,3.18-0.92
					c0.37-0.1,0.6-0.33,0.64-0.65c0.04-0.34-0.26-0.57-0.56-0.63c-0.42-0.09-0.86-0.12-1.28-0.12c-0.9,0-1.72,0.37-2.56,0.64
					c-0.31,0.1-0.62,0.18-1.04,0.3c0.14-0.72,0.26-1.34,0.39-1.95c0.01-0.06,0.1-0.13,0.16-0.14c1.24-0.26,2.49-0.51,3.7-0.75
					c0.06-0.14,0.07-0.26,0.13-0.3c0.37-0.2,0.16-0.43,0-0.59c-0.15-0.15-0.36-0.31-0.56-0.33c-0.53-0.06-1.08-0.07-1.61-0.04
					c-0.4,0.02-0.8,0.13-1.21,0.2c0-0.07-0.01-0.1,0-0.14c0.17-0.66,0.33-1.32,0.51-1.97c0.03-0.1,0.16-0.19,0.26-0.23
					c1.35-0.49,2.75-0.64,4.21-0.72c-0.02,0.3,0.17,0.39,0.4,0.33C139.04,3.42,139.22,2.99,139.01,2.59z M129.46,2.39
					c-0.04,0.92-0.42,1.7-0.95,2.42c-0.76,1.05-1.7,1.92-2.75,2.67c-0.54,0.38-1.11,0.7-1.73,1.1c0.33-1.8,0.64-3.47,0.94-5.14
					c0.05-0.28,0.1-0.56,0.11-0.84c0-0.31,0.13-0.49,0.4-0.63c0.95-0.47,1.94-0.69,3-0.56c0.15,0.02,0.3,0.06,0.44,0.12
					C129.38,1.72,129.49,1.9,129.46,2.39z M121.18,1.93c0.04-0.59,0.01-1.14-0.59-1.51c-0.55-0.33-1.2-0.34-1.65,0.11
					c-0.3,0.3-0.59,0.63-0.85,0.96c-0.19,0.23-0.34,0.49-0.49,0.74c-0.07,0.12-0.12,0.26-0.22,0.48c-0.18-0.61-0.63-0.55-0.98-0.59
					c-0.12-0.01-0.35,0.26-0.4,0.45c-0.26,0.88-0.5,1.76-0.72,2.65c-0.18,0.74-0.31,1.49-0.48,2.23c-0.03,0.11-0.2,0.26-0.3,0.26
					c-0.28-0.01-0.29,0.12-0.24,0.31c0.03,0.11,0.05,0.23,0.12,0.31c0.2,0.24,0.19,0.51,0.15,0.8c-0.06,0.44-0.09,0.89-0.12,1.33
					c-0.01,0.1,0.01,0.24,0.07,0.29c0.34,0.28,0.7,0.51,1.17,0.51c0.2,0,0.29-0.07,0.33-0.27c0.15-0.66,0.31-1.33,0.48-1.99
					c0.03-0.11,0.11-0.26,0.2-0.29c0.63-0.22,1.26-0.41,1.94-0.62c0,0.14,0,0.23,0,0.32c0.03,1.32,0.03,2.65,0.1,3.97
					c0.03,0.6,0.75,1.06,1.36,0.96c0.33-0.06,0.49-0.27,0.43-0.51c-0.09-0.38-0.2-0.77-0.18-1.15c0.04-1.01,0.13-2.03,0.2-3.04
					c0.02-0.34,0.05-0.68,0.11-1.01c0.03-0.14,0.12-0.3,0.22-0.4c0.26-0.25,0.27-0.45,0.04-0.72c-0.06-0.08-0.11-0.2-0.11-0.3
					c0.03-0.42,0.09-0.84,0.14-1.26C121,3.94,121.11,2.94,121.18,1.93z M118.82,5.54c-0.04,0.32-0.06,0.65-0.11,0.97
					c-0.01,0.08-0.1,0.18-0.18,0.2c-0.52,0.15-1.04,0.29-1.62,0.45c0.63-1.67,1.18-3.32,2.35-4.79
					C119.11,3.48,118.96,4.51,118.82,5.54z M104.48,4.18c0.14,0.43,0.44,0.79,0.89,0.95c0.15,0.05,0.46,0,0.53-0.12
					c0.35-0.58,0.67-1.18,0.94-1.8c0.2-0.47-0.12-1.08-0.6-1.27c-0.39-0.16-0.78-0.36-1.19-0.41c-0.35-0.05-0.77,0-1.07,0.15
					c-0.63,0.33-1.21,0.74-1.79,1.16c-0.39,0.28-0.76,0.61-1.12,0.93c-0.3,0.27-0.57,0.57-0.85,0.86c-0.25,0.25-0.4,0.56-0.34,0.91
					c0.14,0.81,1.07,1.68,1.89,1.79c0.23,0.03,0.47,0.05,0.7,0.09c0.67,0.13,1.33,0.27,1.99,0.41c0.31,0.07,0.38,0.29,0.23,0.53
					c-0.19,0.3-0.39,0.6-0.65,0.83c-0.48,0.42-0.96,0.86-1.61,1.02c-0.35,0.09-0.68,0.25-1.03,0.31c-0.35,0.06-0.7-0.23-0.68-0.56
					c0.03-0.51-0.01-0.99-0.32-1.5c-0.15,0.18-0.32,0.31-0.41,0.49c-0.27,0.58-0.78,1.14-0.2,1.81c0.17,0.19,0.36,0.37,0.5,0.57
					c0.48,0.71,1.2,1.04,2,0.92c1.54-0.23,2.83-1.01,3.8-2.23c0.57-0.72,0.44-1.87-0.17-2.44c-0.81-0.76-1.79-1.21-2.86-1.44
					c-0.45-0.1-0.91-0.16-1.36-0.23c-0.02-0.03-0.03-0.07-0.05-0.1c0.97-0.81,1.94-1.62,2.91-2.43c0.02,0.04,0.05,0.07,0.08,0.11
					C104.57,3.73,104.42,3.99,104.48,4.18z M113.93,6.02c-0.01-0.13-0.22-0.28-0.37-0.33c-0.07-0.02-0.25,0.17-0.31,0.29
					c-0.21,0.43-0.35,0.9-0.58,1.31c-0.63,1.11-1.19,2.26-2.02,3.25c-0.37,0.44-0.73,0.87-1.22,1.18c-1-1.23-0.19-7.34,1.48-9.27
					c0.06,0.28,0.14,0.5,0.16,0.73c0.06,0.66,0.37,1.13,0.98,1.4c0.46,0.2,0.94-0.06,0.89-0.53c-0.06-0.67-0.16-1.35-0.3-2.01
					c-0.12-0.55-0.98-1.04-1.55-0.95c-0.44,0.07-0.88,0.13-1.32,0.21c-0.12,0.02-0.28,0.07-0.33,0.16
					c-0.29,0.48-0.61,0.95-0.81,1.47c-0.32,0.87-0.58,1.76-0.83,2.66c-0.28,1.04-0.6,2.07-0.59,3.16c0,0.72-0.01,1.44,0.07,2.16
					c0.15,1.35,0.77,1.78,2.18,1.93c1.13,0.12,1.91-0.64,2.58-1.43c0.72-0.84,1.19-1.84,1.65-2.84
					C114.06,7.73,114.03,6.88,113.93,6.02z"/>
				<path class="st0" d="M91.56,3.54c0.72-0.35,1.44-0.7,2.14-1.06c1-0.51,2.1-0.69,3.17-0.88c0.72-0.13,1.5-0.01,2.24,0.07
					c0.53,0.06,0.85,0.47,1.1,0.91c0.2,0.37,0.03,0.8-0.37,0.94c-0.2,0.07-0.36-0.03-0.48-0.33c-1.39,0.09-2.77,0.22-4.11,0.69
					c-0.21,0.08-0.31,0.17-0.36,0.4c-0.14,0.65-0.31,1.3-0.48,1.97c0.39-0.07,0.79-0.18,1.19-0.2c0.54-0.03,1.08-0.02,1.61,0.03
					c0.2,0.02,0.42,0.17,0.57,0.32c0.17,0.17,0.39,0.4,0.01,0.62c-0.06,0.04-0.08,0.16-0.13,0.28c-1.25,0.26-2.52,0.51-3.86,0.79
					c-0.12,0.62-0.25,1.28-0.39,2.02c0.24-0.04,0.41-0.06,0.57-0.11c0.51-0.16,1.01-0.33,1.51-0.49c0.79-0.26,1.6-0.4,2.43-0.28
					c0.22,0.03,0.47,0.12,0.64,0.26c0.14,0.11,0.31,0.38,0.27,0.5c-0.08,0.22-0.28,0.49-0.49,0.56c-1.14,0.37-2.29,0.72-3.45,1.01
					c-1.64,0.41-2.77-0.68-2.84-2.18c-0.04-0.82,0.25-1.66,0.44-2.48c0.17-0.72,0.4-1.42,0.62-2.18C93,4.78,92.92,4.8,92.84,4.84
					c-0.45,0.2-0.94-0.03-1.08-0.49C91.7,4.17,91.62,4,91.56,3.83C91.56,3.73,91.56,3.64,91.56,3.54z"/>
				<path class="st0" d="M139.01,2.59c-0.23-0.44-0.55-0.79-1.06-0.92c-0.79-0.2-1.58-0.16-2.37-0.03c-0.58,0.09-1.16,0.2-1.72,0.36
					c-0.61,0.18-1.21,0.43-1.8,0.67c-0.39,0.16-0.76,0.35-1.18,0.54c0.02-0.69-0.2-1.28-0.59-1.79c-0.53-0.7-1.2-1.24-2.07-1.37
					c-1.12-0.16-2.16,0.16-3.17,0.65c-0.11,0.05-0.25,0.02-0.38,0.02c-0.42,0.02-0.85-0.02-1.24,0.09c-0.14,0.04-0.2,0.43-0.28,0.67
					c-0.05,0.14-0.07,0.3-0.13,0.44c-0.04,0.1-0.11,0.21-0.18,0.29c-0.41,0.43-0.84,0.84-1.24,1.29c-0.1,0.12-0.16,0.36-0.11,0.5
					c0.09,0.25,0.24,0.5,0.43,0.67c0.15,0.13,0.42,0.18,0.61,0.15c0.11-0.02,0.18-0.29,0.26-0.45c0.05-0.11,0.1-0.22,0.14-0.33
					c0.03,0.01,0.06,0.02,0.1,0.03c-0.33,1.64-0.67,3.28-0.98,4.81c-0.3,0.06-0.52,0.1-0.81,0.16c0.12,0.17,0.18,0.24,0.23,0.33
					c0.12,0.23,0.28,0.46,0.34,0.71c0.04,0.18-0.09,0.39-0.11,0.58c-0.07,0.87-0.3,1.71-0.19,2.6c0.12,1.03,0.61,1.13,1.36,1.22
					c0.33,0.04,0.57-0.32,0.47-0.63c-0.05-0.16-0.12-0.32-0.1-0.48c0.11-0.93,0.23-1.86,0.36-2.79c0.01-0.08,0.15-0.19,0.24-0.21
					c0.88-0.2,1.74-0.42,2.51-0.94c1.06-0.71,2.1-1.43,2.92-2.42c0.58-0.71,1.08-1.47,1.42-2.37c0.38,0.33,0.76,0.4,1.22,0.14
					c-0.03,0.12-0.07,0.24-0.1,0.36c-0.3,1.12-0.59,2.24-0.9,3.36c-0.26,0.94,0.04,1.74,0.59,2.47c0.47,0.61,1.46,0.82,2.34,0.56
					c1.06-0.32,2.11-0.63,3.18-0.92c0.37-0.1,0.6-0.33,0.64-0.65c0.04-0.34-0.26-0.57-0.56-0.63c-0.42-0.09-0.86-0.12-1.28-0.12
					c-0.9,0-1.72,0.37-2.56,0.64c-0.31,0.1-0.62,0.18-1.04,0.3c0.14-0.72,0.26-1.34,0.39-1.95c0.01-0.06,0.1-0.13,0.16-0.14
					c1.24-0.26,2.49-0.51,3.7-0.75c0.06-0.14,0.07-0.26,0.13-0.3c0.37-0.2,0.16-0.43,0-0.59c-0.15-0.15-0.36-0.31-0.56-0.33
					c-0.53-0.06-1.08-0.07-1.61-0.04c-0.4,0.02-0.8,0.13-1.21,0.2c0-0.07-0.01-0.1,0-0.14c0.17-0.66,0.33-1.32,0.51-1.97
					c0.03-0.1,0.16-0.19,0.26-0.23c1.35-0.49,2.75-0.64,4.21-0.72c-0.02,0.3,0.17,0.39,0.4,0.33
					C139.04,3.42,139.22,2.99,139.01,2.59z M129.46,2.39c-0.04,0.92-0.42,1.7-0.95,2.42c-0.76,1.05-1.7,1.92-2.75,2.67
					c-0.54,0.38-1.11,0.7-1.73,1.1c0.33-1.8,0.64-3.47,0.94-5.14c0.05-0.28,0.1-0.56,0.11-0.84c0-0.31,0.13-0.49,0.4-0.63
					c0.95-0.47,1.94-0.69,3-0.56c0.15,0.02,0.3,0.06,0.44,0.12C129.38,1.72,129.49,1.9,129.46,2.39z"/>
				<path class="st0" d="M121.18,1.93c0.04-0.59,0.01-1.14-0.59-1.51c-0.55-0.33-1.2-0.34-1.65,0.11c-0.3,0.3-0.59,0.63-0.85,0.96
					c-0.19,0.23-0.34,0.49-0.49,0.74c-0.07,0.12-0.12,0.26-0.22,0.48c-0.18-0.61-0.63-0.55-0.98-0.59c-0.12-0.01-0.35,0.26-0.4,0.45
					c-0.26,0.88-0.5,1.76-0.72,2.65c-0.18,0.74-0.31,1.49-0.48,2.23c-0.03,0.11-0.2,0.26-0.3,0.26c-0.28-0.01-0.29,0.12-0.24,0.31
					c0.03,0.11,0.05,0.23,0.12,0.31c0.2,0.24,0.19,0.51,0.15,0.8c-0.06,0.44-0.09,0.89-0.12,1.33c-0.01,0.1,0.01,0.24,0.07,0.29
					c0.34,0.28,0.7,0.51,1.17,0.51c0.2,0,0.29-0.07,0.33-0.27c0.15-0.66,0.31-1.33,0.48-1.99c0.03-0.11,0.11-0.26,0.2-0.29
					c0.63-0.22,1.26-0.41,1.94-0.62c0,0.14,0,0.23,0,0.32c0.03,1.32,0.03,2.65,0.1,3.97c0.03,0.6,0.75,1.06,1.36,0.96
					c0.33-0.06,0.49-0.27,0.43-0.51c-0.09-0.38-0.2-0.77-0.18-1.15c0.04-1.01,0.13-2.03,0.2-3.04c0.02-0.34,0.05-0.68,0.11-1.01
					c0.03-0.14,0.12-0.3,0.22-0.4c0.26-0.25,0.27-0.45,0.04-0.72c-0.06-0.08-0.11-0.2-0.11-0.3c0.03-0.42,0.09-0.84,0.14-1.26
					C121,3.94,121.11,2.94,121.18,1.93z M118.82,5.54c-0.04,0.32-0.06,0.65-0.11,0.97c-0.01,0.08-0.1,0.18-0.18,0.2
					c-0.52,0.15-1.04,0.29-1.62,0.45c0.63-1.67,1.18-3.32,2.35-4.79C119.11,3.48,118.96,4.51,118.82,5.54z"/>
				<path class="st0" d="M104.54,3.39c-0.97,0.81-1.94,1.62-2.91,2.42c0.02,0.04,0.03,0.07,0.05,0.1c0.45,0.08,0.91,0.14,1.36,0.23
					c1.08,0.24,2.05,0.68,2.86,1.44c0.61,0.57,0.74,1.72,0.17,2.44c-0.96,1.22-2.26,2-3.8,2.23c-0.8,0.12-1.51-0.21-2-0.92
					c-0.14-0.21-0.33-0.38-0.5-0.57c-0.58-0.67-0.07-1.23,0.2-1.81c0.08-0.18,0.26-0.31,0.41-0.49c0.31,0.51,0.35,0.99,0.32,1.5
					c-0.02,0.32,0.33,0.62,0.68,0.56c0.35-0.06,0.68-0.22,1.03-0.31c0.65-0.17,1.13-0.61,1.61-1.02c0.26-0.23,0.46-0.53,0.65-0.83
					c0.15-0.24,0.08-0.46-0.23-0.53c-0.66-0.15-1.33-0.28-1.99-0.41c-0.23-0.04-0.47-0.06-0.7-0.09c-0.82-0.12-1.75-0.98-1.89-1.8
					c-0.06-0.35,0.09-0.66,0.34-0.91c0.28-0.29,0.55-0.59,0.85-0.86c0.36-0.33,0.73-0.65,1.12-0.93c0.58-0.41,1.16-0.83,1.79-1.15
					c0.3-0.16,0.72-0.2,1.07-0.15c0.41,0.06,0.8,0.25,1.19,0.41c0.48,0.2,0.8,0.8,0.6,1.27c-0.26,0.62-0.59,1.22-0.94,1.8
					c-0.07,0.11-0.38,0.17-0.53,0.12c-0.44-0.16-0.75-0.51-0.89-0.94c-0.06-0.19,0.08-0.45,0.13-0.68
					C104.59,3.46,104.57,3.43,104.54,3.39z"/>
				<path class="st0" d="M110.91,2.45c-1.67,1.92-2.49,8.03-1.48,9.27c0.49-0.3,0.85-0.73,1.22-1.18c0.83-0.99,1.39-2.14,2.03-3.25
					c0.24-0.41,0.37-0.88,0.58-1.31c0.06-0.13,0.24-0.31,0.31-0.29c0.15,0.05,0.35,0.2,0.37,0.33c0.1,0.86,0.13,1.71-0.25,2.54
					c-0.46,1-0.93,2-1.65,2.84c-0.67,0.79-1.45,1.54-2.58,1.43c-1.42-0.14-2.03-0.58-2.19-1.93c-0.08-0.71-0.07-1.44-0.07-2.16
					c-0.01-1.09,0.31-2.12,0.6-3.16c0.24-0.89,0.5-1.79,0.83-2.66c0.2-0.52,0.52-0.99,0.81-1.47c0.05-0.09,0.22-0.14,0.33-0.16
					c0.44-0.08,0.88-0.14,1.32-0.21c0.57-0.09,1.44,0.4,1.55,0.94c0.14,0.66,0.24,1.34,0.3,2.01c0.04,0.47-0.43,0.73-0.89,0.53
					c-0.62-0.26-0.92-0.74-0.98-1.39C111.04,2.95,110.97,2.73,110.91,2.45z"/>
			</g>
		</g>
		<g>
			<path class="st0" d="M97.49,17.92h-0.77v-0.51h2.09v0.51h-0.77v2.01h-0.55L97.49,17.92L97.49,17.92z"/>
			<path class="st0" d="M99.95,17.41h0.55v1h1.02v-1h0.55v2.52h-0.55v-1.01h-1.02v1.01h-0.55V17.41z"/>
			<path class="st0" d="M103.41,17.41h1.9v0.49h-1.35v0.51h1.19v0.49h-1.19v0.53h1.37v0.49h-1.92L103.41,17.41L103.41,17.41z"/>
			<path class="st0" d="M108.34,17.41h1.9v0.49h-1.35v0.51h1.19v0.49h-1.19v0.53h1.37v0.49h-1.92L108.34,17.41L108.34,17.41z"/>
			<path class="st0" d="M111.25,17.41h0.61l0.66,1.77l0.66-1.77h0.6l-1.02,2.54h-0.49L111.25,17.41z"/>
			<path class="st0" d="M114.89,17.41h1.9v0.49h-1.35v0.51h1.19v0.49h-1.19v0.53h1.37v0.49h-1.92L114.89,17.41L114.89,17.41z"/>
			<path class="st0" d="M118.02,17.41h1.15c0.32,0,0.57,0.09,0.73,0.26c0.14,0.14,0.22,0.34,0.22,0.58v0.01
				c0,0.41-0.22,0.66-0.54,0.78l0.61,0.9h-0.65l-0.54-0.81h-0.43v0.81h-0.55V17.41z M119.13,18.63c0.27,0,0.42-0.14,0.42-0.36v-0.01
				c0-0.24-0.17-0.36-0.43-0.36h-0.55v0.72H119.13z"/>
			<path class="st0" d="M121.96,18.93l-0.97-1.53h0.65l0.6,1.01l0.61-1.01h0.63l-0.97,1.51v1h-0.55L121.96,18.93L121.96,18.93z"/>
			<path class="st0" d="M124.54,17.41h0.98c0.79,0,1.34,0.54,1.34,1.25v0.01c0,0.71-0.55,1.26-1.34,1.26h-0.98V17.41z M125.1,17.91
				v1.52h0.43c0.45,0,0.76-0.31,0.76-0.75v-0.01c0-0.45-0.31-0.76-0.76-0.76L125.1,17.91L125.1,17.91z"/>
			<path class="st0" d="M128.76,17.39h0.51l1.08,2.54h-0.58l-0.23-0.57h-1.06l-0.23,0.57h-0.57L128.76,17.39z M129.34,18.87
				l-0.33-0.82l-0.33,0.82H129.34z"/>
			<path class="st0" d="M131.77,18.93l-0.97-1.53h0.65l0.6,1.01l0.61-1.01h0.63l-0.97,1.51v1h-0.55L131.77,18.93L131.77,18.93z"/>
		</g>
	</g>
</g>
<linearGradient id="SVGID_1_" gradientUnits="userSpaceOnUse" x1="1272.6288" y1="1637.5288" x2="1272.6288" y2="1868.1875" gradientTransform="matrix(0 -1 1 0 -1637.5288 1340.7347)">
	<stop  offset="0" style="stop-color:#FF5C00"/>
	<stop  offset="1" style="stop-color:#E70000"/>
</linearGradient>
<polygon class="st1" points="230.66,65.64 230.66,70.57 0,70.57 0,65.64 "/>
<g>
	<path class="st0" d="M10.63,62.23H7.49v5.78H3.68V52.16h6.95c3.14,0,4.79,1.74,4.79,4.24v1.62C15.42,60.52,13.77,62.23,10.63,62.23
		z M11.68,56.54c0-0.93-0.45-1.48-1.62-1.48H7.49v4.57h2.59c1.14,0,1.59-0.57,1.59-1.5V56.54z"/>
	<path class="st0" d="M17.49,68.02V52.16h10.69v3.07H21.3v3.36h4.81v2.47H21.3v3.76h6.88v3.19H17.49z"/>
	<path class="st0" d="M40.24,68.09c-1.26,0-1.76-0.98-1.79-2.45v-2.36c-0.02-1-0.45-1.64-1.74-1.64h-2.52v6.38h-3.81V52.16h6.9
		c3.33,0,4.83,1.62,4.83,4v1.12c0,1.59-0.74,2.62-2.5,3.05c1.86,0.26,2.55,1.52,2.55,2.86v2.26c0,0.83,0.24,1.4,0.74,1.88v0.76
		H40.24z M38.36,56.47c0-0.86-0.43-1.43-1.64-1.43h-2.52v4.24h2.45c1.17,0,1.71-0.52,1.71-1.52V56.47z"/>
	<path class="st0" d="M48.52,55.14v3.67h4.59v2.79h-4.59v6.43h-3.81V52.16h10.5v2.98H48.52z"/>
	<path class="st0" d="M57.04,68.02V52.16h10.69v3.07h-6.88v3.36h4.81v2.47h-4.81v3.76h6.88v3.19H57.04z"/>
	<path class="st0" d="M78.27,57.88v-0.93c0-1.43-0.86-2.17-2.31-2.17c-1.69,0-2.59,0.98-2.59,2.55v5.62c0,1.48,0.98,2.45,2.62,2.45
		c1.45,0,2.24-0.79,2.24-2.09v-1.02h3.52v1.26c0,2.88-2.31,4.93-5.86,4.93c-4.05,0-6.38-2.52-6.38-5.81v-5.12
		c0-3.29,2.43-5.81,6.38-5.81c3.74,0,5.9,2.09,5.9,4.97v1.17H78.27z"/>
	<path class="st0" d="M91.15,55.28v12.74h-3.81V55.28h-4.21v-3.12h12.26v3.12H91.15z"/>
	<path class="st0" d="M107.72,68.47c-3.98,0-6.17-1.93-6.17-4.9v-0.79h3.47v0.48c0,1.57,1.1,2.26,2.64,2.26s2.19-0.74,2.19-1.81
		c0-2.81-8.04-2.02-8.04-7.12c0-2.67,2.14-4.86,5.81-4.86c3.69,0,5.9,2.02,5.9,4.78v0.79h-3.48v-0.48c0-1.24-0.83-2.14-2.43-2.14
		c-1.36,0-2.14,0.69-2.14,1.74c0,2.69,8.09,1.93,8.09,7C113.57,66.21,111.55,68.47,107.72,68.47z"/>
	<path class="st0" d="M122.71,55.28v12.74h-3.81V55.28h-4.21v-3.12h12.26v3.12H122.71z"/>
	<path class="st0" d="M136.28,68.02l-0.9-3.19h-4.43l-0.93,3.19h-3.55l4.76-15.85h4.17l4.78,15.85H136.28z M133.21,56.47l-1.55,5.74
		h3.05L133.21,56.47z"/>
	<path class="st0" d="M148.01,61.66v6.36h-3.83v-6.36l-5.07-9.5h4.09l3.07,6.33l2.93-6.33h3.9L148.01,61.66z"/>
	<path class="st0" d="M162.2,57.88v-0.93c0-1.43-0.86-2.17-2.31-2.17c-1.69,0-2.59,0.98-2.59,2.55v5.62c0,1.48,0.98,2.45,2.62,2.45
		c1.45,0,2.24-0.79,2.24-2.09v-1.02h3.52v1.26c0,2.88-2.31,4.93-5.86,4.93c-4.05,0-6.38-2.52-6.38-5.81v-5.12
		c0-3.29,2.43-5.81,6.38-5.81c3.74,0,5.9,2.09,5.9,4.97v1.17H162.2z"/>
	<path class="st0" d="M176.33,68.02l-0.9-3.19H171l-0.93,3.19h-3.55l4.76-15.85h4.17l4.79,15.85H176.33z M173.26,56.47l-1.55,5.74
		h3.05L173.26,56.47z"/>
	<path class="st0" d="M187.9,55.28v12.74h-3.81V55.28h-4.21v-3.12h12.26v3.12H187.9z"/>
	<path class="st0" d="M194.02,68.02V52.16h3.81v15.85H194.02z"/>
	<path class="st0" d="M206.66,68.47c-3.95,0-6.4-2.45-6.4-5.78V57.5c0-3.36,2.45-5.76,6.4-5.76s6.38,2.4,6.38,5.76v5.19
		C213.03,66.02,210.61,68.47,206.66,68.47z M209.18,57.33c0-1.45-0.86-2.55-2.52-2.55c-1.69,0-2.52,1.09-2.52,2.55v5.55
		c0,1.43,0.83,2.52,2.52,2.52c1.67,0,2.52-1.09,2.52-2.52V57.33z"/>
	<path class="st0" d="M224.98,68.02l-4.74-7.05l-1.29-2v9.04h-3.52V52.16h3.24l4.62,7.17l1.21,1.98v-9.14h3.52v15.85H224.98z"/>
</g>
<g>
	<path class="st0" d="M79.73,45.45H77.2l-3.09-11.47L70.9,45.45h-2.52L64.21,29.6h2.76l2.74,12l3.28-12h2.36l3.21,12l2.76-12h2.67
		L79.73,45.45z"/>
	<path class="st0" d="M85.87,45.45V29.6h2.62v15.85H85.87z"/>
	<path class="st0" d="M101.84,45.45l-6-8.62l-1.45-2.26v10.88h-2.52V29.6h2.17l5.83,8.74l1.4,2.24V29.6h2.52v15.85H101.84z"/>
	<path class="st0" d="M118.81,39.05v6.4h-2.64v-6.4l-5.38-9.45h2.95l3.83,7.28l3.74-7.28h2.79L118.81,39.05z"/>
	<path class="st0" d="M131.09,45.91c-4.07,0-6.17-2.69-6.17-5.93v-4.9c0-3.26,2.09-5.93,6.17-5.93c4.07,0,6.14,2.67,6.14,5.93v4.9
		C137.23,43.22,135.16,45.91,131.09,45.91z M134.59,34.98c0-2-1.17-3.52-3.5-3.52s-3.5,1.52-3.5,3.52v5.09
		c0,1.98,1.17,3.52,3.5,3.52s3.5-1.55,3.5-3.52V34.98z"/>
	<path class="st0" d="M146.01,45.91c-3.69,0-5.93-2.05-5.93-5.26V29.6h2.67v10.9c0,1.95,1.07,3.14,3.31,3.14
		c2.29,0,3.29-1.19,3.29-3.14V29.6h2.64v11.04C151.99,43.81,149.77,45.91,146.01,45.91z"/>
	<path class="st0" d="M166.15,45.6c-1.79,0-2.4-0.71-2.43-2.43l-0.02-2.33c-0.02-1.33-0.59-2.12-2.36-2.12h-3.45v6.74h-2.62V29.6
		h6.14c3.55,0,4.93,1.64,4.93,4.02v0.79c0,1.76-0.69,2.93-2.81,3.31c2.09,0.21,2.81,1.62,2.81,3.12l0.02,2.14
		c0,0.62,0.21,0.95,0.83,1.14v1.48H166.15z M163.67,33.69c0-1.02-0.52-1.88-2.14-1.88h-3.64v4.98h3.5c1.52,0,2.29-0.79,2.29-2.12
		V33.69z"/>
</g>
</svg>
