<?xml version="1.0" encoding="utf-8"?>
<!-- Generator: Adobe Illustrator 24.3.0, SVG Export Plug-In . SVG Version: 6.00 Build 0)  -->
<svg version="1.1" id="Layer_1" xmlns="http://www.w3.org/2000/svg" xmlns:xlink="http://www.w3.org/1999/xlink" x="0px" y="0px"
	 width="1072.19px" height="208.3px" viewBox="0 0 1072.19 208.3" style="enable-background:new 0 0 1072.19 208.3;"
	 xml:space="preserve">
<style type="text/css">
	.st0{fill:url(#SVGID_1_);}
	.st1{fill:url(#SVGID_2_);}
	.st2{fill:#FFFFFF;}
</style>
<linearGradient id="SVGID_1_" gradientUnits="userSpaceOnUse" x1="1038.4861" y1="-662.8983" x2="1135.9662" y2="-662.8983" gradientTransform="matrix(6.123234e-17 -1 -1 -6.123234e-17 -568.6832 1246.7861)">
	<stop  offset="0" style="stop-color:#FF5C00"/>
	<stop  offset="1" style="stop-color:#E70000"/>
</linearGradient>
<polygon class="st0" points="179.23,110.82 179.23,208.3 9.2,208.3 9.2,110.82 "/>
<linearGradient id="SVGID_2_" gradientUnits="userSpaceOnUse" x1="1038.4861" y1="-1292.4833" x2="1135.9662" y2="-1292.4833" gradientTransform="matrix(6.123234e-17 -1 -1 -6.123234e-17 -568.6832 1246.7861)">
	<stop  offset="0" style="stop-color:#FF5C00"/>
	<stop  offset="1" style="stop-color:#E70000"/>
</linearGradient>
<polygon class="st1" points="1062.67,110.82 1062.67,208.3 384.93,208.3 384.93,110.82 "/>
<g>
	<path class="st2" d="M76.48,190.84h-9.8L49.61,145.9l-17.35,44.94h-9.89L0,130.98h11.5l16.18,46.2l17.62-46.2h8.99l17.97,46.2
		l16.18-46.2h11.23L76.48,190.84z"/>
	<path class="st2" d="M105.96,190.84v-59.86h9.53v59.86H105.96z"/>
	<path class="st2" d="M158.9,190.84l-17.17-28.58l-6.11-10.96v39.54h-8.99v-59.86H134l16.72,29.12l5.84,10.96v-40.08h8.99v59.86
		H158.9z"/>
	<path class="st2" d="M213.27,139.61v51.23h-9.53v-51.23h-14.56v-8.63h38.65v8.63H213.27z"/>
	<path class="st2" d="M277.26,190.84v-25.88h-30.83v25.88H236.1v-59.86h10.34v25.34h30.83v-25.34h10.34v59.86H277.26z"/>
	<path class="st2" d="M301.79,190.84v-59.86h43.32v8.99h-32.98v15.55h24.81v8.54h-24.81v17.79h32.98v8.99L301.79,190.84
		L301.79,190.84z"/>
	<path class="st2" d="M406.32,190.84h-32.27v-59.86h31.91c14.2,0,21.12,6.2,21.12,15.37v1.08c0,6.56-3.86,11.77-11.59,13.3
		c8.81,1.44,12.49,7.37,12.49,12.67v1.62C427.98,184.46,420.43,190.84,406.32,190.84z M416.65,147.88c0-4.31-2.7-7.82-10.07-7.82
		h-21.66v17.08h20.94c7.46,0,10.78-3.59,10.78-8.18v-1.08H416.65z M416.74,172.95c0-4.67-3.15-8.09-10.69-8.09h-21.12v17.17h21.75
		c7.46,0,10.07-3.59,10.07-7.91v-1.17H416.74z"/>
	<path class="st2" d="M438.76,190.84v-59.86h32.35v8.54h-22.83v15.73h16.45v8.09h-16.45v18.96h22.83v8.54L438.76,190.84
		L438.76,190.84z"/>
	<path class="st2" d="M496.1,192.37c-11.32,0-18.87-7.19-18.87-16.81v-2.88h9.44v0.99c0,7.19,3.33,10.61,9.71,10.61
		c6.02,0,9.17-3.6,9.17-8.63s-2.43-7.64-11.41-11.77c-8-3.69-16.09-8.45-16.09-17.98c0-8.99,6.56-16.36,17.97-16.36
		c11.32,0,18.6,7.1,18.6,16.81v2.34h-9.17v-0.99c0-5.48-2.79-10.16-9.71-10.16c-5.48,0-8.18,3.24-8.18,7.46
		c0,4.76,2.52,6.92,12.76,11.86c10.52,5.03,14.83,9.53,14.83,17.71C515.15,184.64,507.51,192.37,496.1,192.37z"/>
	<path class="st2" d="M556.41,140.15v50.69h-10.78v-50.69h-23.28v-9.17h57.34v9.17H556.41z"/>
	<path class="st2" d="M636.48,193c-19.23,0-31.01-13.66-31.01-28.31v-7.46c0-14.92,11.77-28.31,31.01-28.31
		c19.32,0,31.1,13.39,31.1,28.31v7.46C667.58,179.34,655.8,193,636.48,193z M656.7,157.23c0-10.25-7.1-19.05-20.22-19.05
		s-20.13,8.81-20.13,19.05v7.28c0,10.25,7.01,19.23,20.13,19.23s20.22-8.99,20.22-19.23V157.23z"/>
	<path class="st2" d="M687.62,139.43v17.35h17.35v8.27h-17.35v25.79h-9.53v-59.95h32.17v8.54H687.62z"/>
	<path class="st2" d="M773.27,190.84h-36.13v-59.86H773c14.92,0,22.83,6.29,22.83,15.55v0.81c0,6.29-4.13,11.95-12.49,13.66
		c9.53,1.53,13.48,7.91,13.48,12.85v0.81C796.82,184.37,788.19,190.84,773.27,190.84z M785.04,148.6c0-4.49-3.06-8.27-11.32-8.27
		h-25.34v16.81h24.8c8.27,0,11.86-3.86,11.86-8.27L785.04,148.6L785.04,148.6z M785.04,173.22c0-4.49-3.42-8.27-11.86-8.27h-24.8
		v16.9h25.34c8.27,0,11.32-3.86,11.32-8.36L785.04,173.22L785.04,173.22z"/>
	<path class="st2" d="M845.62,191.56c-7.91,0-10.61-2.16-10.61-8.99v-9.8c0-4.67-2.07-7.82-7.19-7.82h-10.25v25.88h-9.53v-59.86
		h20.13c11.77,0,16.09,5.84,16.09,14.74v4.04c0,6.65-2.43,10.42-9.17,11.59c6.65,0.72,9.44,6.11,9.44,11.32v9.17
		c0,1.62,0.9,2.34,2.97,2.34v7.37h-1.88V191.56z M834.65,145.63c0-3.77-1.53-6.65-6.47-6.65h-10.61v19.05h9.62
		c4.85,0,7.46-2.61,7.46-7.73L834.65,145.63L834.65,145.63z"/>
	<path class="st2" d="M854.78,190.84v-59.86h9.53v59.86H854.78z"/>
	<path class="st2" d="M907.99,140.15v50.69H897.2v-50.69h-23.28v-9.17h57.34v9.17H907.99z"/>
	<path class="st2" d="M943.04,190.84v-59.86h10.78v59.86H943.04z"/>
	<path class="st2" d="M995.17,193c-11.32,0-21.03-3.69-29.75-9.17l5.39-8.18c8.72,5.57,16.72,8.27,25.7,8.27
		c10.52,0,15.46-4.04,15.46-8.81c0-13.66-44.49-5.48-44.49-27.23c0-10.61,10.61-18.96,27.68-18.96c11.5,0,21.48,4.31,27.32,10.16
		l-6.65,6.83c-5.03-4.4-12.76-7.91-20.85-7.91c-9.98,0-16.72,3.59-16.72,8.72c0,12.67,44.58,5.93,44.58,27.32
		C1022.85,185.36,1011.43,193,995.17,193z"/>
	<path class="st2" d="M1062.66,190.84v-26.06h-20.4v26.06h-9.53v-59.86h9.53v25.34h20.4v-25.34h9.53v59.86H1062.66z"/>
</g>
<g>
	<g>
		<g id="dicAyu.tif_9_">
			<g>
				<path class="st2" d="M467.96,11.63c-1.1-2-2.56-3.85-4.96-4.1c-3.35-0.35-6.85-0.89-10.09-0.3c-4.84,0.88-9.81,1.67-14.31,3.97
					c-3.2,1.64-6.45,3.2-9.67,4.79v1.27c0.3,0.78,0.66,1.53,0.89,2.33c0.64,2.12,2.83,3.13,4.87,2.23c0.36-0.15,0.75-0.27,1.37-0.49
					c-1,3.46-2.05,6.61-2.8,9.83c-0.86,3.7-2.17,7.49-2,11.18c0.32,6.76,5.4,11.7,12.78,9.85c5.24-1.31,10.41-2.88,15.55-4.55
					c0.94-0.31,1.84-1.52,2.21-2.53c0.2-0.56-0.57-1.75-1.22-2.27c-0.79-0.62-1.87-1.02-2.89-1.18c-3.74-0.56-7.38,0.1-10.94,1.26
					c-2.27,0.73-4.53,1.49-6.81,2.2c-0.72,0.23-1.49,0.3-2.56,0.5c0.63-3.31,1.2-6.29,1.74-9.1c6.04-1.23,11.76-2.41,17.38-3.55
					c0.24-0.55,0.3-1.11,0.59-1.27c1.7-0.99,0.72-2.02-0.06-2.78c-0.68-0.67-1.66-1.34-2.57-1.43c-2.41-0.23-4.86-0.28-7.28-0.15
					c-1.81,0.1-3.59,0.58-5.36,0.9c0.75-3.04,1.54-5.95,2.17-8.89c0.22-1.03,0.68-1.46,1.63-1.8c6-2.13,12.24-2.72,18.51-3.13
					c0.55,1.34,1.26,1.8,2.17,1.47C468.07,15.24,468.87,13.29,467.96,11.63z M642.86,11.68c-1.04-1.98-2.48-3.54-4.77-4.14
					c-3.55-0.92-7.13-0.71-10.69-0.15c-2.6,0.4-5.22,0.88-7.74,1.63c-2.77,0.82-5.44,1.93-8.13,3.01c-1.75,0.71-3.43,1.57-5.33,2.45
					c0.08-3.11-0.9-5.77-2.65-8.09c-2.37-3.14-5.39-5.6-9.32-6.18c-5.03-0.74-9.76,0.73-14.27,2.91c-0.48,0.24-1.14,0.08-1.72,0.11
					c-1.88,0.08-3.83-0.1-5.6,0.39c-0.65,0.18-0.88,1.95-1.25,3c-0.24,0.65-0.32,1.35-0.58,1.98c-0.19,0.47-0.48,0.93-0.83,1.3
					c-1.86,1.94-3.8,3.8-5.58,5.82c-0.46,0.54-0.73,1.64-0.51,2.27c0.4,1.11,1.07,2.25,1.95,3.01c0.67,0.57,1.9,0.83,2.77,0.66
					c0.51-0.1,0.83-1.3,1.19-2.01c0.24-0.48,0.44-0.98,0.65-1.47c0.15,0.04,0.29,0.09,0.45,0.13c-1.51,7.39-3.01,14.78-4.42,21.7
					c-1.35,0.27-2.34,0.45-3.67,0.72c0.53,0.75,0.82,1.1,1.02,1.49c0.55,1.05,1.27,2.08,1.52,3.2c0.17,0.8-0.42,1.74-0.5,2.63
					c-0.33,3.9-1.33,7.73-0.85,11.74c0.55,4.64,2.73,5.09,6.11,5.51c1.47,0.18,2.55-1.44,2.1-2.84c-0.23-0.7-0.53-1.46-0.45-2.15
					c0.48-4.2,1.02-8.39,1.64-12.58c0.05-0.37,0.67-0.86,1.09-0.96c3.97-0.88,7.84-1.88,11.32-4.22c4.76-3.2,9.46-6.45,13.15-10.92
					c2.63-3.2,4.87-6.62,6.42-10.67c1.7,1.51,3.44,1.82,5.51,0.63c-0.15,0.54-0.32,1.09-0.46,1.64c-1.35,5.05-2.68,10.12-4.06,15.17
					c-1.17,4.23,0.17,7.85,2.68,11.14c2.1,2.74,6.6,3.68,10.53,2.51c4.77-1.44,9.53-2.86,14.34-4.15c1.65-0.45,2.7-1.48,2.87-2.91
					c0.18-1.52-1.17-2.56-2.53-2.85c-1.88-0.41-3.86-0.54-5.79-0.52c-4.06,0.02-7.74,1.69-11.53,2.87c-1.39,0.43-2.79,0.79-4.7,1.33
					c0.64-3.24,1.18-6.02,1.78-8.79c0.06-0.26,0.44-0.58,0.72-0.64c5.61-1.17,11.23-2.3,16.69-3.4c0.26-0.62,0.31-1.18,0.58-1.33
					c1.68-0.92,0.74-1.92,0.01-2.65c-0.68-0.67-1.64-1.38-2.54-1.48c-2.41-0.25-4.86-0.31-7.28-0.19c-1.82,0.09-3.61,0.58-5.45,0.89
					c0-0.3-0.03-0.46,0-0.61c0.75-2.97,1.47-5.95,2.3-8.9c0.12-0.43,0.72-0.87,1.19-1.04c6.07-2.22,12.42-2.89,19-3.25
					c-0.07,1.33,0.77,1.74,1.82,1.48C643.01,15.42,643.82,13.49,642.86,11.68z M599.82,10.8c-0.18,4.13-1.91,7.65-4.27,10.93
					c-3.42,4.74-7.66,8.67-12.41,12.03c-2.42,1.71-5,3.17-7.82,4.94c1.48-8.1,2.87-15.63,4.23-23.16c0.23-1.25,0.45-2.51,0.48-3.78
					c0.02-1.39,0.58-2.2,1.82-2.82c4.27-2.14,8.74-3.11,13.51-2.51c0.68,0.09,1.35,0.28,1.99,0.54
					C599.44,7.79,599.92,8.57,599.82,10.8z M562.48,8.73c0.2-2.64,0.06-5.13-2.67-6.8c-2.47-1.51-5.4-1.53-7.43,0.49
					c-1.37,1.36-2.64,2.83-3.85,4.32c-0.84,1.04-1.52,2.19-2.22,3.32c-0.33,0.54-0.55,1.16-1.01,2.16c-0.8-2.77-2.85-2.49-4.44-2.66
					c-0.55-0.06-1.58,1.19-1.82,2.01c-1.19,3.95-2.25,7.95-3.23,11.96c-0.81,3.33-1.39,6.71-2.18,10.04
					c-0.12,0.49-0.9,1.19-1.35,1.18c-1.26-0.06-1.31,0.52-1.07,1.41c0.13,0.49,0.24,1.04,0.54,1.41c0.91,1.09,0.85,2.29,0.68,3.59
					c-0.27,1.99-0.41,4-0.54,6c-0.03,0.44,0.05,1.07,0.33,1.31c1.52,1.27,3.15,2.32,5.26,2.3c0.88-0.02,1.31-0.31,1.5-1.21
					c0.67-2.99,1.4-5.98,2.17-8.95c0.13-0.49,0.51-1.15,0.92-1.3c2.82-0.98,5.69-1.85,8.74-2.81c0,0.63-0.01,1.03,0,1.43
					c0.13,5.97,0.15,11.95,0.45,17.92c0.15,2.72,3.39,4.79,6.14,4.33c1.5-0.25,2.19-1.22,1.93-2.32c-0.4-1.7-0.88-3.46-0.83-5.17
					c0.16-4.57,0.58-9.14,0.92-13.72c0.11-1.52,0.23-3.07,0.49-4.57c0.12-0.65,0.52-1.33,0.99-1.8c1.16-1.14,1.23-2.02,0.19-3.26
					c-0.29-0.35-0.51-0.91-0.48-1.35c0.15-1.91,0.42-3.8,0.61-5.69C561.67,17.78,562.14,13.26,562.48,8.73z M551.84,25.01
					c-0.2,1.44-0.25,2.92-0.48,4.36c-0.05,0.34-0.46,0.79-0.8,0.89c-2.34,0.69-4.7,1.31-7.31,2.02c2.84-7.53,5.34-14.99,10.61-21.6
					C553.15,15.72,552.48,20.36,551.84,25.01z M487.2,18.86c0.63,1.95,2,3.56,4,4.27c0.67,0.24,2.08-0.02,2.37-0.52
					c1.57-2.61,3.04-5.3,4.23-8.1c0.89-2.13-0.54-4.85-2.71-5.73c-1.76-0.71-3.53-1.61-5.38-1.86c-1.57-0.22-3.45-0.02-4.83,0.69
					c-2.82,1.48-5.45,3.35-8.05,5.21c-1.78,1.27-3.44,2.73-5.06,4.2c-1.35,1.22-2.56,2.58-3.85,3.88c-1.14,1.14-1.81,2.53-1.53,4.12
					c0.64,3.67,4.82,7.57,8.52,8.09c1.05,0.15,2.12,0.21,3.15,0.41c3,0.59,6,1.22,8.99,1.87c1.4,0.3,1.7,1.31,1.02,2.39
					c-0.84,1.34-1.74,2.72-2.91,3.73c-2.18,1.88-4.35,3.87-7.28,4.62c-1.57,0.4-3.07,1.11-4.66,1.4c-1.56,0.28-3.16-1.05-3.07-2.51
					c0.15-2.3-0.06-4.48-1.44-6.76c-0.67,0.79-1.46,1.4-1.83,2.19c-1.2,2.6-3.53,5.13-0.9,8.16c0.75,0.87,1.62,1.65,2.26,2.59
					c2.18,3.2,5.39,4.68,9,4.14c6.96-1.05,12.78-4.55,17.13-10.05c2.57-3.25,2-8.43-0.75-11.01c-3.64-3.43-8.05-5.45-12.9-6.5
					c-2.03-0.45-4.1-0.71-6.14-1.05c-0.08-0.15-0.15-0.32-0.24-0.47c4.37-3.65,8.74-7.29,13.1-10.94c0.11,0.16,0.23,0.32,0.34,0.49
					C487.57,16.81,486.93,17.99,487.2,18.86z M529.81,27.14c-0.06-0.58-0.99-1.28-1.65-1.5c-0.32-0.1-1.14,0.75-1.42,1.31
					c-0.94,1.94-1.57,4.04-2.63,5.9c-2.84,5-5.37,10.19-9.12,14.66c-1.69,2-3.3,3.93-5.52,5.3c-4.53-5.56-0.84-33.1,6.69-41.77
					c0.28,1.27,0.63,2.26,0.72,3.29c0.28,2.97,1.65,5.09,4.43,6.29c2.08,0.88,4.23-0.28,4.03-2.4c-0.28-3.03-0.72-6.07-1.36-9.05
					c-0.53-2.47-4.43-4.68-7-4.27C515,5.22,513,5.48,511.02,5.83c-0.54,0.1-1.27,0.32-1.51,0.73c-1.3,2.17-2.76,4.3-3.63,6.64
					c-1.46,3.91-2.63,7.94-3.73,11.97c-1.27,4.67-2.72,9.34-2.68,14.26c0.02,3.24-0.04,6.51,0.32,9.72
					c0.69,6.08,3.47,8.03,9.85,8.68c5.09,0.52,8.6-2.89,11.61-6.43c3.24-3.8,5.37-8.29,7.44-12.81
					C530.39,34.86,530.25,31.02,529.81,27.14z"/>
				<path class="st2" d="M428.93,15.99c3.23-1.59,6.47-3.15,9.67-4.79c4.5-2.3,9.46-3.09,14.3-3.97c3.24-0.59,6.74-0.05,10.09,0.3
					c2.39,0.25,3.85,2.1,4.96,4.1c0.92,1.67,0.12,3.61-1.65,4.25c-0.92,0.33-1.63-0.14-2.17-1.47c-6.27,0.41-12.51,1-18.51,3.13
					c-0.95,0.34-1.41,0.77-1.63,1.8c-0.62,2.94-1.41,5.85-2.16,8.88c1.77-0.31,3.55-0.8,5.36-0.9c2.42-0.13,4.87-0.08,7.28,0.15
					c0.91,0.09,1.89,0.76,2.57,1.43c0.78,0.76,1.76,1.79,0.06,2.78c-0.29,0.17-0.35,0.73-0.59,1.27
					c-5.62,1.15-11.34,2.32-17.38,3.56c-0.54,2.81-1.11,5.79-1.74,9.1c1.08-0.2,1.84-0.28,2.57-0.5c2.28-0.7,4.54-1.47,6.81-2.2
					c3.56-1.16,7.2-1.82,10.94-1.25c1.01,0.15,2.1,0.56,2.88,1.18c0.65,0.51,1.42,1.71,1.22,2.27c-0.36,1-1.26,2.22-2.21,2.53
					c-5.13,1.67-10.31,3.24-15.54,4.55c-7.38,1.86-12.47-3.08-12.79-9.85c-0.17-3.69,1.14-7.48,2-11.17c0.75-3.23,1.8-6.38,2.8-9.83
					c-0.63,0.22-1.01,0.33-1.37,0.49c-2.05,0.9-4.23-0.12-4.88-2.23c-0.24-0.79-0.59-1.55-0.9-2.33
					C428.93,16.83,428.93,16.41,428.93,15.99z"/>
				<path class="st2" d="M642.86,11.68c-1.04-1.98-2.48-3.54-4.77-4.14c-3.55-0.92-7.13-0.71-10.69-0.15
					c-2.6,0.4-5.22,0.88-7.74,1.63c-2.77,0.82-5.44,1.93-8.13,3.01c-1.75,0.71-3.43,1.57-5.33,2.45c0.08-3.11-0.9-5.77-2.65-8.09
					c-2.37-3.14-5.39-5.6-9.32-6.18c-5.03-0.74-9.76,0.73-14.27,2.91c-0.48,0.24-1.14,0.08-1.72,0.11c-1.88,0.08-3.83-0.1-5.6,0.39
					c-0.65,0.18-0.88,1.95-1.25,3c-0.24,0.65-0.32,1.35-0.58,1.98c-0.19,0.47-0.48,0.93-0.83,1.3c-1.86,1.94-3.8,3.8-5.58,5.82
					c-0.46,0.54-0.73,1.64-0.51,2.27c0.4,1.11,1.07,2.25,1.95,3.01c0.67,0.57,1.9,0.83,2.77,0.66c0.51-0.1,0.83-1.3,1.19-2.01
					c0.24-0.48,0.44-0.98,0.65-1.47c0.15,0.04,0.29,0.09,0.45,0.13c-1.51,7.39-3.01,14.78-4.42,21.7c-1.35,0.27-2.34,0.45-3.67,0.72
					c0.53,0.75,0.82,1.1,1.02,1.49c0.55,1.05,1.27,2.08,1.52,3.2c0.17,0.8-0.42,1.74-0.5,2.63c-0.33,3.9-1.33,7.73-0.85,11.74
					c0.55,4.64,2.73,5.09,6.11,5.51c1.47,0.18,2.55-1.44,2.1-2.84c-0.23-0.7-0.53-1.46-0.45-2.15c0.48-4.2,1.02-8.39,1.64-12.58
					c0.05-0.37,0.67-0.86,1.09-0.96c3.97-0.88,7.84-1.88,11.32-4.22c4.76-3.2,9.46-6.45,13.15-10.92c2.63-3.2,4.87-6.62,6.42-10.67
					c1.7,1.51,3.44,1.82,5.51,0.63c-0.15,0.54-0.32,1.09-0.46,1.64c-1.35,5.05-2.68,10.12-4.06,15.17
					c-1.17,4.23,0.17,7.85,2.68,11.14c2.1,2.74,6.6,3.68,10.53,2.51c4.77-1.44,9.53-2.86,14.34-4.15c1.65-0.45,2.7-1.48,2.87-2.91
					c0.18-1.52-1.17-2.56-2.53-2.85c-1.88-0.41-3.86-0.54-5.79-0.52c-4.06,0.02-7.74,1.69-11.53,2.87c-1.39,0.43-2.79,0.79-4.7,1.33
					c0.64-3.24,1.18-6.02,1.78-8.79c0.06-0.26,0.44-0.58,0.72-0.64c5.61-1.17,11.23-2.3,16.69-3.4c0.26-0.62,0.31-1.18,0.58-1.33
					c1.68-0.92,0.74-1.92,0.01-2.65c-0.68-0.67-1.64-1.38-2.54-1.48c-2.41-0.25-4.86-0.31-7.28-0.19c-1.82,0.09-3.61,0.58-5.45,0.89
					c0-0.3-0.03-0.46,0-0.61c0.75-2.97,1.47-5.95,2.3-8.9c0.12-0.43,0.72-0.87,1.19-1.04c6.07-2.22,12.42-2.89,19-3.25
					c-0.07,1.33,0.77,1.74,1.82,1.48C643.01,15.42,643.82,13.49,642.86,11.68z M599.82,10.8c-0.18,4.13-1.91,7.65-4.27,10.93
					c-3.42,4.74-7.66,8.67-12.41,12.03c-2.42,1.71-5,3.17-7.82,4.94c1.48-8.1,2.87-15.63,4.23-23.16c0.23-1.25,0.45-2.51,0.48-3.78
					c0.02-1.39,0.58-2.2,1.82-2.82c4.27-2.14,8.74-3.11,13.51-2.51c0.68,0.09,1.35,0.28,1.99,0.54
					C599.44,7.79,599.92,8.57,599.82,10.8z"/>
				<path class="st2" d="M562.48,8.73c0.2-2.64,0.06-5.13-2.67-6.8c-2.47-1.51-5.4-1.53-7.43,0.49c-1.37,1.36-2.64,2.83-3.85,4.32
					c-0.84,1.04-1.52,2.19-2.22,3.32c-0.33,0.54-0.55,1.16-1.01,2.16c-0.8-2.77-2.85-2.49-4.44-2.66c-0.55-0.06-1.58,1.19-1.82,2.01
					c-1.19,3.95-2.25,7.95-3.23,11.96c-0.81,3.33-1.39,6.71-2.18,10.04c-0.12,0.49-0.9,1.19-1.35,1.18
					c-1.26-0.06-1.31,0.52-1.07,1.41c0.13,0.49,0.24,1.04,0.54,1.41c0.91,1.09,0.85,2.29,0.68,3.59c-0.27,1.99-0.41,4-0.54,6
					c-0.03,0.44,0.05,1.07,0.33,1.31c1.52,1.27,3.15,2.32,5.26,2.3c0.88-0.02,1.31-0.31,1.5-1.21c0.67-2.99,1.4-5.98,2.17-8.95
					c0.13-0.49,0.51-1.15,0.92-1.3c2.82-0.98,5.69-1.85,8.74-2.81c0,0.63-0.01,1.03,0,1.43c0.13,5.97,0.15,11.95,0.45,17.92
					c0.15,2.72,3.39,4.79,6.14,4.33c1.5-0.25,2.19-1.22,1.93-2.32c-0.4-1.7-0.88-3.46-0.83-5.17c0.16-4.57,0.58-9.14,0.92-13.72
					c0.11-1.52,0.23-3.07,0.49-4.57c0.12-0.65,0.52-1.33,0.99-1.8c1.16-1.14,1.23-2.02,0.19-3.26c-0.29-0.35-0.51-0.91-0.48-1.35
					c0.15-1.91,0.42-3.8,0.61-5.69C561.67,17.78,562.14,13.26,562.48,8.73z M551.84,25.01c-0.2,1.44-0.25,2.92-0.48,4.36
					c-0.05,0.34-0.46,0.79-0.8,0.89c-2.34,0.69-4.7,1.31-7.31,2.02c2.84-7.53,5.34-14.99,10.61-21.6
					C553.15,15.72,552.48,20.36,551.84,25.01z"/>
				<path class="st2" d="M487.46,15.3c-4.37,3.64-8.73,7.29-13.1,10.93c0.08,0.16,0.15,0.32,0.23,0.47
					c2.05,0.35,4.11,0.61,6.14,1.05c4.85,1.06,9.26,3.08,12.9,6.51c2.74,2.58,3.32,7.76,0.75,11.01
					c-4.35,5.5-10.17,9.01-17.13,10.06c-3.61,0.54-6.82-0.93-9-4.14c-0.64-0.94-1.51-1.72-2.26-2.59c-2.63-3.03-0.3-5.56,0.91-8.16
					c0.37-0.8,1.15-1.4,1.83-2.19c1.38,2.28,1.58,4.45,1.43,6.75c-0.1,1.46,1.51,2.8,3.07,2.52c1.58-0.29,3.08-0.99,4.65-1.4
					c2.94-0.75,5.1-2.74,7.28-4.62c1.18-1.02,2.08-2.4,2.91-3.74c0.67-1.08,0.37-2.09-1.02-2.39c-2.99-0.66-5.99-1.28-8.99-1.87
					c-1.04-0.2-2.11-0.26-3.16-0.41c-3.7-0.53-7.87-4.43-8.51-8.1c-0.28-1.58,0.4-2.97,1.53-4.12c1.28-1.29,2.5-2.66,3.85-3.88
					c1.62-1.47,3.28-2.93,5.06-4.2c2.61-1.85,5.23-3.73,8.06-5.2c1.37-0.72,3.26-0.91,4.83-0.69c1.84,0.25,3.62,1.14,5.38,1.86
					c2.17,0.88,3.6,3.6,2.7,5.73c-1.18,2.8-2.66,5.49-4.22,8.1c-0.3,0.49-1.7,0.76-2.37,0.52c-2-0.7-3.37-2.32-3.99-4.26
					c-0.28-0.87,0.36-2.04,0.59-3.08C487.68,15.62,487.57,15.46,487.46,15.3z"/>
				<path class="st2" d="M516.15,11.04c-7.53,8.67-11.22,36.22-6.69,41.77c2.23-1.37,3.84-3.3,5.52-5.3
					c3.76-4.48,6.28-9.66,9.13-14.66c1.06-1.86,1.69-3.96,2.63-5.9c0.28-0.57,1.1-1.41,1.42-1.31c0.67,0.21,1.59,0.91,1.66,1.5
					c0.44,3.88,0.58,7.73-1.13,11.47c-2.07,4.52-4.21,9.01-7.44,12.8c-3.02,3.55-6.53,6.95-11.61,6.43
					c-6.38-0.65-9.17-2.6-9.86-8.68c-0.36-3.22-0.3-6.48-0.32-9.73c-0.03-4.92,1.42-9.58,2.69-14.26c1.1-4.03,2.27-8.06,3.73-11.97
					c0.88-2.34,2.33-4.48,3.63-6.64c0.24-0.41,0.97-0.64,1.51-0.73C513,5.47,515,5.22,516.98,4.9c2.56-0.42,6.47,1.79,7,4.26
					c0.64,2.98,1.07,6.02,1.36,9.05c0.2,2.11-1.96,3.29-4.03,2.4c-2.78-1.19-4.15-3.32-4.43-6.28
					C516.78,13.31,516.44,12.31,516.15,11.04z"/>
			</g>
		</g>
		<g>
			<path class="st2" d="M455.67,80.8h-3.46v-2.3h9.41v2.3h-3.46v9.05h-2.5V80.8H455.67z"/>
			<path class="st2" d="M466.78,78.5h2.5v4.49h4.61V78.5h2.5v11.36h-2.5V85.3h-4.61v4.56h-2.5V78.5z"/>
			<path class="st2" d="M482.35,78.5h8.57v2.22h-6.08v2.3h5.35v2.22h-5.35v2.38h6.17v2.22h-8.65V78.5H482.35z"/>
			<path class="st2" d="M504.58,78.5h8.57v2.22h-6.08v2.3h5.35v2.22h-5.35v2.38h6.17v2.22h-8.65V78.5H504.58z"/>
			<path class="st2" d="M517.72,78.5h2.76l2.97,8l2.97-8h2.69l-4.59,11.44h-2.21L517.72,78.5z"/>
			<path class="st2" d="M534.1,78.5h8.57v2.22h-6.08v2.3h5.35v2.22h-5.35v2.38h6.16v2.22h-8.65L534.1,78.5L534.1,78.5z"/>
			<path class="st2" d="M548.21,78.5h5.19c1.44,0,2.56,0.41,3.31,1.15c0.63,0.63,0.97,1.53,0.97,2.6v0.03
				c0,1.83-0.99,2.99-2.43,3.52l2.77,4.06h-2.92l-2.43-3.63h-1.96v3.63h-2.5V78.5z M553.24,84.02c1.22,0,1.91-0.65,1.91-1.61v-0.03
				c0-1.07-0.75-1.62-1.96-1.62h-2.48v3.26H553.24z"/>
			<path class="st2" d="M565.97,85.38l-4.36-6.88h2.92l2.71,4.56L570,78.5h2.84l-4.36,6.83v4.53h-2.5v-4.48H565.97z"/>
			<path class="st2" d="M577.64,78.5h4.43c3.57,0,6.04,2.45,6.04,5.65v0.03c0,3.2-2.47,5.68-6.04,5.68h-4.43V78.5z M580.14,80.75
				v6.85h1.93c2.04,0,3.42-1.38,3.42-3.39v-0.03c0-2.01-1.38-3.42-3.42-3.42h-1.93V80.75z"/>
			<path class="st2" d="M596.65,78.42h2.3l4.87,11.44h-2.61l-1.04-2.55h-4.8l-1.04,2.55h-2.55L596.65,78.42z M599.28,85.1
				l-1.51-3.68l-1.51,3.68H599.28z"/>
			<path class="st2" d="M610.23,85.38l-4.36-6.88h2.92l2.71,4.56l2.76-4.56h2.84l-4.37,6.83v4.53h-2.5V85.38z"/>
		</g>
	</g>
</g>
</svg>
